<svg width="92" height="106" viewBox="0 0 92 106" fill="none" xmlns="http://www.w3.org/2000/svg">
<rect x="1.25" y="1.25" width="89.5" height="103.5" rx="6.75" stroke="#023AE0" stroke-width="2.5" stroke-dasharray="6 6"/>
<g opacity="0.8">
<rect x="44.498" y="19" width="3.90054" height="36" rx="1.95027" fill="#023AE0"/>
<rect x="64" y="34.6035" width="3.90054" height="36" rx="1.95027" transform="rotate(90 64 34.6035)" fill="#023AE0"/>
</g>
<path d="M22.4336 84L21.5957 81.6211H18.3203L17.4824 84H16L19.1875 75.3984H20.7461L23.9277 84H22.4336ZM21.2324 80.4141L20.418 78.0703C20.3867 77.9688 20.3418 77.8262 20.2832 77.6426C20.2246 77.4551 20.166 77.2656 20.1074 77.0742C20.0488 76.8789 20 76.7148 19.9609 76.582C19.9219 76.7422 19.873 76.9219 19.8145 77.1211C19.7598 77.3164 19.7051 77.5 19.6504 77.6719C19.5996 77.8438 19.5605 77.9766 19.5332 78.0703L18.7129 80.4141H21.2324ZM27.0977 84.1172C26.3242 84.1172 25.7031 83.8359 25.2344 83.2734C24.7695 82.707 24.5371 81.873 24.5371 80.7715C24.5371 79.6582 24.7734 78.8164 25.2461 78.2461C25.7227 77.6758 26.3496 77.3906 27.127 77.3906C27.4551 77.3906 27.7422 77.4355 27.9883 77.5254C28.2344 77.6113 28.4453 77.7285 28.6211 77.877C28.8008 78.0254 28.9531 78.1914 29.0781 78.375H29.1426C29.123 78.2539 29.0996 78.0801 29.0723 77.8535C29.0488 77.623 29.0371 77.4102 29.0371 77.2148V74.8828H30.4199V84H29.3418L29.0957 83.1152H29.0371C28.9199 83.3027 28.7715 83.4727 28.5918 83.625C28.416 83.7734 28.2051 83.8926 27.959 83.9824C27.7168 84.0723 27.4297 84.1172 27.0977 84.1172ZM27.4844 82.998C28.0742 82.998 28.4902 82.8281 28.7324 82.4883C28.9746 82.1484 29.0996 81.6387 29.1074 80.959V80.7773C29.1074 80.0508 28.9902 79.4941 28.7559 79.1074C28.5215 78.7168 28.0938 78.5215 27.4727 78.5215C26.9766 78.5215 26.5977 78.7227 26.3359 79.125C26.0781 79.5234 25.9492 80.0801 25.9492 80.7949C25.9492 81.5098 26.0781 82.0566 26.3359 82.4355C26.5977 82.8105 26.9805 82.998 27.4844 82.998ZM34.5742 84.1172C33.8008 84.1172 33.1797 83.8359 32.7109 83.2734C32.2461 82.707 32.0137 81.873 32.0137 80.7715C32.0137 79.6582 32.25 78.8164 32.7227 78.2461C33.1992 77.6758 33.8262 77.3906 34.6035 77.3906C34.9316 77.3906 35.2188 77.4355 35.4648 77.5254C35.7109 77.6113 35.9219 77.7285 36.0977 77.877C36.2773 78.0254 36.4297 78.1914 36.5547 78.375H36.6191C36.5996 78.2539 36.5762 78.0801 36.5488 77.8535C36.5254 77.623 36.5137 77.4102 36.5137 77.2148V74.8828H37.8965V84H36.8184L36.5723 83.1152H36.5137C36.3965 83.3027 36.248 83.4727 36.0684 83.625C35.8926 83.7734 35.6816 83.8926 35.4355 83.9824C35.1934 84.0723 34.9062 84.1172 34.5742 84.1172ZM34.9609 82.998C35.5508 82.998 35.9668 82.8281 36.209 82.4883C36.4512 82.1484 36.5762 81.6387 36.584 80.959V80.7773C36.584 80.0508 36.4668 79.4941 36.2324 79.1074C35.998 78.7168 35.5703 78.5215 34.9492 78.5215C34.4531 78.5215 34.0742 78.7227 33.8125 79.125C33.5547 79.5234 33.4258 80.0801 33.4258 80.7949C33.4258 81.5098 33.5547 82.0566 33.8125 82.4355C34.0742 82.8105 34.457 82.998 34.9609 82.998ZM46.3164 77.3906C47.0859 77.3906 47.7031 77.6719 48.168 78.2344C48.6367 78.7969 48.8711 79.6328 48.8711 80.7422C48.8711 81.4766 48.7617 82.0957 48.543 82.5996C48.3281 83.0996 48.0254 83.4785 47.6348 83.7363C47.248 83.9902 46.7969 84.1172 46.2812 84.1172C45.9531 84.1172 45.668 84.0742 45.4258 83.9883C45.1836 83.9023 44.9766 83.791 44.8047 83.6543C44.6328 83.5137 44.4883 83.3613 44.3711 83.1973H44.2891C44.3086 83.3535 44.3262 83.5273 44.3418 83.7188C44.3613 83.9062 44.3711 84.0781 44.3711 84.2344V86.877H42.9883V77.5137H44.1133L44.3066 78.4102H44.3711C44.4922 78.2266 44.6387 78.0566 44.8105 77.9004C44.9863 77.7441 45.1973 77.6211 45.4434 77.5312C45.6934 77.4375 45.9844 77.3906 46.3164 77.3906ZM45.9473 78.5156C45.5684 78.5156 45.2637 78.5918 45.0332 78.7441C44.8066 78.8926 44.6406 79.1172 44.5352 79.418C44.4336 79.7188 44.3789 80.0957 44.3711 80.5488V80.7422C44.3711 81.2227 44.4199 81.6309 44.5176 81.9668C44.6191 82.2988 44.7852 82.5527 45.0156 82.7285C45.25 82.9004 45.5664 82.9863 45.9648 82.9863C46.3008 82.9863 46.5781 82.8945 46.7969 82.7109C47.0195 82.5273 47.1855 82.2656 47.2949 81.9258C47.4043 81.5859 47.459 81.1855 47.459 80.7246C47.459 80.0254 47.334 79.4824 47.084 79.0957C46.8379 78.709 46.459 78.5156 45.9473 78.5156ZM51.8418 74.8828V77.1738C51.8418 77.4121 51.834 77.6445 51.8184 77.8711C51.8066 78.0977 51.793 78.2734 51.7773 78.3984H51.8535C51.9902 78.1719 52.1582 77.9863 52.3574 77.8418C52.5566 77.6934 52.7793 77.582 53.0254 77.5078C53.2754 77.4336 53.541 77.3965 53.8223 77.3965C54.3184 77.3965 54.7402 77.4805 55.0879 77.6484C55.4355 77.8125 55.7012 78.0684 55.8848 78.416C56.0723 78.7637 56.166 79.2148 56.166 79.7695V84H54.7891V80.0273C54.7891 79.5234 54.6855 79.1465 54.4785 78.8965C54.2715 78.6426 53.9512 78.5156 53.5176 78.5156C53.0996 78.5156 52.7676 78.6035 52.5215 78.7793C52.2793 78.9512 52.1055 79.207 52 79.5469C51.8945 79.8828 51.8418 80.293 51.8418 80.7773V84H50.4648V74.8828H51.8418ZM63.8359 80.7422C63.8359 81.2812 63.7656 81.7598 63.625 82.1777C63.4844 82.5957 63.2793 82.9492 63.0098 83.2383C62.7402 83.5234 62.416 83.7422 62.0371 83.8945C61.6582 84.043 61.2305 84.1172 60.7539 84.1172C60.3086 84.1172 59.9004 84.043 59.5293 83.8945C59.1582 83.7422 58.8359 83.5234 58.5625 83.2383C58.293 82.9492 58.084 82.5957 57.9355 82.1777C57.7871 81.7598 57.7129 81.2812 57.7129 80.7422C57.7129 80.0273 57.8359 79.4219 58.082 78.9258C58.332 78.4258 58.6875 78.0449 59.1484 77.7832C59.6094 77.5215 60.1582 77.3906 60.7949 77.3906C61.3926 77.3906 61.9199 77.5215 62.377 77.7832C62.834 78.0449 63.1914 78.4258 63.4492 78.9258C63.707 79.4258 63.8359 80.0312 63.8359 80.7422ZM59.1309 80.7422C59.1309 81.2148 59.1875 81.6191 59.3008 81.9551C59.418 82.291 59.5977 82.5488 59.8398 82.7285C60.082 82.9043 60.3945 82.9922 60.7773 82.9922C61.1602 82.9922 61.4727 82.9043 61.7148 82.7285C61.957 82.5488 62.1348 82.291 62.248 81.9551C62.3613 81.6191 62.418 81.2148 62.418 80.7422C62.418 80.2695 62.3613 79.8691 62.248 79.541C62.1348 79.209 61.957 78.957 61.7148 78.7852C61.4727 78.6094 61.1582 78.5215 60.7715 78.5215C60.2012 78.5215 59.7852 78.7129 59.5234 79.0957C59.2617 79.4785 59.1309 80.0273 59.1309 80.7422ZM67.832 83.0039C68.0117 83.0039 68.1895 82.9883 68.3652 82.957C68.541 82.9219 68.7012 82.8809 68.8457 82.834V83.877C68.6934 83.9434 68.4961 84 68.2539 84.0469C68.0117 84.0938 67.7598 84.1172 67.498 84.1172C67.1309 84.1172 66.8008 84.0566 66.5078 83.9355C66.2148 83.8105 65.9824 83.5977 65.8105 83.2969C65.6387 82.9961 65.5527 82.5801 65.5527 82.0488V78.5625H64.668V77.9473L65.6172 77.4609L66.0684 76.0723H66.9355V77.5137H68.793V78.5625H66.9355V82.0312C66.9355 82.3594 67.0176 82.6035 67.1816 82.7637C67.3457 82.9238 67.5625 83.0039 67.832 83.0039ZM75.9062 80.7422C75.9062 81.2812 75.8359 81.7598 75.6953 82.1777C75.5547 82.5957 75.3496 82.9492 75.0801 83.2383C74.8105 83.5234 74.4863 83.7422 74.1074 83.8945C73.7285 84.043 73.3008 84.1172 72.8242 84.1172C72.3789 84.1172 71.9707 84.043 71.5996 83.8945C71.2285 83.7422 70.9062 83.5234 70.6328 83.2383C70.3633 82.9492 70.1543 82.5957 70.0059 82.1777C69.8574 81.7598 69.7832 81.2812 69.7832 80.7422C69.7832 80.0273 69.9062 79.4219 70.1523 78.9258C70.4023 78.4258 70.7578 78.0449 71.2188 77.7832C71.6797 77.5215 72.2285 77.3906 72.8652 77.3906C73.4629 77.3906 73.9902 77.5215 74.4473 77.7832C74.9043 78.0449 75.2617 78.4258 75.5195 78.9258C75.7773 79.4258 75.9062 80.0312 75.9062 80.7422ZM71.2012 80.7422C71.2012 81.2148 71.2578 81.6191 71.3711 81.9551C71.4883 82.291 71.668 82.5488 71.9102 82.7285C72.1523 82.9043 72.4648 82.9922 72.8477 82.9922C73.2305 82.9922 73.543 82.9043 73.7852 82.7285C74.0273 82.5488 74.2051 82.291 74.3184 81.9551C74.4316 81.6191 74.4883 81.2148 74.4883 80.7422C74.4883 80.2695 74.4316 79.8691 74.3184 79.541C74.2051 79.209 74.0273 78.957 73.7852 78.7852C73.543 78.6094 73.2285 78.5215 72.8418 78.5215C72.2715 78.5215 71.8555 78.7129 71.5938 79.0957C71.332 79.4785 71.2012 80.0273 71.2012 80.7422Z" fill="#023AE0"/>
</svg>
