<svg width="40" height="40" viewBox="0 0 40 40" fill="none" xmlns="http://www.w3.org/2000/svg">
<path d="M18.5 12.5C18.5 11.6716 19.1716 11 20 11C20.8284 11 21.5 11.6716 21.5 12.5V27.5C21.5 28.3284 20.8284 29 20 29C19.1716 29 18.5 28.3284 18.5 27.5V12.5Z" fill="#023AE0"/>
<path d="M27.5 18.5C28.3284 18.5 29 19.1716 29 20C29 20.8284 28.3284 21.5 27.5 21.5L12.5 21.5C11.6716 21.5 11 20.8284 11 20C11 19.1716 11.6716 18.5 12.5 18.5L27.5 18.5Z" fill="#023AE0"/>
<rect x="1" y="1" width="38" height="38" rx="7" stroke="#023AE0" stroke-width="2" stroke-dasharray="6 6"/>
</svg>
