<svg width="38" height="40" viewBox="0 0 38 40" fill="none" xmlns="http://www.w3.org/2000/svg">
<path d="M6.74426 22.1785C6.8069 22.1111 6.88928 22.077 6.97166 22.077C7.05403 22.077 7.13641 22.1107 7.19905 22.1785L9.65302 24.8185L9.65302 17.3462C9.65302 17.1551 9.79717 17 9.97478 17C10.1524 17 10.2965 17.1551 10.2965 17.3462L10.2965 24.8181L12.7505 22.1781C12.8762 22.0428 13.08 22.0428 13.2057 22.1781C13.3314 22.3133 13.3314 22.5325 13.2057 22.6678L10.2026 25.8986C10.0769 26.0338 9.87309 26.0338 9.74739 25.8986L6.74426 22.6678C6.61856 22.5325 6.61856 22.3137 6.74426 22.1785Z" fill="#0F2978"/>
</svg>
