<svg width="40" height="40" viewBox="0 0 40 40" fill="none" xmlns="http://www.w3.org/2000/svg">
<path fill-rule="evenodd" clip-rule="evenodd" d="M0 8C0 3.58172 3.58172 0 8 0H32C36.4183 0 40 3.58172 40 8V32C40 36.4183 36.4183 40 32 40H8C3.58172 40 0 36.4183 0 32V8ZM13.3946 18.0077C13.388 18.4066 13.4242 18.7307 13.4929 18.969C13.5807 19.2374 13.6873 19.4986 13.8121 19.7507C13.8626 19.8378 13.8818 19.9243 13.8806 19.9999C13.8788 20.1076 13.8148 20.2144 13.6781 20.32L13.0167 20.7618C12.9222 20.825 12.8282 20.8557 12.745 20.8544C12.6413 20.8526 12.5384 20.797 12.4362 20.6982C12.2989 20.5398 12.1766 20.3681 12.071 20.1854C11.9702 20.0005 11.8698 19.7938 11.7598 19.5441C10.9336 20.5223 9.90809 21.0013 8.68336 20.981C7.81152 20.9665 7.12031 20.6961 6.62025 20.1703C6.12033 19.6443 5.87232 18.9501 5.88666 18.0878C5.90189 17.1715 6.22564 16.4329 6.86815 15.8829C7.51053 15.3328 8.35605 15.0665 9.42515 15.0843C9.77805 15.0902 10.1408 15.1285 10.5239 15.1888C10.9072 15.2491 11.3001 15.3419 11.7137 15.4458L11.7268 14.6589C11.7404 13.8396 11.5838 13.2656 11.2675 12.926C10.941 12.5863 10.3831 12.4152 9.5839 12.4019C9.22059 12.3959 8.84628 12.4329 8.46054 12.5236C8.07493 12.6141 7.69924 12.7265 7.33343 12.8714C7.16613 12.9441 7.04088 12.9851 6.96779 13.0055C6.89482 13.0259 6.84272 13.0357 6.80121 13.0351C6.65586 13.0326 6.58504 12.9236 6.58881 12.6972L6.59759 12.169C6.60045 11.9965 6.62342 11.8676 6.67647 11.793C6.72964 11.7183 6.82433 11.6445 6.97093 11.5715C7.33746 11.3835 7.77607 11.2289 8.28675 11.1081C8.79786 10.9764 9.33869 10.9208 9.90955 10.9302C11.1448 10.9508 12.043 11.2568 12.6146 11.8486C13.1758 12.4401 13.4518 13.3289 13.4321 14.5148L13.374 18.0073L13.3946 18.0077ZM9.15316 19.5762C9.49577 19.5819 9.84975 19.5231 10.2255 19.3999C10.6014 19.2768 10.9375 19.0451 11.223 18.7264C11.3926 18.5244 11.5209 18.3001 11.5874 18.0424C11.654 17.7847 11.7007 17.4727 11.7068 17.1062L11.7144 16.6535C11.4009 16.5687 11.0831 16.5022 10.7624 16.4544C10.4395 16.4063 10.114 16.3793 9.78783 16.3734C9.09232 16.3619 8.58146 16.4936 8.23413 16.7789C7.88667 17.0643 7.71382 17.4712 7.70486 18.0101C7.69644 18.5168 7.8147 18.8961 8.06987 19.1592C8.31457 19.4329 8.67573 19.5682 9.15316 19.5762ZM17.4688 20.8789C17.2819 20.8758 17.158 20.8415 17.0762 20.7646C16.9942 20.6986 16.924 20.5464 16.8652 20.3406L14.5645 11.9673C14.5057 11.7505 14.4769 11.6099 14.4782 11.5345C14.481 11.362 14.5657 11.2663 14.7318 11.269L15.749 11.2859C15.9462 11.2892 16.0807 11.3239 16.152 11.4005C16.234 11.4666 16.2938 11.6186 16.3526 11.8244L17.9778 18.9897L19.7157 11.8803C19.7712 11.6656 19.8358 11.5265 19.9198 11.4631C20.004 11.3999 20.1501 11.3592 20.3369 11.3623L21.1673 11.3761C21.3644 11.3794 21.4989 11.4139 21.5806 11.4907C21.6627 11.5568 21.7328 11.709 21.7709 11.9144L23.2909 19.1642L25.2065 11.9715C25.2723 11.757 25.3474 11.6181 25.4211 11.5546C25.5052 11.4914 25.6408 11.4505 25.8277 11.4536L26.793 11.4696C26.9591 11.4724 27.0511 11.5602 27.0481 11.7434C27.0473 11.7895 27.0389 11.8355 27.0293 11.8882L27.0244 11.9155C27.0129 11.9801 26.9908 12.066 26.9473 12.1839L24.3071 20.475C24.2414 20.6897 24.1664 20.8286 24.0822 20.8918C23.9981 20.9552 23.8624 20.996 23.6861 20.9931L22.7935 20.9783C22.5962 20.975 22.4618 20.9405 22.3799 20.8635C22.2981 20.7867 22.2279 20.6454 22.1899 20.4292L20.6965 13.4493L18.9827 20.3649C18.9273 20.5797 18.8626 20.7188 18.7784 20.7928C18.6941 20.867 18.5482 20.8969 18.3615 20.8938L17.4688 20.8789ZM30.802 21.3918C30.2622 21.3828 29.7236 21.3091 29.2068 21.1711C28.6899 21.0332 28.2875 20.8862 28.0203 20.7202C27.8558 20.6203 27.7433 20.5107 27.7035 20.4129C27.6647 20.3171 27.6452 20.214 27.6462 20.11L27.6554 19.5603C27.6591 19.3339 27.7439 19.2274 27.8997 19.23C27.9632 19.2313 28.0262 19.2433 28.086 19.2656C28.126 19.2802 28.1788 19.304 28.239 19.331L28.239 19.331C28.272 19.3459 28.3072 19.3617 28.3437 19.3776C28.7075 19.5511 29.0881 19.684 29.4791 19.7739C29.8843 19.8663 30.2974 19.9165 30.7122 19.9237C31.3661 19.9346 31.8768 19.8245 32.2336 19.5932C32.5904 19.3619 32.783 19.0202 32.7904 18.5781C32.7954 18.2764 32.7061 18.0268 32.5226 17.8188C32.3392 17.611 31.9893 17.4219 31.4837 17.2409L29.9866 16.7308C29.233 16.4703 28.6786 16.0944 28.3441 15.6036C28.0095 15.1236 27.8418 14.5925 27.8511 14.0319C27.8586 13.5792 27.9587 13.1818 28.1513 12.8399C28.3438 12.4982 28.598 12.2005 28.9133 11.9685C29.2288 11.7257 29.5848 11.5484 30.0021 11.4259C30.4194 11.3035 30.8562 11.2568 31.3129 11.2644C31.5413 11.2682 31.7799 11.283 32.0077 11.3191C32.246 11.3554 32.4632 11.4021 32.6805 11.4488C32.8871 11.5062 33.0835 11.5634 33.2693 11.6312C33.455 11.6989 33.5992 11.7661 33.702 11.8324C33.8459 11.9212 33.9482 12.0091 34.0089 12.1072C34.0698 12.1944 34.0989 12.3135 34.0964 12.4644L34.088 12.9711C34.0842 13.1974 33.9992 13.3147 33.8434 13.3121C33.7604 13.3107 33.6262 13.2652 33.4513 13.1761C32.8642 12.886 32.2022 12.7348 31.4653 12.7225C30.8736 12.7127 30.4049 12.802 30.0797 13.0015C29.7546 13.2009 29.5832 13.5108 29.5759 13.9527C29.5709 14.2546 29.6704 14.515 29.8746 14.7233C30.0788 14.9315 30.4594 15.1428 31.0065 15.3352L32.4724 15.8448C33.2156 16.1052 33.7496 16.4591 34.0641 16.9063C34.3785 17.3537 34.5258 17.863 34.5165 18.4235C34.5088 18.8871 34.4083 19.3059 34.2257 19.6695C34.0329 20.0329 33.7784 20.3521 33.4523 20.6056C33.126 20.8697 32.7388 21.0574 32.2901 21.1901C31.8204 21.3333 31.3314 21.4006 30.802 21.3918ZM19.9676 30.4639C24.2336 30.5348 29.2183 29.2267 32.6767 26.664C33.2445 26.2422 32.7676 25.5763 32.1922 25.8365C28.3341 27.4545 24.1582 28.2045 20.3696 28.1415C14.7541 28.0482 9.35209 26.3518 4.9951 23.6266C4.61504 23.3832 4.31765 23.788 4.63444 24.0951C8.63987 27.9788 13.9887 30.3645 19.9676 30.4639ZM30.1329 24.7993C31.2458 24.6777 33.7006 24.4166 34.1268 25.0059C34.5532 25.5845 33.5894 27.973 33.1566 29.0335C33.0267 29.3548 33.2944 29.4886 33.5787 29.2453C35.432 27.6802 35.9649 24.3572 35.5993 23.8658C35.2336 23.3854 32.033 22.9224 30.0579 24.3129C29.7531 24.5343 29.8 24.8371 30.1329 24.7993Z" fill="#023AE0"/>
</svg>
