<svg width="16" height="16" viewBox="0 0 16 16" fill="none" xmlns="http://www.w3.org/2000/svg">
<path fill-rule="evenodd" clip-rule="evenodd" d="M1.33337 7.99967C1.33337 4.32367 4.32404 1.33301 8.00004 1.33301C11.676 1.33301 14.6667 4.32367 14.6667 7.99967C14.6667 11.6757 11.676 14.6663 8.00004 14.6663C4.32404 14.6663 1.33337 11.6757 1.33337 7.99967ZM10.4715 6.47122L8.94286 7.99986L10.4715 9.52851C10.7322 9.78918 10.7322 10.2106 10.4715 10.4712C10.3415 10.6012 10.1709 10.6665 10.0002 10.6665C9.82952 10.6665 9.65887 10.6012 9.52887 10.4712L8.00019 8.94249L6.4715 10.4712C6.3415 10.6012 6.17085 10.6665 6.00019 10.6665C5.82952 10.6665 5.65887 10.6012 5.52887 10.4712C5.26821 10.2106 5.26821 9.78918 5.52887 9.52851L7.05752 7.99986L5.52887 6.47122C5.26821 6.21055 5.26821 5.78917 5.52887 5.52851C5.78954 5.26784 6.21083 5.26784 6.4715 5.52851L8.00019 7.05724L9.52887 5.52851C9.78954 5.26784 10.2108 5.26784 10.4715 5.52851C10.7322 5.78917 10.7322 6.21055 10.4715 6.47122Z" fill="#DC0000"/>
</svg>
