<svg width="24" height="24" viewBox="0 0 24 24" fill="none" xmlns="http://www.w3.org/2000/svg">
<path fill-rule="evenodd" clip-rule="evenodd" d="M12 4C7.5888 4 4 7.5888 4 12C4 16.4112 7.5888 20 12 20C16.4112 20 20 16.4112 20 12C20 7.5888 16.4112 4 12 4ZM14.9661 10.1666L13.1317 12.001L14.9661 13.8354C15.2789 14.1482 15.2789 14.6538 14.9661 14.9666C14.8101 15.1226 14.6053 15.201 14.4005 15.201C14.1957 15.201 13.991 15.1226 13.835 14.9666L12.0005 13.1322L10.1661 14.9666C10.0101 15.1226 9.80533 15.201 9.60053 15.201C9.39573 15.201 9.19095 15.1226 9.03495 14.9666C8.72215 14.6538 8.72215 14.1482 9.03495 13.8354L10.8693 12.001L9.03495 10.1666C8.72215 9.85383 8.72215 9.34818 9.03495 9.03538C9.34775 8.72258 9.85331 8.72258 10.1661 9.03538L12.0005 10.8699L13.835 9.03538C14.1478 8.72258 14.6533 8.72258 14.9661 9.03538C15.2789 9.34818 15.2789 9.85383 14.9661 10.1666Z" fill="#023AE0"/>
</svg>
