<svg width="24" height="24" viewBox="0 0 24 24" fill="none" xmlns="http://www.w3.org/2000/svg">
<path d="M19 14.1667V18.3333C19 18.7754 18.8244 19.1993 18.5118 19.5118C18.1993 19.8244 17.7754 20 17.3333 20H5.66667C5.22464 20 4.80072 19.8244 4.48816 19.5118C4.17559 19.1993 4 18.7754 4 18.3333V6.66667C4 6.22464 4.17559 5.80072 4.48816 5.48816C4.80072 5.17559 5.22464 5 5.66667 5H9.83333" stroke="#0F2978" stroke-width="2" stroke-linecap="round" stroke-linejoin="round"/>
<path d="M8.2947 9.81355C7.94501 9.38607 7.315 9.32301 6.88752 9.6727C6.46004 10.0224 6.39698 10.6524 6.74667 11.0799L8.2947 9.81355ZM22.0047 5.6044C22.3386 5.16449 22.2527 4.53718 21.8128 4.20328C21.3729 3.86937 20.7456 3.95531 20.4117 4.39522L22.0047 5.6044ZM13.2431 15.4936L14.0397 16.0982L13.2431 15.4936ZM6.74667 11.0799L10.8986 16.1554L12.4466 14.8891L8.2947 9.81355L6.74667 11.0799ZM14.0397 16.0982L22.0047 5.6044L20.4117 4.39522L12.4466 14.8891L14.0397 16.0982ZM10.8986 16.1554C11.7177 17.1567 13.2575 17.1287 14.0397 16.0982L12.4466 14.8891L12.4466 14.8891L10.8986 16.1554Z" fill="#0F2978"/>
</svg>
