<svg width="40" height="40" viewBox="0 0 40 40" fill="none" xmlns="http://www.w3.org/2000/svg">
<path d="M28.5127 18.2411C27.9698 17.3441 27.0871 16.1293 25.8675 15.0393L28.1987 12.7073C28.5896 12.3163 28.5896 11.6842 28.1987 11.2932C27.8079 10.9023 27.1761 10.9023 26.7852 11.2932L10.7905 27.293C10.3996 27.684 10.3996 28.316 10.7905 28.707C10.9854 28.902 11.2413 29 11.4972 29C11.7532 29 12.0091 28.902 12.204 28.707L14.7382 26.1722C16.2077 27.0512 17.8002 27.501 19.4956 27.501C24.324 27.501 27.2131 23.9011 28.5127 21.7611C29.1624 20.6711 29.1624 19.3311 28.5127 18.2411ZM19.4956 24.501C18.6139 24.501 17.8042 24.2342 17.1114 23.7982L18.5839 22.3241C18.8658 22.4351 19.1717 22.5011 19.4946 22.5011C20.8742 22.5011 21.9938 21.3811 21.9938 20.0011C21.9938 19.9511 21.9938 19.9212 21.9838 19.8712C21.8439 19.9512 21.6739 20.0011 21.4939 20.0011C21.324 20.0011 21.1721 19.9482 21.0331 19.8742L23.2944 17.6122C23.7322 18.3062 23.9931 19.1221 23.9931 20.0011C23.9941 22.4811 21.9748 24.501 19.4956 24.501ZM11.8181 23.6212C11.3283 23.0412 10.8785 22.4111 10.4886 21.7611C9.83882 20.6711 9.83881 19.3311 10.4786 18.2411C11.7782 16.1012 14.6772 12.5012 19.4956 12.5012C20.4253 12.5012 21.325 12.6311 22.2447 12.9111C22.4147 12.9611 22.5446 13.1012 22.5946 13.2712C22.6346 13.4412 22.5846 13.6212 22.4547 13.7412L20.5653 15.6313C20.2254 15.5513 19.8655 15.5012 19.4956 15.5012C17.0164 15.5012 14.9971 17.5212 14.9971 20.0011C14.9971 20.3711 15.0371 20.7312 15.1271 21.0812L12.5579 23.651C12.4579 23.751 12.338 23.8011 12.198 23.8011C12.198 23.8011 12.188 23.8011 12.178 23.8011C12.0381 23.7911 11.9081 23.7312 11.8181 23.6212Z" fill="url(#paint0_linear_772_24641)"/>
<defs>
<linearGradient id="paint0_linear_772_24641" x1="5.10019" y1="8.50455" x2="35.0866" y2="13.8934" gradientUnits="userSpaceOnUse">
<stop offset="0.262137" stop-color="#F76996"/>
<stop offset="0.821353" stop-color="#FF7070"/>
</linearGradient>
</defs>
</svg>
