<svg width="40" height="40" viewBox="0 0 40 40" fill="none" xmlns="http://www.w3.org/2000/svg">
<path d="M28.4909 18.2761C27.9298 17.3984 26.9945 16.2062 25.693 15.1549L27.807 13.171C28.0924 12.9031 28.0924 12.4688 27.807 12.2009C27.5216 11.933 27.0588 11.933 26.7734 12.2009L21.3833 17.2594L21.3814 17.2603L21.3804 17.2613L11.1857 26.8288C10.9003 27.0967 10.9003 27.531 11.1857 27.7989C11.3279 27.9324 11.515 28 11.702 28C11.889 28 12.0761 27.9333 12.2183 27.7989L14.4686 25.6869C16.0117 26.6121 17.7 27.0858 19.4973 27.0858C24.3165 27.0858 27.1991 23.7277 28.4899 21.7237C29.1699 20.6604 29.1699 19.3403 28.4909 18.2761ZM22.1763 20.0003C22.1763 21.3873 20.9742 22.5145 19.4973 22.5145C19.0317 22.5145 18.5923 22.3938 18.2007 22.1872L21.8266 18.7844C22.0477 19.151 22.1763 19.5633 22.1763 20.0003ZM27.24 21.017C26.11 22.7714 23.6015 25.7144 19.4993 25.7144C18.0955 25.7144 16.7735 25.3532 15.5451 24.6785L17.1379 23.1838C17.8227 23.6364 18.6362 23.8859 19.4964 23.8859C21.7788 23.8859 23.6366 22.1424 23.6366 20.0003C23.6366 19.1931 23.3706 18.4297 22.8884 17.7869L24.6585 16.1258C25.8586 17.0748 26.7227 18.1755 27.2381 18.981C27.6385 19.61 27.6385 20.3907 27.24 21.017ZM11.8316 23.4589C11.3464 22.9195 10.9012 22.3363 10.5086 21.7256C9.83062 20.6595 9.83061 19.3393 10.5077 18.277C11.7984 16.273 14.681 12.9149 19.5003 12.9149C20.4316 12.9149 21.3317 13.0411 22.2523 13.3007C22.638 13.4095 22.8582 13.7917 22.7413 14.1547C22.6254 14.5176 22.2182 14.7233 21.8314 14.6136C21.0492 14.3932 20.2864 14.2863 19.4993 14.2863C15.398 14.2863 12.8885 17.2293 11.7585 18.9837C11.3601 19.61 11.3601 20.3907 11.7605 21.0197C12.1121 21.5664 12.5115 22.0904 12.948 22.5749C13.2081 22.8638 13.1691 23.2972 12.8613 23.5413C12.7239 23.6501 12.5573 23.7031 12.3907 23.7031C12.1823 23.7031 11.9757 23.6198 11.8316 23.4589ZM19.6834 16.7411C19.7448 17.115 19.472 17.4651 19.0726 17.5227C17.9426 17.6864 17.0327 18.5412 16.8583 19.6008C16.8028 19.94 16.492 20.1823 16.1374 20.1823C16.1004 20.1823 16.0624 20.1795 16.0254 20.1741C15.626 20.1165 15.3532 19.7663 15.4146 19.3924C15.6893 17.7212 17.0707 16.4256 18.8505 16.1678C19.2431 16.1111 19.621 16.3671 19.6834 16.7411Z" fill="#727787"/>
</svg>
