<svg width="40" height="40" viewBox="0 0 40 40" fill="none" xmlns="http://www.w3.org/2000/svg">
<path d="M29.4428 17.9861C28.8859 17.0581 27.9791 15.8131 26.7254 14.6852L28.7029 12.7073C29.0938 12.3173 29.0938 11.6842 28.7029 11.2932C28.312 10.9023 27.6801 10.9023 27.2892 11.2932L16.8287 21.7561L16.8267 21.758L11.2929 27.293C10.902 27.684 10.902 28.316 11.2929 28.707C11.4879 28.902 11.7438 29 11.9998 29C12.2557 29 12.5117 28.902 12.7066 28.707L14.8731 26.54C16.4518 27.5089 18.1724 28 19.9999 28C25.0678 28 28.0901 24.252 29.4438 22.014C30.1856 20.772 30.1856 19.2301 29.4428 17.9861ZM22.4973 20.0011C22.4973 21.3801 21.3756 22.5011 19.9979 22.5011C19.68 22.5011 19.3731 22.438 19.0872 22.326L22.3214 19.0911C22.4344 19.3761 22.4973 19.6831 22.4973 20.0011ZM27.7291 20.9832C26.5964 22.8571 24.086 26.001 19.9999 26.001C18.7102 26.001 17.4855 25.6841 16.3418 25.0721L17.6115 23.8021C18.3183 24.2511 19.1351 24.501 19.9979 24.501C22.4783 24.501 24.4969 22.4821 24.4969 20.0011C24.4969 19.1381 24.247 18.3212 23.7981 17.6142L25.3097 16.1021C26.4234 17.0821 27.2353 18.1911 27.7282 19.0141C28.0861 19.6131 28.086 20.3892 27.7291 20.9832ZM11.9398 23.946C11.4319 23.343 10.967 22.6951 10.5581 22.0171C9.8143 20.7721 9.81429 19.2292 10.5561 17.9882C11.9098 15.7492 14.9311 12.0012 19.9999 12.0012C20.9777 12.0012 21.9245 12.1422 22.8953 12.4332C23.4241 12.5912 23.7251 13.1493 23.5661 13.6772C23.4071 14.2062 22.8513 14.5072 22.3214 14.3492C21.5396 14.1152 20.7797 14.0012 19.9989 14.0012C15.9119 14.0012 13.4015 17.1451 12.2697 19.0191C11.9138 19.6141 11.9138 20.3891 12.2717 20.9891C12.6246 21.5731 13.0266 22.1351 13.4664 22.6561C13.8224 23.0791 13.7694 23.71 13.3475 24.065C13.1595 24.224 12.9306 24.3011 12.7026 24.3011C12.4197 24.3011 12.1377 24.18 11.9398 23.946ZM19.2951 15.5632C19.838 15.4862 20.3519 15.8532 20.4358 16.3981C20.5198 16.9441 20.1459 17.4561 19.601 17.5401C18.5483 17.7031 17.6995 18.5522 17.5365 19.6042C17.4605 20.0981 17.0346 20.4522 16.5497 20.4522C16.4988 20.4522 16.4477 20.4481 16.3958 20.4401C15.8499 20.3561 15.476 19.8451 15.56 19.2991C15.8589 17.3631 17.3596 15.8622 19.2951 15.5632Z" fill="#0F2978"/>
</svg>
