<svg width="689" height="736" viewBox="0 0 689 736" fill="none" xmlns="http://www.w3.org/2000/svg">
<path opacity="0.2" d="M11.959 558.835L9.62491 559.73L11.959 558.835ZM684.094 231.735L681.61 231.456L684.094 231.735ZM626.301 698.901C625.519 700.414 624.694 701.866 623.828 703.258L628.073 705.9C629.011 704.393 629.901 702.825 630.743 701.196L626.301 698.901ZM618.14 710.904C615.992 713.324 613.669 715.502 611.177 717.448L614.256 721.388C616.986 719.255 619.531 716.87 621.88 714.223L618.14 710.904ZM603.159 722.634C600.38 724.107 597.437 725.371 594.336 726.435L595.959 731.164C599.292 730.021 602.476 728.654 605.5 727.052L603.159 722.634ZM585.024 728.942C581.896 729.575 578.64 730.044 575.26 730.355L575.717 735.334C579.262 735.008 582.698 734.514 586.016 733.842L585.024 728.942ZM565.59 730.816C562.345 730.837 559.006 730.734 555.578 730.512L555.255 735.502C558.793 735.731 562.25 735.838 565.623 735.815L565.59 730.816ZM545.875 729.599C542.641 729.205 539.34 728.719 535.973 728.143L535.131 733.071C538.57 733.66 541.952 734.158 545.27 734.563L545.875 729.599ZM526.243 726.272C523.073 725.598 519.852 724.854 516.585 724.042L515.38 728.895C518.699 729.719 521.974 730.476 525.203 731.163L526.243 726.272ZM506.778 721.446C503.684 720.579 500.552 719.657 497.384 718.683L495.915 723.462C499.12 724.448 502.292 725.381 505.428 726.261L506.778 721.446ZM487.779 715.606C484.659 714.569 481.509 713.486 478.33 712.359L476.66 717.072C479.868 718.209 483.049 719.303 486.201 720.351L487.779 715.606ZM469.013 708.963C465.882 707.792 462.725 706.581 459.545 705.333L457.719 709.988C460.922 711.245 464.104 712.465 467.261 713.646L469.013 708.963ZM450.32 701.638C447.272 700.393 444.205 699.116 441.119 697.81L439.17 702.415C442.274 703.729 445.361 705.013 448.43 706.267L450.32 701.638ZM431.81 693.804C428.792 692.485 425.758 691.14 422.71 689.771L420.661 694.331C423.724 695.708 426.773 697.06 429.807 698.386L431.81 693.804ZM413.627 685.637C410.587 684.236 407.533 682.813 404.469 681.368L402.337 685.891C405.414 687.341 408.481 688.771 411.535 690.178L413.627 685.637ZM395.438 677.068C392.454 675.633 389.461 674.18 386.459 672.71L384.26 677.2C387.272 678.675 390.276 680.134 393.271 681.574L395.438 677.068ZM377.43 668.25C374.442 666.763 371.447 665.26 368.447 663.743L366.191 668.206C369.2 669.727 372.204 671.234 375.201 672.726L377.43 668.25ZM359.548 659.214C356.576 657.692 353.6 656.157 350.62 654.612L348.318 659.05C351.305 660.599 354.289 662.138 357.268 663.664L359.548 659.214ZM341.688 649.953C338.741 648.407 335.792 646.852 332.841 645.29L330.501 649.708C333.457 651.274 336.412 652.832 339.366 654.381L341.688 649.953ZM323.986 640.578C321.033 639 318.081 637.415 315.128 635.824L312.757 640.226C315.714 641.819 318.671 643.407 321.629 644.987L323.986 640.578ZM306.298 631.05C303.358 629.455 300.42 627.855 297.484 626.252L295.088 630.641C298.027 632.245 300.969 633.847 303.914 635.445L306.298 631.05ZM288.686 621.435C285.747 619.822 282.813 618.208 279.883 616.592L277.469 620.971C280.401 622.588 283.338 624.204 286.28 625.818L288.686 621.435ZM271.079 611.728C268.149 610.106 265.226 608.486 262.309 606.866L259.882 611.238C262.8 612.858 265.726 614.48 268.657 616.102L271.079 611.728ZM253.56 602.005C250.61 600.363 247.667 598.725 244.734 597.091L242.301 601.459C245.235 603.093 248.178 604.732 251.13 606.374L253.56 602.005ZM235.963 592.204C233.05 590.58 230.146 588.962 227.254 587.351L224.821 591.719C227.713 593.33 230.616 594.948 233.529 596.572L235.963 592.204ZM218.408 582.426C215.462 580.787 212.528 579.156 209.609 577.536L207.183 581.908C210.1 583.527 213.032 585.157 215.978 586.796L218.408 582.426ZM200.896 572.708C197.929 571.066 194.979 569.437 192.046 567.822L189.634 572.202C192.563 573.815 195.511 575.443 198.476 577.083L200.896 572.708ZM183.195 562.961C180.264 561.356 177.352 559.767 174.461 558.195L172.072 562.587C174.959 564.157 177.866 565.744 180.794 567.347L183.195 562.961ZM165.57 553.381C162.572 551.765 159.599 550.171 156.652 548.599L154.3 553.011C157.24 554.579 160.206 556.17 163.197 557.782L165.57 553.381ZM147.891 543.955C144.856 542.357 141.851 540.786 138.878 539.244L136.576 543.683C139.539 545.219 142.534 546.786 145.561 548.379L147.891 543.955ZM129.896 534.627C126.936 533.119 124.012 531.645 121.124 530.205L118.893 534.68C121.767 536.113 124.679 537.581 127.627 539.082L129.896 534.627ZM111.845 525.641C108.796 524.162 105.793 522.727 102.837 521.339L100.712 525.865C103.647 527.243 106.631 528.669 109.663 530.14L111.845 525.641ZM93.6575 517.112C90.494 515.686 87.3925 514.322 84.3562 513.023L82.3898 517.62C85.394 518.905 88.466 520.257 91.6027 521.671L93.6575 517.112ZM75.1638 509.215C71.8647 507.896 68.6533 506.666 65.5348 505.533L63.8275 510.233C66.8909 511.346 70.0523 512.556 73.3073 513.857L75.1638 509.215ZM56.0738 502.306C52.6414 501.218 49.34 500.271 46.1788 499.476L44.9589 504.325C48.0093 505.092 51.2131 506.011 54.5634 507.072L56.0738 502.306ZM36.0442 497.382C32.4097 496.819 28.9976 496.521 25.8328 496.522L25.8351 501.522C28.6916 501.521 31.8419 501.79 35.2781 502.323L36.0442 497.382ZM15.2531 497.965C11.4544 499.16 8.24037 501.14 5.78609 504.029L9.59647 507.266C11.3527 505.199 13.7148 503.69 16.7528 502.735L15.2531 497.965ZM1.17014 514.073C0.528282 517.271 0.351406 520.88 0.622689 524.902L5.61135 524.565C5.36259 520.877 5.53672 517.725 6.07236 515.057L1.17014 514.073ZM2.03295 534.896C2.66301 537.983 3.48924 541.274 4.51498 544.773L9.31312 543.367C8.32099 539.982 7.53034 536.828 6.93199 533.896L2.03295 534.896ZM7.68517 554.491C8.29199 556.195 8.93843 557.941 9.62491 559.73L14.2931 557.939C13.6203 556.185 12.9878 554.477 12.3952 552.814L7.68517 554.491ZM9.62491 559.73C10.2816 561.442 10.9419 563.135 11.606 564.809L16.2539 562.966C15.5968 561.309 14.9432 559.633 14.2931 557.939L9.62491 559.73ZM15.6345 574.636C16.9919 577.839 18.3639 580.969 19.7502 584.027L24.3041 581.962C22.9353 578.943 21.5799 575.851 20.238 572.685L15.6345 574.636ZM23.952 592.986C25.3668 595.902 26.7957 598.746 28.2385 601.521L32.6746 599.214C31.2537 596.481 29.8455 593.678 28.4503 590.803L23.952 592.986ZM33.3079 610.882C35.0518 613.973 36.8149 616.968 38.5969 619.868L42.8569 617.25C41.1086 614.405 39.377 611.464 37.6626 608.425L33.3079 610.882ZM43.9988 628.285C45.818 630.997 47.6558 633.616 49.5118 636.144L53.5418 633.184C51.7292 630.716 49.9321 628.155 48.1511 625.5L43.9988 628.285ZM56.0815 644.617C58.3125 647.338 60.5683 649.936 62.8481 652.411L66.5258 649.023C64.3133 646.621 62.1205 644.097 59.9482 641.447L56.0815 644.617ZM69.7593 659.473C72.2978 661.908 74.8642 664.202 77.4578 666.355L80.6519 662.508C78.1533 660.434 75.676 658.22 73.2211 655.865L69.7593 659.473ZM85.7289 672.689C88.5153 674.647 91.3302 676.455 94.1728 678.114L96.6933 673.796C93.9749 672.209 91.2783 670.478 88.6045 668.598L85.7289 672.689ZM103.35 682.916C106.516 684.387 109.712 685.685 112.937 686.815L114.591 682.096C111.521 681.021 108.476 679.784 105.457 678.382L103.35 682.916ZM122.705 689.707C126.06 690.523 129.442 691.168 132.848 691.647L133.544 686.695C130.299 686.239 127.08 685.625 123.887 684.849L122.705 689.707ZM143.136 692.591C146.535 692.741 149.954 692.736 153.392 692.582L153.167 687.587C149.873 687.735 146.603 687.739 143.357 687.596L143.136 692.591ZM163.561 691.7C166.968 691.266 170.391 690.694 173.828 689.988L172.823 685.09C169.504 685.772 166.206 686.323 162.929 686.74L163.561 691.7ZM183.656 687.624C186.888 686.735 190.132 685.734 193.387 684.626L191.776 679.893C188.611 680.97 185.461 681.941 182.329 682.803L183.656 687.624ZM203.183 680.985C206.234 679.758 209.294 678.441 212.362 677.038L210.282 672.491C207.282 673.863 204.293 675.149 201.316 676.347L203.183 680.985ZM221.49 672.625C224.539 671.072 227.596 669.438 230.659 667.726L228.22 663.361C225.211 665.043 222.211 666.647 219.221 668.169L221.49 672.625ZM239.341 662.679C242.18 660.965 245.023 659.188 247.871 657.35L245.159 653.149C242.352 654.961 239.551 656.712 236.757 658.398L239.341 662.679ZM256.426 651.653C259.212 649.741 262.001 647.774 264.794 645.753L261.863 641.702C259.103 643.7 256.347 645.643 253.597 647.529L256.426 651.653ZM272.797 639.821C275.467 637.796 278.139 635.724 280.813 633.607L277.709 629.687C275.061 631.783 272.417 633.834 269.775 635.837L272.797 639.821ZM288.839 627.122C291.405 625.008 293.972 622.854 296.539 620.663L293.293 616.86C290.747 619.033 288.202 621.168 285.66 623.263L288.839 627.122ZM304.108 614.095C306.631 611.87 309.155 609.61 311.678 607.317L308.315 603.617C305.81 605.894 303.305 608.137 300.801 610.345L304.108 614.095ZM319.247 600.338C321.67 598.074 324.092 595.779 326.513 593.457L323.052 589.849C320.646 592.157 318.239 594.436 315.833 596.686L319.247 600.338ZM333.717 586.463C336.118 584.105 338.517 581.72 340.914 579.312L337.37 575.785C334.986 578.18 332.6 580.551 330.213 582.896L333.717 586.463ZM348.101 572.013C350.428 569.625 352.753 567.215 355.075 564.784L351.46 561.33C349.148 563.749 346.835 566.147 344.52 568.523L348.101 572.013ZM361.982 557.488C364.281 555.036 366.579 552.566 368.873 550.077L365.197 546.688C362.912 549.166 360.625 551.626 358.335 554.067L361.982 557.488ZM375.746 542.559C378.002 540.072 380.255 537.568 382.504 535.049L378.775 531.719C376.534 534.228 374.289 536.723 372.042 539.201L375.746 542.559ZM389.173 527.527C391.392 525.005 393.607 522.47 395.818 519.923L392.043 516.645C389.839 519.184 387.631 521.71 385.419 524.223L389.173 527.527ZM402.439 512.246C404.635 509.684 406.825 507.112 409.012 504.529L405.195 501.299C403.015 503.874 400.831 506.439 398.643 508.993L402.439 512.246ZM415.496 496.824C417.652 494.246 419.804 491.66 421.95 489.067L418.098 485.879C415.957 488.466 413.812 491.045 411.661 493.615L415.496 496.824ZM428.373 481.265C430.508 478.658 432.638 476.044 434.762 473.425L430.879 470.276C428.76 472.889 426.635 475.496 424.505 478.097L428.373 481.265ZM441.111 465.561C443.221 462.935 445.325 460.305 447.423 457.673L443.512 454.557C441.419 457.185 439.319 459.809 437.214 462.429L441.111 465.561ZM453.695 449.767C455.779 447.129 457.856 444.49 459.926 441.85L455.991 438.765C453.925 441.4 451.852 444.035 449.772 446.667L453.695 449.767ZM466.152 433.881C468.23 431.212 470.301 428.542 472.363 425.875L468.408 422.816C466.348 425.48 464.281 428.145 462.206 430.81L466.152 433.881ZM478.528 417.878C480.574 415.215 482.612 412.554 484.642 409.898L480.669 406.862C478.642 409.515 476.607 412.172 474.563 414.831L478.528 417.878ZM490.737 401.899C492.797 399.188 494.849 396.482 496.89 393.783L492.902 390.767C490.863 393.463 488.814 396.166 486.756 398.873L490.737 401.899ZM502.984 385.707C505.006 383.022 507.018 380.346 509.019 377.678L505.019 374.678C503.02 377.343 501.01 380.017 498.99 382.699L502.984 385.707ZM514.991 369.703C517.046 366.954 519.09 364.216 521.122 361.491L517.114 358.502C515.083 361.226 513.04 363.962 510.986 366.709L514.991 369.703ZM527.181 353.354C529.189 350.655 531.184 347.97 533.166 345.3L529.152 342.319C527.171 344.988 525.176 347.672 523.17 350.369L527.181 353.354ZM539.075 337.339C541.131 334.567 543.172 331.814 545.199 329.081L541.182 326.103C539.156 328.836 537.115 331.589 535.059 334.36L539.075 337.339ZM551.252 320.919C553.254 318.219 555.241 315.542 557.211 312.888L553.197 309.907C551.226 312.562 549.238 315.24 547.236 317.94L551.252 320.919ZM563.11 304.95C565.19 302.154 567.251 299.387 569.293 296.651L565.285 293.661C563.242 296.399 561.18 299.168 559.099 301.965L563.11 304.95ZM575.357 288.54C577.359 285.868 579.34 283.23 581.301 280.627L577.307 277.619C575.344 280.225 573.36 282.867 571.356 285.541L575.357 288.54ZM587.395 272.562C589.497 269.79 591.574 267.063 593.624 264.384L589.653 261.346C587.598 264.031 585.517 266.764 583.411 269.541L587.395 272.562ZM599.694 256.491C601.746 253.837 603.769 251.237 605.763 248.692L601.827 245.608C599.826 248.162 597.796 250.771 595.738 253.432L599.694 256.491ZM612.214 240.527C614.328 237.875 616.405 235.295 618.444 232.79L614.566 229.634C612.515 232.153 610.428 234.746 608.304 237.41L612.214 240.527ZM624.761 225.128C627.051 222.389 629.286 219.759 631.466 217.244L627.688 213.97C625.486 216.509 623.231 219.162 620.925 221.921L624.761 225.128ZM637.834 210.053C640.3 207.334 642.683 204.79 644.978 202.429L641.394 198.943C639.052 201.351 636.63 203.939 634.131 206.694L637.834 210.053ZM651.801 195.725C654.572 193.143 657.177 190.906 659.611 189.028L656.557 185.069C653.973 187.063 651.248 189.406 648.393 192.067L651.801 195.725ZM667.541 183.898C670.958 182.212 673.517 181.796 675.383 182.199L676.439 177.312C672.992 176.568 669.21 177.499 665.328 179.414L667.541 183.898ZM680.37 187.086C681.341 189.257 682.108 192.198 682.598 196.03L687.557 195.397C687.031 191.275 686.173 187.814 684.935 185.045L680.37 187.086ZM683.203 206.41C683.217 209.208 683.139 212.257 682.965 215.564L687.958 215.827C688.137 212.438 688.218 209.293 688.203 206.385L683.203 206.41ZM682.197 225.798C682.024 227.623 681.828 229.509 681.61 231.456L686.578 232.013C686.8 230.04 686.999 228.125 687.174 226.27L682.197 225.798ZM681.61 231.456C681.405 233.283 681.197 235.086 680.986 236.864L685.952 237.451C686.163 235.663 686.372 233.851 686.578 232.013L681.61 231.456ZM679.693 247.235C679.251 250.594 678.798 253.855 678.335 257.021L683.283 257.744C683.749 254.554 684.205 251.269 684.65 247.887L679.693 247.235ZM676.907 266.273C676.311 269.936 675.698 273.456 675.069 276.835L679.984 277.75C680.621 274.332 681.24 270.775 681.842 267.077L676.907 266.273ZM673.133 286.555C672.436 289.82 671.722 292.932 670.989 295.895L675.843 297.095C676.59 294.075 677.316 290.911 678.023 287.598L673.133 286.555ZM668.265 305.962C667.331 309.105 666.371 312.035 665.387 314.761L670.09 316.459C671.11 313.634 672.099 310.611 673.057 307.386L668.265 305.962ZM661.424 324.366C659.929 327.512 658.391 330.245 656.813 332.594L660.965 335.381C662.701 332.794 664.358 329.841 665.94 326.513L661.424 324.366ZM650.885 339.52C648.346 341.738 645.742 343.132 643.066 343.843L644.348 348.675C647.851 347.746 651.126 345.948 654.174 343.285L650.885 339.52ZM634.178 343.947C631.449 343.379 628.547 342.299 625.46 340.706L623.167 345.149C626.559 346.9 629.892 348.163 633.159 348.842L634.178 343.947ZM617.406 335.691C614.906 333.895 612.325 331.838 609.661 329.536L606.392 333.319C609.148 335.701 611.847 337.853 614.488 339.752L617.406 335.691ZM602.264 322.732C600.014 320.547 597.714 318.219 595.365 315.756L591.747 319.207C594.134 321.71 596.479 324.084 598.781 326.319L602.264 322.732ZM588.435 308.272C586.298 305.901 584.124 303.436 581.911 300.882L578.132 304.157C580.363 306.731 582.56 309.222 584.722 311.62L588.435 308.272ZM575.343 293.182C573.235 290.675 571.094 288.099 568.921 285.46L565.061 288.637C567.243 291.289 569.395 293.878 571.517 296.401L575.343 293.182ZM562.605 277.725C560.483 275.107 558.332 272.437 556.151 269.718L552.251 272.847C554.436 275.571 556.593 278.248 558.721 280.874L562.605 277.725ZM549.996 262.02C547.918 259.415 545.816 256.772 543.687 254.094L539.773 257.206C541.902 259.884 544.007 262.529 546.086 265.137L549.996 262.02ZM537.382 246.162C535.336 243.588 533.267 240.987 531.175 238.362L527.265 241.478C529.355 244.101 531.422 246.7 533.468 249.273L537.382 246.162ZM524.829 230.418C522.746 227.817 520.641 225.196 518.514 222.558L514.622 225.696C516.745 228.329 518.846 230.946 520.926 233.543L524.829 230.418ZM512.212 214.774C510.09 212.165 507.947 209.542 505.782 206.908L501.919 210.083C504.078 212.71 506.216 215.326 508.333 217.929L512.212 214.774ZM499.355 199.132C497.228 196.575 495.081 194.009 492.914 191.438L489.091 194.66C491.251 197.223 493.39 199.78 495.511 202.329L499.355 199.132ZM486.352 183.71C484.17 181.159 481.968 178.606 479.746 176.051L475.973 179.332C478.186 181.876 480.379 184.42 482.553 186.961L486.352 183.71ZM473.121 168.5C470.894 165.983 468.647 163.468 466.38 160.956L462.668 164.306C464.923 166.806 467.16 169.309 469.378 171.814L473.121 168.5ZM459.55 153.464C457.284 151.005 455 148.551 452.696 146.104L449.056 149.531C451.346 151.964 453.619 154.405 455.872 156.852L459.55 153.464ZM445.727 138.787C443.384 136.357 441.023 133.936 438.642 131.527L435.085 135.041C437.451 137.435 439.798 139.841 442.127 142.257L445.727 138.787ZM431.513 124.406C429.118 122.045 426.703 119.697 424.27 117.365L420.81 120.974C423.226 123.29 425.624 125.622 428.003 127.967L431.513 124.406ZM416.91 110.414C414.445 108.12 411.96 105.842 409.456 103.584L406.107 107.297C408.592 109.538 411.057 111.797 413.504 114.074L416.91 110.414ZM401.893 96.876C399.353 94.6602 396.793 92.4651 394.214 90.2929L390.993 94.1174C393.55 96.2705 396.087 98.4467 398.607 100.644L401.893 96.876ZM386.414 83.8448C383.793 81.7187 381.153 79.6174 378.492 77.5428L375.418 81.4858C378.052 83.5401 380.667 85.6213 383.264 87.7277L386.414 83.8448ZM370.451 71.4013C367.749 69.3814 365.028 67.3902 362.286 65.4297L359.378 69.497C362.09 71.4364 364.783 73.4066 367.457 75.4057L370.451 71.4013ZM353.974 59.6252C351.183 57.7225 348.371 55.8528 345.539 54.0179L342.821 58.2142C345.619 60.0273 348.398 61.8754 351.158 63.7565L353.974 59.6252ZM336.981 48.6198C334.098 46.8511 331.195 45.1194 328.27 43.4269L325.766 47.7544C328.652 49.425 331.519 51.1347 334.366 52.8815L336.981 48.6198ZM319.428 38.4655C316.459 36.8523 313.469 35.2802 310.458 33.7515L308.195 38.2097C311.163 39.717 314.112 41.2673 317.04 42.8587L319.428 38.4655ZM301.354 29.2935C298.296 27.8513 295.216 26.4545 292.115 25.1052L290.12 29.6899C293.174 31.0188 296.208 32.3947 299.221 33.8158L301.354 29.2935ZM282.747 21.2016C279.607 19.9509 276.445 18.7495 273.261 17.5995L271.563 22.3022C274.695 23.4335 277.806 24.6156 280.897 25.8467L282.747 21.2016ZM263.676 14.3158C260.459 13.2737 257.22 12.2848 253.96 11.3509L252.583 16.1576C255.788 17.0756 258.972 18.0478 262.135 19.0725L263.676 14.3158ZM244.115 8.71734C240.857 7.90716 237.577 7.15252 234.276 6.4555L233.243 11.3476C236.485 12.0323 239.707 12.7735 242.909 13.5696L244.115 8.71734ZM224.309 4.53905C220.965 3.9591 217.6 3.43865 214.214 2.97961L213.542 7.93432C216.867 8.38494 220.171 8.89599 223.455 9.46551L224.309 4.53905ZM204.174 1.80669C200.835 1.479 197.476 1.21136 194.096 1.00555L193.793 5.99627C197.11 6.19836 200.408 6.46111 203.686 6.78283L204.174 1.80669ZM183.897 0.575309C180.513 0.495781 177.11 0.478508 173.687 0.525139L173.755 5.52465C177.116 5.47887 180.457 5.4959 183.779 5.57397L183.897 0.575309ZM163.668 0.842827C160.31 1.00994 156.933 1.2387 153.536 1.53076L153.965 6.51232C157.301 6.22546 160.618 6.00079 163.917 5.83666L163.668 0.842827ZM143.292 2.59802C139.992 3.0017 136.675 3.4652 133.34 3.98986L134.117 8.92907C137.395 8.41326 140.656 7.95776 143.899 7.56103L143.292 2.59802ZM123.453 5.71606C120.14 6.35144 116.81 7.04724 113.464 7.80474L114.568 12.6814C117.861 11.936 121.136 11.2515 124.394 10.6265L123.453 5.71606ZM103.374 10.2637C100.21 11.0892 97.0324 11.9698 93.8394 12.9067L95.247 17.7044C98.3923 16.7816 101.522 15.9144 104.636 15.1016L103.374 10.2637ZM84.259 15.8726C81.0508 16.9177 77.8278 18.0194 74.5899 19.1789L76.2755 23.8862C79.4684 22.7428 82.6457 21.6567 85.8076 20.6268L84.259 15.8726ZM64.8316 22.8315C61.7953 24.0171 58.7462 25.2535 55.6842 26.5414L57.6228 31.1504C60.6455 29.879 63.6546 28.6588 66.6503 27.4891L64.8316 22.8315ZM46.5437 30.5228C43.4842 31.9011 40.4119 33.3307 37.327 34.8127L39.492 39.3196C42.5405 37.8553 45.5756 36.4429 48.5973 35.0816L46.5437 30.5228ZM28.0337 39.416C26.4788 40.2095 24.9206 41.0162 23.3592 41.8362L25.6842 46.2629C27.2282 45.4518 28.7689 44.6542 30.3063 43.8697L28.0337 39.416Z" fill="#0F2978"/>
</svg>
