<svg width="92" height="80" viewBox="0 0 92 80" fill="none" xmlns="http://www.w3.org/2000/svg">
<g clip-path="url(#clip0_772_24760)">
<path d="M82.72 20.4523C82.72 20.4523 78.5077 7.77433 66.1485 8.3845C66.1485 8.3845 69.3077 11.5484 68.162 19.006C68.162 19.006 67.3057 -0.0900756 44.4041 0.000319921C29.5799 0.926873 27.8209 6.74608 27.8209 6.74608C27.8209 6.74608 4.05134 5.20937 10.636 29.9551C10.636 29.9551 7.74293 27.2207 7.65035 20.4523C7.65035 20.4523 -2.96147 23.2772 0.811102 33.8082C5.31274 43.9099 16.8619 35.345 16.8619 35.345C16.8619 35.345 23.354 37.7404 27.4737 36.5427C27.4737 36.5427 22.6481 32.3506 22.7407 27.2094C22.7407 27.2094 26.7794 38.6896 41.0712 38.7348C41.0712 38.7348 40.6315 45.7066 31.6051 51.1077C31.6051 51.1077 54.2984 52.5653 62.3296 38.5201C62.3296 38.5201 75.36 40.6557 80.8916 29.7856C80.8916 29.7856 80.799 33.5484 76.7719 36.893C76.7719 36.893 84.2244 41.7743 90.1032 34.1585C95.9588 26.5314 86.2264 19.6727 82.72 20.4523ZM45.9663 32.9947C39.2197 32.9947 33.7459 27.6501 33.7459 21.0625C33.7459 14.4749 39.2197 9.13026 45.9663 9.13026C52.713 9.13026 58.1867 14.4749 58.1867 21.0625C58.1867 27.6501 52.7246 32.9947 45.9663 32.9947Z" fill="#0F2978"/>
<path d="M48.4665 26.5429C48.4665 25.2774 49.5195 24.2491 50.8156 24.2491C51.3827 24.2491 51.915 24.4525 52.32 24.7802C52.9912 23.6955 53.3731 22.4186 53.3731 21.0627C53.3731 17.074 50.0634 13.8311 45.9668 13.8311C41.8818 13.8311 38.5605 17.0627 38.5605 21.0627C38.5605 25.0514 41.8702 28.2943 45.9668 28.2943C46.9736 28.2943 47.9341 28.1022 48.8021 27.7407C48.5938 27.3904 48.4665 26.9836 48.4665 26.5429ZM45.3766 17.413C43.5251 17.6955 42.1827 19.2322 42.1827 21.0627C42.1827 21.6277 41.7198 22.0796 41.1412 22.0796C40.5626 22.0796 40.0997 21.6277 40.0997 21.0627C40.0997 18.2265 42.1827 15.8424 45.0526 15.3904C45.6197 15.3 46.1636 15.6842 46.2446 16.2378C46.3371 16.8028 45.9437 17.3226 45.3766 17.413Z" fill="#0F2978"/>
<path d="M8.54504 51.5801L3.3053 57.6015V51.5801H0V65.5516H3.3053V61.4387L4.79656 59.9236L8.84747 65.5516H12.6164L6.89256 57.8179L12.2534 51.5801H8.54504Z" fill="#0F2978"/>
<path d="M13.38 51.1865V62.974C13.38 63.866 13.6285 64.5481 14.1257 65.0204C14.6225 65.4929 15.3349 65.7288 16.2617 65.7288C16.7185 65.7288 17.2093 65.6761 17.7332 65.5714C18.2573 65.4665 18.7209 65.3225 19.1238 65.1384L18.7006 62.7772C18.5395 62.869 18.3613 62.9379 18.1665 62.9838C17.9718 63.0299 17.7938 63.0527 17.6325 63.0527C16.9473 63.0527 16.6046 62.6591 16.6046 61.8718V51.1865H13.38Z" fill="#0F2978"/>
<path d="M22.8032 55.4651C22.0981 55.7604 21.5035 56.1539 21.0197 56.6457C20.5362 57.1379 20.1697 57.7086 19.9213 58.3579C19.6725 59.0073 19.5487 59.6863 19.5487 60.3948C19.5487 61.103 19.6725 61.782 19.9213 62.4313C20.1697 63.0807 20.5362 63.6514 21.0197 64.1434C21.5035 64.6353 22.0981 65.026 22.8032 65.3142C23.5085 65.6027 24.3114 65.7471 25.2115 65.7471C26.1117 65.7471 26.9146 65.6027 27.6199 65.3142C28.3254 65.026 28.9199 64.6353 29.4038 64.1434C29.8872 63.6514 30.2533 63.0807 30.5021 62.4313C30.7506 61.782 30.8748 61.103 30.8748 60.3948C30.8748 59.6863 30.7471 59.0073 30.4918 58.3579C30.2364 57.7086 29.8673 57.1379 29.3834 56.6457C28.8996 56.1539 28.3085 55.7604 27.6099 55.4651C26.911 55.17 26.1117 55.0225 25.2115 55.0225C24.3114 55.0225 23.5085 55.17 22.8032 55.4651ZM23.5189 62.3526C23.0753 61.8607 22.8538 61.2082 22.8538 60.3948C22.8538 60.001 22.9143 59.637 23.0351 59.3025C23.1559 58.968 23.3204 58.6826 23.5288 58.4466C23.7371 58.2104 23.9855 58.0269 24.2745 57.8956C24.5632 57.7645 24.8757 57.6986 25.2115 57.6986C25.8832 57.6986 26.441 57.9447 26.8845 58.4366C27.3279 58.9287 27.5494 59.5813 27.5494 60.3948C27.5494 60.7883 27.4892 61.1523 27.368 61.4869C27.2472 61.8214 27.0824 62.1066 26.8742 62.3428C26.6658 62.5788 26.421 62.7629 26.1389 62.8938C25.8567 63.0249 25.5475 63.0906 25.2115 63.0906C24.5263 63.0906 23.9619 62.8447 23.5189 62.3526Z" fill="#0F2978"/>
<path d="M39.4079 55.4844V61.8602C39.0991 62.4112 38.7431 62.7984 38.3398 63.0212C37.9369 63.2445 37.5203 63.3558 37.0905 63.3558C36.6201 63.3558 36.2569 63.1884 36.002 62.8541C35.7467 62.5195 35.619 62.0374 35.619 61.4077V55.4844H32.3945V62.0965C32.3945 63.3821 32.6732 64.3564 33.2309 65.0186C33.7884 65.6812 34.6114 66.0123 35.6999 66.0123C36.5867 66.0123 37.389 65.8516 38.1084 65.5304C38.8268 65.209 39.4282 64.7072 39.9117 64.0249L39.9723 64.6546C40.1338 65.5336 40.7915 65.973 41.9474 65.973C42.1219 65.973 42.3166 65.9634 42.5317 65.9435C42.7468 65.9238 43.0087 65.8811 43.3179 65.8156V63.159C43.0624 63.1329 42.8845 63.0577 42.7836 62.9327C42.6831 62.8081 42.6325 62.5884 42.6325 62.2734V55.4844H39.4079Z" fill="#0F2978"/>
<path d="M52.5587 51.1865V56.913C52.2361 56.3358 51.7758 55.8768 51.178 55.5355C50.5799 55.1944 49.9113 55.0238 49.1725 55.0238C48.4874 55.0238 47.8592 55.1617 47.2883 55.4371C46.7171 55.7125 46.2233 56.0898 45.8069 56.5686C45.3902 57.0474 45.0677 57.6149 44.8397 58.2706C44.6108 58.927 44.4968 59.6286 44.4968 60.3765C44.4968 61.1506 44.6212 61.862 44.8699 62.5114C45.1184 63.1609 45.4646 63.7284 45.9076 64.2138C46.3513 64.6993 46.8782 65.0764 47.4899 65.3451C48.1011 65.6139 48.7697 65.7484 49.495 65.7484C50.2208 65.7484 50.9025 65.5912 51.5408 65.2761C52.1787 64.9614 52.6858 64.4827 53.0623 63.8398L53.123 64.3709C53.1762 64.8042 53.3779 65.1355 53.7275 65.3647C54.0764 65.5942 54.5335 65.7091 55.0978 65.7091C55.2859 65.7091 55.4873 65.6995 55.7023 65.6796C55.9171 65.66 56.1727 65.6173 56.4684 65.5517V62.8951C56.213 62.869 56.035 62.7939 55.9341 62.6689C55.8333 62.5443 55.7832 62.3246 55.7832 62.0096V51.1865H52.5587ZM49.344 62.8951C49.0281 62.7643 48.7593 62.5802 48.5378 62.3442C48.3162 62.108 48.1414 61.8261 48.0137 61.4979C47.886 61.1703 47.8222 60.8161 47.8222 60.4353C47.8222 60.0682 47.8794 59.7204 47.9936 59.3924C48.1076 59.0646 48.2724 58.7759 48.4874 58.5266C48.7021 58.2776 48.9541 58.0773 49.2431 57.9263C49.5318 57.7758 49.8508 57.7 50.2005 57.7C50.6842 57.7 51.1509 57.8673 51.6012 58.2019C52.051 58.5364 52.3771 58.9663 52.5785 59.4908V61.6555C52.3636 62.1017 52.051 62.4524 51.6417 62.7082C51.2315 62.9639 50.805 63.0919 50.3618 63.0919C49.9989 63.0919 49.6595 63.0263 49.344 62.8951Z" fill="#0F2978"/>
<path d="M61.3861 51.7469C60.7544 51.9243 60.2104 52.1898 59.7537 52.5439C59.2967 52.8983 58.9406 53.3312 58.6856 53.8426C58.4298 54.3544 58.3028 54.9447 58.3028 55.6139C58.3028 56.1649 58.3965 56.6372 58.5848 57.0307C58.7728 57.4242 59.0513 57.7588 59.421 58.0343C59.7905 58.3098 60.2505 58.546 60.8015 58.7428C61.3524 58.9395 61.9908 59.1234 62.716 59.2936C63.3742 59.4513 63.9626 59.6054 64.4797 59.7561C64.9969 59.9071 65.4299 60.0808 65.7797 60.2775C66.1289 60.4744 66.3943 60.7074 66.5756 60.9764C66.7568 61.2452 66.8478 61.5765 66.8478 61.9699C66.8478 62.6784 66.5655 63.2098 66.0013 63.5639C65.437 63.9182 64.6441 64.0952 63.6233 64.0952C63.072 64.0952 62.5451 64.0396 62.041 63.9279C61.5372 63.8167 61.0668 63.672 60.6305 63.495C60.1935 63.3179 59.8038 63.1179 59.4615 62.8948C59.1189 62.672 58.8397 62.449 58.6249 62.2259L57.7582 63.7212C58.5644 64.3642 59.4615 64.853 60.4486 65.1874C61.4363 65.5218 62.4811 65.6891 63.5829 65.6891C64.3218 65.6891 65.0067 65.6135 65.6385 65.4628C66.27 65.3122 66.8175 65.076 67.2809 64.7544C67.7446 64.433 68.1106 64.0263 68.3794 63.5342C68.648 63.0424 68.7823 62.4618 68.7823 61.7929C68.7823 61.1631 68.6715 60.6318 68.45 60.1988C68.2282 59.7661 67.9058 59.3987 67.4825 59.0969C67.0593 58.7953 66.5487 58.5428 65.951 58.3393C65.3529 58.1359 64.6844 57.9556 63.9456 57.7982C63.3006 57.6541 62.7431 57.5162 62.273 57.3849C61.8026 57.2538 61.4096 57.0995 61.0939 56.9225C60.778 56.7453 60.5462 56.5323 60.3985 56.2827C60.2505 56.0338 60.1769 55.7191 60.1769 55.3384C60.1769 54.6299 60.4354 54.0725 60.953 53.6656C61.4698 53.2593 62.2861 53.0556 63.4015 53.0556C63.8313 53.0556 64.2442 53.0983 64.6409 53.1835C65.0371 53.269 65.4032 53.3803 65.7394 53.5182C66.0747 53.6558 66.3774 53.81 66.6461 53.9804C66.9149 54.1511 67.1299 54.3282 67.2911 54.5118L68.1375 53.0753C67.533 52.5901 66.8408 52.203 66.0618 51.9143C65.2825 51.6257 64.4091 51.4814 63.4418 51.4814C62.7027 51.4814 62.0176 51.5699 61.3861 51.7469Z" fill="#0F2978"/>
<path d="M73.3775 55.5266C72.7188 55.8088 72.1511 56.1926 71.6746 56.6776C71.1971 57.1632 70.8281 57.7276 70.5661 58.3701C70.3039 59.013 70.1729 59.6951 70.1729 60.4166C70.1729 61.1382 70.3039 61.8237 70.5661 62.473C70.8281 63.1225 71.1937 63.69 71.6644 64.1751C72.1345 64.6607 72.6989 65.0445 73.3571 65.3263C74.0154 65.6084 74.7409 65.7494 75.534 65.7494C76.0576 65.7494 76.5617 65.6839 77.0453 65.5527C77.529 65.4217 77.9689 65.2411 78.3656 65.0115C78.7616 64.7822 79.1112 64.5097 79.4134 64.195C79.7157 63.8799 79.954 63.5326 80.1288 63.1519L78.5971 62.7385C78.4895 63.0011 78.3318 63.2374 78.1237 63.4471C77.9151 63.6571 77.6767 63.8342 77.4082 63.9784C77.1392 64.1228 76.8506 64.2376 76.5415 64.3227C76.2321 64.4084 75.9166 64.4506 75.5941 64.4506C75.1376 64.4506 74.704 64.3654 74.2945 64.195C73.8842 64.0246 73.5185 63.7885 73.1962 63.4866C72.8736 63.1848 72.6115 62.8242 72.4101 62.4042C72.2085 61.9844 72.0874 61.5185 72.0472 61.007H80.7739C80.7871 60.9414 80.7972 60.8494 80.8039 60.7314C80.8107 60.6135 80.8142 60.4824 80.8142 60.338C80.8142 59.6559 80.6897 58.9966 80.4411 58.3602C80.1924 57.7242 79.8397 57.1666 79.383 56.6876C78.9261 56.2088 78.372 55.8252 77.7204 55.5364C77.0687 55.2479 76.3468 55.1035 75.5539 55.1035C74.7611 55.1035 74.0354 55.2446 73.3775 55.5266ZM72.3596 58.3897C72.5544 57.9834 72.8097 57.6321 73.1256 57.337C73.441 57.0418 73.8073 56.8124 74.2239 56.648C74.6405 56.4844 75.0835 56.4022 75.5539 56.4022C76.0242 56.4022 76.4674 56.4844 76.8842 56.648C77.3006 56.8124 77.6666 57.0388 77.9826 57.3271C78.2981 57.6158 78.56 57.9668 78.7686 58.38C78.9766 58.7931 79.1009 59.2426 79.1413 59.7279H72.0068C72.0472 59.2426 72.1648 58.7966 72.3596 58.3897Z" fill="#0F2978"/>
<path d="M85.241 55.5266C84.5892 55.8088 84.0282 56.1892 83.5582 56.6679C83.0878 57.1469 82.7252 57.7079 82.4698 58.3504C82.2144 58.9933 82.0869 59.6756 82.0869 60.3971C82.0869 61.1187 82.2179 61.8039 82.4803 62.4533C82.742 63.1026 83.1078 63.6703 83.5786 64.1555C84.0485 64.6409 84.6129 65.0283 85.2713 65.3165C85.9294 65.605 86.6549 65.7494 87.448 65.7494C87.9718 65.7494 88.4724 65.6839 88.9493 65.5527C89.4263 65.4217 89.8595 65.2446 90.2493 65.0214C90.6389 64.7984 90.9778 64.5294 91.2669 64.2147C91.5559 63.8996 91.7811 63.5522 91.9419 63.1716L90.2092 62.66C90.1282 62.8833 89.9939 63.09 89.8059 63.2799C89.6176 63.4702 89.3995 63.6373 89.151 63.7816C88.9021 63.9262 88.6269 64.0409 88.3245 64.126C88.0224 64.2115 87.7164 64.254 87.4078 64.254C86.9239 64.254 86.4704 64.1555 86.0472 63.9587C85.624 63.762 85.2544 63.49 84.9388 63.1422C84.6229 62.7948 84.3712 62.3846 84.1831 61.9122C83.9945 61.4398 83.901 60.935 83.901 60.3971C83.901 59.846 83.9915 59.341 84.1728 58.8817C84.3542 58.4227 84.5992 58.0226 84.9085 57.6813C85.2176 57.3402 85.5867 57.0747 86.017 56.8843C86.4467 56.6944 86.9037 56.5991 87.3874 56.5991C87.9786 56.5991 88.5162 56.7337 88.9995 57.0025C89.4834 57.2714 89.8595 57.6487 90.1282 58.1339L91.8615 57.6026C91.4716 56.8419 90.8974 56.235 90.1386 55.7823C89.3791 55.3297 88.4759 55.1035 87.4277 55.1035C86.6214 55.1035 85.8926 55.2446 85.241 55.5266Z" fill="#0F2978"/>
</g>
<defs>
<clipPath id="clip0_772_24760">
<rect width="92" height="80" fill="white"/>
</clipPath>
</defs>
</svg>
