<svg width="24" height="24" viewBox="0 0 24 24" fill="none" xmlns="http://www.w3.org/2000/svg">
<path d="M20.5 7.00269C20.5 15.3637 19.293 19.4397 12.138 21.4827C12.093 21.4957 12.047 21.5027 12.001 21.5027C11.955 21.5027 11.909 21.4957 11.864 21.4827C4.70801 19.4377 3.5 15.4036 3.5 7.1316C3.5 6.9076 3.64901 6.71164 3.86401 6.65064C7.70701 5.56564 10.634 3.66176 11.664 2.64576C11.759 2.55276 11.893 2.48071 12.019 2.50171C12.151 2.50271 12.278 2.55664 12.371 2.65064C13.302 3.59464 17.232 5.55062 20.158 6.52662C20.362 6.59662 20.5 6.78769 20.5 7.00269Z" fill="url(#paint0_linear_772_24903)"/>
<defs>
<linearGradient id="paint0_linear_772_24903" x1="-0.884045" y1="-0.136686" x2="26.1846" y2="3.98564" gradientUnits="userSpaceOnUse">
<stop offset="0.262137" stop-color="#F76996"/>
<stop offset="0.821353" stop-color="#FF7070"/>
</linearGradient>
</defs>
</svg>
