<svg width="24" height="24" viewBox="0 0 24 24" fill="none" xmlns="http://www.w3.org/2000/svg">
<path fill-rule="evenodd" clip-rule="evenodd" d="M12.138 21.4827C19.293 19.4397 20.5 15.3637 20.5 7.00269C20.5 6.78769 20.362 6.59662 20.158 6.52662C17.232 5.55062 13.302 3.59464 12.371 2.65064C12.278 2.55664 12.151 2.50271 12.019 2.50171C11.893 2.48071 11.759 2.55276 11.664 2.64576C10.634 3.66176 7.70701 5.56564 3.86401 6.65064C3.64901 6.71164 3.5 6.9076 3.5 7.1316C3.5 15.4036 4.70801 19.4377 11.864 21.4827C11.909 21.4957 11.955 21.5027 12.001 21.5027C12.047 21.5027 12.093 21.4957 12.138 21.4827ZM11.7125 16.7124L16.7125 11.7124C17.1025 11.3224 17.1025 10.6825 16.7125 10.2925C16.3225 9.9025 15.6825 9.9025 15.2925 10.2925L11.0025 14.5925L8.71248 12.2925C8.32248 11.9025 7.6825 11.9025 7.2925 12.2925C6.9025 12.6825 6.9025 13.3224 7.2925 13.7124L10.2925 16.7124C10.4925 16.9024 10.7425 17.0025 11.0025 17.0025C11.2625 17.0025 11.5125 16.9024 11.7125 16.7124Z" fill="url(#paint0_linear_772_24909)"/>
<defs>
<linearGradient id="paint0_linear_772_24909" x1="-0.884045" y1="-0.136686" x2="26.1846" y2="3.98564" gradientUnits="userSpaceOnUse">
<stop offset="0.262137" stop-color="#F76996"/>
<stop offset="0.821353" stop-color="#FF7070"/>
</linearGradient>
</defs>
</svg>
