<svg width="24" height="24" viewBox="0 0 24 24" fill="none" xmlns="http://www.w3.org/2000/svg">
<path d="M19.414 7L15 2.58606C14.622 2.20806 14.12 2 13.586 2H9C6.243 2 4 4.243 4 7V17C4 19.757 6.243 22 9 22H15C17.757 22 20 19.757 20 17V8.41394C20 7.88794 19.787 7.372 19.414 7ZM15 20H9C7.346 20 6 18.654 6 17V7C6 5.346 7.346 4 9 4H13L18 9V17C18 18.654 16.654 20 15 20Z" fill="#0F2978"/>
<path d="M8 14.7C8 14.3134 8.3134 14 8.7 14H9.3C9.6866 14 10 14.3134 10 14.7V17.3C10 17.6866 9.6866 18 9.3 18H8.7C8.3134 18 8 17.6866 8 17.3V14.7Z" fill="#0F2978"/>
<path d="M11 12.7C11 12.3134 11.3134 12 11.7 12H12.3C12.6866 12 13 12.3134 13 12.7V17.3C13 17.6866 12.6866 18 12.3 18H11.7C11.3134 18 11 17.6866 11 17.3V12.7Z" fill="#0F2978"/>
<path d="M14 10.7C14 10.3134 14.3134 10 14.7 10H15.3C15.6866 10 16 10.3134 16 10.7V17.3C16 17.6866 15.6866 18 15.3 18H14.7C14.3134 18 14 17.6866 14 17.3V10.7Z" fill="#0F2978"/>
</svg>
