<svg width="24" height="24" viewBox="0 0 24 24" fill="none" xmlns="http://www.w3.org/2000/svg">
<path d="M13.5734 20.6792L13.5734 20.6794C13.5739 21.07 13.7316 21.4441 14.0112 21.7196C14.2907 21.995 14.6693 22.1496 15.0637 22.15L15.0638 22.15L19.6596 22.15L19.6597 22.15C20.0541 22.1496 20.4327 21.995 20.7122 21.7196C20.9918 21.4441 21.1495 21.07 21.15 20.6794L21.15 20.6792L21.15 16.1509L21.15 16.1508C21.1495 15.7602 20.9918 15.3861 20.7122 15.1106C20.4327 14.8352 20.0541 14.6806 19.6597 14.6802L19.6596 14.6802L18.0862 14.6802L18.0862 13.8868L18.0862 13.8866C18.0853 13.0958 17.766 12.3381 17.1992 11.7796C16.6325 11.2212 15.8645 10.9075 15.064 10.9066L15.0638 10.9066L12.7245 10.9066L12.7245 8.56509L13.9149 8.56509L13.9151 8.56509C14.3095 8.56465 14.688 8.4101 14.9675 8.13466C15.2472 7.85915 15.4049 7.48512 15.4053 7.09451L15.4053 7.09434L15.4053 3.32075L15.4053 3.32058C15.4049 2.92997 15.2472 2.55595 14.9675 2.28043C14.688 2.00499 14.3095 1.85044 13.9151 1.85L13.9149 1.85L10.0851 1.85L10.0849 1.85C9.69055 1.85044 9.31199 2.00499 9.03245 2.28043C8.75283 2.55595 8.59513 2.92997 8.59468 3.32058L8.59468 3.32075L8.59468 7.09434L8.59468 7.09451C8.59513 7.48512 8.75283 7.85914 9.03245 8.13466C9.31199 8.4101 9.69054 8.56465 10.0849 8.56509L10.0851 8.56509L11.2755 8.56509L11.2755 10.9066L8.93617 10.9066L8.936 10.9066C8.13546 10.9075 7.36753 11.2212 6.80079 11.7796C6.23398 12.3381 5.91474 13.0958 5.91383 13.8866L5.91383 13.8868L5.91383 14.6802L4.34042 14.6802L4.34026 14.6802C3.94586 14.6806 3.56731 14.8352 3.28777 15.1106C3.00815 15.3861 2.85045 15.7602 2.85 16.1508L2.85 16.1509L2.85 20.6792L2.85 20.6794C2.85045 21.07 3.00815 21.4441 3.28777 21.7196C3.56731 21.995 3.94586 22.1496 4.34026 22.15L4.34042 22.15L8.93617 22.15L8.93634 22.15C9.33073 22.1496 9.70928 21.995 9.98882 21.7196C10.2684 21.4441 10.4261 21.07 10.4266 20.6794L10.4266 20.6792L10.4266 16.1509L10.4266 16.1508C10.4261 15.7602 10.2684 15.3861 9.98883 15.1106C9.70928 14.8352 9.33073 14.6806 8.93634 14.6802L8.93617 14.6802L7.36277 14.6802L7.36277 13.887C7.36323 13.4772 7.52862 13.0839 7.82338 12.7934C8.11822 12.5029 8.51843 12.3391 8.93633 12.3387L15.0637 12.3387C15.4816 12.3391 15.8818 12.5029 16.1766 12.7934C16.4714 13.0839 16.6368 13.4772 16.6372 13.887L16.6372 14.6802L15.0638 14.6802L15.0637 14.6802C14.6693 14.6806 14.2907 14.8352 14.0112 15.1106C13.7316 15.3861 13.5739 15.7602 13.5734 16.1508L13.5734 16.1509L13.5734 20.6792Z" fill="url(#paint0_linear_772_24901)" stroke="url(#paint1_linear_772_24901)" stroke-width="0.3"/>
<defs>
<linearGradient id="paint0_linear_772_24901" x1="23.4955" y1="-3.1577" x2="17.5446" y2="28.3006" gradientUnits="userSpaceOnUse">
<stop offset="0.262137" stop-color="#F76996"/>
<stop offset="0.821353" stop-color="#FF7070"/>
</linearGradient>
<linearGradient id="paint1_linear_772_24901" x1="23.4955" y1="-3.1577" x2="17.5446" y2="28.3006" gradientUnits="userSpaceOnUse">
<stop offset="0.262137" stop-color="#F76996"/>
<stop offset="0.821353" stop-color="#FF7070"/>
</linearGradient>
</defs>
</svg>
