<svg width="40" height="40" viewBox="0 0 40 40" fill="none" xmlns="http://www.w3.org/2000/svg">
<path d="M28.6954 24.0528L27.5579 22.2543C27.1506 21.6112 26.9367 20.8756 26.9367 20.1263V17.5668C26.9367 13.9463 23.8246 11 19.9997 11C16.1748 11 13.0626 13.9453 13.0626 17.5668V20.1263C13.0626 20.8756 12.8477 21.6112 12.4414 22.2543L11.3039 24.0528C10.908 24.6773 10.8987 25.4295 11.2772 26.0628C11.6567 26.698 12.3427 27.0771 13.113 27.0771H17.2063C17.1981 27.1589 17.1724 27.2378 17.1724 27.3206C17.1724 28.7987 18.4405 30 20.0007 30C21.5609 30 22.829 28.7987 22.829 27.3206C22.829 27.2378 22.8033 27.1589 22.795 27.0771H26.8884C27.6587 27.0771 28.3457 26.698 28.7242 26.0637C29.1016 25.4295 29.0913 24.6773 28.6954 24.0528ZM21.2842 27.3206C21.2842 27.9919 20.7073 28.5385 19.9986 28.5385C19.29 28.5385 18.713 27.9919 18.713 27.3206C18.713 27.2378 18.7295 27.157 18.747 27.0771H21.2503C21.2678 27.157 21.2842 27.2378 21.2842 27.3206ZM27.38 25.3428C27.3306 25.4246 27.1856 25.6147 26.8863 25.6147H13.111C12.8127 25.6147 12.6667 25.4246 12.6173 25.3428C12.569 25.2609 12.4713 25.0456 12.6245 24.804L13.762 23.0055C14.3132 22.1354 14.6033 21.1396 14.6033 20.1263V17.5668C14.6033 14.7521 17.0233 12.4615 19.9976 12.4615C22.9719 12.4615 25.3919 14.7521 25.3919 17.5668V20.1263C25.3919 21.1396 25.683 22.1354 26.2332 23.0055L27.3707 24.804C27.525 25.0456 27.4283 25.2609 27.38 25.3428Z" fill="#0F2978"/>
<rect x="22" y="10" width="6" height="6" rx="3" fill="#E7FB21"/>
</svg>
