<svg width="40" height="40" viewBox="0 0 40 40" fill="none" xmlns="http://www.w3.org/2000/svg">
<path d="M28.6954 23.7398L27.5579 21.8466C27.1506 21.1697 26.9367 20.3953 26.9367 19.6066V16.9125C26.9367 13.1014 23.8246 10 19.9997 10C16.1748 10 13.0626 13.1003 13.0626 16.9125V19.6066C13.0626 20.3953 12.8477 21.1697 12.4414 21.8466L11.3039 23.7398C10.908 24.3972 10.8987 25.1889 11.2772 25.8556C11.6567 26.5243 12.3427 26.9232 13.113 26.9232H17.2063C17.1981 27.0094 17.1724 27.0925 17.1724 27.1796C17.1724 28.7354 18.4405 30 20.0007 30C21.5609 30 22.829 28.7354 22.829 27.1796C22.829 27.0925 22.8033 27.0094 22.795 26.9232H26.8884C27.6587 26.9232 28.3457 26.5242 28.7242 25.8566C29.1016 25.1889 29.0913 24.3972 28.6954 23.7398ZM21.2842 27.1796C21.2842 27.8863 20.7073 28.4616 19.9986 28.4616C19.29 28.4616 18.713 27.8863 18.713 27.1796C18.713 27.0925 18.7295 27.0073 18.747 26.9232H21.2503C21.2678 27.0073 21.2842 27.0925 21.2842 27.1796ZM27.38 25.0977C27.3306 25.1838 27.1856 25.3838 26.8863 25.3838H13.111C12.8127 25.3838 12.6667 25.1838 12.6173 25.0977C12.569 25.0115 12.4713 24.7849 12.6245 24.5305L13.762 22.6373C14.3132 21.7215 14.6033 20.6733 14.6033 19.6066V16.9125C14.6033 13.9495 17.0233 11.5384 19.9976 11.5384C22.9719 11.5384 25.3919 13.9495 25.3919 16.9125V19.6066C25.3919 20.6733 25.683 21.7215 26.2332 22.6373L27.3707 24.5305C27.525 24.7849 27.4283 25.0115 27.38 25.0977Z" fill="#0F2978"/>
</svg>
