<svg width="64" height="64" viewBox="0 0 64 64" fill="none" xmlns="http://www.w3.org/2000/svg">
<path d="M32 4C16.5375 4 4 16.5375 4 32C4 47.4625 16.5375 60 32 60C47.4625 60 60 47.4625 60 32C60 16.5375 47.4625 4 32 4Z" fill="#0F2978"/>
<path d="M42.2565 31.5809L28.6065 21.6559C28.5318 21.6017 28.4435 21.5692 28.3514 21.562C28.2594 21.5549 28.1671 21.5734 28.0849 21.6155C28.0027 21.6575 27.9338 21.7215 27.8858 21.8004C27.8377 21.8792 27.8124 21.9699 27.8127 22.0622V41.9122C27.8129 42.0043 27.8384 42.0947 27.8866 42.1732C27.9347 42.2518 28.0036 42.3156 28.0856 42.3576C28.1677 42.3996 28.2597 42.4181 28.3516 42.4112C28.4435 42.4043 28.5317 42.3722 28.6065 42.3184L42.2565 32.3872C42.321 32.3416 42.3736 32.2812 42.4099 32.211C42.4462 32.1409 42.4652 32.063 42.4652 31.9841C42.4652 31.9051 42.4462 31.8272 42.4099 31.7571C42.3736 31.687 42.321 31.6265 42.2565 31.5809Z" fill="white"/>
</svg>
