<svg width="40" height="40" viewBox="0 0 40 40" fill="none" xmlns="http://www.w3.org/2000/svg">
<path fill-rule="evenodd" clip-rule="evenodd" d="M20.7128 9C21.5296 9 22.3236 9.31215 22.8928 9.85469C23.461 10.4004 23.7747 11.1489 23.7507 11.9081C23.753 12.079 23.8135 12.2765 23.923 12.4495C24.1044 12.7362 24.3907 12.9379 24.7306 13.0208C25.0706 13.0993 25.4265 13.0569 25.7288 12.8902C27.189 12.114 29.0474 12.5791 29.8813 13.9275L30.592 15.0731C30.6103 15.1039 30.6262 15.1336 30.6399 15.1644C31.3951 16.4926 30.8909 18.1648 29.4877 18.9282C29.2835 19.0375 29.1181 19.1904 29.004 19.3752C28.8272 19.6608 28.7782 20.0005 28.8671 20.3127C28.9584 20.6312 29.1763 20.8956 29.4832 21.0591C30.1756 21.4296 30.6924 22.0539 30.8989 22.7748C31.1054 23.4947 30.9924 24.2761 30.5897 24.9206L29.8322 26.0948C28.9983 27.4284 27.14 27.8902 25.6946 27.113C25.5018 27.01 25.2794 26.9538 25.0581 26.9485H25.0512C24.7215 26.9485 24.3827 27.0791 24.1363 27.3073C23.8865 27.5398 23.7496 27.8499 23.7519 28.179C23.7439 29.7387 22.3806 31 20.7128 31H19.2834C17.6076 31 16.2443 29.7323 16.2443 28.1726C16.2421 27.9805 16.1827 27.7809 16.0721 27.6078C15.893 27.3169 15.6032 27.1088 15.269 27.026C14.937 26.9431 14.5731 26.9888 14.2742 27.1502C13.5578 27.5218 12.7148 27.612 11.9436 27.4103C11.1736 27.2075 10.5085 26.7149 10.1183 26.0619L9.40534 24.9184C8.57143 23.5722 9.06767 21.8469 10.5119 21.0697C10.9214 20.8499 11.1758 20.4401 11.1758 20.0005C11.1758 19.561 10.9214 19.1501 10.5119 18.9303C9.06653 18.1489 8.57143 16.4193 9.4042 15.0731L10.1777 13.8914C11.0002 12.56 12.8596 12.0907 14.3096 12.8657C14.5069 12.9751 14.7214 13.0303 14.9393 13.0324C15.65 13.0324 16.2443 12.4867 16.2558 11.8157C16.2512 11.0757 16.5649 10.3654 17.1364 9.82921C17.7103 9.2941 18.4723 9 19.2834 9H20.7128ZM20.7128 10.5926H19.2834C18.9298 10.5926 18.5989 10.7211 18.3491 10.9525C18.1004 11.185 17.9647 11.494 17.9669 11.8231C17.943 13.3754 16.5797 14.625 14.929 14.625C14.3997 14.6197 13.8898 14.487 13.4471 14.2407C12.8254 13.9115 12.0132 14.1143 11.6493 14.7036L10.877 15.8853C10.5233 16.4565 10.7401 17.2114 11.3698 17.5522C12.3041 18.0555 12.887 18.994 12.887 20.0005C12.887 21.007 12.3041 21.9445 11.3675 22.4489C10.7412 22.7865 10.5245 23.5371 10.8872 24.1211L11.6071 25.2762C11.785 25.5746 12.0759 25.7901 12.4125 25.8782C12.7478 25.9653 13.1175 25.9281 13.4255 25.7689C13.8784 25.5215 14.4054 25.393 14.9347 25.393C15.196 25.393 15.4572 25.4238 15.7127 25.4875C16.4839 25.6808 17.1536 26.1607 17.5505 26.8051C17.8084 27.2096 17.951 27.6821 17.9555 28.1641C17.9555 28.8543 18.551 29.4074 19.2834 29.4074H20.7128C21.4418 29.4074 22.0373 28.8574 22.0407 28.179C22.0361 27.4294 22.351 26.717 22.9271 26.1808C23.4952 25.6521 24.2892 25.3346 25.0832 25.3559C25.6033 25.3675 26.1042 25.4981 26.5456 25.7317C27.1811 26.0704 27.9922 25.8687 28.3595 25.2847L29.117 24.1094C29.2858 23.8387 29.3349 23.4989 29.2447 23.1857C29.1558 22.8725 28.9322 22.6007 28.631 22.4404C27.926 22.0624 27.4229 21.453 27.2141 20.7225C27.0077 20.0058 27.1206 19.2233 27.5233 18.5789C27.7857 18.1542 28.1701 17.7964 28.631 17.5501C29.2493 17.2135 29.466 16.4607 29.1067 15.8747C29.0919 15.8513 29.0782 15.8269 29.0668 15.8014L28.3983 14.7227C28.0344 14.1334 27.2244 13.9307 26.589 14.2672C25.9022 14.6452 25.0854 14.7535 24.3006 14.5613C23.5169 14.3723 22.8598 13.9105 22.4502 13.2586C22.1878 12.8509 22.0452 12.3763 22.0407 11.8932C22.0509 11.5301 21.914 11.2041 21.6654 10.9653C21.4178 10.7274 21.0699 10.5926 20.7128 10.5926ZM20.0031 16.4046C22.133 16.4046 23.8658 18.0184 23.8658 20.0006C23.8658 21.9829 22.133 23.5946 20.0031 23.5946C17.8733 23.5946 16.1404 21.9829 16.1404 20.0006C16.1404 18.0184 17.8733 16.4046 20.0031 16.4046ZM20.0031 17.9972C18.8167 17.9972 17.8516 18.8964 17.8516 20.0006C17.8516 21.1048 18.8167 22.002 20.0031 22.002C21.1895 22.002 22.1546 21.1048 22.1546 20.0006C22.1546 18.8964 21.1895 17.9972 20.0031 17.9972Z" fill="#0F2978"/>
</svg>
