<svg width="24" height="24" viewBox="0 0 24 24" fill="none" xmlns="http://www.w3.org/2000/svg">
<path d="M17.8331 13.7872V16.7964C17.8331 17.1156 17.7063 17.4218 17.4805 17.6475C17.2548 17.8733 16.9486 18.0001 16.6294 18.0001H8.20368C7.88444 18.0001 7.57828 17.8733 7.35255 17.6475C7.12682 17.4218 7 17.1156 7 16.7964V8.37067C7 8.05143 7.12682 7.74527 7.35255 7.51954C7.57828 7.29381 7.88444 7.16699 8.20368 7.16699H11.2129" stroke="#0F2978" stroke-width="1.2" stroke-linecap="round" stroke-linejoin="round"/>
<path d="M18.2031 9.79688L18.7929 9.20711C19.1834 8.81658 19.1834 8.18342 18.7929 7.79289L17.2071 6.20711C16.8166 5.81658 16.1834 5.81658 15.7929 6.20711L15.2031 6.79688M18.2031 9.79688L13.7929 14.2071C13.6054 14.3946 13.351 14.5 13.0858 14.5H10.7C10.5895 14.5 10.5 14.4105 10.5 14.3V11.9142C10.5 11.649 10.6054 11.3946 10.7929 11.2071L15.2031 6.79688M18.2031 9.79688L15.2031 6.79688" stroke="#0F2978" stroke-width="1.1"/>
</svg>
