<?xml version="1.0" encoding="utf-8"?>
<!-- Generator: Adobe Illustrator 16.0.4, SVG Export Plug-In . SVG Version: 6.00 Build 0)  -->
<!DOCTYPE svg PUBLIC "-//W3C//DTD SVG 1.1//EN" "http://www.w3.org/Graphics/SVG/1.1/DTD/svg11.dtd">
<svg version="1.1" id="Calque_1" xmlns="http://www.w3.org/2000/svg" xmlns:xlink="http://www.w3.org/1999/xlink" x="0px" y="0px"
	 width="182.5px" height="85.8px" viewBox="0 0 182.5 85.8" style="enable-background:new 0 0 182.5 85.8;" xml:space="preserve">
<style type="text/css">
<![CDATA[
	.st0{fill-rule:evenodd;clip-rule:evenodd;fill:url(#SVGID_1_);}
	.st1{fill-rule:evenodd;clip-rule:evenodd;fill:url(#SVGID_2_);}
]]>
</style>
<g>
	<linearGradient id="SVGID_1_" gradientUnits="userSpaceOnUse" x1="72.4639" y1="45.7607" x2="116.865" y2="15.6744">
		<stop  offset="0" style="stop-color:#B9DE7F"/>
		<stop  offset="0.2043" style="stop-color:#B5DD82"/>
		<stop  offset="0.4059" style="stop-color:#A9DB89"/>
		<stop  offset="0.6064" style="stop-color:#95D896"/>
		<stop  offset="0.8051" style="stop-color:#7AD3A8"/>
		<stop  offset="1" style="stop-color:#57CDBF"/>
	</linearGradient>
	<path class="st0" d="M72,56.2c0,1.1-0.8,2-1.9,2c-1.1,0-2-0.8-2-1.9c0,0-0.4-12.3,9.6-19.3l-1.6-2.8c-19,2.3-17.3-19.4-17.3-19.5
		l0.1-1.7l1.7-0.1c21.9-1,19.5,15.1,18.6,18.9l1.9,3.3c1.5-0.7,3.2-1.3,5-1.7c1.5-0.4,3.1-0.6,4.8-0.8v-5.4
		c-1.8-1.3-3.1-2.7-4.2-4.2c-2.5-3.3-4.3-8.3-1.2-14.4c0.5-1.2,1.2-2.4,1.8-3.4c1.4-2.1,3.1-3.8,4.4-4.5l0.3-0.2L92.8,0l0.8,0.5
		l0.3,0.2c1.3,0.8,3,2.4,4.4,4.5c0.7,1,1.3,2.2,1.8,3.4c3.1,6.1,1.3,11.1-1.2,14.4c-1,1.5-2.4,2.9-4.2,4.2v5.4
		c1.7,0.2,3.3,0.4,4.8,0.8c1.9,0.5,3.5,1,5,1.7l1.9-3.3c-0.9-3.9-3.3-19.9,18.6-18.9l1.7,0.1l0.1,1.7c0,0.1,1.7,21.8-17.3,19.5
		L108,37c10,7,9.6,19.3,9.6,19.3c0,1.1-0.9,1.9-2,1.9c-1.1,0-1.9-0.9-1.9-2c0,0,0.4-12.2-10.3-17.5c-1.4-0.7-2.9-1.2-4.6-1.7
		c-1.2-0.3-2.5-0.5-3.9-0.7v8V48c0,1.1-0.9,1.9-1.9,2l0,0h0l0,0c-1.1,0-1.9-0.9-1.9-2v-3.5v-8c-1.4,0.1-2.7,0.4-3.9,0.7
		c-1.7,0.4-3.3,1-4.6,1.7C71.6,44.1,72,56.2,72,56.2L72,56.2z M123.1,16.7c-14.1,0.2-13.5,10.1-12.9,13.6
		C121.5,31.5,123,21,123.1,16.7L123.1,16.7z M92.8,5.2c-9.2,9.7-2.7,16.4,0,18.6C95.5,21.6,102,14.9,92.8,5.2L92.8,5.2z M62.6,16.7
		c0.1,4.3,1.6,14.8,12.9,13.6C76.1,26.8,76.8,16.9,62.6,16.7z"/>
	<linearGradient id="SVGID_2_" gradientUnits="userSpaceOnUse" x1="88.6567" y1="93.5518" x2="93.7931" y2="61.2678">
		<stop  offset="0" style="stop-color:#B9DE7F"/>
		<stop  offset="0.2043" style="stop-color:#B5DD82"/>
		<stop  offset="0.4059" style="stop-color:#A9DB89"/>
		<stop  offset="0.6064" style="stop-color:#95D896"/>
		<stop  offset="0.8051" style="stop-color:#7AD3A8"/>
		<stop  offset="1" style="stop-color:#57CDBF"/>
	</linearGradient>
	<path class="st1" d="M16.2,85.5V69.3h-3.8l-4.3,6.9l-4.3-6.9H0v16.2h3.5V75L8,81.8h0.1l4.6-6.9v10.6H16.2L16.2,85.5z M41.8,85.5
		l-6.9-16.3h-3.3l-6.9,16.3h3.6l1.5-3.6h0l1.3-3.1h0l2.2-5.3v0l0,0l1.7,4.3l0.4,1h0l2.7,6.5l0.1,0.3H41.8L41.8,85.5z M64.6,85.5
		V69.3h-3.5v10l-7.6-10h-3.3v16.2h3.5V75.2l7.8,10.3H64.6L64.6,85.5z M89.2,83.2v-7h-7v3.1h3.6v2.3c-0.9,0.7-2,1-3.4,1
		c-0.7,0-1.4-0.1-2-0.4c-0.6-0.3-1.1-0.6-1.6-1.1c-0.4-0.5-0.8-1-1-1.6c-0.2-0.6-0.4-1.3-0.4-2.1v0c0-0.7,0.1-1.4,0.4-2
		c0.2-0.6,0.6-1.1,1-1.6c0.4-0.5,0.9-0.8,1.5-1.1c0.6-0.3,1.2-0.4,1.8-0.4c0.5,0,0.9,0,1.3,0.1s0.7,0.2,1.1,0.3
		c0.3,0.1,0.7,0.3,1,0.5c0.3,0.2,0.6,0.4,0.9,0.7l2.2-2.7c-0.4-0.4-0.8-0.7-1.3-0.9c-0.4-0.3-0.9-0.5-1.4-0.7
		c-0.5-0.2-1.1-0.3-1.7-0.4c-0.6-0.1-1.3-0.2-2-0.2c-1.2,0-2.4,0.2-3.4,0.7c-1,0.4-1.9,1-2.7,1.8c-0.8,0.8-1.3,1.7-1.8,2.7
		c-0.4,1-0.6,2.1-0.6,3.3v0c0,1.2,0.2,2.3,0.6,3.3c0.4,1,1,1.9,1.7,2.6c0.7,0.7,1.6,1.3,2.7,1.7c1,0.4,2.2,0.6,3.5,0.6
		c1.5,0,2.8-0.3,3.9-0.8C87.4,84.5,88.4,83.9,89.2,83.2L89.2,83.2z M112.6,85.5l-4-5.8c1-0.4,1.9-1,2.5-1.8c0.6-0.8,1-1.9,1-3.2v0
		c0-1.7-0.5-3-1.6-3.9c-1.1-0.9-2.6-1.4-4.5-1.4h-7.4v16.2h3.6v-5.2h2.8l3.5,5.2H112.6L112.6,85.5z M108.5,74.9
		c0,0.7-0.2,1.2-0.7,1.7c-0.5,0.4-1.1,0.6-2,0.6h-3.6v-4.7h3.5c0.9,0,1.6,0.2,2.1,0.6C108.2,73.5,108.5,74.1,108.5,74.9L108.5,74.9
		L108.5,74.9z M137.7,77.4L137.7,77.4c0-1.2-0.2-2.3-0.6-3.3c-0.4-1-1-1.9-1.8-2.6c-0.8-0.7-1.7-1.3-2.7-1.8c-1-0.4-2.2-0.7-3.4-0.7
		s-2.4,0.2-3.5,0.7c-1.1,0.4-2,1-2.7,1.8c-0.8,0.8-1.4,1.7-1.8,2.7c-0.4,1-0.6,2.1-0.6,3.3v0c0,1.2,0.2,2.2,0.6,3.3
		c0.4,1,1,1.9,1.8,2.6c0.8,0.7,1.7,1.3,2.7,1.8s2.2,0.7,3.4,0.7s2.4-0.2,3.5-0.7s2-1,2.7-1.8s1.4-1.7,1.8-2.7S137.7,78.6,137.7,77.4
		L137.7,77.4z M134,77.4c0,0.7-0.1,1.3-0.4,2s-0.6,1.1-1,1.6c-0.4,0.5-0.9,0.8-1.5,1.1c-0.6,0.3-1.3,0.4-2,0.4c-0.7,0-1.4-0.1-2-0.4
		c-0.6-0.3-1.1-0.6-1.6-1.1c-0.4-0.5-0.8-1-1-1.6c-0.2-0.6-0.4-1.3-0.4-2v0c0-0.7,0.1-1.3,0.4-2s0.6-1.1,1-1.6
		c0.4-0.5,0.9-0.8,1.5-1.1c0.6-0.3,1.3-0.4,2-0.4c0.7,0,1.4,0.1,2,0.4c0.6,0.3,1.1,0.6,1.6,1.1c0.4,0.5,0.8,1,1,1.6
		S134,76.7,134,77.4L134,77.4L134,77.4z M161.7,69.3h-3.8l-4.2,11.4l-4.2-11.4h-3.9l6.6,16.3h3.1L161.7,69.3L161.7,69.3z
		 M182.5,85.5v-3.2h-8.8v-3.4h7.6v-3.2h-7.6v-3.3h8.7v-3.2h-12.2v16.2H182.5z"/>
</g>
</svg>
