<svg width="118" height="106" viewBox="0 0 118 106" fill="none" xmlns="http://www.w3.org/2000/svg">
<rect x="1.25" y="1.25" width="115.5" height="101.5" rx="6.75" stroke="current" stroke-width="2.5" stroke-dasharray="6 6" fill="transparent"/>
<g opacity="0.8">
<rect x="56.498" y="19" width="3.90054" height="36" rx="1.95027" fill="current"/>
<rect x="76" y="34.6035" width="3.90054" height="36" rx="1.95027" transform="rotate(90 76 34.6035)" fill="current"/>
</g>
<path d="M34.4336 84L33.5957 81.6211H30.3203L29.4824 84H28L31.1875 75.3984H32.7461L35.9277 84H34.4336ZM33.2324 80.4141L32.418 78.0703C32.3867 77.9688 32.3418 77.8262 32.2832 77.6426C32.2246 77.4551 32.166 77.2656 32.1074 77.0742C32.0488 76.8789 32 76.7148 31.9609 76.582C31.9219 76.7422 31.873 76.9219 31.8145 77.1211C31.7598 77.3164 31.7051 77.5 31.6504 77.6719C31.5996 77.8438 31.5605 77.9766 31.5332 78.0703L30.7129 80.4141H33.2324ZM39.0977 84.1172C38.3242 84.1172 37.7031 83.8359 37.2344 83.2734C36.7695 82.707 36.5371 81.873 36.5371 80.7715C36.5371 79.6582 36.7734 78.8164 37.2461 78.2461C37.7227 77.6758 38.3496 77.3906 39.127 77.3906C39.4551 77.3906 39.7422 77.4355 39.9883 77.5254C40.2344 77.6113 40.4453 77.7285 40.6211 77.877C40.8008 78.0254 40.9531 78.1914 41.0781 78.375H41.1426C41.123 78.2539 41.0996 78.0801 41.0723 77.8535C41.0488 77.623 41.0371 77.4102 41.0371 77.2148V74.8828H42.4199V84H41.3418L41.0957 83.1152H41.0371C40.9199 83.3027 40.7715 83.4727 40.5918 83.625C40.416 83.7734 40.2051 83.8926 39.959 83.9824C39.7168 84.0723 39.4297 84.1172 39.0977 84.1172ZM39.4844 82.998C40.0742 82.998 40.4902 82.8281 40.7324 82.4883C40.9746 82.1484 41.0996 81.6387 41.1074 80.959V80.7773C41.1074 80.0508 40.9902 79.4941 40.7559 79.1074C40.5215 78.7168 40.0938 78.5215 39.4727 78.5215C38.9766 78.5215 38.5977 78.7227 38.3359 79.125C38.0781 79.5234 37.9492 80.0801 37.9492 80.7949C37.9492 81.5098 38.0781 82.0566 38.3359 82.4355C38.5977 82.8105 38.9805 82.998 39.4844 82.998ZM46.5742 84.1172C45.8008 84.1172 45.1797 83.8359 44.7109 83.2734C44.2461 82.707 44.0137 81.873 44.0137 80.7715C44.0137 79.6582 44.25 78.8164 44.7227 78.2461C45.1992 77.6758 45.8262 77.3906 46.6035 77.3906C46.9316 77.3906 47.2188 77.4355 47.4648 77.5254C47.7109 77.6113 47.9219 77.7285 48.0977 77.877C48.2773 78.0254 48.4297 78.1914 48.5547 78.375H48.6191C48.5996 78.2539 48.5762 78.0801 48.5488 77.8535C48.5254 77.623 48.5137 77.4102 48.5137 77.2148V74.8828H49.8965V84H48.8184L48.5723 83.1152H48.5137C48.3965 83.3027 48.248 83.4727 48.0684 83.625C47.8926 83.7734 47.6816 83.8926 47.4355 83.9824C47.1934 84.0723 46.9062 84.1172 46.5742 84.1172ZM46.9609 82.998C47.5508 82.998 47.9668 82.8281 48.209 82.4883C48.4512 82.1484 48.5762 81.6387 48.584 80.959V80.7773C48.584 80.0508 48.4668 79.4941 48.2324 79.1074C47.998 78.7168 47.5703 78.5215 46.9492 78.5215C46.4531 78.5215 46.0742 78.7227 45.8125 79.125C45.5547 79.5234 45.4258 80.0801 45.4258 80.7949C45.4258 81.5098 45.5547 82.0566 45.8125 82.4355C46.0742 82.8105 46.457 82.998 46.9609 82.998ZM58.3164 77.3906C59.0859 77.3906 59.7031 77.6719 60.168 78.2344C60.6367 78.7969 60.8711 79.6328 60.8711 80.7422C60.8711 81.4766 60.7617 82.0957 60.543 82.5996C60.3281 83.0996 60.0254 83.4785 59.6348 83.7363C59.248 83.9902 58.7969 84.1172 58.2812 84.1172C57.9531 84.1172 57.668 84.0742 57.4258 83.9883C57.1836 83.9023 56.9766 83.791 56.8047 83.6543C56.6328 83.5137 56.4883 83.3613 56.3711 83.1973H56.2891C56.3086 83.3535 56.3262 83.5273 56.3418 83.7188C56.3613 83.9062 56.3711 84.0781 56.3711 84.2344V86.877H54.9883V77.5137H56.1133L56.3066 78.4102H56.3711C56.4922 78.2266 56.6387 78.0566 56.8105 77.9004C56.9863 77.7441 57.1973 77.6211 57.4434 77.5312C57.6934 77.4375 57.9844 77.3906 58.3164 77.3906ZM57.9473 78.5156C57.5684 78.5156 57.2637 78.5918 57.0332 78.7441C56.8066 78.8926 56.6406 79.1172 56.5352 79.418C56.4336 79.7188 56.3789 80.0957 56.3711 80.5488V80.7422C56.3711 81.2227 56.4199 81.6309 56.5176 81.9668C56.6191 82.2988 56.7852 82.5527 57.0156 82.7285C57.25 82.9004 57.5664 82.9863 57.9648 82.9863C58.3008 82.9863 58.5781 82.8945 58.7969 82.7109C59.0195 82.5273 59.1855 82.2656 59.2949 81.9258C59.4043 81.5859 59.459 81.1855 59.459 80.7246C59.459 80.0254 59.334 79.4824 59.084 79.0957C58.8379 78.709 58.459 78.5156 57.9473 78.5156ZM63.8418 74.8828V77.1738C63.8418 77.4121 63.834 77.6445 63.8184 77.8711C63.8066 78.0977 63.793 78.2734 63.7773 78.3984H63.8535C63.9902 78.1719 64.1582 77.9863 64.3574 77.8418C64.5566 77.6934 64.7793 77.582 65.0254 77.5078C65.2754 77.4336 65.541 77.3965 65.8223 77.3965C66.3184 77.3965 66.7402 77.4805 67.0879 77.6484C67.4355 77.8125 67.7012 78.0684 67.8848 78.416C68.0723 78.7637 68.166 79.2148 68.166 79.7695V84H66.7891V80.0273C66.7891 79.5234 66.6855 79.1465 66.4785 78.8965C66.2715 78.6426 65.9512 78.5156 65.5176 78.5156C65.0996 78.5156 64.7676 78.6035 64.5215 78.7793C64.2793 78.9512 64.1055 79.207 64 79.5469C63.8945 79.8828 63.8418 80.293 63.8418 80.7773V84H62.4648V74.8828H63.8418ZM75.8359 80.7422C75.8359 81.2812 75.7656 81.7598 75.625 82.1777C75.4844 82.5957 75.2793 82.9492 75.0098 83.2383C74.7402 83.5234 74.416 83.7422 74.0371 83.8945C73.6582 84.043 73.2305 84.1172 72.7539 84.1172C72.3086 84.1172 71.9004 84.043 71.5293 83.8945C71.1582 83.7422 70.8359 83.5234 70.5625 83.2383C70.293 82.9492 70.084 82.5957 69.9355 82.1777C69.7871 81.7598 69.7129 81.2812 69.7129 80.7422C69.7129 80.0273 69.8359 79.4219 70.082 78.9258C70.332 78.4258 70.6875 78.0449 71.1484 77.7832C71.6094 77.5215 72.1582 77.3906 72.7949 77.3906C73.3926 77.3906 73.9199 77.5215 74.377 77.7832C74.834 78.0449 75.1914 78.4258 75.4492 78.9258C75.707 79.4258 75.8359 80.0312 75.8359 80.7422ZM71.1309 80.7422C71.1309 81.2148 71.1875 81.6191 71.3008 81.9551C71.418 82.291 71.5977 82.5488 71.8398 82.7285C72.082 82.9043 72.3945 82.9922 72.7773 82.9922C73.1602 82.9922 73.4727 82.9043 73.7148 82.7285C73.957 82.5488 74.1348 82.291 74.248 81.9551C74.3613 81.6191 74.418 81.2148 74.418 80.7422C74.418 80.2695 74.3613 79.8691 74.248 79.541C74.1348 79.209 73.957 78.957 73.7148 78.7852C73.4727 78.6094 73.1582 78.5215 72.7715 78.5215C72.2012 78.5215 71.7852 78.7129 71.5234 79.0957C71.2617 79.4785 71.1309 80.0273 71.1309 80.7422ZM79.832 83.0039C80.0117 83.0039 80.1895 82.9883 80.3652 82.957C80.541 82.9219 80.7012 82.8809 80.8457 82.834V83.877C80.6934 83.9434 80.4961 84 80.2539 84.0469C80.0117 84.0938 79.7598 84.1172 79.498 84.1172C79.1309 84.1172 78.8008 84.0566 78.5078 83.9355C78.2148 83.8105 77.9824 83.5977 77.8105 83.2969C77.6387 82.9961 77.5527 82.5801 77.5527 82.0488V78.5625H76.668V77.9473L77.6172 77.4609L78.0684 76.0723H78.9355V77.5137H80.793V78.5625H78.9355V82.0312C78.9355 82.3594 79.0176 82.6035 79.1816 82.7637C79.3457 82.9238 79.5625 83.0039 79.832 83.0039ZM87.9062 80.7422C87.9062 81.2812 87.8359 81.7598 87.6953 82.1777C87.5547 82.5957 87.3496 82.9492 87.0801 83.2383C86.8105 83.5234 86.4863 83.7422 86.1074 83.8945C85.7285 84.043 85.3008 84.1172 84.8242 84.1172C84.3789 84.1172 83.9707 84.043 83.5996 83.8945C83.2285 83.7422 82.9062 83.5234 82.6328 83.2383C82.3633 82.9492 82.1543 82.5957 82.0059 82.1777C81.8574 81.7598 81.7832 81.2812 81.7832 80.7422C81.7832 80.0273 81.9062 79.4219 82.1523 78.9258C82.4023 78.4258 82.7578 78.0449 83.2188 77.7832C83.6797 77.5215 84.2285 77.3906 84.8652 77.3906C85.4629 77.3906 85.9902 77.5215 86.4473 77.7832C86.9043 78.0449 87.2617 78.4258 87.5195 78.9258C87.7773 79.4258 87.9062 80.0312 87.9062 80.7422ZM83.2012 80.7422C83.2012 81.2148 83.2578 81.6191 83.3711 81.9551C83.4883 82.291 83.668 82.5488 83.9102 82.7285C84.1523 82.9043 84.4648 82.9922 84.8477 82.9922C85.2305 82.9922 85.543 82.9043 85.7852 82.7285C86.0273 82.5488 86.2051 82.291 86.3184 81.9551C86.4316 81.6191 86.4883 81.2148 86.4883 80.7422C86.4883 80.2695 86.4316 79.8691 86.3184 79.541C86.2051 79.209 86.0273 78.957 85.7852 78.7852C85.543 78.6094 85.2285 78.5215 84.8418 78.5215C84.2715 78.5215 83.8555 78.7129 83.5938 79.0957C83.332 79.4785 83.2012 80.0273 83.2012 80.7422Z" fill="current"/>
</svg>
