<svg width="118" height="106" viewBox="0 0 118 106" fill="none" xmlns="http://www.w3.org/2000/svg">
<rect x="1.25" y="1.25" width="115.5" height="101.5" rx="6.75" stroke="url(#paint0_linear_901_11168)" stroke-width="2.5" stroke-dasharray="6 6"/>
<g opacity="0.8">
<rect x="56.498" y="18" width="3.90054" height="36" rx="1.95027" fill="url(#paint1_linear_901_11168)"/>
<rect x="76" y="33.6035" width="3.90054" height="36" rx="1.95027" transform="rotate(90 76 33.6035)" fill="url(#paint2_linear_901_11168)"/>
</g>
<path d="M34.4336 83L33.5957 80.6211H30.3203L29.4824 83H28L31.1875 74.3984H32.7461L35.9277 83H34.4336ZM33.2324 79.4141L32.418 77.0703C32.3867 76.9688 32.3418 76.8262 32.2832 76.6426C32.2246 76.4551 32.166 76.2656 32.1074 76.0742C32.0488 75.8789 32 75.7148 31.9609 75.582C31.9219 75.7422 31.873 75.9219 31.8145 76.1211C31.7598 76.3164 31.7051 76.5 31.6504 76.6719C31.5996 76.8438 31.5605 76.9766 31.5332 77.0703L30.7129 79.4141H33.2324ZM39.0977 83.1172C38.3242 83.1172 37.7031 82.8359 37.2344 82.2734C36.7695 81.707 36.5371 80.873 36.5371 79.7715C36.5371 78.6582 36.7734 77.8164 37.2461 77.2461C37.7227 76.6758 38.3496 76.3906 39.127 76.3906C39.4551 76.3906 39.7422 76.4355 39.9883 76.5254C40.2344 76.6113 40.4453 76.7285 40.6211 76.877C40.8008 77.0254 40.9531 77.1914 41.0781 77.375H41.1426C41.123 77.2539 41.0996 77.0801 41.0723 76.8535C41.0488 76.623 41.0371 76.4102 41.0371 76.2148V73.8828H42.4199V83H41.3418L41.0957 82.1152H41.0371C40.9199 82.3027 40.7715 82.4727 40.5918 82.625C40.416 82.7734 40.2051 82.8926 39.959 82.9824C39.7168 83.0723 39.4297 83.1172 39.0977 83.1172ZM39.4844 81.998C40.0742 81.998 40.4902 81.8281 40.7324 81.4883C40.9746 81.1484 41.0996 80.6387 41.1074 79.959V79.7773C41.1074 79.0508 40.9902 78.4941 40.7559 78.1074C40.5215 77.7168 40.0938 77.5215 39.4727 77.5215C38.9766 77.5215 38.5977 77.7227 38.3359 78.125C38.0781 78.5234 37.9492 79.0801 37.9492 79.7949C37.9492 80.5098 38.0781 81.0566 38.3359 81.4355C38.5977 81.8105 38.9805 81.998 39.4844 81.998ZM46.5742 83.1172C45.8008 83.1172 45.1797 82.8359 44.7109 82.2734C44.2461 81.707 44.0137 80.873 44.0137 79.7715C44.0137 78.6582 44.25 77.8164 44.7227 77.2461C45.1992 76.6758 45.8262 76.3906 46.6035 76.3906C46.9316 76.3906 47.2188 76.4355 47.4648 76.5254C47.7109 76.6113 47.9219 76.7285 48.0977 76.877C48.2773 77.0254 48.4297 77.1914 48.5547 77.375H48.6191C48.5996 77.2539 48.5762 77.0801 48.5488 76.8535C48.5254 76.623 48.5137 76.4102 48.5137 76.2148V73.8828H49.8965V83H48.8184L48.5723 82.1152H48.5137C48.3965 82.3027 48.248 82.4727 48.0684 82.625C47.8926 82.7734 47.6816 82.8926 47.4355 82.9824C47.1934 83.0723 46.9062 83.1172 46.5742 83.1172ZM46.9609 81.998C47.5508 81.998 47.9668 81.8281 48.209 81.4883C48.4512 81.1484 48.5762 80.6387 48.584 79.959V79.7773C48.584 79.0508 48.4668 78.4941 48.2324 78.1074C47.998 77.7168 47.5703 77.5215 46.9492 77.5215C46.4531 77.5215 46.0742 77.7227 45.8125 78.125C45.5547 78.5234 45.4258 79.0801 45.4258 79.7949C45.4258 80.5098 45.5547 81.0566 45.8125 81.4355C46.0742 81.8105 46.457 81.998 46.9609 81.998ZM58.3164 76.3906C59.0859 76.3906 59.7031 76.6719 60.168 77.2344C60.6367 77.7969 60.8711 78.6328 60.8711 79.7422C60.8711 80.4766 60.7617 81.0957 60.543 81.5996C60.3281 82.0996 60.0254 82.4785 59.6348 82.7363C59.248 82.9902 58.7969 83.1172 58.2812 83.1172C57.9531 83.1172 57.668 83.0742 57.4258 82.9883C57.1836 82.9023 56.9766 82.791 56.8047 82.6543C56.6328 82.5137 56.4883 82.3613 56.3711 82.1973H56.2891C56.3086 82.3535 56.3262 82.5273 56.3418 82.7188C56.3613 82.9062 56.3711 83.0781 56.3711 83.2344V85.877H54.9883V76.5137H56.1133L56.3066 77.4102H56.3711C56.4922 77.2266 56.6387 77.0566 56.8105 76.9004C56.9863 76.7441 57.1973 76.6211 57.4434 76.5312C57.6934 76.4375 57.9844 76.3906 58.3164 76.3906ZM57.9473 77.5156C57.5684 77.5156 57.2637 77.5918 57.0332 77.7441C56.8066 77.8926 56.6406 78.1172 56.5352 78.418C56.4336 78.7188 56.3789 79.0957 56.3711 79.5488V79.7422C56.3711 80.2227 56.4199 80.6309 56.5176 80.9668C56.6191 81.2988 56.7852 81.5527 57.0156 81.7285C57.25 81.9004 57.5664 81.9863 57.9648 81.9863C58.3008 81.9863 58.5781 81.8945 58.7969 81.7109C59.0195 81.5273 59.1855 81.2656 59.2949 80.9258C59.4043 80.5859 59.459 80.1855 59.459 79.7246C59.459 79.0254 59.334 78.4824 59.084 78.0957C58.8379 77.709 58.459 77.5156 57.9473 77.5156ZM63.8418 73.8828V76.1738C63.8418 76.4121 63.834 76.6445 63.8184 76.8711C63.8066 77.0977 63.793 77.2734 63.7773 77.3984H63.8535C63.9902 77.1719 64.1582 76.9863 64.3574 76.8418C64.5566 76.6934 64.7793 76.582 65.0254 76.5078C65.2754 76.4336 65.541 76.3965 65.8223 76.3965C66.3184 76.3965 66.7402 76.4805 67.0879 76.6484C67.4355 76.8125 67.7012 77.0684 67.8848 77.416C68.0723 77.7637 68.166 78.2148 68.166 78.7695V83H66.7891V79.0273C66.7891 78.5234 66.6855 78.1465 66.4785 77.8965C66.2715 77.6426 65.9512 77.5156 65.5176 77.5156C65.0996 77.5156 64.7676 77.6035 64.5215 77.7793C64.2793 77.9512 64.1055 78.207 64 78.5469C63.8945 78.8828 63.8418 79.293 63.8418 79.7773V83H62.4648V73.8828H63.8418ZM75.8359 79.7422C75.8359 80.2812 75.7656 80.7598 75.625 81.1777C75.4844 81.5957 75.2793 81.9492 75.0098 82.2383C74.7402 82.5234 74.416 82.7422 74.0371 82.8945C73.6582 83.043 73.2305 83.1172 72.7539 83.1172C72.3086 83.1172 71.9004 83.043 71.5293 82.8945C71.1582 82.7422 70.8359 82.5234 70.5625 82.2383C70.293 81.9492 70.084 81.5957 69.9355 81.1777C69.7871 80.7598 69.7129 80.2812 69.7129 79.7422C69.7129 79.0273 69.8359 78.4219 70.082 77.9258C70.332 77.4258 70.6875 77.0449 71.1484 76.7832C71.6094 76.5215 72.1582 76.3906 72.7949 76.3906C73.3926 76.3906 73.9199 76.5215 74.377 76.7832C74.834 77.0449 75.1914 77.4258 75.4492 77.9258C75.707 78.4258 75.8359 79.0312 75.8359 79.7422ZM71.1309 79.7422C71.1309 80.2148 71.1875 80.6191 71.3008 80.9551C71.418 81.291 71.5977 81.5488 71.8398 81.7285C72.082 81.9043 72.3945 81.9922 72.7773 81.9922C73.1602 81.9922 73.4727 81.9043 73.7148 81.7285C73.957 81.5488 74.1348 81.291 74.248 80.9551C74.3613 80.6191 74.418 80.2148 74.418 79.7422C74.418 79.2695 74.3613 78.8691 74.248 78.541C74.1348 78.209 73.957 77.957 73.7148 77.7852C73.4727 77.6094 73.1582 77.5215 72.7715 77.5215C72.2012 77.5215 71.7852 77.7129 71.5234 78.0957C71.2617 78.4785 71.1309 79.0273 71.1309 79.7422ZM79.832 82.0039C80.0117 82.0039 80.1895 81.9883 80.3652 81.957C80.541 81.9219 80.7012 81.8809 80.8457 81.834V82.877C80.6934 82.9434 80.4961 83 80.2539 83.0469C80.0117 83.0938 79.7598 83.1172 79.498 83.1172C79.1309 83.1172 78.8008 83.0566 78.5078 82.9355C78.2148 82.8105 77.9824 82.5977 77.8105 82.2969C77.6387 81.9961 77.5527 81.5801 77.5527 81.0488V77.5625H76.668V76.9473L77.6172 76.4609L78.0684 75.0723H78.9355V76.5137H80.793V77.5625H78.9355V81.0312C78.9355 81.3594 79.0176 81.6035 79.1816 81.7637C79.3457 81.9238 79.5625 82.0039 79.832 82.0039ZM87.9062 79.7422C87.9062 80.2812 87.8359 80.7598 87.6953 81.1777C87.5547 81.5957 87.3496 81.9492 87.0801 82.2383C86.8105 82.5234 86.4863 82.7422 86.1074 82.8945C85.7285 83.043 85.3008 83.1172 84.8242 83.1172C84.3789 83.1172 83.9707 83.043 83.5996 82.8945C83.2285 82.7422 82.9062 82.5234 82.6328 82.2383C82.3633 81.9492 82.1543 81.5957 82.0059 81.1777C81.8574 80.7598 81.7832 80.2812 81.7832 79.7422C81.7832 79.0273 81.9062 78.4219 82.1523 77.9258C82.4023 77.4258 82.7578 77.0449 83.2188 76.7832C83.6797 76.5215 84.2285 76.3906 84.8652 76.3906C85.4629 76.3906 85.9902 76.5215 86.4473 76.7832C86.9043 77.0449 87.2617 77.4258 87.5195 77.9258C87.7773 78.4258 87.9062 79.0312 87.9062 79.7422ZM83.2012 79.7422C83.2012 80.2148 83.2578 80.6191 83.3711 80.9551C83.4883 81.291 83.668 81.5488 83.9102 81.7285C84.1523 81.9043 84.4648 81.9922 84.8477 81.9922C85.2305 81.9922 85.543 81.9043 85.7852 81.7285C86.0273 81.5488 86.2051 81.291 86.3184 80.9551C86.4316 80.6191 86.4883 80.2148 86.4883 79.7422C86.4883 79.2695 86.4316 78.8691 86.3184 78.541C86.2051 78.209 86.0273 77.957 85.7852 77.7852C85.543 77.6094 85.2285 77.5215 84.8418 77.5215C84.2715 77.5215 83.8555 77.7129 83.5938 78.0957C83.332 78.4785 83.2012 79.0273 83.2012 79.7422Z" fill="url(#paint3_linear_901_11168)"/>
<defs>
<linearGradient id="paint0_linear_901_11168" x1="-30.4304" y1="-14.4182" x2="154.9" y2="21.3817" gradientUnits="userSpaceOnUse">
<stop offset="0.262137" stop-color="#F76996"/>
<stop offset="0.821353" stop-color="#FF7070"/>
</linearGradient>
<linearGradient id="paint1_linear_901_11168" x1="55.4922" y1="13.0091" x2="61.8448" y2="13.1263" gradientUnits="userSpaceOnUse">
<stop offset="0.262137" stop-color="#F76996"/>
<stop offset="0.821353" stop-color="#FF7070"/>
</linearGradient>
<linearGradient id="paint2_linear_901_11168" x1="74.9941" y1="28.6126" x2="81.3467" y2="28.7298" gradientUnits="userSpaceOnUse">
<stop offset="0.262137" stop-color="#F76996"/>
<stop offset="0.821353" stop-color="#FF7070"/>
</linearGradient>
<linearGradient id="paint3_linear_901_11168" x1="12.269" y1="67.7818" x2="82.1917" y2="113.167" gradientUnits="userSpaceOnUse">
<stop offset="0.262137" stop-color="#F76996"/>
<stop offset="0.821353" stop-color="#FF7070"/>
</linearGradient>
</defs>
</svg>
