<svg width="40" height="40" viewBox="0 0 40 40" fill="none" xmlns="http://www.w3.org/2000/svg">
<path fill-rule="evenodd" clip-rule="evenodd" d="M8 0C3.58172 0 0 3.58172 0 8V32C0 36.4183 3.58172 40 8 40H32C36.4183 40 40 36.4183 40 32V8C40 3.58172 36.4183 0 32 0H8ZM24.3504 24.1712C23.615 25.1836 23.487 25.8406 24.7449 25.7831C29.3117 25.484 33.4526 23.8864 37.297 22.2327C34.6975 24.0132 21.2545 30.7325 21.1983 26.1554C21.2127 25.5689 21.4805 24.9576 21.9181 24.3005C22.3427 23.6448 22.937 22.959 23.5444 22.2602C23.6367 22.1541 23.7428 22.0332 23.8596 21.8999C24.9049 20.7076 26.815 18.529 27.5012 17.1684C27.621 16.9139 27.7096 16.646 27.765 16.3703C27.8591 14.9778 26.1413 14.4331 23.5157 13.6911L23.0075 14.0046L23.982 14.8197C19.6295 15.5748 16.9581 16.4303 13.7773 17.5433L14.2163 18.6849L12.6357 20.2524C13.6719 20.5772 14.7733 20.636 15.8383 20.4232C16.9033 20.2105 17.8975 19.7331 18.7295 19.035C18.4499 18.6053 18.0384 18.4263 18.0384 18.4263C18.0384 18.4263 18.7987 18.4145 19.2337 19.1056C19.2337 19.1056 19.5211 19.5131 19.4584 20.0278H18.9737C18.9894 19.807 18.9646 19.6137 18.9163 19.4439C17.6471 20.5131 16.0404 21.0985 14.3808 21.0963C13.5073 21.0972 12.6412 20.9351 11.8271 20.6182V22.6207C10.752 23.006 8.82914 24.2039 8.84482 25.3599C8.91405 25.9072 9.18968 26.1084 9.44179 26.2521L9.45224 26.2547C11.8976 27.6524 18.5544 25.7544 18.5414 25.7544C16.1378 26.9823 13.8335 27.9659 10.2856 28.1083C5.66401 28.0077 4.94295 24.9132 7.13358 21.6763C9.19751 18.4106 12.4776 15.4572 17.6936 13.6167C19.205 13.0759 21.4243 12.4619 23.5732 12.4332C26.6534 12.4045 29.65 13.375 29.4528 16.3572C29.3683 18.0721 27.5009 20.3203 25.8466 22.312C25.3008 22.9691 24.7782 23.5983 24.3504 24.1712Z" fill="#023AE0"/>
</svg>
