<svg width="38" height="40" viewBox="0 0 38 40" fill="none" xmlns="http://www.w3.org/2000/svg">
<path d="M5.41346 22.1785C5.48882 22.1111 5.58793 22.077 5.68702 22.077C5.78611 22.077 5.88522 22.1107 5.96057 22.1785L8.91271 24.8185L8.91271 17.3462C8.91271 17.1551 9.08613 17 9.2998 17C9.51347 17 9.68688 17.1551 9.68688 17.3462L9.68688 24.8181L12.639 22.1781C12.7902 22.0428 13.0354 22.0428 13.1866 22.1781C13.3379 22.3133 13.3379 22.5325 13.1866 22.6678L9.57386 25.8986C9.42263 26.0338 9.17746 26.0338 9.02624 25.8986L5.41346 22.6678C5.26224 22.5325 5.26224 22.3137 5.41346 22.1785Z" fill="#0F2978" stroke="#0F2978" stroke-width="0.5"/>
</svg>
