<svg width="38" height="40" viewBox="0 0 38 40" fill="none" xmlns="http://www.w3.org/2000/svg">
<path d="M13.2061 19.8215C13.1435 19.8889 13.0611 19.923 12.9787 19.923C12.8964 19.923 12.814 19.8893 12.7513 19.8215L10.2974 17.1815V24.6538C10.2974 24.8449 10.1532 25 9.9756 25C9.79799 25 9.65384 24.8449 9.65384 24.6538V17.1819L7.19987 19.8219C7.07417 19.9572 6.87037 19.9572 6.74467 19.8219C6.61897 19.6867 6.61897 19.4675 6.74467 19.3322L9.74779 16.1014C9.87349 15.9662 10.0773 15.9662 10.203 16.1014L13.2061 19.3322C13.3318 19.4675 13.3318 19.6863 13.2061 19.8215Z" fill="#0F2978"/>
</svg>
