<svg width="40" height="40" viewBox="0 0 40 40" fill="none" xmlns="http://www.w3.org/2000/svg">
<path fill-rule="evenodd" clip-rule="evenodd" d="M8 0C3.58172 0 0 3.58172 0 8V32C0 36.4183 3.58172 40 8 40H32C36.4183 40 40 36.4183 40 32V8C40 3.58172 36.4183 0 32 0H8ZM27.087 7.67115L34.5183 31.4208C34.6146 31.7238 34.6362 32.0456 34.5811 32.3588C34.526 32.6719 34.396 32.9671 34.2021 33.2189C34.0082 33.4707 33.7562 33.6718 33.4677 33.8048C33.1793 33.9378 32.8629 33.9988 32.5457 33.9826L23.3503 33.8159C22.9273 33.814 22.5163 33.6754 22.1782 33.4208L16.3647 28.8483L15.1027 32.3283C14.9649 32.7134 14.7107 33.0461 14.3753 33.2798C14.0399 33.5136 13.6401 33.6369 13.2315 33.6325L7.47455 33.5281C7.15364 33.5394 6.83487 33.4717 6.54612 33.3311C6.25738 33.1904 6.00746 32.9811 5.81823 32.7213C5.629 32.4616 5.50623 32.1594 5.46066 31.8411C5.41508 31.5229 5.44809 31.1983 5.5568 30.8957L13.9423 7.43285C14.0812 7.0445 14.3385 6.70967 14.6778 6.4757C15.0171 6.24172 15.4212 6.12042 15.8331 6.12895L25.1464 6.29779C25.5753 6.28316 25.9971 6.40949 26.3475 6.65748C26.6979 6.90547 26.9576 7.26148 27.087 7.67115ZM23.062 32.3741C23.172 32.4654 23.3097 32.5165 23.4525 32.519C23.5653 32.5401 23.6817 32.5318 23.7905 32.4948C23.8992 32.4578 23.9965 32.3934 24.0732 32.3078C24.1498 32.2222 24.2031 32.1182 24.2279 32.0059C24.2527 31.8937 24.2482 31.7769 24.2148 31.6669L20.05 18.5442L17.995 23.4857L17.8303 23.896L11.9358 23.7892L12.1102 23.9301L23.062 32.3741ZM25.3191 32.5528L32.6282 32.6853C32.7297 32.6848 32.8298 32.6611 32.9209 32.6161C33.0119 32.5711 33.0915 32.5058 33.1536 32.4254C33.2157 32.3449 33.2586 32.2514 33.2792 32.1518C33.2998 32.0523 33.2974 31.9493 33.2723 31.8508L25.7427 8.0994C25.7002 7.96712 25.6176 7.85139 25.5064 7.76826C25.3952 7.68514 25.2609 7.63874 25.1221 7.63553L17.813 7.50302L25.3426 31.2544C25.4817 31.6774 25.4734 32.1352 25.3191 32.5528Z" fill="current"/>
</svg>
