<svg width="24" height="24" viewBox="0 0 24 24" fill="none" xmlns="http://www.w3.org/2000/svg">
<path fill-rule="evenodd" clip-rule="evenodd" d="M21.75 15V9C21.75 5.278 18.722 2.25 15 2.25H9C5.278 2.25 2.25 5.278 2.25 9V15C2.25 18.722 5.278 21.75 9 21.75H15C18.722 21.75 21.75 18.722 21.75 15ZM18.6993 9.77235C19.1002 9.36666 19.1002 8.70892 18.6993 8.30323C18.2983 7.89892 17.6497 7.89892 17.2501 8.30323L11.1329 14.4924L7.7527 11.0725C7.35174 10.6668 6.7017 10.6668 6.30073 11.0725C5.89976 11.4782 5.89976 12.1359 6.30073 12.5416L10.4062 16.6954C10.606 16.899 10.8688 17 11.1315 17C11.3943 17 11.657 16.8976 11.8568 16.6954L18.6993 9.77235Z" fill="#023AE0"/>
</svg>
