<svg width="24" height="24" viewBox="0 0 24 24" fill="none" xmlns="http://www.w3.org/2000/svg">
<path d="M17.6469 8.04878L13.6951 11.9998L17.6469 15.9509C18.1156 16.4196 18.1156 17.1794 17.6469 17.6481C17.4133 17.8817 17.1061 18 16.7989 18C16.4917 18 16.1845 17.8833 15.9509 17.6481L11.9992 13.697L8.04755 17.6481C7.81396 17.8817 7.50674 18 7.19956 18C6.89238 18 6.58516 17.8833 6.35158 17.6481C5.88281 17.1794 5.88281 16.4196 6.35158 15.9509L10.3033 11.9998L6.35158 8.04878C5.88281 7.58009 5.88281 6.82021 6.35158 6.35152C6.82034 5.88283 7.58034 5.88283 8.04911 6.35152L12.0008 10.3027L15.9525 6.35152C16.4213 5.88283 17.1812 5.88283 17.65 6.35152C18.1187 6.82021 18.1156 7.58009 17.6469 8.04878Z" fill="#023AE0"/>
</svg>
