<svg width="16" height="16" viewBox="0 0 16 16" fill="none" xmlns="http://www.w3.org/2000/svg">
<path fill-rule="evenodd" clip-rule="evenodd" d="M8.00004 14.6663C11.6759 14.6663 14.6667 11.6756 14.6667 7.99967C14.6667 4.32378 11.6759 1.33301 8.00004 1.33301C4.32414 1.33301 1.33337 4.32378 1.33337 7.99967C1.33337 11.6756 4.32414 14.6663 8.00004 14.6663ZM11.9558 6.97608C12.1793 6.75265 12.1793 6.39042 11.9558 6.167C11.7324 5.94433 11.371 5.94433 11.1483 6.167L7.52684 9.36075L5.64337 7.4773C5.41995 7.25388 5.05774 7.25388 4.83432 7.4773C4.61089 7.70073 4.61089 8.06296 4.83432 8.28638L7.12193 10.574C7.23326 10.6861 7.37967 10.7417 7.52607 10.7417C7.67248 10.7417 7.81889 10.6853 7.93022 10.574L11.9558 6.97608Z" fill="#00C853"/>
</svg>
