<svg width="24" height="24" viewBox="0 0 24 24" fill="none" xmlns="http://www.w3.org/2000/svg">
<path d="M19 14.1667V18.3333C19 18.7754 18.8244 19.1993 18.5118 19.5118C18.1993 19.8244 17.7754 20 17.3333 20H5.66667C5.22464 20 4.80072 19.8244 4.48816 19.5118C4.17559 19.1993 4 18.7754 4 18.3333V6.66667C4 6.22464 4.17559 5.80072 4.48816 5.48816C4.80072 5.17559 5.22464 5 5.66667 5H9.83333" stroke="#0F2978" stroke-width="2" stroke-linecap="round" stroke-linejoin="round"/>
<path d="M18.9142 9.65833L20.4337 8.04605C20.8146 7.64187 20.7932 7.00472 20.386 6.62702L17.5136 3.96279C17.1214 3.59904 16.5124 3.6083 16.1315 3.98382L14.6753 5.41942M18.9142 9.65833L13.2336 15.6859C13.0446 15.8863 12.7813 16 12.5058 16H8.2C8.08954 16 8 15.9105 8 15.8V12.4184C8 12.1507 8.10733 11.8942 8.29796 11.7063L14.6753 5.41942M18.9142 9.65833L14.6753 5.41942" stroke="#0F2978" stroke-width="2"/>
</svg>
