<svg width="40" height="40" viewBox="0 0 40 40" fill="none" xmlns="http://www.w3.org/2000/svg">
<path d="M16.825 11C15.166 11 13.7769 12.059 13.3212 13.5H11.05C10.4704 13.5 10 13.947 10 14.5C10 15.053 10.4704 15.5 11.05 15.5H13.3212C13.7769 16.941 15.166 18 16.825 18C18.8515 18 20.5 16.43 20.5 14.5C20.5 12.57 18.8515 11 16.825 11ZM16.825 16C15.9566 16 15.25 15.327 15.25 14.5C15.25 13.673 15.9566 13 16.825 13C17.6933 13 18.4 13.673 18.4 14.5C18.4 15.327 17.6933 16 16.825 16ZM22.6 14.5C22.6 13.947 23.0704 13.5 23.65 13.5H29.95C30.5296 13.5 31 13.947 31 14.5C31 15.053 30.5296 15.5 29.95 15.5H23.65C23.0704 15.5 22.6 15.053 22.6 14.5ZM29.95 23.5H27.6788C27.2231 22.059 25.834 21 24.175 21C22.1485 21 20.5 22.57 20.5 24.5C20.5 26.43 22.1485 28 24.175 28C25.834 28 27.2231 26.941 27.6788 25.5H29.95C30.5296 25.5 31 25.053 31 24.5C31 23.947 30.5296 23.5 29.95 23.5ZM24.175 26C23.3067 26 22.6 25.327 22.6 24.5C22.6 23.673 23.3067 23 24.175 23C25.0433 23 25.75 23.673 25.75 24.5C25.75 25.327 25.0433 26 24.175 26ZM18.4 24.5C18.4 25.053 17.9296 25.5 17.35 25.5H11.05C10.4704 25.5 10 25.053 10 24.5C10 23.947 10.4704 23.5 11.05 23.5H17.35C17.9296 23.5 18.4 23.947 18.4 24.5Z" fill="#023AE0"/>
</svg>
