<svg width="40" height="40" viewBox="0 0 40 40" fill="none" xmlns="http://www.w3.org/2000/svg">
<path fill-rule="evenodd" clip-rule="evenodd" d="M8 0C3.58172 0 0 3.58172 0 8V32C0 36.4183 3.58172 40 8 40H32C36.4183 40 40 36.4183 40 32V8C40 3.58172 36.4183 0 32 0H8ZM27.7472 11.0452C24.0123 6.54337 18.7962 6.43799 14.9307 8.42686C11.8212 10.0268 9.17045 13.2386 9.06664 16.9151C8.72047 16.9589 8.38022 17.0259 8.04663 17.1158C5.64589 17.7628 3.93624 19.505 3.05115 21.5163C2.17193 23.5142 2.04393 25.9066 2.92412 28.0411C3.82973 30.2372 5.7386 32.0003 8.58705 32.7459L8.83607 32.8111H9.09348H19.0769H19.0942H19.1116H19.129H19.1466H19.1642H19.1819H19.1997H19.2176H19.2356H19.2537H19.2718H19.29H19.3083H19.3267H19.3452H19.3637H19.3824H19.4011H19.4199H19.4388H19.4577H19.4768H19.4959H19.5151H19.5344H19.5537H19.5732H19.5927H19.6123H19.6319H19.6517H19.6715H19.6914H19.7114H19.7314H19.7516H19.7718H19.792H19.8124H19.8328H19.8533H19.8739H19.8945H19.9152H19.936H19.9568H19.9778H19.9988H20.0198H20.041H20.0622H20.0834H20.1048H20.1262H20.1477H20.1692H20.1909H20.2125H20.2343H20.2561H20.278H20.2999H20.3219H20.344H20.3662H20.3884H20.4107H20.433H20.4554H20.4779H20.5004H20.523H20.5456H20.5683H20.5911H20.6139H20.6368H20.6598H20.6828H20.7059H20.729H20.7522H20.7754H20.7987H20.8221H20.8455H20.869H20.8925H20.9161H20.9397H20.9634H20.9872H21.011H21.0349H21.0588H21.0828H21.1068H21.1309H21.155H21.1792H21.2034H21.2277H21.252H21.2764H21.3009H21.3253H21.3499H21.3745H21.3991H21.4238H21.4485H21.4733H21.4981H21.523H21.5479H21.5729H21.5979H21.623H21.6481H21.6732H21.6984H21.7236H21.7489H21.7743H21.7996H21.825H21.8505H21.876H21.9015H21.9271H21.9527H21.9784H22.0041H22.0298H22.0556H22.0814H22.1073H22.1332H22.1591H22.1851H22.2111H22.2372H22.2633H22.2894H22.3155H22.3417H22.368H22.3942H22.4205H22.4468H22.4732H22.4996H22.5261H22.5525H22.579H22.6055H22.6321H22.6587H22.6853H22.712H22.7387H22.7654H22.7921H22.8189H22.8457H22.8725H22.8994H22.9263H22.9532H22.9802H23.0071H23.0341H23.0611H23.0882H23.1153H23.1424H23.1695H23.1966H23.2238H23.251H23.2782H23.3055H23.3327H23.36H23.3873H23.4146H23.442H23.4694H23.4967H23.5242H23.5516H23.579H23.6065H23.634H23.6615H23.689H23.7165H23.7441H23.7717H23.7993H23.8269H23.8545H23.8821H23.9098H23.9374H23.9651H23.9928H24.0205H24.0483H24.076H24.1037H24.1315H24.1593H24.187H24.2148H24.2426H24.2704H24.2983H24.3261H24.3539H24.3818H24.4097H24.4375H24.4654H24.4933H24.5212H24.5491H24.577H24.6049H24.6328H24.6607H24.6886H24.7166H24.7445H24.7724H24.8004H24.8283H24.8563H24.8842H24.9122H24.9401H24.9681H24.996H25.024H25.0519H25.0799H25.1078H25.1358H25.1638H25.1917H25.2197H25.2476H25.2756H25.3035H25.3314H25.3594H25.3873H25.4152H25.4431H25.4711H25.499H25.5269H25.5548H25.5827H25.6106H25.6384H25.6663H25.6942H25.722H25.7499H25.7777H25.8055H25.8334H25.8612H25.889H25.9167H25.9445H25.9723H26H26.0278H26.0555H26.0832H26.1109H26.1386H26.1663H26.1939H26.2216H26.2492H26.2768H26.3044H26.332H26.3596H26.3871H26.4146H26.4422H26.4697H26.4971H26.5246H26.552H26.5795H26.6069H26.6342H26.6616H26.6889H26.7162H26.7435H26.7708H26.7981H26.8253H26.8525H26.8797H26.9068H26.934H26.9611H26.9882H27.0152H27.0423H27.0693H27.0963H27.1232H27.1501H27.177H27.2039H27.2308H27.2576H27.2844H27.3111H27.3379H27.3646H27.3912H27.4179H27.4445H27.4711H27.4976H27.5241H27.5506H27.5771H27.6035H27.6299H27.6562H27.6825H27.7088H27.7351H27.7613H27.7874H27.8136H27.8397H27.8658H27.8918H27.9178H27.9437H27.9697H27.9955H28.0214H28.0472H28.0729H28.0987H28.1243H28.15H28.1756H28.2011H28.2267H28.2521H28.2776H28.303H28.3283H28.3536H28.3789H28.4041H28.4293H28.4544H28.4795H28.5045H28.5295H28.5544H28.5793H28.6042H28.629H28.6537H28.6785H28.7031H28.7277H28.7523H28.7768H28.8013H28.8257H28.85H28.8743H28.8986H28.9228H28.947H28.9711H28.9951H29.0191H29.0431H29.067H29.0908H29.1146H29.1383H29.162H29.1856H29.2092H29.2327H29.2561H29.2795H29.3028H29.3261H29.3493H29.3725H29.3956H29.4186H29.4416H29.4645H29.4874H29.5102H29.5329H29.5556H29.5782H29.6008H29.6233H29.6457H29.6681H29.6904H29.7126H29.7348H29.7569H29.779H29.8009H29.8229H29.8447H29.8665H29.8882H29.9099H29.9314H29.953H29.9744H29.9958H30.0171H30.0383H30.0595H30.0806H30.1016H30.1226H30.1435H30.1643H30.1851H30.2057H30.2263H30.2469H30.2673H30.2877H30.308H30.3282H30.3484H30.3685H30.3885H30.4084H30.4283H30.4481H30.4678H30.4874H30.507H30.5264H30.5458H30.5652H30.5844H30.6036H30.6226H30.6416H30.6606H30.6794H30.6982H30.7168H30.7354H30.7539H30.7724H30.7907H30.809H30.8272H30.8453H30.8633H30.8812H30.8991H30.9168H30.9345H30.9521H30.9696H30.987H31.0043H31.0216H31.0387H31.0558H31.0728H31.0896H31.1064H31.1232H31.1398H31.1563H31.1727H31.1891H31.2053H31.2215H31.2376H31.2536H31.2694H31.2852H31.3009H31.3165H31.3321H31.3475H31.3628H31.378C33.6293 32.8111 35.3189 31.4815 36.3268 29.89C37.3258 28.3125 37.7913 26.3089 37.6514 24.3803C37.5105 22.4377 36.737 20.3956 35.0423 18.9311C33.7545 17.8181 32.0805 17.1641 30.0793 17.0443C29.897 15.3519 29.3536 12.9814 27.7472 11.0452ZM16.0785 18.8911C15.065 18.2221 14.0606 17.7215 13.0779 17.3839C12.9818 15.419 14.3647 13.2165 16.7607 11.9837C19.2686 10.6933 22.3422 10.795 24.6687 13.5992C26.1668 15.4049 26.169 18.0867 26.169 19.0957V21.3331L28.3924 21.0832C30.5111 20.845 31.7311 21.3563 32.4269 21.9575C33.1501 22.5825 33.58 23.5407 33.6619 24.6698C33.7448 25.8128 33.4526 26.9522 32.9475 27.7498C32.4512 28.5335 31.89 28.8111 31.378 28.8111H31.3628H31.3475H31.3321H31.3165H31.3009H31.2852H31.2694H31.2536H31.2376H31.2215H31.2053H31.1891H31.1727H31.1563H31.1398H31.1232H31.1064H31.0896H31.0728H31.0558H31.0387H31.0216H31.0043H30.987H30.9696H30.9521H30.9345H30.9168H30.8991H30.8812H30.8633H30.8453H30.8272H30.809H30.7907H30.7724H30.7539H30.7354H30.7168H30.6982H30.6794H30.6606H30.6416H30.6226H30.6036H30.5844H30.5652H30.5458H30.5264H30.507H30.4874H30.4678H30.4481H30.4283H30.4084H30.3885H30.3685H30.3484H30.3282H30.308H30.2877H30.2673H30.2469H30.2263H30.2057H30.1851H30.1643H30.1435H30.1226H30.1016H30.0806H30.0595H30.0383H30.0171H29.9958H29.9744H29.953H29.9314H29.9099H29.8882H29.8665H29.8447H29.8229H29.8009H29.779H29.7569H29.7348H29.7126H29.6904H29.6681H29.6457H29.6233H29.6008H29.5782H29.5556H29.5329H29.5102H29.4874H29.4645H29.4416H29.4186H29.3956H29.3725H29.3493H29.3261H29.3028H29.2795H29.2561H29.2327H29.2092H29.1856H29.162H29.1383H29.1146H29.0908H29.067H29.0431H29.0191H28.9951H28.9711H28.947H28.9228H28.8986H28.8743H28.85H28.8257H28.8013H28.7768H28.7523H28.7277H28.7031H28.6785H28.6537H28.629H28.6042H28.5793H28.5544H28.5295H28.5045H28.4795H28.4544H28.4293H28.4041H28.3789H28.3536H28.3283H28.303H28.2776H28.2521H28.2267H28.2011H28.1756H28.15H28.1243H28.0987H28.0729H28.0472H28.0214H27.9955H27.9697H27.9437H27.9178H27.8918H27.8658H27.8397H27.8136H27.7874H27.7613H27.7351H27.7088H27.6825H27.6562H27.6299H27.6035H27.5771H27.5506H27.5241H27.4976H27.4711H27.4445H27.4179H27.3912H27.3646H27.3379H27.3111H27.2844H27.2576H27.2308H27.2039H27.177H27.1501H27.1232H27.0963H27.0693H27.0423H27.0152H26.9882H26.9611H26.934H26.9068H26.8797H26.8525H26.8253H26.7981H26.7708H26.7435H26.7162H26.6889H26.6616H26.6342H26.6069H26.5795H26.552H26.5246H26.4971H26.4697H26.4422H26.4146H26.3871H26.3596H26.332H26.3044H26.2768H26.2492H26.2216H26.1939H26.1663H26.1386H26.1109H26.0832H26.0555H26.0278H26H25.9723H25.9445H25.9167H25.889H25.8612H25.8334H25.8055H25.7777H25.7499H25.722H25.6942H25.6663H25.6384H25.6106H25.5827H25.5548H25.5269H25.499H25.4711H25.4431H25.4152H25.3873H25.3594H25.3314H25.3035H25.2756H25.2476H25.2197H25.1917H25.1638H25.1358H25.1078H25.0799H25.0519H25.024H24.996H24.9681H24.9401H24.9122H24.8842H24.8563H24.8283H24.8004H24.7724H24.7445H24.7166H24.6886H24.6607H24.6328H24.6049H24.577H24.5491H24.5212H24.4933H24.4654H24.4375H24.4097H24.3818H24.3539H24.3261H24.2983H24.2704H24.2426H24.2148H24.187H24.1593H24.1315H24.1037H24.076H24.0483H24.0205H23.9928H23.9651H23.9374H23.9098H23.8821H23.8545H23.8269H23.7993H23.7717H23.7441H23.7165H23.689H23.6615H23.634H23.6065H23.579H23.5516H23.5242H23.4967H23.4694H23.442H23.4146H23.3873H23.36H23.3327H23.3055H23.2782H23.251H23.2238H23.1966H23.1695H23.1424H23.1153H23.0882H23.0611H23.0341H23.0071H22.9802H22.9532H22.9263H22.8994H22.8725H22.8457H22.8189H22.7921H22.7654H22.7387H22.712H22.6853H22.6587H22.6321H22.6055H22.579H22.5525H22.5261H22.4996H22.4732H22.4468H22.4205H22.3942H22.368H22.3417H22.3155H22.2894H22.2633H22.2372H22.2111H22.1851H22.1591H22.1332H22.1073H22.0814H22.0556H22.0298H22.0041H21.9784H21.9527H21.9271H21.9015H21.876H21.8505H21.825H21.7996H21.7743H21.7489H21.7236H21.6984H21.6732H21.6481H21.623H21.5979H21.5729H21.5479H21.523H21.4981H21.4733H21.4485H21.4238H21.3991H21.3745H21.3499H21.3253H21.3009H21.2764H21.252H21.2277H21.2034H21.1792H21.155H21.1309H21.1068H21.0828H21.0588H21.0349H21.011H20.9872H20.9634H20.9397H20.9161H20.8925H20.869H20.8455H20.8221H20.7987H20.7754H20.7522H20.729H20.7059H20.6828H20.6598H20.6368H20.6139H20.5911H20.5683H20.5456H20.523H20.5004H20.4779H20.4554H20.433H20.4107H20.3884H20.3662H20.344H20.3219H20.2999H20.278H20.2561H20.2343H20.2125H20.1909H20.1692H20.1477H20.1262H20.1048H20.0834H20.0622H20.041H20.0198H19.9988H19.9778H19.9568H19.936H19.9152H19.8945H19.8739H19.8533H19.8328H19.8124H19.792H19.7718H19.7516H19.7314H19.7114H19.6914H19.6715H19.6517H19.6319H19.6123H19.5927H19.5732H19.5537H19.5344H19.5151H19.4959H19.4768H19.4577H19.4388H19.4199H19.4011H19.3824H19.3637H19.3452H19.3267H19.3083H19.29H19.2718H19.2537H19.2356H19.2176H19.1997H19.1819H19.1642H19.1466H19.129H19.1116H19.0942H19.0769H9.36824C7.82176 28.3446 7.00686 27.4494 6.62205 26.5162C6.19303 25.4758 6.23218 24.2185 6.71232 23.1274C7.18659 22.0497 8.02853 21.2634 9.08747 20.978C10.1257 20.6982 11.7201 20.8096 13.8656 22.2233L15.3523 23.2292L17.5939 19.9163L16.0974 18.9037L16.088 18.8973L16.0785 18.8911Z" fill="current"/>
</svg>
