<svg width="16" height="16" viewBox="0 0 16 16" fill="none" xmlns="http://www.w3.org/2000/svg">
<path fill-rule="evenodd" clip-rule="evenodd" d="M8.00016 14.6663C11.6761 14.6663 14.6668 11.6756 14.6668 7.99967C14.6668 4.32378 11.6761 1.33301 8.00016 1.33301C4.32427 1.33301 1.3335 4.32378 1.3335 7.99967C1.3335 11.6756 4.32427 14.6663 8.00016 14.6663ZM11.9561 6.97608C12.1795 6.75265 12.1795 6.39042 11.9561 6.167C11.7327 5.94433 11.3712 5.94433 11.1486 6.167L7.52709 9.36075L5.64362 7.4773C5.42019 7.25388 5.05798 7.25388 4.83456 7.4773C4.61114 7.70073 4.61114 8.06296 4.83456 8.28638L7.12217 10.574C7.2335 10.6861 7.37991 10.7417 7.52632 10.7417C7.67273 10.7417 7.81913 10.6853 7.93046 10.574L11.9561 6.97608Z" fill="#00C853"/>
</svg>
