<svg width="16" height="16" viewBox="0 0 16 16" fill="none" xmlns="http://www.w3.org/2000/svg">
<path fill-rule="evenodd" clip-rule="evenodd" d="M1.3335 7.99967C1.3335 4.32367 4.32416 1.33301 8.00016 1.33301C11.6762 1.33301 14.6668 4.32367 14.6668 7.99967C14.6668 11.6757 11.6762 14.6663 8.00016 14.6663C4.32416 14.6663 1.3335 11.6757 1.3335 7.99967ZM10.4716 6.47122L8.94298 7.99986L10.4716 9.52851C10.7323 9.78918 10.7323 10.2106 10.4716 10.4712C10.3416 10.6012 10.171 10.6665 10.0003 10.6665C9.82964 10.6665 9.659 10.6012 9.529 10.4712L8.00031 8.94249L6.47162 10.4712C6.34162 10.6012 6.17098 10.6665 6.00031 10.6665C5.82964 10.6665 5.659 10.6012 5.529 10.4712C5.26833 10.2106 5.26833 9.78918 5.529 9.52851L7.05764 7.99986L5.529 6.47122C5.26833 6.21055 5.26833 5.78917 5.529 5.52851C5.78966 5.26784 6.21096 5.26784 6.47162 5.52851L8.00031 7.05724L9.529 5.52851C9.78966 5.26784 10.211 5.26784 10.4716 5.52851C10.7323 5.78917 10.7323 6.21055 10.4716 6.47122Z" fill="#DC0000"/>
</svg>
