<svg width="24" height="24" viewBox="0 0 24 24" fill="current" xmlns="http://www.w3.org/2000/svg">
<path d="M9.98488 7.19206C10.0113 7.21813 10.0474 7.23294 10.0851 7.23302C10.0851 7.23302 10.0852 7.23302 10.0852 7.23302M9.98488 7.19206L10.0851 7.28302L10.0852 7.23302M9.98488 7.19206C9.95842 7.16599 9.94367 7.13081 9.94362 7.09426L9.94362 3.32083C9.94367 3.28429 9.95842 3.2491 9.98488 3.22304C10.0114 3.19694 10.0474 3.18213 10.0852 3.18208L9.98488 7.19206ZM10.0852 7.23302L13.9148 7.23302M10.0852 7.23302L13.9148 7.23302M13.9148 7.23302L13.9149 7.23302L13.9148 7.23302ZM14.0564 3.32075L14.0564 3.32083L14.0564 7.09426L13.9149 3.13208C13.9657 3.13215 14.0143 3.15205 14.0502 3.18742C14.0861 3.22279 14.1063 3.27074 14.1064 3.32075L14.0564 3.32075ZM14.0564 3.32075C14.0563 3.28424 14.0416 3.24909 14.0151 3.22304C13.9886 3.19694 13.9526 3.18213 13.9148 3.18208L14.0564 3.32075ZM19.7598 16.0532C19.7333 16.0271 19.6973 16.0123 19.6595 16.0123L15.0639 16.0123C15.0261 16.0123 14.9901 16.0271 14.9636 16.0532C14.9372 16.0793 14.9224 16.1144 14.9223 16.1509C14.9223 16.151 14.9223 16.151 14.9223 16.151M19.7598 16.0532L14.8723 16.1509L14.9223 16.151M19.7598 16.0532C19.7863 16.0793 19.801 16.1145 19.8011 16.151L19.7598 16.0532ZM14.9223 16.151L14.9223 20.6792M14.9223 16.151L14.9223 20.6792M14.9223 20.6792L14.9223 20.6792L14.9223 20.6792ZM13.6734 16.1509L13.6734 16.1509L13.6734 20.6792L13.6734 20.6793C13.6738 21.0429 13.8206 21.3914 14.0814 21.6483C14.3421 21.9052 14.6954 22.0496 15.0638 22.05L15.0638 22.05L19.6596 22.05L19.6596 22.05C20.028 22.0496 20.3813 21.9052 20.642 21.6483C20.9028 21.3914 21.0496 21.0429 21.05 20.6793L21.05 20.6792L21.05 16.1509L21.05 16.1509C21.0496 15.7872 20.9028 15.4388 20.642 15.1819C20.3813 14.925 20.028 14.7806 19.6596 14.7802L19.6596 14.7802L17.9862 14.7802L17.9862 13.8868L17.9862 13.8867C17.9853 13.1229 17.6769 12.3908 17.129 11.8509C16.5811 11.311 15.8384 11.0075 15.0639 11.0066L15.0638 11.0066L12.6245 11.0066L12.6245 8.46509L13.9149 8.46509L13.9149 8.46509C14.2833 8.46468 14.6367 8.32031 14.8974 8.06343C15.1581 7.80652 15.3049 7.45804 15.3053 7.0944L15.3053 7.09434L15.3053 3.32075L15.3053 3.3207C15.3049 2.95705 15.1581 2.60857 14.8974 2.35167C14.6367 2.09478 14.2833 1.95041 13.9149 1.95L13.9149 1.95L10.0851 1.95L10.0851 1.95C9.71667 1.95041 9.36334 2.09478 9.10264 2.35167C8.8419 2.60857 8.6951 2.95705 8.69468 3.3207L8.69468 3.32075L8.69468 7.09434L8.69468 7.0944C8.6951 7.45804 8.8419 7.80652 9.10264 8.06343C9.36334 8.32031 9.71667 8.46468 10.0851 8.46509L10.0851 8.46509L11.3755 8.46509L11.3755 11.0066L8.93617 11.0066L8.93611 11.0066C8.16158 11.0075 7.41888 11.311 6.87098 11.8509C6.32305 12.3908 6.01471 13.1229 6.01383 13.8867L6.01383 13.8868L6.01383 14.7802L4.34042 14.7802L4.34037 14.7802C3.97198 14.7806 3.61866 14.925 3.35796 15.1819C3.09722 15.4388 2.95042 15.7872 2.95 16.1509L2.95 16.1509L2.95 20.6792L2.95 20.6793C2.95042 21.0429 3.09722 21.3914 3.35796 21.6483C3.61866 21.9052 3.97198 22.0496 4.34037 22.05L4.34042 22.05L8.93617 22.05L8.93623 22.05C9.30461 22.0496 9.65793 21.9052 9.91864 21.6483C10.1794 21.3914 10.3262 21.0429 10.3266 20.6793L10.3266 20.6792L10.3266 16.1509L10.3266 16.1509C10.3262 15.7872 10.1794 15.4388 9.91864 15.1819C9.65793 14.925 9.30461 14.7806 8.93623 14.7802L8.93617 14.7802L7.26277 14.7802L7.26277 13.8868C7.26326 13.4501 7.43954 13.0313 7.75319 12.7222C8.06687 12.4131 8.49231 12.2392 8.93622 12.2387L15.0638 12.2387C15.5077 12.2392 15.9331 12.4131 16.2468 12.7222C16.5605 13.0313 16.7367 13.4501 16.7372 13.8868L16.7372 14.7802L15.0638 14.7802L15.0638 14.7802C14.6954 14.7806 14.3421 14.925 14.0814 15.1819C13.8206 15.4388 13.6738 15.7872 13.6734 16.1509ZM8.9361 16.0123C8.97386 16.0123 9.00991 16.0271 9.0364 16.0532C9.06285 16.0793 9.0776 16.1145 9.07766 16.151L9.07766 20.6792C9.0776 20.7157 9.06285 20.7509 9.0364 20.777C9.00991 20.8031 8.97386 20.8179 8.93609 20.8179L4.3405 20.8179C4.30273 20.8179 4.26668 20.8031 4.2402 20.777C4.21374 20.7509 4.19899 20.7157 4.19894 20.6792L4.19894 16.151C4.19899 16.1145 4.21374 16.0793 4.2402 16.0532C4.26668 16.0271 4.30273 16.0123 4.3405 16.0123L8.9361 16.0123Z" fill="current" stroke="current" stroke-width="0.1"/>
</svg>
