<svg width="70" height="63" viewBox="0 0 70 63" fill="none" xmlns="http://www.w3.org/2000/svg">
<g opacity="0.7" clip-path="url(#clip0_772_17387)">
<path d="M62.9382 15.9374C62.9382 15.9374 59.7332 6.05811 50.3294 6.53358C50.3294 6.53358 52.7332 8.99901 51.8615 14.8103C51.8615 14.8103 51.2099 -0.070191 33.7847 0.000249297C22.5055 0.722262 21.1671 5.25685 21.1671 5.25685C21.1671 5.25685 3.08157 4.05937 8.09164 23.3424C8.09164 23.3424 5.89038 21.2116 5.81994 15.9374C5.81994 15.9374 -2.25427 18.1386 0.616167 26.3449C4.04132 34.2166 12.8287 27.5424 12.8287 27.5424C12.8287 27.5424 17.7684 29.4091 20.903 28.4757C20.903 28.4757 17.2313 25.2091 17.3017 21.2028C17.3017 21.2028 20.3747 30.1487 31.2489 30.1839C31.2489 30.1839 30.9143 35.6166 24.0464 39.8254C24.0464 39.8254 41.313 40.9613 47.4237 30.0166C47.4237 30.0166 57.3382 31.6808 61.547 23.2103C61.547 23.2103 61.4765 26.1424 58.4124 28.7487C58.4124 28.7487 64.0828 32.5525 68.5558 26.6179C73.0111 20.6745 65.6061 15.3298 62.9382 15.9374ZM34.9734 25.711C29.8401 25.711 25.6753 21.5462 25.6753 16.4128C25.6753 11.2795 29.8401 7.11471 34.9734 7.11471C40.1067 7.11471 44.2715 11.2795 44.2715 16.4128C44.2715 21.5462 40.1155 25.711 34.9734 25.711Z" fill="#0070C0"/>
<path d="M36.8769 20.683C36.8769 19.6968 37.6782 18.8956 38.6644 18.8956C39.0958 18.8956 39.5009 19.0541 39.809 19.3094C40.3197 18.4641 40.6103 17.4692 40.6103 16.4126C40.6103 13.3044 38.092 10.7773 34.9751 10.7773C31.8669 10.7773 29.3398 13.2956 29.3398 16.4126C29.3398 19.5207 31.8581 22.0478 34.9751 22.0478C35.7411 22.0478 36.4719 21.8981 37.1323 21.6163C36.9738 21.3434 36.8769 21.0264 36.8769 20.683ZM34.526 13.5685C33.1172 13.7887 32.0958 14.9861 32.0958 16.4126C32.0958 16.8528 31.7436 17.205 31.3034 17.205C30.8631 17.205 30.5109 16.8528 30.5109 16.4126C30.5109 14.2025 32.0958 12.3446 34.2795 11.9924C34.7109 11.922 35.1247 12.2214 35.1864 12.6528C35.2568 13.0931 34.9575 13.4981 34.526 13.5685Z" fill="#0070C0"/>
<path d="M6.50166 40.1934L2.5149 44.8856V40.1934H0V51.0806H2.5149V47.8757L3.64955 46.695L6.73177 51.0806H9.59942L5.24434 45.0542L9.32321 40.1934H6.50166Z" fill="#0070C0"/>
<path d="M10.1821 39.8867V49.072C10.1821 49.7671 10.3712 50.2987 10.7495 50.6667C11.1275 51.0349 11.6696 51.2187 12.3748 51.2187C12.7223 51.2187 13.0957 51.1777 13.4943 51.0961C13.8931 51.0143 14.2458 50.9021 14.5524 50.7586L14.2304 48.9187C14.1079 48.9902 13.9723 49.044 13.8241 49.0797C13.6759 49.1156 13.5405 49.1334 13.4177 49.1334C12.8964 49.1334 12.6357 48.8266 12.6357 48.2132V39.8867H10.1821Z" fill="#0070C0"/>
<path d="M17.3498 43.2218C16.8133 43.452 16.3609 43.7586 15.9927 44.1419C15.6249 44.5254 15.346 44.9701 15.1571 45.4761C14.9677 45.9821 14.8735 46.5112 14.8735 47.0633C14.8735 47.6152 14.9677 48.1443 15.1571 48.6502C15.346 49.1563 15.6249 49.601 15.9927 49.9844C16.3609 50.3677 16.8133 50.6721 17.3498 50.8968C17.8864 51.1215 18.4973 51.2341 19.1822 51.2341C19.8671 51.2341 20.478 51.1215 21.0147 50.8968C21.5514 50.6721 22.0038 50.3677 22.372 49.9844C22.7398 49.601 23.0184 49.1563 23.2077 48.6502C23.3967 48.1443 23.4912 47.6152 23.4912 47.0633C23.4912 46.5112 23.3941 45.9821 23.1998 45.4761C23.0055 44.9701 22.7246 44.5254 22.3565 44.1419C21.9884 43.7586 21.5386 43.452 21.007 43.2218C20.4753 42.9919 19.8671 42.877 19.1822 42.877C18.4973 42.877 17.8864 42.9919 17.3498 43.2218ZM17.8944 48.589C17.5568 48.2056 17.3883 47.6972 17.3883 47.0633C17.3883 46.7565 17.4343 46.4728 17.5262 46.2121C17.6182 45.9515 17.7433 45.7291 17.9019 45.5452C18.0603 45.3611 18.2494 45.2181 18.4692 45.1158C18.6889 45.0137 18.9267 44.9623 19.1822 44.9623C19.6932 44.9623 20.1176 45.1541 20.4551 45.5374C20.7925 45.9209 20.961 46.4294 20.961 47.0633C20.961 47.37 20.9152 47.6536 20.823 47.9143C20.7311 48.175 20.6057 48.3973 20.4473 48.5813C20.2887 48.7652 20.1025 48.9087 19.8878 49.0106C19.6731 49.1129 19.4378 49.164 19.1822 49.164C18.6608 49.164 18.2314 48.9724 17.8944 48.589Z" fill="#0070C0"/>
<path d="M29.9628 43.0312V47.9996C29.7277 48.4289 29.4569 48.7307 29.15 48.9043C28.8435 49.0783 28.5265 49.165 28.1995 49.165C27.8415 49.165 27.5652 49.0346 27.3713 48.7741C27.177 48.5133 27.0799 48.1376 27.0799 47.6469V43.0312H24.6265V48.1837C24.6265 49.1855 24.8385 49.9447 25.2628 50.4608C25.687 50.9771 26.3132 51.2351 27.1414 51.2351C27.8162 51.2351 28.4266 51.1099 28.9739 50.8595C29.5206 50.6091 29.9782 50.2181 30.346 49.6864L30.3922 50.1771C30.515 50.8621 31.0155 51.2044 31.8949 51.2044C32.0277 51.2044 32.1759 51.1969 32.3395 51.1815C32.5032 51.1661 32.7024 51.1329 32.9377 51.0818V49.0116C32.7433 48.9913 32.608 48.9327 32.5312 48.8354C32.4548 48.7382 32.4162 48.5671 32.4162 48.3216V43.0312H29.9628Z" fill="#0070C0"/>
<path d="M39.9914 39.8867V44.349C39.746 43.8993 39.3958 43.5416 38.9409 43.2756C38.4859 43.0099 37.9771 42.8769 37.415 42.8769C36.8937 42.8769 36.4157 42.9843 35.9814 43.199C35.5468 43.4136 35.171 43.7076 34.8542 44.0806C34.5372 44.4538 34.2918 44.896 34.1183 45.4069C33.9441 45.9184 33.8574 46.4651 33.8574 47.0479C33.8574 47.6512 33.9521 48.2055 34.1413 48.7116C34.3303 49.2177 34.5938 49.66 34.9308 50.0381C35.2684 50.4165 35.6693 50.7103 36.1348 50.9197C36.5998 51.1292 37.1085 51.234 37.6604 51.234C38.2127 51.234 38.7313 51.1115 39.217 50.866C39.7023 50.6208 40.0881 50.2477 40.3746 49.7467L40.4208 50.1606C40.4613 50.4982 40.6148 50.7564 40.8808 50.935C41.1462 51.1138 41.494 51.2034 41.9234 51.2034C42.0665 51.2034 42.2197 51.1959 42.3833 51.1804C42.5468 51.1651 42.7413 51.1318 42.9662 51.0807V49.0106C42.7719 48.9902 42.6365 48.9317 42.5597 48.8343C42.483 48.7372 42.4449 48.566 42.4449 48.3205V39.8867H39.9914ZM37.5455 49.0106C37.3051 48.9086 37.1006 48.7652 36.9321 48.5812C36.7634 48.3972 36.6305 48.1775 36.5333 47.9218C36.4361 47.6665 36.3876 47.3905 36.3876 47.0938C36.3876 46.8077 36.4311 46.5367 36.518 46.2811C36.6048 46.0257 36.7302 45.8007 36.8937 45.6065C37.0571 45.4124 37.2489 45.2563 37.4687 45.1387C37.6884 45.0214 37.9311 44.9623 38.1972 44.9623C38.5652 44.9623 38.9203 45.0927 39.2629 45.3534C39.6052 45.614 39.8533 45.9491 40.0065 46.3578V48.0446C39.843 48.3923 39.6052 48.6656 39.2937 48.8649C38.9816 49.0642 38.6571 49.164 38.3199 49.164C38.0438 49.164 37.7855 49.1128 37.5455 49.0106Z" fill="#0070C0"/>
<path d="M46.7072 40.324C46.2265 40.4623 45.8126 40.6692 45.4651 40.9451C45.1174 41.2212 44.8465 41.5586 44.6524 41.9571C44.4578 42.356 44.3611 42.8159 44.3611 43.3374C44.3611 43.7668 44.4325 44.1347 44.5757 44.4414C44.7188 44.748 44.9307 45.0088 45.212 45.2235C45.4931 45.4382 45.8431 45.6222 46.2623 45.7756C46.6815 45.9289 47.1672 46.0721 47.719 46.2048C48.2199 46.3276 48.6675 46.4477 49.061 46.5652C49.4545 46.6828 49.784 46.8182 50.0501 46.9715C50.3158 47.1249 50.5177 47.3065 50.6557 47.5161C50.7936 47.7255 50.8628 47.9837 50.8628 48.2903C50.8628 48.8424 50.648 49.2565 50.2187 49.5324C49.7894 49.8084 49.186 49.9464 48.4093 49.9464C47.9899 49.9464 47.589 49.9031 47.2054 49.816C46.8222 49.7294 46.4642 49.6166 46.1323 49.4787C45.7997 49.3407 45.5032 49.1849 45.2428 49.011C44.9821 48.8373 44.7697 48.6636 44.6063 48.4897L43.9468 49.655C44.5602 50.156 45.2428 50.5369 45.9939 50.7975C46.7454 51.0581 47.5403 51.1885 48.3786 51.1885C48.9408 51.1885 49.462 51.1296 49.9427 51.0121C50.4231 50.8947 50.8397 50.7107 51.1923 50.4601C51.5452 50.2096 51.8236 49.8927 52.0281 49.5093C52.2325 49.126 52.3347 48.6736 52.3347 48.1523C52.3347 47.6616 52.2504 47.2476 52.0818 46.9102C51.9131 46.5729 51.6678 46.2867 51.3457 46.0515C51.0237 45.8165 50.6353 45.6197 50.1805 45.4611C49.7253 45.3026 49.2168 45.1621 48.6546 45.0395C48.1639 44.9272 47.7396 44.8198 47.382 44.7175C47.0241 44.6152 46.725 44.495 46.4848 44.3571C46.2445 44.219 46.0681 44.053 45.9557 43.8585C45.8431 43.6646 45.7871 43.4193 45.7871 43.1227C45.7871 42.5706 45.9838 42.1363 46.3776 41.8192C46.7708 41.5026 47.3919 41.3438 48.2406 41.3438C48.5677 41.3438 48.8818 41.3771 49.1837 41.4435C49.4851 41.5101 49.7636 41.5969 50.0194 41.7043C50.2746 41.8115 50.5049 41.9317 50.7093 42.0645C50.9138 42.1975 51.0774 42.3355 51.2001 42.4786L51.8441 41.3592C51.3841 40.9811 50.8575 40.6795 50.2647 40.4545C49.6718 40.2296 49.0073 40.1172 48.2713 40.1172C47.7089 40.1172 47.1876 40.1861 46.7072 40.324Z" fill="#0070C0"/>
<path d="M55.8314 43.2672C55.3302 43.4871 54.8983 43.7861 54.5357 44.1641C54.1724 44.5425 53.8916 44.9823 53.6923 45.4829C53.4927 45.984 53.3931 46.5155 53.3931 47.0777C53.3931 47.64 53.4927 48.1742 53.6923 48.6801C53.8916 49.1863 54.1698 49.6284 54.528 50.0065C54.8856 50.3849 55.315 50.684 55.8159 50.9036C56.3168 51.1234 56.8688 51.2332 57.4722 51.2332C57.8706 51.2332 58.2541 51.1822 58.6221 51.08C58.9902 50.9779 59.3248 50.8372 59.6267 50.6583C59.928 50.4795 60.194 50.2672 60.4239 50.022C60.654 49.7765 60.8353 49.5058 60.9682 49.2091L59.8028 48.8871C59.721 49.0917 59.601 49.2758 59.4427 49.4392C59.2839 49.6028 59.1025 49.7409 58.8982 49.8532C58.6935 49.9658 58.4739 50.0552 58.2387 50.1215C58.0034 50.1883 57.7633 50.2212 57.518 50.2212C57.1706 50.2212 56.8407 50.1548 56.5291 50.022C56.2169 49.8892 55.9387 49.7052 55.6935 49.47C55.448 49.2348 55.2486 48.9538 55.0953 48.6265C54.942 48.2994 54.8498 47.9364 54.8192 47.5378H61.4591C61.4691 47.4866 61.4768 47.4149 61.4819 47.323C61.4871 47.2311 61.4897 47.129 61.4897 47.0164C61.4897 46.485 61.395 45.9712 61.2059 45.4753C61.0166 44.9797 60.7483 44.5451 60.4008 44.1719C60.0531 43.7988 59.6315 43.4999 59.1358 43.2748C58.6399 43.05 58.0906 42.9375 57.4873 42.9375C56.8841 42.9375 56.3319 43.0475 55.8314 43.2672ZM55.0569 45.4983C55.2051 45.1816 55.3994 44.9079 55.6398 44.6779C55.8797 44.4479 56.1584 44.2692 56.4754 44.1411C56.7923 44.0136 57.1294 43.9495 57.4873 43.9495C57.8452 43.9495 58.1824 44.0136 58.4995 44.1411C58.8163 44.2692 59.0949 44.4455 59.3352 44.6702C59.5753 44.8952 59.7746 45.1687 59.9333 45.4907C60.0916 45.8126 60.1861 46.1629 60.2169 46.541H54.7885C54.8192 46.1629 54.9087 45.8153 55.0569 45.4983Z" fill="#0070C0"/>
<path d="M64.8559 43.2672C64.36 43.4871 63.9331 43.7835 63.5755 44.1566C63.2176 44.5298 62.9417 44.967 62.7474 45.4676C62.5531 45.9686 62.4561 46.5003 62.4561 47.0625C62.4561 47.6248 62.5557 48.1587 62.7553 48.6648C62.9545 49.1708 63.2328 49.6131 63.591 49.9912C63.9486 50.3695 64.378 50.6713 64.8789 50.8959C65.3797 51.1207 65.9317 51.2332 66.5352 51.2332C66.9337 51.2332 67.3146 51.1822 67.6774 51.08C68.0404 50.9779 68.37 50.8399 68.6666 50.6659C68.963 50.4922 69.2209 50.2826 69.4408 50.0373C69.6607 49.7918 69.832 49.5211 69.9544 49.2246L68.636 48.8259C68.5744 48.9998 68.4723 49.1609 68.3292 49.3089C68.1859 49.4572 68.02 49.5874 67.8309 49.6999C67.6415 49.8126 67.4321 49.9019 67.2021 49.9682C66.9722 50.0349 66.7394 50.068 66.5045 50.068C66.1364 50.068 65.7913 49.9912 65.4693 49.8378C65.1473 49.6846 64.8661 49.4726 64.626 49.2016C64.3856 48.9309 64.1941 48.6113 64.051 48.2431C63.9075 47.875 63.8363 47.4817 63.8363 47.0625C63.8363 46.6331 63.9052 46.2396 64.0432 45.8816C64.1811 45.524 64.3675 45.2122 64.6029 44.9462C64.8381 44.6805 65.119 44.4735 65.4463 44.3252C65.7733 44.1772 66.121 44.1029 66.489 44.1029C66.9389 44.1029 67.3479 44.2078 67.7157 44.4173C68.0838 44.6268 68.37 44.9208 68.5744 45.2989L69.8932 44.8849C69.5966 44.2922 69.1597 43.8192 68.5823 43.4664C68.0045 43.1138 67.3172 42.9375 66.5197 42.9375C65.9062 42.9375 65.3517 43.0475 64.8559 43.2672Z" fill="#0070C0"/>
<path d="M18.3126 56.5557C18.6987 56.5557 19.001 56.7068 19.2194 57.0091C19.4378 57.3094 19.547 57.7219 19.547 58.2464C19.547 58.7866 19.4339 59.2049 19.2077 59.5013C18.9834 59.7977 18.6773 59.9459 18.2892 59.9459C17.905 59.9459 17.6037 59.8065 17.3853 59.5276H17.3239L17.1747 59.8874H16.4932V55.3359H17.3853V56.3948C17.3853 56.5294 17.3736 56.7449 17.3502 57.0413H17.3853C17.594 56.7176 17.9031 56.5557 18.3126 56.5557ZM18.0259 57.2694C17.8056 57.2694 17.6447 57.3377 17.5433 57.4742C17.4419 57.6088 17.3892 57.832 17.3853 58.1441V58.2406C17.3853 58.5916 17.437 58.8432 17.5404 58.9953C17.6457 59.1474 17.8114 59.2234 18.0376 59.2234C18.2209 59.2234 18.3662 59.1396 18.4735 58.9719C18.5827 58.8022 18.6373 58.5565 18.6373 58.2347C18.6373 57.913 18.5827 57.6721 18.4735 57.5122C18.3643 57.3504 18.2151 57.2694 18.0259 57.2694Z" fill="#0070C0"/>
<path d="M19.8161 56.6171H20.7931L21.4103 58.457C21.4629 58.617 21.499 58.8061 21.5185 59.0245H21.5361C21.5575 58.8237 21.5995 58.6345 21.6619 58.457L22.2674 56.6171H23.2239L21.8403 60.3057C21.7135 60.647 21.5322 60.9024 21.2962 61.0721C21.0622 61.2418 20.7882 61.3266 20.4743 61.3266C20.3202 61.3266 20.1691 61.31 20.0209 61.2769V60.569C20.1281 60.5943 20.2451 60.607 20.3719 60.607C20.5298 60.607 20.6673 60.5583 20.7843 60.4608C20.9033 60.3652 20.9959 60.2199 21.0622 60.0249L21.1149 59.864L19.8161 56.6171Z" fill="#0070C0"/>
<path d="M27.1377 56.3042C26.7964 56.3042 26.5322 56.4329 26.345 56.6903C26.1578 56.9457 26.0642 57.3026 26.0642 57.7609C26.0642 58.7145 26.422 59.1913 27.1377 59.1913C27.438 59.1913 27.8017 59.1162 28.2288 58.966V59.7265C27.8777 59.8728 27.4858 59.9459 27.0529 59.9459C26.4308 59.9459 25.955 59.7577 25.6254 59.3814C25.2958 59.0031 25.1311 58.4609 25.1311 57.755C25.1311 57.3104 25.212 56.9214 25.3738 56.5879C25.5357 56.2525 25.7678 55.996 26.07 55.8186C26.3742 55.6392 26.7301 55.5495 27.1377 55.5495C27.5531 55.5495 27.9704 55.6499 28.3896 55.8508L28.0971 56.5879C27.9372 56.5118 27.7763 56.4455 27.6145 56.389C27.4526 56.3324 27.2937 56.3042 27.1377 56.3042Z" fill="#0070C0"/>
<path d="M29.9634 59.8874H29.0712V55.3359H29.9634V59.8874Z" fill="#0070C0"/>
<path d="M31.6131 58.2464C31.6131 58.5701 31.6658 58.8149 31.7711 58.9806C31.8783 59.1464 32.0519 59.2293 32.2918 59.2293C32.5297 59.2293 32.7003 59.1474 32.8037 58.9836C32.909 58.8178 32.9616 58.5721 32.9616 58.2464C32.9616 57.9227 32.909 57.6799 32.8037 57.5181C32.6983 57.3562 32.5258 57.2753 32.2859 57.2753C32.048 57.2753 31.8764 57.3562 31.7711 57.5181C31.6658 57.678 31.6131 57.9208 31.6131 58.2464ZM33.8742 58.2464C33.8742 58.7788 33.7338 59.1952 33.453 59.4955C33.1722 59.7958 32.7812 59.9459 32.2801 59.9459C31.9661 59.9459 31.6892 59.8777 31.4493 59.7412C31.2095 59.6027 31.0252 59.4048 30.8965 59.1474C30.7678 58.89 30.7034 58.5896 30.7034 58.2464C30.7034 57.7121 30.8428 57.2967 31.1217 57.0003C31.4006 56.7039 31.7925 56.5557 32.2976 56.5557C32.6116 56.5557 32.8885 56.624 33.1283 56.7605C33.3682 56.897 33.5525 57.093 33.6812 57.3484C33.8099 57.6039 33.8742 57.9032 33.8742 58.2464Z" fill="#0070C0"/>
<path d="M36.9281 59.8874L36.8081 59.4691H36.7613C36.6658 59.6212 36.5303 59.7392 36.3548 59.8231C36.1792 59.905 35.9794 59.9459 35.7551 59.9459C35.3709 59.9459 35.0813 59.8436 34.8863 59.6388C34.6913 59.4321 34.5938 59.1357 34.5938 58.7496V56.6171H35.486V58.5272C35.486 58.7632 35.5279 58.9407 35.6118 59.0596C35.6956 59.1766 35.8292 59.2351 36.0125 59.2351C36.2621 59.2351 36.4425 59.1522 36.5537 58.9865C36.6648 58.8188 36.7204 58.5419 36.7204 58.1558V56.6171H37.6126V59.8874H36.9281Z" fill="#0070C0"/>
<path d="M39.5841 59.9459C39.1999 59.9459 38.8977 59.7968 38.6773 59.4984C38.4589 59.2 38.3497 58.7866 38.3497 58.2581C38.3497 57.7219 38.4608 57.3045 38.6831 57.0062C38.9074 56.7059 39.2155 56.5557 39.6075 56.5557C40.019 56.5557 40.3329 56.7156 40.5494 57.0354H40.5786C40.5338 56.7917 40.5114 56.5742 40.5114 56.3831V55.3359H41.4064V59.8874H40.722L40.5494 59.4633H40.5114C40.3085 59.785 39.9995 59.9459 39.5841 59.9459ZM39.8971 59.2351C40.1252 59.2351 40.292 59.1688 40.3973 59.0362C40.5045 58.9036 40.563 58.6784 40.5728 58.3605V58.264C40.5728 57.913 40.5182 57.6614 40.409 57.5093C40.3017 57.3572 40.1262 57.2811 39.8825 57.2811C39.6835 57.2811 39.5285 57.366 39.4174 57.5356C39.3081 57.7033 39.2535 57.9481 39.2535 58.2698C39.2535 58.5916 39.3091 58.8334 39.4203 58.9953C39.5314 59.1552 39.6904 59.2351 39.8971 59.2351Z" fill="#0070C0"/>
<path d="M42.4098 59.8874V55.6109H43.3165V59.8874H42.4098Z" fill="#0070C0"/>
<path d="M47.3415 59.8874H46.4494V57.9773C46.4494 57.7414 46.4074 57.5649 46.3236 57.4479C46.2397 57.3289 46.1061 57.2694 45.9228 57.2694C45.6732 57.2694 45.4928 57.3533 45.3817 57.521C45.2705 57.6868 45.215 57.9627 45.215 58.3488V59.8874H44.3228V56.6171H45.0043L45.1243 57.0354H45.174C45.2735 56.8775 45.41 56.7585 45.5835 56.6786C45.759 56.5967 45.9579 56.5557 46.1802 56.5557C46.5605 56.5557 46.8491 56.6591 47.0461 56.8658C47.243 57.0705 47.3415 57.3669 47.3415 57.755V59.8874Z" fill="#0070C0"/>
<path d="M48.222 55.7718C48.222 55.4812 48.3838 55.3359 48.7075 55.3359C49.0313 55.3359 49.1931 55.4812 49.1931 55.7718C49.1931 55.9102 49.1522 56.0185 49.0703 56.0965C48.9903 56.1725 48.8694 56.2105 48.7075 56.2105C48.3838 56.2105 48.222 56.0643 48.222 55.7718ZM49.1522 59.8874H48.26V56.6171H49.1522V59.8874Z" fill="#0070C0"/>
<path d="M51.4689 59.2351C51.6249 59.2351 51.8121 59.201 52.0305 59.1327V59.7968C51.8082 59.8962 51.5352 59.9459 51.2115 59.9459C50.8546 59.9459 50.5942 59.8562 50.4304 59.6768C50.2686 59.4955 50.1877 59.2244 50.1877 58.8636V57.287H49.7606V56.9097L50.252 56.6113L50.5094 55.921H51.0798V56.6171H51.9954V57.287H51.0798V58.8636C51.0798 58.9904 51.1149 59.084 51.1851 59.1444C51.2573 59.2049 51.3519 59.2351 51.4689 59.2351Z" fill="#0070C0"/>
</g>
<defs>
<clipPath id="clip0_772_17387">
<rect width="70" height="62.3396" fill="white"/>
</clipPath>
</defs>
</svg>
