<svg width="795" height="582" viewBox="0 0 795 582" fill="none" xmlns="http://www.w3.org/2000/svg">
<path d="M714.809 181.003C714.809 181.003 678.409 68.8028 571.609 74.2028C571.609 74.2028 598.909 102.203 589.009 168.203C589.009 168.203 581.609 -0.797169 383.709 0.0028313C255.609 8.20283 240.409 59.7028 240.409 59.7028C240.409 59.7028 35.0089 46.1029 91.909 265.103C91.909 265.103 66.909 240.903 66.109 181.003C66.109 181.003 -25.591 206.003 7.00899 299.203C45.909 388.603 145.709 312.803 145.709 312.803C145.709 312.803 201.809 334.003 237.409 323.403C237.409 323.403 195.709 286.303 196.509 240.803C196.509 240.803 231.409 342.403 354.909 342.803C354.909 342.803 351.109 404.503 273.109 452.303C273.109 452.303 469.209 465.203 538.609 340.903C538.609 340.903 651.209 359.803 699.009 263.603C699.009 263.603 698.209 296.903 663.409 326.503C663.409 326.503 727.809 369.703 778.609 302.303C829.209 234.803 745.109 174.103 714.809 181.003ZM397.209 292.003C338.909 292.003 291.609 244.703 291.609 186.403C291.609 128.103 338.909 80.8028 397.209 80.8028C455.509 80.8028 502.809 128.103 502.809 186.403C502.809 244.703 455.609 292.003 397.209 292.003Z" fill="current"/>
<path d="M418.809 234.903C418.809 223.703 427.909 214.603 439.109 214.603C444.009 214.603 448.609 216.403 452.109 219.303C457.909 209.703 461.209 198.403 461.209 186.403C461.209 151.103 432.609 122.403 397.209 122.403C361.909 122.403 333.209 151.003 333.209 186.403C333.209 221.703 361.809 250.403 397.209 250.403C405.909 250.403 414.209 248.703 421.709 245.503C419.909 242.403 418.809 238.803 418.809 234.903ZM392.109 154.103C376.109 156.603 364.509 170.203 364.509 186.403C364.509 191.403 360.509 195.403 355.509 195.403C350.509 195.403 346.509 191.403 346.509 186.403C346.509 161.303 364.509 140.203 389.309 136.203C394.209 135.403 398.909 138.803 399.609 143.703C400.409 148.703 397.009 153.303 392.109 154.103Z" fill="current"/>
<path d="M73.8403 456.484L28.5621 509.774V456.484H0V580.132H28.5621V543.733L41.4485 530.324L76.4537 580.132H109.022L59.5607 511.689L105.885 456.484H73.8403Z" fill="current"/>
<path d="M115.635 453V557.319C115.635 565.213 117.782 571.25 122.079 575.43C126.372 579.611 132.528 581.699 140.537 581.699C144.484 581.699 148.725 581.233 153.252 580.306C157.781 579.378 161.787 578.103 165.269 576.474L161.612 555.577C160.22 556.39 158.68 557 156.997 557.406C155.314 557.814 153.776 558.016 152.382 558.016C146.461 558.016 143.5 554.532 143.5 547.565V453H115.635Z" fill="current"/>
<path d="M197.05 490.877C190.957 493.491 185.819 496.973 181.638 501.326C177.46 505.682 174.293 510.732 172.147 516.479C169.997 522.226 168.927 528.235 168.927 534.505C168.927 540.773 169.997 546.782 172.147 552.528C174.293 558.275 177.46 563.326 181.638 567.68C185.819 572.034 190.957 575.491 197.05 578.042C203.145 580.595 210.083 581.873 217.861 581.873C225.64 581.873 232.578 580.595 238.673 578.042C244.769 575.491 249.906 572.034 254.088 567.68C258.265 563.326 261.429 558.275 263.579 552.528C265.726 546.782 266.799 540.773 266.799 534.505C266.799 528.235 265.696 522.226 263.49 516.479C261.283 510.732 258.093 505.682 253.912 501.326C249.731 496.973 244.623 493.491 238.586 490.877C232.547 488.266 225.64 486.96 217.861 486.96C210.083 486.96 203.145 488.266 197.05 490.877ZM203.235 551.832C199.401 547.478 197.487 541.704 197.487 534.505C197.487 531.02 198.01 527.799 199.054 524.838C200.098 521.878 201.519 519.352 203.32 517.264C205.12 515.173 207.267 513.549 209.764 512.387C212.259 511.227 214.959 510.644 217.861 510.644C223.665 510.644 228.485 512.822 232.318 517.175C236.149 521.53 238.063 527.306 238.063 534.505C238.063 537.988 237.543 541.209 236.496 544.17C235.452 547.131 234.028 549.655 232.229 551.745C230.428 553.834 228.313 555.463 225.875 556.621C223.436 557.782 220.764 558.363 217.861 558.363C211.94 558.363 207.063 556.187 203.235 551.832" fill="current"/>
<path d="M340.289 488.701V545.127C337.62 550.003 334.544 553.43 331.059 555.402C327.577 557.378 323.977 558.363 320.263 558.363C316.198 558.363 313.06 556.882 310.857 553.923C308.651 550.962 307.548 546.695 307.548 541.122V488.701H279.684V547.218C279.684 558.596 282.092 567.218 286.911 573.079C291.729 578.943 298.841 581.873 308.247 581.873C315.91 581.873 322.843 580.451 329.059 577.608C335.267 574.764 340.464 570.323 344.642 564.285L345.166 569.857C346.561 577.637 352.245 581.525 362.233 581.525C363.741 581.525 365.424 581.44 367.282 581.264C369.141 581.09 371.404 580.712 374.076 580.132V556.621C371.868 556.39 370.331 555.725 369.459 554.619C368.591 553.516 368.153 551.572 368.153 548.784V488.701H340.289Z" fill="current"/>
<path d="M454.187 453V503.679C451.399 498.571 447.422 494.509 442.256 491.488C437.088 488.47 431.31 486.96 424.926 486.96C419.006 486.96 413.577 488.18 408.644 490.618C403.708 493.055 399.441 496.394 395.843 500.631C392.242 504.869 389.455 509.891 387.485 515.694C385.507 521.503 384.522 527.712 384.522 534.331C384.522 541.182 385.597 547.478 387.746 553.225C389.893 558.973 392.885 563.996 396.713 568.291C400.547 572.588 405.1 575.925 410.386 578.303C415.668 580.682 421.445 581.873 427.713 581.873C433.985 581.873 439.875 580.481 445.391 577.693C450.903 574.908 455.285 570.671 458.539 564.981L459.063 569.682C459.523 573.516 461.266 576.448 464.287 578.477C467.302 580.508 471.252 581.525 476.128 581.525C477.754 581.525 479.494 581.44 481.352 581.264C483.208 581.09 485.417 580.712 487.972 580.132V556.621C485.765 556.39 484.227 555.725 483.355 554.619C482.484 553.516 482.051 551.572 482.051 548.784V453H454.187ZM426.408 556.621C423.678 555.463 421.355 553.834 419.441 551.745C417.526 549.655 416.016 547.16 414.912 544.256C413.809 541.356 413.258 538.222 413.258 534.852C413.258 531.603 413.752 528.525 414.739 525.622C415.724 522.721 417.148 520.166 419.006 517.96C420.861 515.756 423.039 513.983 425.536 512.647C428.031 511.315 430.787 510.644 433.809 510.644C437.989 510.644 442.022 512.125 445.913 515.086C449.8 518.046 452.618 521.851 454.358 526.493V545.65C452.501 549.599 449.8 552.703 446.263 554.967C442.718 557.23 439.033 558.363 435.203 558.363C432.067 558.363 429.134 557.782 426.408 556.621" fill="current"/>
<path d="M530.465 457.962C525.006 459.532 520.305 461.882 516.359 465.016C512.41 468.152 509.333 471.983 507.129 476.509C504.919 481.039 503.821 486.263 503.821 492.185C503.821 497.062 504.631 501.241 506.258 504.724C507.883 508.206 510.289 511.168 513.484 513.606C516.677 516.044 520.652 518.134 525.413 519.876C530.174 521.617 535.69 523.244 541.957 524.751C547.645 526.146 552.729 527.51 557.198 528.844C561.667 530.18 565.409 531.717 568.431 533.458C571.449 535.201 573.742 537.263 575.309 539.643C576.875 542.022 577.661 544.954 577.661 548.436C577.661 554.706 575.222 559.409 570.346 562.543C565.47 565.678 558.618 567.245 549.797 567.245C545.033 567.245 540.48 566.753 536.124 565.764C531.771 564.78 527.706 563.499 523.936 561.933C520.159 560.366 516.792 558.596 513.834 556.621C510.873 554.649 508.461 552.676 506.605 550.701L499.115 563.935C506.082 569.625 513.834 573.951 522.364 576.911C530.899 579.87 539.927 581.351 549.448 581.351C555.833 581.351 561.752 580.682 567.211 579.348C572.668 578.015 577.399 575.925 581.404 573.079C585.411 570.234 588.573 566.635 590.896 562.28C593.217 557.927 594.378 552.789 594.378 546.869C594.378 541.296 593.42 536.594 591.506 532.762C589.59 528.932 586.804 525.681 583.146 523.01C579.489 520.341 575.077 518.106 569.912 516.305C564.743 514.505 558.967 512.909 552.582 511.516C547.009 510.241 542.191 509.021 538.129 507.859C534.064 506.698 530.668 505.333 527.94 503.766C525.21 502.198 523.207 500.313 521.931 498.104C520.652 495.901 520.016 493.116 520.016 489.747C520.016 483.477 522.25 478.544 526.722 474.943C531.188 471.347 538.242 469.544 547.881 469.544C551.595 469.544 555.163 469.922 558.591 470.676C562.014 471.433 565.178 472.418 568.083 473.638C570.981 474.856 573.596 476.221 575.918 477.729C578.241 479.239 580.099 480.807 581.492 482.432L588.806 469.719C583.582 465.425 577.601 461.999 570.869 459.444C564.135 456.89 556.588 455.613 548.229 455.613C541.842 455.613 535.922 456.396 530.465 457.962" fill="current"/>
<path d="M634.086 491.401C628.394 493.899 623.489 497.295 619.371 501.588C615.245 505.885 612.056 510.88 609.792 516.566C607.526 522.256 606.394 528.293 606.394 534.678C606.394 541.064 607.526 547.131 609.792 552.877C612.056 558.625 615.215 563.647 619.283 567.941C623.345 572.238 628.222 575.635 633.91 578.129C639.599 580.625 645.868 581.873 652.721 581.873C657.246 581.873 661.602 581.293 665.781 580.132C669.961 578.973 673.762 577.375 677.19 575.343C680.612 573.313 683.633 570.902 686.244 568.117C688.857 565.328 690.916 562.254 692.426 558.885L679.19 555.227C678.261 557.551 676.898 559.642 675.1 561.498C673.297 563.356 671.237 564.924 668.917 566.2C666.592 567.478 664.098 568.494 661.427 569.247C658.754 570.005 656.027 570.379 653.241 570.379C649.296 570.379 645.549 569.625 642.01 568.117C638.465 566.609 635.305 564.519 632.52 561.847C629.732 559.176 627.467 555.985 625.727 552.268C623.985 548.553 622.938 544.43 622.591 539.903H698.001C698.115 539.322 698.202 538.508 698.26 537.464C698.319 536.42 698.349 535.26 698.349 533.982C698.349 527.946 697.273 522.111 695.125 516.479C692.976 510.85 689.928 505.915 685.982 501.676C682.033 497.439 677.245 494.044 671.615 491.488C665.983 488.935 659.745 487.657 652.893 487.657C646.042 487.657 639.771 488.906 634.086 491.401V491.401ZM625.29 516.74C626.974 513.144 629.18 510.035 631.91 507.423C634.635 504.811 637.8 502.781 641.4 501.326C645 499.878 648.828 499.15 652.893 499.15C656.957 499.15 660.787 499.878 664.389 501.326C667.987 502.781 671.15 504.784 673.88 507.336C676.607 509.891 678.87 512.997 680.672 516.654C682.47 520.31 683.544 524.288 683.893 528.583H622.242C622.591 524.288 623.607 520.341 625.29 516.74" fill="current"/>
<path d="M736.571 491.401C730.939 493.899 726.091 497.265 722.03 501.502C717.965 505.741 714.832 510.706 712.625 516.392C710.418 522.082 709.316 528.12 709.316 534.505C709.316 540.891 710.448 546.955 712.715 552.703C714.977 558.449 718.138 563.473 722.206 567.767C726.267 572.063 731.144 575.491 736.833 578.042C742.52 580.595 748.789 581.873 755.643 581.873C760.169 581.873 764.495 581.293 768.616 580.132C772.738 578.973 776.481 577.406 779.85 575.43C783.216 573.457 786.145 571.076 788.643 568.291C791.14 565.502 793.086 562.428 794.476 559.06L779.503 554.532C778.803 556.508 777.643 558.337 776.018 560.018C774.391 561.702 772.506 563.181 770.359 564.458C768.208 565.738 765.83 566.753 763.217 567.506C760.606 568.263 757.962 568.639 755.295 568.639C751.114 568.639 747.195 567.767 743.538 566.025C739.881 564.285 736.687 561.877 733.96 558.799C731.23 555.725 729.055 552.095 727.43 547.914C725.8 543.733 724.992 539.266 724.992 534.505C724.992 529.628 725.774 525.159 727.341 521.094C728.908 517.032 731.025 513.491 733.698 510.47C736.369 507.452 739.559 505.102 743.277 503.417C746.99 501.736 750.939 500.893 755.119 500.893C760.228 500.893 764.873 502.084 769.05 504.463C773.231 506.843 776.481 510.182 778.803 514.476L793.781 509.774C790.412 503.042 785.45 497.671 778.893 493.664C772.33 489.659 764.525 487.657 755.467 487.657C748.5 487.657 742.202 488.906 736.571 491.401" fill="current"/>
</svg>
