<svg width="24" height="24" viewBox="0 0 24 24" fill="none" xmlns="http://www.w3.org/2000/svg">
<path d="M20.315 6.052C17.249 5.03 13.5181 3.10197 12.7271 2.29797C12.5411 2.10997 12.287 2.002 12.022 2C11.748 2.006 11.501 2.10196 11.313 2.28796C10.358 3.22896 7.45403 5.11497 3.72803 6.16797C3.29703 6.28897 3 6.683 3 7.13C3 15.489 4.30601 19.841 11.726 21.962C11.816 21.987 11.909 22 12.001 22C12.093 22 12.186 21.987 12.276 21.962C19.694 19.842 21 15.448 21 7C20.999 6.569 20.724 6.188 20.315 6.052ZM12 19.958C6.256 18.235 5.07201 15.204 5.00201 7.87305C8.13701 6.88005 10.663 5.384 12.037 4.302C13.605 5.406 16.616 6.84298 18.995 7.70898C18.93 15.16 17.754 18.231 12 19.958Z" fill="#0F2978"/>
<path d="M16.7125 10.7124L11.7125 15.7124C11.5125 15.9024 11.2625 16.0025 11.0025 16.0025C10.7425 16.0025 10.4925 15.9024 10.2925 15.7124L7.2925 12.7124C6.9025 12.3224 6.9025 11.6825 7.2925 11.2925C7.6825 10.9025 8.32248 10.9025 8.71248 11.2925L11.0025 13.5925L15.2925 9.2925C15.6825 8.9025 16.3225 8.9025 16.7125 9.2925C17.1025 9.6825 17.1025 10.3224 16.7125 10.7124Z" fill="#0F2978"/>
</svg>
