<svg width="24" height="24" viewBox="0 0 24 24" fill="none" xmlns="http://www.w3.org/2000/svg">
<path fill-rule="evenodd" clip-rule="evenodd" d="M15 2.58606L19.414 7C19.787 7.372 20 7.88794 20 8.41394V17C20 19.757 17.757 22 15 22H9C6.243 22 4 19.757 4 17V7C4 4.243 6.243 2 9 2H13.586C14.12 2 14.622 2.20806 15 2.58606ZM14.7 10C14.3134 10 14 10.3134 14 10.7V17.3C14 17.6866 14.3134 18 14.7 18H15.3C15.6866 18 16 17.6866 16 17.3V10.7C16 10.3134 15.6866 10 15.3 10H14.7ZM11 12.7C11 12.3134 11.3134 12 11.7 12H12.3C12.6866 12 13 12.3134 13 12.7V17.3C13 17.6866 12.6866 18 12.3 18H11.7C11.3134 18 11 17.6866 11 17.3V12.7ZM8 14.7C8 14.3134 8.3134 14 8.7 14H9.3C9.6866 14 10 14.3134 10 14.7V17.3C10 17.6866 9.6866 18 9.3 18H8.7C8.3134 18 8 17.6866 8 17.3V14.7Z" fill="url(#paint0_linear_772_24897)"/>
<defs>
<linearGradient id="paint0_linear_772_24897" x1="-0.12616" y1="-0.772725" x2="25.4663" y2="2.71297" gradientUnits="userSpaceOnUse">
<stop offset="0.262137" stop-color="#F76996"/>
<stop offset="0.821353" stop-color="#FF7070"/>
</linearGradient>
</defs>
</svg>
