<svg width="24" height="24" viewBox="0 0 24 24" fill="none" xmlns="http://www.w3.org/2000/svg">
<path d="M7.00049 7.5C7.00049 4.743 9.24349 2.5 12.0005 2.5C14.7575 2.5 17.0005 4.743 17.0005 7.5C17.0005 10.257 14.7575 12.5 12.0005 12.5C9.24349 12.5 7.00049 10.257 7.00049 7.5ZM16.1175 13.571C15.5585 13.429 14.9505 13.5091 14.4475 13.7891C12.9295 14.6331 11.0715 14.6331 9.55347 13.7891C9.05147 13.5101 8.44248 13.431 7.88348 13.571C5.89148 14.074 4.50049 15.882 4.50049 17.967V18.978C4.50049 19.616 4.67047 20.2399 4.99347 20.7839C5.25647 21.2259 5.7495 21.501 6.2785 21.501H17.7215C18.2505 21.501 18.7435 21.227 19.0065 20.783C19.3295 20.24 19.4995 19.616 19.4995 18.978V17.967C19.5005 15.882 18.1095 14.074 16.1175 13.571Z" fill="url(#paint0_linear_772_24893)"/>
<defs>
<linearGradient id="paint0_linear_772_24893" x1="0.632465" y1="-0.134224" x2="24.6354" y2="3.09158" gradientUnits="userSpaceOnUse">
<stop offset="0.262137" stop-color="#F76996"/>
<stop offset="0.821353" stop-color="#FF7070"/>
</linearGradient>
</defs>
</svg>
