<svg width="24" height="24" viewBox="0 0 24 24" fill="none" xmlns="http://www.w3.org/2000/svg">
<path d="M13.5734 16.1508L13.5734 16.1509L13.5734 20.6792L13.5734 20.6794C13.5739 21.07 13.7316 21.4441 14.0112 21.7196C14.2907 21.995 14.6693 22.1496 15.0637 22.15L15.0638 22.15L19.6596 22.15L19.6597 22.15C20.0541 22.1496 20.4327 21.995 20.7122 21.7196C20.9918 21.4441 21.1495 21.07 21.15 20.6794L21.15 20.6792L21.15 16.1509L21.15 16.1508C21.1495 15.7602 20.9918 15.3861 20.7122 15.1106C20.4327 14.8352 20.0541 14.6806 19.6597 14.6802L19.6596 14.6802L18.0862 14.6802L18.0862 13.8868L18.0862 13.8866C18.0853 13.0958 17.766 12.3381 17.1992 11.7796C16.6325 11.2212 15.8645 10.9075 15.064 10.9066L15.0638 10.9066L12.7245 10.9066L12.7245 8.56509L13.9149 8.56509L13.9151 8.56509C14.3095 8.56465 14.688 8.4101 14.9675 8.13466C15.2472 7.85915 15.4049 7.48512 15.4053 7.09451L15.4053 7.09434L15.4053 3.32075L15.4053 3.32058C15.4049 2.92997 15.2472 2.55595 14.9675 2.28043C14.688 2.00499 14.3095 1.85044 13.9151 1.85L13.9149 1.85L10.0851 1.85L10.0849 1.85C9.69054 1.85044 9.31199 2.00499 9.03245 2.28043C8.75283 2.55595 8.59513 2.92997 8.59468 3.32058L8.59468 3.32075L8.59468 7.09434L8.59468 7.09451C8.59513 7.48512 8.75283 7.85914 9.03245 8.13466C9.31199 8.4101 9.69054 8.56465 10.0849 8.56509L10.0851 8.56509L11.2755 8.56509L11.2755 10.9066L8.93617 10.9066L8.936 10.9066C8.13546 10.9075 7.36753 11.2212 6.80079 11.7796C6.23398 12.3381 5.91474 13.0958 5.91383 13.8866L5.91383 13.8868L5.91383 14.6802L4.34042 14.6802L4.34026 14.6802C3.94586 14.6806 3.56731 14.8352 3.28777 15.1106C3.00815 15.3861 2.85045 15.7602 2.85 16.1508L2.85 16.1509L2.85 20.6792L2.85 20.6794C2.85045 21.07 3.00815 21.4441 3.28777 21.7196C3.56731 21.995 3.94586 22.1496 4.34026 22.15L4.34042 22.15L8.93617 22.15L8.93634 22.15C9.33073 22.1496 9.70928 21.995 9.98882 21.7196C10.2684 21.4441 10.4261 21.07 10.4266 20.6794L10.4266 20.6792L10.4266 16.1509L10.4266 16.1508C10.4261 15.7602 10.2684 15.3861 9.98883 15.1106C9.70928 14.8352 9.33073 14.6806 8.93634 14.6802L8.93617 14.6802L7.36277 14.6802L7.36277 13.887C7.36323 13.4772 7.52862 13.0839 7.82338 12.7934C8.11822 12.5029 8.51843 12.3391 8.93633 12.3387L15.0637 12.3387C15.4816 12.3391 15.8818 12.5029 16.1766 12.7934C16.4714 13.0839 16.6368 13.4772 16.6372 13.887L16.6372 14.6802L15.0638 14.6802L15.0637 14.6802C14.6693 14.6806 14.2907 14.8352 14.0112 15.1106C13.7316 15.3861 13.5739 15.7602 13.5734 16.1508ZM10.0852 7.13302C10.0735 7.13296 10.0627 7.12834 10.0551 7.12082C10.0475 7.11336 10.0436 7.1037 10.0436 7.09411L10.0436 3.32098C10.0436 3.31139 10.0475 3.30174 10.0551 3.29427C10.0627 3.28674 10.0735 3.28211 10.0853 3.28208C10.0853 3.28208 10.0853 3.28207 10.0853 3.28207L13.9147 3.28208C13.9147 3.28208 13.9147 3.28208 13.9147 3.28208C13.9265 3.28211 13.9373 3.28674 13.9449 3.29427C13.9525 3.3017 13.9563 3.3113 13.9564 3.32085C13.9564 3.32089 13.9564 3.32094 13.9564 3.32098L13.9564 7.09411C13.9564 7.09416 13.9564 7.0942 13.9564 7.09425C13.9563 7.1038 13.9525 7.11339 13.9449 7.12083C13.9373 7.12834 13.9265 7.13296 13.9148 7.13302C13.9148 7.13302 13.9147 7.13302 13.9147 7.13302L10.0853 7.13302C10.0853 7.13302 10.0852 7.13302 10.0852 7.13302ZM8.93595 16.1123C8.94771 16.1123 8.95855 16.1169 8.96621 16.1245C8.97379 16.1319 8.97765 16.1416 8.97766 16.1512L8.97766 20.679C8.97765 20.6886 8.97379 20.6983 8.96621 20.7057C8.95855 20.7133 8.94771 20.7179 8.93594 20.7179L4.34065 20.7179C4.32888 20.7179 4.31804 20.7133 4.31039 20.7057C4.3028 20.6983 4.29895 20.6886 4.29894 20.679L4.29894 16.1512C4.29895 16.1416 4.30281 16.1319 4.31039 16.1245C4.31804 16.1169 4.32888 16.1123 4.34064 16.1123L8.93595 16.1123ZM19.6594 16.1123C19.6711 16.1123 19.682 16.1169 19.6896 16.1245C19.6972 16.1319 19.701 16.1415 19.7011 16.1511C19.7011 16.1511 19.7011 16.1512 19.7011 16.1512L19.7011 20.679C19.7011 20.679 19.7011 20.6791 19.7011 20.6791C19.701 20.6886 19.6972 20.6983 19.6896 20.7057C19.682 20.7133 19.6711 20.7179 19.6593 20.7179L15.0641 20.7179C15.0523 20.7179 15.0414 20.7133 15.0338 20.7057C15.0262 20.6983 15.0224 20.6887 15.0223 20.6792C15.0223 20.6791 15.0223 20.6791 15.0223 20.679L15.0223 16.1512C15.0223 16.1511 15.0223 16.1511 15.0223 16.151C15.0224 16.1415 15.0262 16.1319 15.0338 16.1245C15.0414 16.1169 15.0523 16.1123 15.064 16.1123L19.6594 16.1123Z" fill="#0F2978" stroke="#0F2978" stroke-width="0.3"/>
</svg>
