<svg width="19" height="16" viewBox="0 0 19 16" fill="none" xmlns="http://www.w3.org/2000/svg">
<path d="M18.4909 6.27609C17.9298 5.39841 16.9945 4.20623 15.693 3.15485L17.807 1.17095C18.0924 0.903079 18.0924 0.46878 17.807 0.200906C17.5216 -0.0669685 17.0588 -0.0669685 16.7734 0.200906L11.3833 5.25945L11.3814 5.26034L11.3804 5.26129L1.1857 14.8288C0.900266 15.0967 0.900266 15.531 1.1857 15.7989C1.32793 15.9324 1.51497 16 1.70201 16C1.88905 16 2.07609 15.9333 2.21832 15.7989L4.46865 13.6869C6.01174 14.6121 7.69996 15.0858 9.49731 15.0858C14.3165 15.0858 17.1991 11.7277 18.4899 9.72371C19.1699 8.66044 19.1699 7.34027 18.4909 6.27609ZM12.1763 8.00035C12.1763 9.38726 10.9742 10.5145 9.49731 10.5145C9.03165 10.5145 8.59231 10.3938 8.20069 10.1872L11.8266 6.78438C12.0477 7.151 12.1763 7.56334 12.1763 8.00035ZM17.24 9.01699C16.11 10.7714 13.6015 13.7144 9.49927 13.7144C8.09549 13.7144 6.77355 13.3532 5.54512 12.6785L7.13787 11.1838C7.82271 11.6364 8.63616 11.8859 9.49636 11.8859C11.7788 11.8859 13.6366 10.1424 13.6366 8.00035C13.6366 7.19307 13.3706 6.42965 12.8884 5.78694L14.6585 4.12579C15.8586 5.07478 16.7227 6.17552 17.2381 6.98097C17.6385 7.60997 17.6385 8.39073 17.24 9.01699ZM1.83157 11.4589C1.34643 10.9195 0.901233 10.3363 0.508642 9.72555C-0.16938 8.65954 -0.169387 7.33934 0.507661 6.27698C1.79844 4.27295 4.68103 0.914937 9.50025 0.914937C10.4316 0.914937 11.3317 1.0411 12.2523 1.30075C12.638 1.40954 12.8582 1.79172 12.7413 2.15467C12.6254 2.51763 12.2182 2.72329 11.8314 2.61358C11.0492 2.39325 10.2864 2.28631 9.49927 2.28631C5.39801 2.28631 2.88853 5.22927 1.75849 6.9837C1.36006 7.60996 1.36007 8.39072 1.76046 9.01972C2.11213 9.56644 2.51154 10.0904 2.94796 10.5749C3.20807 10.8638 3.16911 11.2972 2.86127 11.5413C2.72392 11.6501 2.55733 11.7031 2.39075 11.7031C2.18227 11.7031 1.97575 11.6198 1.83157 11.4589ZM9.68338 4.74106C9.74476 5.11498 9.472 5.46512 9.07259 5.52272C7.94256 5.68637 7.03267 6.5412 6.85829 7.60081C6.80277 7.94 6.49201 8.18226 6.13742 8.18226C6.1004 8.18226 6.06239 8.17954 6.02537 8.17406C5.62596 8.11646 5.3532 7.76632 5.41458 7.39239C5.68929 5.72115 7.07068 4.42563 8.85049 4.16781C9.24308 4.11113 9.62104 4.36713 9.68338 4.74106Z" fill="#727787"/>
</svg>
