<svg width="19" height="18" viewBox="0 0 19 18" fill="none" xmlns="http://www.w3.org/2000/svg">
<path d="M18.5127 7.24114C17.9698 6.34415 17.0871 5.12926 15.8675 4.03928L18.1987 1.70729C18.5896 1.31629 18.5896 0.684239 18.1987 0.293245C17.8079 -0.0977485 17.1761 -0.0977485 16.7852 0.293245L0.790473 16.293C0.399602 16.684 0.399602 17.316 0.790473 17.707C0.985409 17.902 1.24133 18 1.49724 18C1.75316 18 2.00907 17.902 2.20401 17.707L4.73818 15.1722C6.20769 16.0512 7.80017 16.501 9.49561 16.501C14.324 16.501 17.2131 12.9011 18.5127 10.7611C19.1624 9.67112 19.1624 8.33112 18.5127 7.24114ZM9.49561 13.501C8.6139 13.501 7.80419 13.2342 7.11142 12.7982L8.58393 11.3241C8.86583 11.4351 9.17171 11.5011 9.49461 11.5011C10.8742 11.5011 11.9938 10.3811 11.9938 9.00112C11.9938 8.95112 11.9938 8.92124 11.9838 8.87124C11.8439 8.95124 11.6739 9.00112 11.4939 9.00112C11.324 9.00112 11.1721 8.94817 11.0331 8.87417L13.2944 6.61224C13.7322 7.30623 13.9931 8.12213 13.9931 9.00112C13.9941 11.4811 11.9748 13.501 9.49561 13.501ZM1.81815 12.6212C1.32831 12.0412 0.878473 11.4111 0.488601 10.7611C-0.161185 9.67112 -0.161194 8.33112 0.478595 7.24114C1.77817 5.10117 4.6772 1.50123 9.49561 1.50123C10.4253 1.50123 11.325 1.63114 12.2447 1.91114C12.4147 1.96114 12.5446 2.10124 12.5946 2.27124C12.6346 2.44124 12.5846 2.62121 12.4547 2.74121L10.5653 4.63131C10.2254 4.55131 9.86549 4.50119 9.49561 4.50119C7.01643 4.50119 4.9971 6.52116 4.9971 9.00112C4.9971 9.37111 5.03709 9.73118 5.12706 10.0812L2.5579 12.651C2.45793 12.751 2.33798 12.8011 2.19803 12.8011C2.19803 12.8011 2.18801 12.8011 2.17802 12.8011C2.03806 12.7911 1.90812 12.7312 1.81815 12.6212Z" fill="url(#paint0_linear_1817_3387)"/>
<defs>
<linearGradient id="paint0_linear_1817_3387" x1="-4.89981" y1="-2.49545" x2="25.0866" y2="2.89335" gradientUnits="userSpaceOnUse">
<stop offset="0.262137" stop-color="#F76996"/>
<stop offset="0.821353" stop-color="#FF7070"/>
</linearGradient>
</defs>
</svg>
