<svg width="24" height="24" viewBox="0 0 24 24" fill="current" stroke="current" xmlns="http://www.w3.org/2000/svg">
<path d="M18.987 6.927L14.573 2.51294C14.242 2.18194 13.803 2 13.336 2H8.75C6.131 2 4 4.131 4 6.75V16.75C4 19.369 6.131 21.5 8.75 21.5H14.75C17.369 21.5 19.5 19.369 19.5 16.75V8.16394C19.5 7.69694 19.318 7.257 18.987 6.927ZM14.75 20H8.75C6.958 20 5.5 18.542 5.5 16.75V6.75C5.5 4.958 6.958 3.5 8.75 3.5H13L18 8.5V16.75C18 18.542 16.542 20 14.75 20Z" fill="current"/>
<path d="M8 13.6C8 13.2686 8.26863 13 8.6 13H8.9C9.23137 13 9.5 13.2686 9.5 13.6V17.4C9.5 17.7314 9.23137 18 8.9 18H8.6C8.26863 18 8 17.7314 8 17.4V13.6Z" fill="current"/>
<path d="M11 11.6C11 11.2686 11.2686 11 11.6 11H11.9C12.2314 11 12.5 11.2686 12.5 11.6V17.4C12.5 17.7314 12.2314 18 11.9 18H11.6C11.2686 18 11 17.7314 11 17.4V11.6Z" fill="current"/>
<path d="M14 9.6C14 9.26863 14.2686 9 14.6 9H14.9C15.2314 9 15.5 9.26863 15.5 9.6V17.4C15.5 17.7314 15.2314 18 14.9 18H14.6C14.2686 18 14 17.7314 14 17.4V9.6Z" fill="current"/>
</svg>
