<svg width="12" height="12" viewBox="0 0 12 12" fill="current" xmlns="http://www.w3.org/2000/svg">
<path d="M11.6469 2.04878L7.69509 5.99982L11.6469 9.95086C12.1156 10.4196 12.1156 11.1794 11.6469 11.6481C11.4133 11.8817 11.1061 12 10.7989 12C10.4917 12 10.1845 11.8833 9.95089 11.6481L5.99922 7.69699L2.04755 11.6481C1.81396 11.8817 1.50674 12 1.19956 12C0.892383 12 0.585158 11.8833 0.351575 11.6481C-0.117192 11.1794 -0.117192 10.4196 0.351575 9.95086L4.30334 5.99982L0.351575 2.04878C-0.117192 1.58009 -0.117192 0.820211 0.351575 0.351519C0.820342 -0.117173 1.58034 -0.117173 2.04911 0.351519L6.00078 4.30266L9.95255 0.351519C10.4213 -0.117173 11.1812 -0.117173 11.65 0.351519C12.1187 0.820211 12.1156 1.58009 11.6469 2.04878Z" fill="current"/>
</svg>
