<svg width="24" height="24" viewBox="0 0 24 24" fill="none" xmlns="http://www.w3.org/2000/svg">
<path d="M10.1818 10.4768V15.6586C10.1818 15.8304 10.25 15.9952 10.3715 16.1167C10.493 16.2381 10.6577 16.3064 10.8295 16.3064C11.0013 16.3064 11.166 16.2381 11.2875 16.1167C11.409 15.9952 11.4772 15.8304 11.4772 15.6586V10.4768C11.4772 10.305 11.409 10.1403 11.2875 10.0188C11.166 9.89734 11.0013 9.8291 10.8295 9.8291C10.6577 9.8291 10.493 9.89734 10.3715 10.0188C10.25 10.1403 10.1818 10.305 10.1818 10.4768Z" fill="#0F2978"/>
<path d="M13.4204 9.8291C13.5922 9.8291 13.757 9.89734 13.8784 10.0188C13.9999 10.1403 14.0682 10.305 14.0682 10.4768V15.6586C14.0682 15.8304 13.9999 15.9952 13.8784 16.1167C13.757 16.2381 13.5922 16.3064 13.4204 16.3064C13.2486 16.3064 13.0839 16.2381 12.9624 16.1167C12.8409 15.9952 12.7727 15.8304 12.7727 15.6586V10.4768C12.7727 10.305 12.8409 10.1403 12.9624 10.0188C13.0839 9.89734 13.2486 9.8291 13.4204 9.8291Z" fill="#0F2978"/>
<path d="M14.7159 6.59091H18.6023C18.7741 6.59091 18.9388 6.65915 19.0603 6.78062C19.1818 6.9021 19.25 7.06685 19.25 7.23864C19.25 7.41042 19.1818 7.57518 19.0603 7.69665C18.9388 7.81812 18.7741 7.88636 18.6023 7.88636H17.8859L16.9117 16.6644C16.8237 17.4566 16.4466 18.1885 15.8527 18.7201C15.2587 19.2517 14.4896 19.5455 13.6925 19.5455H10.5575C9.76041 19.5455 8.99127 19.2517 8.39732 18.7201C7.80336 18.1885 7.42629 17.4566 7.3383 16.6644L6.36282 7.88636H5.64773C5.47594 7.88636 5.31119 7.81812 5.18972 7.69665C5.06824 7.57518 5 7.41042 5 7.23864C5 7.06685 5.06824 6.9021 5.18972 6.78062C5.31119 6.65915 5.47594 6.59091 5.64773 6.59091H9.53409C9.53409 5.90376 9.80706 5.24475 10.293 4.75886C10.7788 4.27297 11.4378 4 12.125 4C12.8122 4 13.4712 4.27297 13.957 4.75886C14.4429 5.24475 14.7159 5.90376 14.7159 6.59091ZM12.125 5.29545C11.7814 5.29545 11.4519 5.43194 11.209 5.67488C10.966 5.91783 10.8295 6.24733 10.8295 6.59091H13.4205C13.4205 6.24733 13.284 5.91783 13.041 5.67488C12.7981 5.43194 12.4686 5.29545 12.125 5.29545ZM7.66734 7.88636L8.62598 16.5219C8.67889 16.9971 8.90518 17.4361 9.26155 17.755C9.61791 18.0738 10.0793 18.2501 10.5575 18.25H13.6925C14.1705 18.2498 14.6315 18.0734 14.9876 17.7546C15.3437 17.4357 15.5698 16.9969 15.6227 16.5219L16.584 7.88636H7.66864H7.66734Z" fill="#0F2978"/>
</svg>
