<svg width="24" height="24" viewBox="0 0 24 24" fill="none" xmlns="http://www.w3.org/2000/svg">
<path d="M17.5 11.9999C18.9587 11.9999 20.3577 12.5794 21.3891 13.6108C22.4206 14.6423 23 16.0412 23 17.4999C23 18.9586 22.4206 20.3575 21.3891 21.389C20.3577 22.4204 18.9587 22.9999 17.5 22.9999C16.0413 22.9999 14.6424 22.4204 13.6109 21.389C12.5795 20.3575 12 18.9586 12 17.4999C12 16.0412 12.5795 14.6423 13.6109 13.6108C14.6424 12.5794 16.0413 11.9999 17.5 11.9999ZM12.022 13.9999C11.7227 14.4675 11.4847 14.9716 11.314 15.4999H4.25403C4.05512 15.4999 3.86435 15.5789 3.7237 15.7196C3.58305 15.8602 3.50403 16.051 3.50403 16.2499V17.1569C3.50403 17.8129 3.79003 18.4359 4.28703 18.8629C5.54503 19.9449 7.44003 20.5009 10 20.5009C10.599 20.5009 11.162 20.4709 11.688 20.4099C11.938 20.9099 12.251 21.3739 12.618 21.7899C11.815 21.9309 10.942 21.9999 10 21.9999C7.11003 21.9999 4.87203 21.3439 3.30903 19.9999C2.89967 19.6479 2.57115 19.2116 2.34593 18.721C2.1207 18.2303 2.00407 17.6968 2.00403 17.1569V16.2499C2.00403 15.6532 2.24108 15.0809 2.66304 14.6589C3.08499 14.237 3.65729 13.9999 4.25403 13.9999H12.022ZM15.093 14.9659L15.023 15.0239L14.966 15.0939C14.9084 15.1774 14.8775 15.2765 14.8775 15.3779C14.8775 15.4794 14.9084 15.5784 14.966 15.6619L15.024 15.7309L16.794 17.5009L15.026 19.2669L14.969 19.3369C14.9114 19.4204 14.8805 19.5195 14.8805 19.6209C14.8805 19.7224 14.9114 19.8214 14.969 19.9049L15.027 19.9749L15.096 20.0319C15.1795 20.0895 15.2786 20.1204 15.38 20.1204C15.4815 20.1204 15.5805 20.0895 15.664 20.0319L15.734 19.9739L17.5 18.2069L19.27 19.9769L19.339 20.0349C19.4225 20.0925 19.5216 20.1234 19.623 20.1234C19.7245 20.1234 19.8235 20.0925 19.907 20.0349L19.977 19.9769L20.035 19.9069C20.0927 19.8234 20.1235 19.7244 20.1235 19.6229C20.1235 19.5215 20.0927 19.4224 20.035 19.3389L19.977 19.2689L18.207 17.5009L19.979 15.7309L20.037 15.6609C20.0947 15.5774 20.1255 15.4784 20.1255 15.3769C20.1255 15.2755 20.0947 15.1764 20.037 15.0929L19.979 15.0239L19.91 14.9659C19.8264 14.9081 19.7272 14.8771 19.6255 14.8771C19.5239 14.8771 19.4246 14.9081 19.341 14.9659L19.272 15.0239L17.501 16.7939L15.731 15.0239L15.661 14.9659C15.5898 14.9168 15.507 14.887 15.4207 14.8794C15.3345 14.8719 15.2477 14.8869 15.169 14.9229L15.093 14.9659ZM10 2.00391C11.3261 2.00391 12.5979 2.53069 13.5356 3.46837C14.4732 4.40605 15 5.67782 15 7.00391C15 8.32999 14.4732 9.60176 13.5356 10.5394C12.5979 11.4771 11.3261 12.0039 10 12.0039C8.67395 12.0039 7.40218 11.4771 6.46449 10.5394C5.52681 9.60176 5.00003 8.32999 5.00003 7.00391C5.00003 5.67782 5.52681 4.40605 6.46449 3.46837C7.40218 2.53069 8.67395 2.00391 10 2.00391ZM10 3.50391C9.5404 3.50391 9.08528 3.59444 8.66064 3.77033C8.236 3.94622 7.85016 4.20403 7.52516 4.52903C7.20015 4.85404 6.94234 5.23987 6.76645 5.66451C6.59056 6.08915 6.50003 6.54428 6.50003 7.00391C6.50003 7.46353 6.59056 7.91866 6.76645 8.3433C6.94234 8.76794 7.20015 9.15378 7.52516 9.47878C7.85016 9.80379 8.236 10.0616 8.66064 10.2375C9.08528 10.4134 9.5404 10.5039 10 10.5039C10.9283 10.5039 11.8185 10.1352 12.4749 9.47878C13.1313 8.8224 13.5 7.93216 13.5 7.00391C13.5 6.07565 13.1313 5.18541 12.4749 4.52903C11.8185 3.87266 10.9283 3.50391 10 3.50391Z" fill="#0F2978"/>
</svg>
