<svg width="795" height="453" viewBox="0 0 795 453" fill="none" xmlns="http://www.w3.org/2000/svg">
<path d="M714.809 181.003C714.809 181.003 678.409 68.8028 571.609 74.2028C571.609 74.2028 598.909 102.203 589.009 168.203C589.009 168.203 581.609 -0.797169 383.709 0.0028313C255.609 8.20283 240.409 59.7028 240.409 59.7028C240.409 59.7028 35.0089 46.1029 91.909 265.103C91.909 265.103 66.909 240.903 66.109 181.003C66.109 181.003 -25.591 206.003 7.00899 299.203C45.909 388.603 145.709 312.803 145.709 312.803C145.709 312.803 201.809 334.003 237.409 323.403C237.409 323.403 195.709 286.303 196.509 240.803C196.509 240.803 231.409 342.403 354.909 342.803C354.909 342.803 351.109 404.503 273.109 452.303C273.109 452.303 469.209 465.203 538.609 340.903C538.609 340.903 651.209 359.803 699.009 263.603C699.009 263.603 698.209 296.903 663.409 326.503C663.409 326.503 727.809 369.703 778.609 302.303C829.209 234.803 745.109 174.103 714.809 181.003ZM397.209 292.003C338.909 292.003 291.609 244.703 291.609 186.403C291.609 128.103 338.909 80.8028 397.209 80.8028C455.509 80.8028 502.809 128.103 502.809 186.403C502.809 244.703 455.609 292.003 397.209 292.003Z" fill="white"/>
<path d="M418.809 234.903C418.809 223.703 427.909 214.603 439.109 214.603C444.009 214.603 448.609 216.403 452.109 219.303C457.909 209.703 461.209 198.403 461.209 186.403C461.209 151.103 432.609 122.403 397.209 122.403C361.909 122.403 333.209 151.003 333.209 186.403C333.209 221.703 361.809 250.403 397.209 250.403C405.909 250.403 414.209 248.703 421.709 245.503C419.909 242.403 418.809 238.803 418.809 234.903ZM392.109 154.103C376.109 156.603 364.509 170.203 364.509 186.403C364.509 191.403 360.509 195.403 355.509 195.403C350.509 195.403 346.509 191.403 346.509 186.403C346.509 161.303 364.509 140.203 389.309 136.203C394.209 135.403 398.909 138.803 399.609 143.703C400.409 148.703 397.009 153.303 392.109 154.103Z" fill="white"/>
</svg>
