<svg width="1000" height="733" viewBox="0 0 1000 733" fill="none" xmlns="http://www.w3.org/2000/svg">
<path d="M483.066 0.00390625C321.713 10.4978 302.634 75.3659 302.634 75.3659C302.634 75.3659 44.1119 58.1949 115.66 333.886C115.66 333.886 84.179 303.361 83.2248 227.998C83.2248 227.998 -32.2043 259.479 8.81708 376.814C57.8297 489.381 183.39 393.986 183.39 393.986C183.39 393.986 253.982 420.695 298.818 407.341C298.818 407.341 246.35 360.598 247.304 303.361C247.304 303.361 291.186 431.296 446.681 431.719C446.681 431.719 441.912 509.415 343.653 569.512C343.653 569.512 590.49 585.73 677.894 429.283C677.894 429.283 819.675 453.131 879.776 331.979C879.776 331.979 878.821 373.952 834.939 411.157C834.939 411.157 916.025 465.532 979.94 380.631C1043.85 295.728 937.965 219.411 899.807 227.998C899.807 227.998 854.018 86.814 719.511 93.4897C719.511 93.4897 753.853 128.787 741.45 211.782C741.45 211.782 732.211 0.0101318 484.734 6.10352e-05C484.175 6.10352e-05 483.628 0.00134277 483.066 6.10352e-05" fill="url(#paint0_linear)"/>
<path d="M632.981 234.859C632.981 308.303 573.443 367.839 499.999 367.839C426.557 367.839 367.019 308.303 367.019 234.859C367.019 161.416 426.557 101.879 499.999 101.879C573.443 101.879 632.981 161.416 632.981 234.859Z" fill="white"/>
<path d="M419.471 234.861C419.471 279.337 455.527 315.388 499.998 315.388C510.944 315.388 521.375 313.196 530.89 309.24C528.523 305.364 527.136 300.827 527.136 295.954C527.136 281.833 538.583 270.386 552.703 270.386C558.924 270.386 564.62 272.611 569.051 276.302C576.334 264.194 580.529 250.019 580.529 234.861C580.529 190.385 544.472 154.334 499.998 154.334C455.527 154.334 419.471 190.385 419.471 234.861ZM436.053 234.861C436.053 203.209 458.719 176.646 489.944 171.711C496.146 170.738 501.967 174.96 502.949 181.158C503.931 187.362 499.695 193.184 493.494 194.166C473.386 197.346 458.787 214.46 458.787 234.861C458.787 241.138 453.699 246.23 447.421 246.23C441.144 246.23 436.053 241.138 436.053 234.861Z" fill="url(#paint1_linear)"/>
<path d="M92.9421 574.881L35.9509 641.957V574.881H0V730.516H35.9509V684.701L52.1708 667.823L96.2316 730.516H137.226L74.9685 644.368L133.277 574.881H92.9421Z" fill="url(#paint2_linear)"/>
<path d="M145.549 570.496V701.801C145.549 711.738 148.252 719.337 153.66 724.598C159.064 729.86 166.812 732.489 176.893 732.489C181.86 732.489 187.199 731.902 192.898 730.735C198.598 729.567 203.64 727.962 208.022 725.912L203.42 699.609C201.667 700.632 199.729 701.4 197.61 701.911C195.492 702.424 193.556 702.679 191.802 702.679C184.35 702.679 180.622 698.294 180.622 689.524V570.496H145.549Z" fill="url(#paint3_linear)"/>
<path d="M248.025 618.172C240.356 621.462 233.888 625.845 228.626 631.324C223.367 636.806 219.381 643.163 216.679 650.396C213.974 657.63 212.626 665.193 212.626 673.085C212.626 680.975 213.974 688.539 216.679 695.772C219.381 703.005 223.367 709.363 228.626 714.843C233.888 720.323 240.356 724.675 248.025 727.885C255.697 731.098 264.43 732.708 274.22 732.708C284.011 732.708 292.743 731.098 300.415 727.885C308.088 724.675 314.554 720.323 319.818 714.843C325.075 709.363 329.059 703.005 331.764 695.772C334.466 688.539 335.818 680.975 335.818 673.085C335.818 665.193 334.429 657.63 331.652 650.396C328.874 643.163 324.859 636.806 319.596 631.324C314.334 625.845 307.904 621.462 300.306 618.172C292.705 614.885 284.011 613.241 274.22 613.241C264.43 613.241 255.697 614.885 248.025 618.172ZM255.81 694.895C250.984 689.415 248.575 682.147 248.575 673.085C248.575 668.699 249.233 664.645 250.547 660.919C251.862 657.192 253.65 654.013 255.917 651.384C258.182 648.753 260.885 646.708 264.028 645.246C267.169 643.786 270.567 643.053 274.22 643.053C281.525 643.053 287.592 645.794 292.416 651.273C297.238 656.754 299.648 664.024 299.648 673.085C299.648 677.47 298.993 681.524 297.675 685.251C296.362 688.978 294.569 692.155 292.305 694.785C290.037 697.415 287.376 699.465 284.306 700.922C281.237 702.385 277.873 703.116 274.22 703.116C266.767 703.116 260.629 700.377 255.81 694.895" fill="url(#paint4_linear)"/>
<path d="M428.319 615.433V686.455C424.959 692.594 421.088 696.906 416.701 699.389C412.318 701.876 407.787 703.116 403.112 703.116C397.995 703.116 394.046 701.252 391.273 697.527C388.496 693.8 387.107 688.429 387.107 681.414V615.433H352.035V689.087C352.035 703.409 355.066 714.262 361.133 721.639C367.197 729.019 376.148 732.708 387.987 732.708C397.633 732.708 406.36 730.917 414.183 727.339C421.997 723.759 428.539 718.169 433.798 710.57L434.458 717.583C436.213 727.376 443.368 732.27 455.94 732.27C457.838 732.27 459.956 732.162 462.295 731.94C464.635 731.721 467.482 731.246 470.847 730.516V700.922C468.067 700.632 466.133 699.795 465.035 698.403C463.942 697.015 463.391 694.567 463.391 691.059V615.433H428.319Z" fill="url(#paint5_linear)"/>
<path d="M571.681 570.496V634.285C568.172 627.856 563.166 622.743 556.664 618.94C550.159 615.142 542.887 613.241 534.851 613.241C527.4 613.241 520.566 614.777 514.357 617.845C508.144 620.913 502.773 625.116 498.245 630.449C493.712 635.783 490.204 642.104 487.724 649.409C485.235 656.72 483.995 664.536 483.995 672.866C483.995 681.49 485.347 689.415 488.053 696.648C490.755 703.883 494.52 710.206 499.34 715.612C504.165 721.021 509.896 725.221 516.55 728.214C523.197 731.209 530.469 732.708 538.359 732.708C546.253 732.708 553.667 730.955 560.609 727.447C567.548 723.94 573.064 718.607 577.16 711.446L577.819 717.363C578.398 722.188 580.591 725.879 584.395 728.433C588.19 730.989 593.161 732.27 599.298 732.27C601.345 732.27 603.535 732.162 605.873 731.94C608.209 731.721 610.99 731.246 614.206 730.516V700.922C611.428 700.632 609.493 699.795 608.395 698.403C607.299 697.015 606.753 694.567 606.753 691.059V570.496H571.681ZM536.716 700.922C533.28 699.465 530.356 697.415 527.947 694.785C525.536 692.155 523.635 689.014 522.246 685.36C520.857 681.709 520.165 677.764 520.165 673.522C520.165 669.434 520.786 665.559 522.029 661.905C523.268 658.253 525.061 655.037 527.4 652.26C529.735 649.486 532.476 647.255 535.619 645.574C538.759 643.897 542.228 643.053 546.032 643.053C551.293 643.053 556.369 644.916 561.266 648.643C566.159 652.369 569.707 657.158 571.896 663.001V687.113C569.559 692.084 566.159 695.992 561.707 698.841C557.245 701.69 552.607 703.116 547.787 703.116C543.839 703.116 540.148 702.385 536.716 700.922" fill="url(#paint6_linear)"/>
<path d="M667.692 576.742C660.821 578.718 654.904 581.675 649.936 585.621C644.966 589.568 641.093 594.39 638.319 600.087C635.537 605.789 634.155 612.364 634.155 619.818C634.155 625.956 635.175 631.216 637.223 635.601C639.268 639.983 642.296 643.712 646.318 646.78C650.337 649.849 655.341 652.479 661.332 654.672C667.325 656.864 674.269 658.912 682.157 660.808C689.316 662.565 695.715 664.281 701.34 665.961C706.966 667.642 711.676 669.577 715.479 671.769C719.278 673.962 722.164 676.557 724.136 679.553C726.108 682.548 727.097 686.237 727.097 690.621C727.097 698.513 724.028 704.432 717.889 708.377C711.752 712.323 703.128 714.295 692.025 714.295C686.028 714.295 680.297 713.676 674.815 712.431C669.336 711.193 664.219 709.581 659.473 707.609C654.72 705.637 650.482 703.409 646.758 700.923C643.032 698.441 639.996 695.958 637.66 693.471L628.232 710.129C637.001 717.291 646.758 722.736 657.496 726.462C668.238 730.187 679.602 732.051 691.585 732.051C699.622 732.051 707.072 731.209 713.944 729.53C720.813 727.852 726.768 725.221 731.808 721.639C736.852 718.058 740.832 713.527 743.756 708.046C746.677 702.567 748.138 696.1 748.138 688.648C748.138 681.633 746.933 675.715 744.523 670.892C742.113 666.071 738.605 661.98 734.001 658.617C729.397 655.257 723.844 652.445 717.343 650.177C710.838 647.912 703.567 645.903 695.531 644.149C688.516 642.545 682.451 641.009 677.338 639.547C672.221 638.085 667.947 636.367 664.514 634.394C661.078 632.422 658.557 630.049 656.95 627.268C655.341 624.495 654.54 620.989 654.54 616.749C654.54 608.857 657.351 602.648 662.981 598.116C668.601 593.589 677.48 591.32 689.613 591.32C694.287 591.32 698.779 591.796 703.094 592.744C707.403 593.698 711.385 594.937 715.041 596.473C718.689 598.007 721.98 599.725 724.902 601.623C727.827 603.523 730.166 605.496 731.918 607.542L741.125 591.54C734.549 586.135 727.022 581.823 718.547 578.607C710.072 575.392 700.573 573.784 690.052 573.784C682.012 573.784 674.56 574.771 667.692 576.742" fill="url(#paint7_linear)"/>
<path d="M798.119 618.832C790.955 621.975 784.781 626.25 779.597 631.653C774.404 637.062 770.389 643.349 767.54 650.507C764.688 657.668 763.263 665.267 763.263 673.303C763.263 681.342 764.688 688.978 767.54 696.211C770.389 703.446 774.366 709.767 779.487 715.171C784.6 720.58 790.738 724.856 797.897 727.995C805.057 731.136 812.948 732.708 821.575 732.708C827.27 732.708 832.753 731.977 838.012 730.516C843.275 729.057 848.058 727.046 852.373 724.489C856.681 721.934 860.483 718.899 863.769 715.392C867.059 711.883 869.649 708.013 871.551 703.773L854.891 699.169C853.721 702.094 852.006 704.726 849.742 707.061C847.474 709.401 844.88 711.374 841.96 712.98C839.033 714.588 835.894 715.867 832.532 716.816C829.168 717.769 825.736 718.24 822.229 718.24C817.263 718.24 812.547 717.291 808.092 715.392C803.63 713.494 799.653 710.864 796.147 707.5C792.639 704.139 789.787 700.122 787.598 695.444C785.405 690.768 784.087 685.579 783.65 679.88H878.568C878.712 679.149 878.82 678.125 878.894 676.81C878.969 675.496 879.007 674.036 879.007 672.427C879.007 664.83 877.652 657.486 874.948 650.396C872.243 643.311 868.406 637.1 863.44 631.764C858.469 626.431 852.443 622.158 845.356 618.94C838.267 615.727 830.415 614.119 821.791 614.119C813.167 614.119 805.274 615.69 798.119 618.832V618.832ZM787.047 650.726C789.167 646.199 791.943 642.285 795.38 638.998C798.81 635.71 802.793 633.155 807.325 631.324C811.856 629.501 816.675 628.585 821.791 628.585C826.907 628.585 831.727 629.501 836.261 631.324C840.789 633.155 844.771 635.676 848.207 638.888C851.639 642.104 854.488 646.014 856.756 650.617C859.02 655.218 860.371 660.226 860.81 665.631H783.211C783.65 660.226 784.929 655.257 787.047 650.726" fill="url(#paint8_linear)"/>
<path d="M927.116 618.832C920.026 621.975 913.924 626.212 908.813 631.545C903.696 636.881 899.753 643.13 896.975 650.288C894.197 657.449 892.809 665.049 892.809 673.085C892.809 681.124 894.235 688.757 897.088 695.992C899.935 703.224 903.914 709.548 909.034 714.952C914.146 720.36 920.284 724.675 927.445 727.885C934.604 731.098 942.493 732.708 951.121 732.708C956.818 732.708 962.264 731.977 967.45 730.516C972.639 729.057 977.35 727.084 981.591 724.598C985.827 722.115 989.513 719.118 992.659 715.612C995.801 712.102 998.25 708.232 1000 703.993L981.154 698.294C980.273 700.781 978.813 703.082 976.767 705.198C974.719 707.318 972.346 709.181 969.644 710.787C966.937 712.398 963.944 713.676 960.654 714.624C957.369 715.576 954.04 716.05 950.683 716.05C945.421 716.05 940.488 714.952 935.885 712.76C931.281 710.57 927.261 707.538 923.828 703.664C920.393 699.795 917.655 695.226 915.61 689.964C913.559 684.701 912.542 679.078 912.542 673.085C912.542 666.947 913.525 661.322 915.498 656.206C917.47 651.093 920.135 646.636 923.499 642.834C926.861 639.035 930.876 636.076 935.556 633.955C940.229 631.839 945.201 630.778 950.462 630.778C956.892 630.778 962.738 632.277 967.997 635.272C973.259 638.268 977.35 642.47 980.273 647.875L999.125 641.957C994.884 633.484 988.638 626.723 980.385 621.679C972.125 616.639 962.3 614.119 950.9 614.119C942.13 614.119 934.204 615.69 927.116 618.832" fill="url(#paint9_linear)"/>
<defs>
<linearGradient id="paint0_linear" x1="791.529" y1="56.1067" x2="185.421" y2="587.091" gradientUnits="userSpaceOnUse">
<stop stop-color="#00BFF2"/>
<stop offset="0.285624" stop-color="#1B75BB"/>
<stop offset="0.724868" stop-color="#1B75BB"/>
<stop offset="0.736542" stop-color="#1B75BB"/>
<stop offset="1" stop-color="#1B75BB"/>
</linearGradient>
<linearGradient id="paint1_linear" x1="419.471" y1="234.861" x2="580.529" y2="234.861" gradientUnits="userSpaceOnUse">
<stop stop-color="#00BFF2"/>
<stop offset="0.285624" stop-color="#1B75BB"/>
<stop offset="0.724868" stop-color="#1B75BB"/>
<stop offset="0.736542" stop-color="#1B75BB"/>
<stop offset="1" stop-color="#1B75BB"/>
</linearGradient>
<linearGradient id="paint2_linear" x1="68.6124" y1="730.516" x2="68.6124" y2="574.881" gradientUnits="userSpaceOnUse">
<stop stop-color="#00BFF2"/>
<stop offset="0.200913" stop-color="#1B75BB"/>
<stop offset="1" stop-color="#1B75BB"/>
</linearGradient>
<linearGradient id="paint3_linear" x1="176.785" y1="732.489" x2="176.785" y2="570.496" gradientUnits="userSpaceOnUse">
<stop stop-color="#00BFF2"/>
<stop offset="0.200913" stop-color="#1B75BB"/>
<stop offset="1" stop-color="#1B75BB"/>
</linearGradient>
<linearGradient id="paint4_linear" x1="274.222" y1="732.708" x2="274.222" y2="613.242" gradientUnits="userSpaceOnUse">
<stop stop-color="#00BFF2"/>
<stop offset="0.200913" stop-color="#1B75BB"/>
<stop offset="1" stop-color="#1B75BB"/>
</linearGradient>
<linearGradient id="paint5_linear" x1="411.441" y1="732.708" x2="411.441" y2="615.433" gradientUnits="userSpaceOnUse">
<stop stop-color="#00BFF2"/>
<stop offset="0.200913" stop-color="#1B75BB"/>
<stop offset="1" stop-color="#1B75BB"/>
</linearGradient>
<linearGradient id="paint6_linear" x1="549.1" y1="732.708" x2="549.1" y2="570.496" gradientUnits="userSpaceOnUse">
<stop stop-color="#00BFF2"/>
<stop offset="0.200913" stop-color="#1B75BB"/>
<stop offset="1" stop-color="#1B75BB"/>
</linearGradient>
<linearGradient id="paint7_linear" x1="688.186" y1="732.051" x2="688.186" y2="573.784" gradientUnits="userSpaceOnUse">
<stop stop-color="#00BFF2"/>
<stop offset="0.200913" stop-color="#1B75BB"/>
<stop offset="1" stop-color="#1B75BB"/>
</linearGradient>
<linearGradient id="paint8_linear" x1="821.135" y1="732.708" x2="821.135" y2="614.118" gradientUnits="userSpaceOnUse">
<stop stop-color="#00BFF2"/>
<stop offset="0.200913" stop-color="#1B75BB"/>
<stop offset="1" stop-color="#1B75BB"/>
</linearGradient>
<linearGradient id="paint9_linear" x1="946.405" y1="732.708" x2="946.405" y2="614.118" gradientUnits="userSpaceOnUse">
<stop stop-color="#00BFF2"/>
<stop offset="0.200913" stop-color="#1B75BB"/>
<stop offset="1" stop-color="#1B75BB"/>
</linearGradient>
</defs>
</svg>
