<svg width="1060" height="605" viewBox="0 0 1060 605" fill="none" xmlns="http://www.w3.org/2000/svg">
<path d="M512.073 0.907982C341.176 12.0226 320.968 80.728 320.968 80.728C320.968 80.728 47.1533 62.5413 122.933 354.541C122.933 354.541 89.5906 322.211 88.58 242.389C88.58 242.389 -33.6773 275.732 9.77065 400.008C61.6826 519.235 194.671 418.196 194.671 418.196C194.671 418.196 269.439 446.485 316.927 432.341C316.927 432.341 261.355 382.833 262.365 322.211C262.365 322.211 308.843 457.713 473.536 458.161C473.536 458.161 468.485 540.453 364.413 604.105C364.413 604.105 625.852 621.283 718.427 455.581C718.427 455.581 868.595 480.84 932.251 352.521C932.251 352.521 931.24 396.977 884.761 436.383C884.761 436.383 970.644 493.975 1038.34 404.051C1106.03 314.125 993.883 233.295 953.467 242.389C953.467 242.389 904.969 92.8533 762.505 99.9239C762.505 99.9239 798.879 137.309 785.743 225.213C785.743 225.213 775.957 0.914579 513.84 0.903913C513.248 0.903913 512.669 0.905246 512.073 0.903913" fill="url(#paint0_linear)"/>
<path d="M670.857 249.657C670.857 327.445 607.797 390.504 530.009 390.504C452.222 390.504 389.162 327.445 389.162 249.657C389.162 171.869 452.222 108.811 530.009 108.811C607.797 108.811 670.857 171.869 670.857 249.657Z" fill="white"/>
<path d="M444.717 249.657C444.717 296.764 482.905 334.948 530.008 334.948C541.601 334.948 552.649 332.626 562.727 328.436C560.22 324.33 558.751 319.525 558.751 314.364C558.751 299.408 570.875 287.284 585.831 287.284C592.419 287.284 598.452 289.64 603.145 293.549C610.859 280.725 615.303 265.712 615.303 249.657C615.303 202.55 577.112 164.366 530.008 164.366C482.905 164.366 444.717 202.55 444.717 249.657V249.657ZM462.28 249.657C462.28 216.133 486.287 187.998 519.359 182.772C525.928 181.741 532.093 186.213 533.133 192.777C534.173 199.348 529.687 205.514 523.119 206.554C501.821 209.922 486.359 228.049 486.359 249.657C486.359 256.305 480.969 261.698 474.32 261.698C467.672 261.698 462.28 256.305 462.28 249.657Z" fill="url(#paint1_linear)"/>
<defs>
<linearGradient id="paint0_linear" x1="838.783" y1="60.3296" x2="196.822" y2="622.724" gradientUnits="userSpaceOnUse">
<stop stop-color="#00BFF2"/>
<stop offset="0.285624" stop-color="#1B75BB"/>
<stop offset="0.724868" stop-color="#1B75BB"/>
<stop offset="0.736542" stop-color="#1B75BB"/>
<stop offset="1" stop-color="#1B75BB"/>
</linearGradient>
<linearGradient id="paint1_linear" x1="444.717" y1="249.657" x2="615.302" y2="249.657" gradientUnits="userSpaceOnUse">
<stop stop-color="#00BFF2"/>
<stop offset="0.285624" stop-color="#1B75BB"/>
<stop offset="0.724868" stop-color="#1B75BB"/>
<stop offset="0.736542" stop-color="#1B75BB"/>
<stop offset="1" stop-color="#1B75BB"/>
</linearGradient>
</defs>
</svg>
