<svg width="440" height="440" viewBox="0 0 440 440" fill="none" xmlns="http://www.w3.org/2000/svg">
<path d="M212.632 99.0016C142.431 103.567 134.13 131.79 134.13 131.79C134.13 131.79 21.6531 124.319 52.7819 244.267C52.7819 244.267 39.0854 230.986 38.6702 198.197C38.6702 198.197 -11.5505 211.893 6.29705 262.943C27.6214 311.919 82.25 270.415 82.25 270.415C82.25 270.415 112.963 282.035 132.47 276.225C132.47 276.225 109.642 255.888 110.058 230.986C110.058 230.986 129.149 286.647 196.802 286.831C196.802 286.831 194.727 320.635 151.977 346.782C151.977 346.782 259.37 353.838 297.398 285.772C297.398 285.772 359.084 296.147 385.232 243.437C385.232 243.437 384.817 261.698 365.725 277.885C365.725 277.885 401.003 301.543 428.811 264.604C456.619 227.665 410.549 194.461 393.947 198.197C393.947 198.197 374.026 136.771 315.504 139.675C315.504 139.675 330.446 155.032 325.05 191.141C325.05 191.141 321.03 99.0043 213.358 98.9999C213.115 98.9999 212.877 99.0005 212.632 98.9999" fill="url(#paint0_linear)"/>
<path d="M277.857 201.182C277.857 233.136 251.953 259.039 220 259.039C188.047 259.039 162.143 233.136 162.143 201.182C162.143 169.228 188.047 143.325 220 143.325C251.953 143.325 277.857 169.228 277.857 201.182Z" fill="white"/>
<path d="M184.964 201.183C184.964 220.533 200.651 236.219 219.999 236.219C224.762 236.219 229.3 235.265 233.44 233.543C232.41 231.857 231.806 229.883 231.806 227.763C231.806 221.619 236.787 216.639 242.93 216.639C245.636 216.639 248.115 217.607 250.043 219.213C253.211 213.945 255.037 207.778 255.037 201.183C255.037 181.832 239.349 166.147 219.999 166.147C200.651 166.147 184.964 181.832 184.964 201.183V201.183ZM192.178 201.183C192.178 187.412 202.04 175.855 215.625 173.708C218.323 173.284 220.856 175.121 221.283 177.818C221.71 180.517 219.867 183.05 217.169 183.477C208.421 184.861 202.069 192.307 202.069 201.183C202.069 203.914 199.855 206.129 197.124 206.129C194.393 206.129 192.178 203.914 192.178 201.183Z" fill="url(#paint1_linear)"/>
<defs>
<linearGradient id="paint0_linear" x1="346.838" y1="123.411" x2="83.1337" y2="354.43" gradientUnits="userSpaceOnUse">
<stop stop-color="#00BFF2"/>
<stop offset="0.285624" stop-color="#1B75BB"/>
<stop offset="0.724868" stop-color="#1B75BB"/>
<stop offset="0.736542" stop-color="#1B75BB"/>
<stop offset="1" stop-color="#1B75BB"/>
</linearGradient>
<linearGradient id="paint1_linear" x1="184.964" y1="201.183" x2="255.036" y2="201.183" gradientUnits="userSpaceOnUse">
<stop stop-color="#00BFF2"/>
<stop offset="0.285624" stop-color="#1B75BB"/>
<stop offset="0.724868" stop-color="#1B75BB"/>
<stop offset="0.736542" stop-color="#1B75BB"/>
<stop offset="1" stop-color="#1B75BB"/>
</linearGradient>
</defs>
</svg>
