<svg width="1920" height="696" viewBox="0 0 1920 696" fill="none" xmlns="http://www.w3.org/2000/svg">
<rect width="1920" height="696" transform="matrix(-1 0 0 1 1920 0)" fill="url(#paint0_linear)"/>
<g opacity="0.05">
<path d="M223 464.741V234.517H275.995V333.701L359.993 234.517H419.477L333.676 337.321L425.425 464.741H364.68L299.788 372.072L275.814 397.049V464.741H223V464.741Z" fill="white"/>
<path d="M437.324 228.182H489.057V404.289C489.057 417.321 494.465 423.656 505.46 423.656C507.984 423.656 510.868 423.294 513.932 422.57C516.996 421.846 519.88 420.76 522.404 419.131L529.254 458.045C522.764 461.121 515.374 463.474 506.902 465.103C498.43 466.913 490.679 467.637 483.289 467.637C468.508 467.637 456.972 463.836 449.041 456.054C441.109 448.271 437.144 437.049 437.144 422.389V228.182H437.324Z" fill="white"/>
<path d="M626.952 467.997C612.531 467.997 599.733 465.644 588.377 460.939C577.021 456.233 567.468 449.717 559.717 441.572C551.966 433.427 546.017 424.016 542.052 413.337C538.086 402.658 536.104 391.437 536.104 379.853C536.104 368.27 538.086 357.048 542.052 346.369C546.017 335.691 551.966 326.279 559.717 318.134C567.468 309.989 577.021 303.474 588.377 298.768C599.733 293.881 612.531 291.528 626.952 291.528C641.372 291.528 654.17 293.881 665.346 298.768C676.521 303.655 686.075 310.17 693.826 318.134C701.577 326.279 707.525 335.691 711.671 346.369C715.817 357.048 717.8 368.27 717.8 379.853C717.8 391.437 715.817 402.658 711.851 413.337C707.886 424.016 701.937 433.427 694.186 441.572C686.435 449.717 676.882 456.052 665.526 460.939C654.17 465.644 641.372 467.997 626.952 467.997ZM589.098 379.853C589.098 393.247 592.703 403.925 599.733 412.07C606.763 420.215 615.956 424.197 626.771 424.197C632.179 424.197 637.046 423.111 641.552 420.939C646.059 418.767 650.024 415.69 653.269 411.889C656.694 408.088 659.217 403.382 661.2 397.772C663.183 392.342 664.084 386.188 664.084 379.853C664.084 366.46 660.479 355.781 653.449 347.636C646.419 339.492 637.406 335.51 626.591 335.51C621.183 335.51 616.136 336.596 611.63 338.767C606.943 340.939 602.978 344.016 599.733 347.817C596.308 351.618 593.785 356.324 591.802 361.935C590.18 367.365 589.098 373.337 589.098 379.853Z" fill="white"/>
<path d="M794.403 467.997C776.918 467.997 763.76 462.567 754.927 451.707C745.915 440.848 741.589 424.739 741.589 403.563V294.604H793.321V392.16C793.321 402.477 795.304 410.441 799.45 416.051C803.596 421.481 809.364 424.377 816.935 424.377C823.784 424.377 830.454 422.567 836.943 418.947C843.432 415.327 849.02 408.812 854.067 399.762V294.785H905.8V406.64C905.8 411.889 906.521 415.508 908.143 417.499C909.765 419.49 912.649 420.757 916.615 421.3V465.101C911.748 466.187 907.422 466.911 903.997 467.273C900.572 467.635 897.508 467.816 894.624 467.816C876.058 467.816 865.603 460.576 862.899 446.096L861.998 435.78C854.247 447.001 844.694 455.327 833.157 460.576C821.621 465.282 808.643 467.997 794.403 467.997Z" fill="white"/>
<path d="M1015.93 467.999C1004.4 467.999 993.583 465.827 983.85 461.302C974.116 456.958 965.644 450.623 958.434 442.659C951.404 434.696 945.816 425.284 941.85 414.605C937.885 403.927 935.902 392.162 935.902 379.492C935.902 367.185 937.705 355.601 941.31 344.741C944.915 333.882 950.142 324.651 956.811 316.687C963.481 308.724 971.412 302.57 980.605 298.045C989.798 293.52 999.892 291.167 1010.71 291.167C1022.6 291.167 1033.24 294.063 1042.79 299.674C1052.35 305.285 1059.74 312.886 1064.96 322.298V228H1116.7V406.28C1116.7 411.528 1117.42 415.148 1119.04 417.139C1120.66 419.13 1123.55 420.397 1127.51 420.94V464.741C1122.83 465.827 1118.68 466.551 1115.25 466.913C1111.83 467.275 1108.59 467.456 1105.52 467.456C1096.51 467.456 1089.12 465.646 1083.53 461.845C1077.94 458.044 1074.7 452.614 1073.8 445.555L1072.89 436.868C1066.95 447.546 1058.65 455.329 1048.56 460.578C1038.47 465.465 1027.65 467.999 1015.93 467.999ZM1029.81 424.198C1036.84 424.198 1043.69 422.026 1050.36 417.863C1056.85 413.7 1061.9 407.908 1065.32 400.488V364.832C1062.08 356.144 1056.85 349.085 1049.64 343.655C1042.43 338.226 1034.86 335.33 1027.11 335.33C1021.52 335.33 1016.48 336.597 1011.79 339.131C1007.1 341.665 1003.14 344.922 999.712 349.085C996.287 353.248 993.583 357.954 991.781 363.384C989.978 368.814 989.077 374.605 989.077 380.578C989.077 386.913 990.158 392.705 992.141 398.135C994.124 403.565 997.008 408.27 1000.61 412.071C1004.22 415.872 1008.54 418.949 1013.59 421.121C1018.64 423.112 1024.05 424.198 1029.81 424.198Z" fill="white"/>
<path d="M1301.1 282.842C1298.57 279.765 1295.15 276.869 1290.82 274.154C1286.5 271.259 1281.63 268.725 1276.22 266.553C1270.82 264.2 1265.05 262.39 1258.56 261.123C1252.25 259.675 1245.58 258.951 1238.73 258.951C1220.89 258.951 1207.73 262.39 1199.43 269.087C1191.14 275.783 1187 285.014 1187 296.598C1187 302.933 1188.26 308 1190.6 312.163C1192.95 316.326 1196.73 319.765 1201.78 322.661C1206.83 325.557 1213.13 328.091 1220.7 330.263C1228.28 332.435 1237.11 334.606 1247.56 337.14C1259.46 339.674 1270.09 342.751 1279.65 346.009C1289.2 349.448 1297.49 353.611 1304.16 358.498C1311.01 363.385 1316.06 369.538 1319.66 376.597C1323.27 383.656 1325.07 392.525 1325.07 402.841C1325.07 413.882 1322.91 423.475 1318.58 431.619C1314.26 439.764 1308.49 446.461 1300.92 451.71C1293.53 456.959 1284.69 460.94 1274.6 463.293C1264.51 465.827 1253.51 467.094 1241.61 467.094C1223.95 467.094 1207.19 464.379 1191.32 458.768C1175.46 453.339 1161.22 445.194 1148.24 434.696L1162.12 410.081C1165.55 413.701 1170.05 417.502 1175.46 421.122C1180.87 424.742 1187.18 428.18 1194.21 431.076C1201.24 433.972 1208.81 436.325 1216.74 438.135C1224.85 439.945 1233.32 440.85 1242.16 440.85C1258.56 440.85 1271.18 437.954 1280.19 432.162C1289.2 426.371 1293.71 417.502 1293.71 405.918C1293.71 399.402 1292.27 393.973 1289.38 389.629C1286.5 385.285 1282.17 381.303 1276.58 378.045C1271 374.787 1263.97 371.891 1255.67 369.538C1247.38 367.004 1238.01 364.471 1227.37 361.937C1215.84 359.041 1205.56 356.145 1196.73 352.887C1187.9 349.629 1180.51 345.828 1174.56 341.303C1168.61 336.778 1164.11 331.168 1161.22 324.833C1158.16 318.317 1156.71 310.534 1156.71 301.485C1156.71 290.444 1158.7 280.67 1162.84 272.344C1166.99 263.838 1172.58 256.779 1179.97 250.987C1187.36 245.195 1196.01 240.852 1206.1 237.775C1216.2 234.879 1227.19 233.431 1239.09 233.431C1254.59 233.431 1268.65 235.784 1281.09 240.49C1293.53 245.195 1304.7 251.711 1314.26 259.675L1301.1 282.842Z" fill="white"/>
<path d="M1433.05 467.999C1420.43 467.999 1408.71 465.646 1398.26 460.94C1387.62 456.234 1378.61 449.899 1371.22 441.936C1363.65 433.972 1357.88 424.56 1353.55 413.881C1349.41 403.203 1347.24 391.981 1347.24 380.036C1347.24 368.09 1349.41 356.868 1353.55 346.371C1357.7 335.873 1363.65 326.461 1371.4 318.498C1378.97 310.534 1388.16 304.199 1398.62 299.493C1409.07 294.787 1420.79 292.434 1433.41 292.434C1446.02 292.434 1457.74 294.787 1468.2 299.493C1478.65 304.199 1487.48 310.534 1494.87 318.498C1502.26 326.461 1507.85 335.511 1511.82 346.009C1515.78 356.506 1517.76 367.366 1517.76 378.588C1517.76 380.941 1517.77 383.112 1517.58 385.103C1517.4 387.094 1517.4 388.542 1517.04 389.628H1377.17C1377.89 398.135 1379.69 405.737 1382.94 412.615C1386.18 419.492 1390.33 425.465 1395.55 430.533C1400.78 435.42 1406.55 439.402 1413.22 442.117C1419.71 445.012 1426.74 446.279 1434.13 446.279C1439.35 446.279 1444.4 445.555 1449.27 444.108C1454.14 442.66 1458.82 440.85 1463.15 438.497C1467.47 436.144 1471.26 433.248 1474.68 429.809C1478.11 426.37 1480.63 422.388 1482.25 418.225L1506.77 425.103C1503.89 431.438 1500.1 437.049 1495.23 442.298C1490.37 447.546 1484.78 451.89 1478.47 455.691C1472.16 459.492 1465.13 462.388 1457.38 464.56C1449.63 466.913 1441.52 467.999 1433.05 467.999ZM1490.91 368.814C1490.19 360.85 1488.2 353.429 1484.96 346.552C1481.53 339.674 1477.39 333.882 1472.34 329.176C1467.29 324.47 1461.35 320.669 1454.68 317.955C1448.01 315.24 1440.98 313.973 1433.41 313.973C1425.84 313.973 1418.81 315.24 1412.14 317.955C1405.47 320.669 1399.52 324.47 1394.47 329.357C1389.42 334.244 1385.28 340.036 1382.21 346.733C1379.15 353.429 1377.17 360.85 1376.63 368.814H1490.91Z" fill="white"/>
<path d="M1538.13 379.856C1538.13 367.91 1540.11 356.689 1544.26 346.191C1548.4 335.693 1554.17 326.282 1561.74 318.499C1569.31 310.535 1578.33 304.381 1588.78 299.676C1599.24 294.97 1610.95 292.617 1623.75 292.617C1640.51 292.617 1654.93 296.418 1667.19 303.838C1679.27 311.259 1688.46 321.214 1694.77 333.883L1667.01 342.571C1662.69 334.607 1656.74 328.273 1648.99 323.929C1641.23 319.585 1632.58 317.232 1623.21 317.232C1615.46 317.232 1608.07 318.861 1601.22 321.938C1594.37 325.015 1588.42 329.539 1583.37 335.15C1578.51 340.761 1574.54 347.277 1571.66 354.879C1568.77 362.48 1567.33 370.806 1567.33 379.856C1567.33 388.725 1568.77 397.05 1571.84 404.833C1574.9 412.616 1578.87 419.313 1583.91 425.104C1588.96 430.896 1594.91 435.24 1601.76 438.498C1608.61 441.756 1615.82 443.385 1623.57 443.385C1628.44 443.385 1633.48 442.661 1638.17 441.213C1643.04 439.765 1647.36 437.955 1651.33 435.602C1655.29 433.249 1658.72 430.534 1661.78 427.276C1664.85 424.199 1667.01 420.761 1668.27 417.141L1696.03 425.647C1693.51 431.982 1689.9 437.593 1685.22 442.842C1680.53 448.091 1675.12 452.434 1668.99 456.054C1662.69 459.674 1655.84 462.57 1648.08 464.742C1640.51 466.914 1632.4 468 1624.11 468C1611.49 468 1599.78 465.647 1589.32 460.941C1578.69 456.235 1569.67 449.901 1562.28 441.756C1554.71 433.792 1548.95 424.38 1544.62 413.702C1540.11 403.023 1538.13 391.801 1538.13 379.856Z" fill="white"/>
</g>
<defs>
<linearGradient id="paint0_linear" x1="464" y1="-12" x2="1976.5" y2="724.5" gradientUnits="userSpaceOnUse">
<stop stop-color="#0067B6"/>
<stop offset="1" stop-color="#008AEA" stop-opacity="0.85"/>
</linearGradient>
</defs>
</svg>
