<svg width="751" height="493" viewBox="0 0 751 493" fill="none" xmlns="http://www.w3.org/2000/svg">
<g filter="url(#filter0_d)">
<path d="M68.2677 303.772C68.2677 303.772 -9.30379 205.941 23.3859 210.596C56.1022 215.25 82.962 260.176 82.962 260.176C82.962 260.176 51.9228 139.949 61.9587 134.363C71.9945 128.804 69.7052 117.978 59.4297 90.0223C49.1543 62.0667 88.0997 80.2072 92.9713 99.8107C97.8428 119.414 113.043 171.096 130.666 184.263C148.288 197.402 157.233 206.898 157.233 206.898L267.68 109.759C267.68 109.759 302.047 71.669 322.278 65.5778C342.51 59.5132 307.61 100.289 310.432 103.295C313.254 106.274 378.846 21.3968 397.161 38.1542C415.476 54.9116 358.269 102.125 358.269 102.125L509.073 109.759C509.073 109.759 575.889 108.908 585.18 93.028C594.497 77.1483 609.458 77.1483 618.375 77.1483C627.293 77.1483 653.94 84.6493 632.67 96.8848C611.401 109.094 610.416 111.301 614.382 128.059C618.349 144.816 597.771 176.522 574.133 187.534C550.494 198.546 518.603 238.019 518.603 238.019L519.747 275.737C519.747 275.737 630.301 199.477 644.197 216.314C658.093 233.152 585.207 281.482 585.207 281.482C585.207 281.482 585.872 304.676 579.749 321.54C573.653 338.404 548.018 339.069 532.419 347.181C516.819 355.294 600.38 343.617 610.363 319.864C620.345 296.111 691.847 272.811 681.918 299.037C671.989 325.237 663.204 339.388 663.204 339.388C663.204 339.388 689.771 342.473 682.85 359.231C675.928 375.988 612.146 386.601 589.918 386.947C567.69 387.293 180.339 384.393 180.339 384.393L68.2677 303.772Z" fill="#2B5DAD"/>
<path d="M205.495 324.572L213.348 378.302L513.172 386.042L520.572 323.056L205.495 324.572Z" fill="#1B45A1"/>
<path d="M227.749 382.186C227.749 382.186 213.64 239.11 137.267 195.301C60.893 151.492 56.9532 145.88 56.9532 145.88C56.9532 145.88 52.6141 247.462 103.725 309.889C154.836 372.317 209.141 384.872 209.141 384.872L227.749 382.186Z" fill="url(#paint0_linear)"/>
<path d="M198.227 386.681C198.227 386.681 177.038 308.453 113.868 294.595C50.6978 280.737 15 298.612 15 298.612C15 298.612 48.435 392.772 97.4696 398.225C152.733 404.396 198.227 386.681 198.227 386.681Z" fill="url(#paint1_linear)"/>
<path d="M202.114 387.239C201.848 387.239 201.555 387.133 201.342 386.92C201.129 386.734 180.738 367.636 149.406 348.485C120.523 330.823 76.1466 309.491 28.8424 308.081C28.2302 308.054 27.7244 307.549 27.751 306.91C27.7776 306.299 28.2834 305.793 28.9223 305.82C50.0588 306.432 72.3666 311.007 95.2067 319.385C113.468 326.088 132.129 335.238 150.63 346.569C182.149 365.854 202.699 385.085 202.886 385.271C203.338 385.697 203.365 386.415 202.939 386.867C202.726 387.133 202.433 387.239 202.114 387.239Z" fill="#65ACE4"/>
<path d="M209.727 379.419C209.275 379.419 208.822 379.127 208.662 378.675C208.529 378.276 193.782 337.02 168.199 287.041C153.745 258.846 132.235 238.95 111.418 219.719C95.3398 204.877 80.1663 190.859 70.2635 174.447C69.9441 173.915 70.1038 173.224 70.6362 172.905C71.1686 172.585 71.8607 172.745 72.1802 173.277C81.9232 189.396 96.9903 203.334 112.936 218.043C133.886 237.407 155.555 257.436 170.196 286.004C195.858 336.116 210.632 377.478 210.792 377.903C211.005 378.488 210.685 379.127 210.1 379.339C209.993 379.393 209.86 379.419 209.727 379.419Z" fill="#65ACE4"/>
<path d="M52.2687 345.532C51.8694 345.532 51.4967 345.346 51.2837 344.974C50.9643 344.442 51.1506 343.75 51.683 343.431C68.4538 333.589 84.5591 329.733 95.1273 328.243C106.601 326.62 114.001 327.312 114.321 327.339C114.933 327.392 115.385 327.95 115.332 328.562C115.279 329.174 114.72 329.626 114.108 329.573C114.028 329.573 106.601 328.855 95.3669 330.477C85.0116 331.94 69.2524 335.717 52.8277 345.373C52.6414 345.479 52.455 345.532 52.2687 345.532Z" fill="#65ACE4"/>
<path d="M82.2691 375.589C81.9763 375.589 81.6834 375.483 81.4705 375.243C81.0446 374.791 81.0446 374.073 81.4971 373.647C81.7367 373.408 87.7529 367.609 98.8801 361.146C109.156 355.161 125.9 347.501 147.329 344.894C147.941 344.814 148.5 345.266 148.58 345.878C148.66 346.49 148.207 347.048 147.595 347.128C126.539 349.708 110.114 357.236 100.025 363.088C89.1105 369.418 83.1209 375.217 83.0677 375.27C82.8547 375.483 82.5619 375.589 82.2691 375.589Z" fill="#65ACE4"/>
<path d="M122.626 244.429C121.002 244.429 119.272 244.403 117.435 244.323C106.76 243.844 90.4156 241.61 73.139 233.683C72.58 233.417 72.3138 232.752 72.58 232.194C72.8462 231.635 73.5117 231.369 74.0707 231.635C91.0012 239.429 107.053 241.61 117.515 242.089C128.855 242.594 136.229 241.237 136.309 241.237C136.921 241.131 137.507 241.53 137.64 242.142C137.746 242.754 137.347 243.339 136.735 243.472C136.495 243.472 131.198 244.429 122.626 244.429Z" fill="#65ACE4"/>
<path d="M140.541 284.488C130 284.488 115.358 283.237 96.8573 278.769C96.2451 278.609 95.8724 278.024 96.0321 277.412C96.1918 276.8 96.7775 276.428 97.3897 276.588C120.975 282.306 138.199 282.679 148.474 281.987C159.601 281.242 165.245 279.115 165.298 279.088C165.884 278.875 166.523 279.141 166.762 279.726C166.975 280.312 166.709 280.95 166.123 281.189C165.884 281.269 160.214 283.45 148.793 284.222C146.398 284.381 143.656 284.488 140.541 284.488Z" fill="#65ACE4"/>
<path d="M609.696 392.612C603.254 390.059 595.614 387.293 587.628 384.34C549.455 370.189 434.242 354.39 342.376 360.587C317.06 362.29 244.839 371.253 209.727 371.679C171.074 372.131 190.64 389.261 95.8189 392.852C0.997513 396.443 44.4418 406.018 83.2275 415.434C108.81 421.632 181.856 419.664 256.259 417.589C254.05 417.881 254.289 417.881 257.564 417.562C269.356 417.243 281.202 416.897 292.862 416.605C336.28 417.11 399.343 421.286 445.982 421.685C508.034 422.19 630.008 425.436 640.762 411.099C646.193 403.837 631.445 397.32 609.696 392.612Z" fill="#1B45A1"/>
<path d="M215.157 121.436C215.424 118.962 215.583 116.462 215.583 113.908C215.583 112.578 215.53 111.222 215.45 109.918L202.992 105.902C202.22 100.662 200.729 95.6611 198.573 91.0063L206.825 80.8455C204.909 77.494 202.726 74.3021 200.277 71.3496L187.818 75.4193C184.198 71.722 180.045 68.5301 175.493 65.95L176.212 52.8899C172.725 51.3206 169.104 50.0172 165.351 49.0331L157.684 59.6195C154.676 59.1141 151.615 58.8481 148.474 58.8481C146.344 58.8481 144.214 58.9811 142.138 59.2205L135.03 48.2351C131.224 49.0065 127.524 50.097 123.983 51.5068L124.01 64.5935C119.325 66.9076 115.012 69.8867 111.205 73.3978L98.96 68.6631C96.3778 71.5092 94.0086 74.5415 91.9323 77.8132L99.6521 88.373C97.2563 92.9214 95.4994 97.8423 94.4612 103.029L81.8166 106.381C81.5503 108.854 81.3906 111.355 81.3906 113.908C81.3906 115.238 81.4439 116.595 81.5237 117.898L93.982 121.914C94.754 127.154 96.2447 132.155 98.401 136.81L90.1487 146.971C92.0654 150.322 94.2482 153.514 96.6973 156.466L109.156 152.397C112.776 156.094 116.929 159.286 121.481 161.866L120.762 174.926C124.249 176.495 127.87 177.799 131.623 178.783L139.316 168.17C142.324 168.675 145.386 168.941 148.527 168.941C150.657 168.941 152.786 168.808 154.863 168.569L161.97 179.554C165.777 178.783 169.477 177.692 173.018 176.283L172.991 163.196C177.676 160.882 181.989 157.903 185.795 154.392L198.014 159.1C200.596 156.254 202.965 153.221 205.042 149.95L197.322 139.39C199.718 134.841 201.475 129.921 202.513 124.734L215.157 121.436ZM148.474 140.214C133.939 140.214 122.146 128.431 122.146 113.908C122.146 99.385 133.939 87.6016 148.474 87.6016C163.008 87.6016 174.801 99.385 174.801 113.908C174.801 128.431 163.008 140.214 148.474 140.214Z" fill="url(#paint2_linear)"/>
<path d="M633.282 362.343C634.959 359.789 636.503 357.103 637.888 354.31C638.633 352.82 639.325 351.331 639.964 349.841L628.491 338.563C630.54 332.366 631.632 326.035 631.845 319.758L646.513 313.135C646.273 308.4 645.607 303.692 644.543 299.09L628.624 296.697C626.68 290.632 623.885 284.833 620.292 279.514L628.278 265.522C625.323 261.878 622.049 258.447 618.455 255.308L604.16 262.73C601.152 260.522 597.904 258.554 594.443 256.825C592.101 255.654 589.705 254.617 587.283 253.739L585.499 237.726C580.867 236.476 576.208 235.652 571.55 235.226L564.362 249.616C557.92 249.59 551.558 250.494 545.435 252.25L534.601 240.36C530.182 242.036 525.923 244.11 521.823 246.531L524.485 262.384C519.348 266.081 514.689 270.496 510.696 275.63L494.937 272.385C493.26 274.939 491.716 277.625 490.332 280.418C489.586 281.907 488.894 283.397 488.255 284.887L499.728 296.165C497.679 302.362 496.587 308.693 496.374 314.97L481.707 321.593C481.946 326.328 482.612 331.036 483.676 335.637L499.595 338.031C501.539 344.096 504.334 349.895 507.927 355.214L499.941 369.205C502.896 372.849 506.171 376.281 509.764 379.419L524.059 371.998C527.067 374.206 530.315 376.174 533.776 377.903C536.118 379.074 538.514 380.111 540.937 380.989L542.72 397.001C547.352 398.251 552.011 399.076 556.669 399.502L563.857 385.112C570.299 385.138 576.661 384.234 582.784 382.478L593.618 394.368C598.037 392.692 602.296 390.618 606.396 388.197L603.734 372.344C608.872 368.647 613.53 364.231 617.523 359.098L633.282 362.343ZM549.641 346.304C533.669 338.297 527.174 318.88 535.187 302.921C543.199 286.961 562.632 280.471 578.604 288.477C594.576 296.484 601.072 315.901 593.059 331.86C585.046 347.82 565.614 354.283 549.641 346.304Z" fill="url(#paint3_linear)"/>
<path d="M587.602 370.349C587.096 370.349 586.59 370.057 586.377 369.551C586.084 368.886 586.377 368.088 587.069 367.796C598.702 362.715 608.232 353.645 613.929 342.287C616.644 336.834 618.428 331.062 619.227 325.078C619.333 324.359 619.999 323.827 620.717 323.934C621.436 324.04 621.968 324.705 621.862 325.423C621.037 331.701 619.147 337.765 616.298 343.458C610.335 355.374 600.326 364.87 588.134 370.216C587.974 370.323 587.788 370.349 587.602 370.349Z" fill="white"/>
<path d="M617.603 299.995C617.07 299.995 616.538 299.649 616.352 299.117C613.769 292.095 609.856 285.791 604.745 280.391C604.239 279.859 604.266 279.008 604.798 278.503C605.331 277.998 606.183 278.024 606.688 278.556C612.066 284.222 616.165 290.845 618.881 298.213C619.147 298.904 618.774 299.676 618.082 299.915C617.922 299.968 617.763 299.995 617.603 299.995Z" fill="white"/>
<path d="M590.158 269.326C589.945 269.326 589.758 269.273 589.572 269.193C585.526 267.172 581.24 265.656 576.847 264.671C576.129 264.512 575.676 263.794 575.836 263.075C575.995 262.357 576.714 261.905 577.433 262.065C582.038 263.075 586.511 264.671 590.77 266.799C591.435 267.118 591.702 267.916 591.356 268.581C591.116 269.034 590.663 269.326 590.158 269.326Z" fill="white"/>
<path d="M542.108 256.798C543.945 257.383 545.835 257.889 547.752 258.288C548.763 258.5 549.801 258.66 550.813 258.82L555.791 250.015C559.89 250.255 563.91 249.882 567.797 248.978L574.239 256.798C577.087 255.867 579.829 254.697 582.464 253.314L581.293 243.259C584.674 241.078 587.735 238.418 590.371 235.386L600.193 237.939C601.924 235.545 603.468 232.992 604.799 230.305L597.931 222.831C598.783 220.65 599.448 218.336 599.927 215.969C600.247 214.346 600.486 212.724 600.619 211.128L610.07 207.43C610.07 204.425 609.803 201.446 609.298 198.546L599.368 196.551C598.33 192.641 596.733 188.917 594.656 185.486L600.114 176.948C598.357 174.554 596.413 172.293 594.257 170.218L585.046 174.421C581.959 171.921 578.498 169.819 574.718 168.223L574.106 158.116C572.269 157.531 570.379 157.025 568.462 156.626C567.451 156.413 566.412 156.254 565.401 156.094L560.423 164.899C556.323 164.659 552.304 165.032 548.417 165.936L541.975 158.116C539.127 159.047 536.385 160.217 533.749 161.6L534.921 171.655C531.54 173.836 528.478 176.496 525.843 179.528L516.02 176.974C514.29 179.368 512.746 181.922 511.415 184.608L518.283 192.083C517.431 194.264 516.766 196.578 516.286 198.945C515.967 200.568 515.727 202.19 515.594 203.786L506.144 207.484C506.144 210.489 506.41 213.468 506.916 216.368L516.845 218.363C517.884 222.273 519.481 225.996 521.557 229.428L516.1 237.966C517.857 240.36 519.8 242.621 521.956 244.696L531.167 240.493C534.255 242.993 537.716 245.095 541.496 246.69L542.108 256.798ZM538.168 203.387C540.404 192.375 551.159 185.247 562.18 187.508C573.2 189.742 580.335 200.488 578.072 211.5C575.836 222.512 565.081 229.64 554.061 227.38C543.04 225.145 535.906 214.399 538.168 203.387Z" fill="url(#paint4_linear)"/>
<path d="M557.814 217.671C564.577 217.671 570.059 212.193 570.059 205.435C570.059 198.678 564.577 193.2 557.814 193.2C551.051 193.2 545.568 198.678 545.568 205.435C545.568 212.193 551.051 217.671 557.814 217.671Z" fill="url(#paint5_linear)"/>
<path d="M413.958 378.754V323.056H284.85V378.754H242.869C235.07 378.754 228.761 385.058 228.761 392.852V396.283C228.761 398.81 230.811 400.858 233.339 400.858H465.441C467.97 400.858 470.02 398.81 470.02 396.283V392.852C470.02 385.058 463.711 378.754 455.911 378.754H413.958Z" fill="#3B77D9"/>
<path d="M284.85 361.226L413.958 351.278V327.817L284.85 329.2V361.226Z" fill="#1F57B5"/>
<path d="M413.958 369.604L284.85 378.754H413.958V369.604Z" fill="#1F57B5"/>
<path d="M544.238 335.77H154.57C150.763 335.77 147.649 332.685 147.649 328.855V96.9113C147.649 93.1077 150.737 89.9956 154.57 89.9956H544.238C548.044 89.9956 551.159 93.0811 551.159 96.9113V328.881C551.159 332.685 548.044 335.77 544.238 335.77Z" fill="#153F9C"/>
<path d="M533.59 310.9H165.218C161.784 310.9 158.989 308.107 158.989 304.676V106.248C158.989 102.816 161.784 100.023 165.218 100.023H533.59C537.024 100.023 539.819 102.816 539.819 106.248V304.703C539.819 308.134 537.024 310.9 533.59 310.9Z" fill="#9DD2F2"/>
<path d="M363.512 327.817H335.295C333.751 327.817 332.473 326.54 332.473 324.998V324.147C332.473 322.604 333.751 321.327 335.295 321.327H363.512C365.056 321.327 366.334 322.604 366.334 324.147V324.998C366.334 326.567 365.056 327.817 363.512 327.817Z" fill="#2A66C6"/>
<path d="M457.828 389.394H369.316C367.665 389.394 366.334 388.064 366.334 386.415V385.697C366.334 384.048 367.665 382.718 369.316 382.718H457.828C459.479 382.718 460.81 384.048 460.81 385.697V386.415C460.81 388.064 459.479 389.394 457.828 389.394Z" fill="#79C3F0"/>
<path opacity="0.3" d="M352.944 119.893C373.123 119.893 399.663 112.312 407.862 109.812C409.113 109.44 410.391 110.291 410.391 111.488V167.585C410.391 210.941 353.85 246.079 353.85 246.079C353.85 246.079 297.308 210.941 297.308 167.585V114.068C297.308 112.924 298.506 112.073 299.704 112.365C307.45 114.254 332.74 119.893 352.944 119.893Z" fill="#99A8C2"/>
<path d="M348.578 115.078C367.771 115.078 392.981 107.87 400.754 105.503C401.925 105.13 403.15 105.955 403.15 107.072V160.403C403.15 201.605 349.404 235.013 349.404 235.013C349.404 235.013 295.657 201.605 295.657 160.403V109.546C295.657 108.455 296.775 107.657 297.947 107.923C305.347 109.705 329.385 115.078 348.578 115.078Z" fill="#1B45A1"/>
<path d="M349.403 123.856C363.805 123.856 381.694 119.148 390.691 115.424C393.38 114.307 396.415 116.116 396.415 118.802V161.6C396.415 197.642 349.43 226.847 349.43 226.847C349.43 226.847 302.445 197.642 302.445 161.6V120.664C302.445 118.084 305.267 116.275 307.902 117.18C316.794 120.212 334.869 123.856 349.403 123.856Z" fill="#316CCC"/>
<path d="M349.91 135.453V215.436C349.91 215.436 312.535 191.63 312.535 163.356V130.958C312.535 129.069 314.584 127.766 316.528 128.431C323.502 130.852 338.276 135.453 349.91 135.453Z" fill="#79C3F0"/>
<path d="M349.909 135.453V215.437C349.909 215.437 388.615 191.63 388.615 163.356V130.878C388.615 129.016 386.592 127.713 384.675 128.351C377.435 130.745 361.675 135.453 349.909 135.453Z" fill="#79C3F0"/>
<path d="M335.215 154.711C335.801 155.137 336.36 155.562 336.892 156.014C337.425 156.466 337.984 156.892 338.489 157.397C338.995 157.876 339.528 158.355 340.033 158.86C340.273 159.1 340.539 159.366 340.779 159.605L341.497 160.377C341.977 160.882 342.456 161.414 342.935 161.946C343.388 162.478 343.84 163.036 344.293 163.568C344.745 164.1 345.171 164.659 345.597 165.218C345.81 165.484 346.023 165.776 346.236 166.069C346.449 166.361 346.662 166.627 346.848 166.92C347.247 167.505 347.647 168.09 348.046 168.675C348.445 169.261 348.818 169.872 349.164 170.458C349.537 171.043 349.883 171.655 350.229 172.293L350.735 173.224C350.894 173.543 351.054 173.862 351.214 174.155C351.374 174.474 351.533 174.793 351.693 175.112L352.146 176.07C352.438 176.708 352.731 177.373 352.997 178.038C353.264 178.703 353.53 179.368 353.743 180.06C353.849 180.406 353.982 180.751 354.089 181.097C354.142 181.283 354.195 181.443 354.249 181.629L354.408 182.214L347.008 181.762C347.168 181.496 347.274 181.257 347.434 181.017L347.86 180.299C348.153 179.82 348.419 179.342 348.712 178.889L350.468 176.123L353.982 170.617C355.154 168.782 356.378 167 357.629 165.218C358.88 163.435 360.185 161.706 361.516 159.978C362.874 158.275 364.258 156.599 365.695 154.95C367.133 153.328 368.624 151.732 370.194 150.216C371.738 148.7 373.389 147.237 375.092 145.88C375.944 145.189 376.823 144.55 377.701 143.938C378.606 143.327 379.511 142.741 380.443 142.183C380.629 142.076 380.869 142.13 381.002 142.342C381.108 142.502 381.055 142.715 380.922 142.848C380.123 143.539 379.325 144.258 378.579 145.002C377.834 145.747 377.089 146.518 376.397 147.29C375.678 148.061 375.012 148.859 374.347 149.684C373.681 150.508 373.042 151.333 372.404 152.157C371.126 153.833 369.928 155.562 368.783 157.318C368.198 158.195 367.639 159.073 367.08 159.978C366.521 160.882 365.988 161.76 365.429 162.664C364.338 164.473 363.326 166.308 362.288 168.143C361.276 169.979 360.291 171.841 359.333 173.703C358.854 174.634 358.375 175.565 357.922 176.522C357.47 177.48 357.044 178.437 356.618 179.395C356.192 180.352 355.793 181.337 355.393 182.294L354.808 183.757L354.249 185.167L350.841 193.838L346.822 184.715L345.304 181.283C345.171 180.991 345.038 180.698 344.905 180.379C344.772 180.086 344.639 179.794 344.506 179.475L343.734 177.666L340.646 170.378C340.379 169.766 340.113 169.154 339.874 168.542L339.474 167.611L339.075 166.68C338.809 166.069 338.543 165.457 338.303 164.819C338.037 164.207 337.771 163.595 337.504 162.957C337.238 162.318 336.999 161.68 336.732 161.068C336.466 160.456 336.227 159.818 335.96 159.18C335.721 158.541 335.428 157.876 335.188 157.238C334.922 156.573 334.683 155.908 334.47 155.243C334.39 155.03 334.523 154.791 334.736 154.711C334.975 154.605 335.109 154.631 335.215 154.711Z" fill="#2A66C6"/>
<path opacity="0.5" d="M551.159 134.576H452.877C451.333 134.576 450.055 135.852 450.055 137.395V151.732C450.055 153.275 451.333 154.551 452.877 154.551H551.159V134.576Z" fill="#99A8C2"/>
<path d="M580.068 147.981H446.275C444.731 147.981 443.453 146.705 443.453 145.162V130.825C443.453 129.282 444.731 128.006 446.275 128.006H580.068C581.612 128.006 582.89 129.282 582.89 130.825V145.162C582.89 146.705 581.612 147.981 580.068 147.981Z" fill="#316CCC"/>
<path d="M577.06 144.364H449.31C448.112 144.364 447.1 143.38 447.1 142.156V133.778C447.1 132.581 448.085 131.57 449.31 131.57H577.06C578.258 131.57 579.27 132.554 579.27 133.778V142.156C579.243 143.38 578.258 144.364 577.06 144.364Z" fill="white"/>
<path d="M462.114 141.943C461.528 141.943 461.049 141.465 461.049 140.879V134.522C461.049 133.937 461.528 133.458 462.114 133.458C462.699 133.458 463.178 133.937 463.178 134.522V140.879C463.178 141.465 462.699 141.943 462.114 141.943Z" fill="#316CCC"/>
<path d="M465.654 140.028C465.335 140.507 464.669 140.64 464.19 140.321L458.893 136.836C458.414 136.517 458.28 135.852 458.6 135.373C458.919 134.895 459.585 134.762 460.064 135.081L465.361 138.565C465.841 138.884 465.974 139.549 465.654 140.028Z" fill="#316CCC"/>
<path d="M458.626 140.135C458.307 139.656 458.413 138.991 458.893 138.672L464.11 135.054C464.589 134.735 465.255 134.841 465.574 135.32C465.894 135.799 465.787 136.464 465.308 136.783L460.091 140.401C459.611 140.72 458.973 140.614 458.626 140.135Z" fill="#316CCC"/>
<path d="M476.994 141.943C476.408 141.943 475.929 141.465 475.929 140.879V134.522C475.929 133.937 476.408 133.458 476.994 133.458C477.58 133.458 478.059 133.937 478.059 134.522V140.879C478.059 141.465 477.58 141.943 476.994 141.943Z" fill="#316CCC"/>
<path d="M480.535 140.028C480.215 140.507 479.55 140.64 479.07 140.321L473.773 136.836C473.294 136.517 473.161 135.852 473.48 135.374C473.8 134.895 474.465 134.762 474.944 135.081L480.242 138.565C480.721 138.885 480.854 139.55 480.535 140.028Z" fill="#316CCC"/>
<path d="M473.507 140.135C473.187 139.656 473.294 138.991 473.773 138.672L478.991 135.054C479.47 134.735 480.135 134.841 480.455 135.32C480.774 135.799 480.668 136.464 480.188 136.783L474.971 140.401C474.518 140.72 473.853 140.614 473.507 140.135Z" fill="#316CCC"/>
<path d="M491.875 141.943C491.289 141.943 490.81 141.465 490.81 140.879V134.522C490.81 133.937 491.289 133.458 491.875 133.458C492.461 133.458 492.94 133.937 492.94 134.522V140.879C492.94 141.465 492.461 141.943 491.875 141.943Z" fill="#316CCC"/>
<path d="M495.415 140.028C495.096 140.507 494.43 140.64 493.951 140.321L488.654 136.836C488.175 136.517 488.042 135.852 488.361 135.374C488.681 134.895 489.346 134.762 489.825 135.081L495.123 138.565C495.602 138.885 495.735 139.55 495.415 140.028Z" fill="#316CCC"/>
<path d="M488.388 140.135C488.068 139.656 488.175 138.991 488.654 138.672L493.871 135.054C494.351 134.735 495.016 134.841 495.336 135.32C495.655 135.799 495.549 136.464 495.069 136.783L489.852 140.401C489.399 140.72 488.734 140.614 488.388 140.135Z" fill="#316CCC"/>
<path d="M506.756 141.943C506.17 141.943 505.691 141.465 505.691 140.879V134.522C505.691 133.937 506.17 133.458 506.756 133.458C507.341 133.458 507.821 133.937 507.821 134.522V140.879C507.821 141.465 507.341 141.943 506.756 141.943Z" fill="#316CCC"/>
<path d="M510.296 140.028C509.977 140.507 509.311 140.64 508.832 140.321L503.535 136.836C503.056 136.517 502.923 135.852 503.242 135.374C503.561 134.895 504.227 134.762 504.706 135.081L510.004 138.565C510.483 138.885 510.616 139.55 510.296 140.028Z" fill="#316CCC"/>
<path d="M503.269 140.135C502.949 139.656 503.056 138.991 503.535 138.672L508.752 135.054C509.232 134.735 509.897 134.841 510.216 135.32C510.536 135.799 510.429 136.464 509.95 136.783L504.733 140.401C504.28 140.72 503.615 140.614 503.269 140.135Z" fill="#316CCC"/>
<path d="M521.636 141.943C521.05 141.943 520.571 141.465 520.571 140.879V134.522C520.571 133.937 521.05 133.458 521.636 133.458C522.222 133.458 522.701 133.937 522.701 134.522V140.879C522.701 141.465 522.222 141.943 521.636 141.943Z" fill="#316CCC"/>
<path d="M525.177 140.028C524.857 140.507 524.192 140.64 523.713 140.321L518.415 136.836C517.936 136.517 517.803 135.852 518.122 135.374C518.442 134.895 519.107 134.762 519.586 135.081L524.884 138.565C525.363 138.885 525.496 139.55 525.177 140.028Z" fill="#316CCC"/>
<path d="M518.149 140.135C517.829 139.656 517.936 138.991 518.415 138.672L523.633 135.054C524.112 134.735 524.777 134.841 525.097 135.32C525.416 135.799 525.31 136.464 524.831 136.783L519.613 140.401C519.16 140.72 518.495 140.614 518.149 140.135Z" fill="#316CCC"/>
<path d="M542.321 141.225H533.376C533.004 141.225 532.684 140.906 532.684 140.534V140.481C532.684 140.108 533.004 139.789 533.376 139.789H542.321C542.693 139.789 543.013 140.108 543.013 140.481V140.534C543.013 140.933 542.693 141.225 542.321 141.225Z" fill="#316CCC"/>
<path d="M557.494 141.225H548.55C548.177 141.225 547.857 140.906 547.857 140.534V140.481C547.857 140.108 548.177 139.789 548.55 139.789H557.494C557.867 139.789 558.186 140.108 558.186 140.481V140.534C558.186 140.933 557.867 141.225 557.494 141.225Z" fill="#316CCC"/>
<path d="M571.976 141.225H563.031C562.659 141.225 562.339 140.906 562.339 140.534V140.481C562.339 140.108 562.659 139.789 563.031 139.789H571.976C572.349 139.789 572.668 140.108 572.668 140.481V140.534C572.668 140.933 572.349 141.225 571.976 141.225Z" fill="#316CCC"/>
<path d="M248.938 203.387L216.621 235.678C215.53 236.769 213.72 236.769 212.628 235.678L180.311 203.387C179.22 202.297 179.22 200.488 180.311 199.397L212.628 167.106C213.72 166.016 215.53 166.016 216.621 167.106L248.938 199.397C250.056 200.488 250.056 202.297 248.938 203.387Z" fill="white"/>
<path d="M246.569 203.254L216.489 233.311C215.477 234.322 213.8 234.322 212.762 233.311L182.707 203.254C181.696 202.243 181.696 200.568 182.707 199.53L212.788 169.473C213.8 168.463 215.477 168.463 216.515 169.473L246.596 199.53C247.581 200.568 247.581 202.243 246.569 203.254Z" fill="#79C3F0"/>
<path d="M246.995 242.169H182.255C180.817 242.169 179.619 240.998 179.619 239.535V201.073C179.619 199.637 180.79 198.44 182.255 198.44H246.995C248.433 198.44 249.63 199.61 249.63 201.073V239.535C249.63 240.972 248.459 242.169 246.995 242.169Z" fill="white"/>
<path opacity="0.3" d="M249.631 200.887C249.631 199.557 249.737 199.557 248.406 198.706C248.007 198.546 247.528 198.44 246.996 198.44C177.57 198.44 181.802 198.307 180.844 198.706C179.54 199.53 179.62 199.504 179.62 200.887C179.912 201.499 177.676 199.929 212.629 222.219C213.72 222.911 215.53 222.911 216.622 222.219C251.574 199.903 249.338 201.472 249.631 200.887Z" fill="#79C3F0"/>
<path d="M229.08 176.416C237.107 176.416 243.614 172.009 243.614 166.574C243.614 161.139 237.107 156.732 229.08 156.732C221.052 156.732 214.545 161.139 214.545 166.574C214.545 172.009 221.052 176.416 229.08 176.416Z" fill="#3973CF"/>
<path d="M235.042 181.443H223.09C221.652 181.443 220.454 180.273 220.454 178.81V172.692C220.454 171.256 221.625 170.059 223.09 170.059H235.042C236.479 170.059 237.677 171.229 237.677 172.692V178.81C237.677 180.273 236.506 181.443 235.042 181.443Z" fill="#3973CF"/>
<path d="M227.616 165.058C227.616 167.479 226.018 171.841 224.049 171.841C222.079 171.841 220.482 169.872 219.816 167.532C218.858 164.26 220.907 162.903 222.797 162.371C225.06 161.707 227.616 162.637 227.616 165.058Z" fill="#1B45A1"/>
<path d="M230.064 165.058C230.064 167.479 231.661 171.841 233.631 171.841C235.601 171.841 237.198 169.872 237.864 167.532C238.822 164.26 236.772 162.903 234.882 162.371C232.62 161.707 230.064 162.637 230.064 165.058Z" fill="#1B45A1"/>
<path d="M229.08 170.67C230.677 170.67 231.183 175.99 230.464 176.203C229.745 176.416 228.201 176.629 227.616 176.203C227.03 175.777 227.908 170.67 229.08 170.67Z" fill="#1B45A1"/>
<path d="M200.224 147.636C208.677 147.636 215.53 142.991 215.53 137.262C215.53 131.533 208.677 126.888 200.224 126.888C191.77 126.888 184.917 131.533 184.917 137.262C184.917 142.991 191.77 147.636 200.224 147.636Z" fill="#3973CF"/>
<path d="M206.506 152.929H193.941C192.424 152.929 191.173 151.679 191.173 150.162V143.726C191.173 142.209 192.424 140.959 193.941 140.959H206.506C208.023 140.959 209.275 142.209 209.275 143.726V150.162C209.275 151.679 208.023 152.929 206.506 152.929Z" fill="#3973CF"/>
<path d="M198.679 135.666C198.679 138.193 197.002 142.795 194.926 142.795C192.85 142.795 191.172 140.72 190.48 138.273C189.495 134.815 191.625 133.405 193.621 132.82C195.991 132.155 198.679 133.139 198.679 135.666Z" fill="#1B45A1"/>
<path d="M201.262 135.666C201.262 138.193 202.939 142.795 205.016 142.795C207.092 142.795 208.769 140.72 209.461 138.273C210.446 134.815 208.317 133.405 206.32 132.82C203.951 132.155 201.262 133.139 201.262 135.666Z" fill="#1B45A1"/>
<path d="M200.224 141.571C201.901 141.571 202.46 147.157 201.688 147.396C200.916 147.635 199.319 147.848 198.706 147.396C198.067 146.944 198.999 141.571 200.224 141.571Z" fill="#1B45A1"/>
<path d="M254.741 137.9C259.24 137.9 262.887 135.435 262.887 132.394C262.887 129.353 259.24 126.888 254.741 126.888C250.243 126.888 246.596 129.353 246.596 132.394C246.596 135.435 250.243 137.9 254.741 137.9Z" fill="#3973CF"/>
<path d="M258.095 140.72H251.387C250.588 140.72 249.923 140.055 249.923 139.257V135.826C249.923 135.028 250.588 134.363 251.387 134.363H258.095C258.894 134.363 259.559 135.028 259.559 135.826V139.257C259.559 140.055 258.921 140.72 258.095 140.72Z" fill="#3973CF"/>
<path d="M253.943 131.543C253.943 132.9 253.038 135.347 251.946 135.347C250.828 135.347 249.95 134.23 249.577 132.926C249.045 131.091 250.19 130.346 251.254 130.027C252.505 129.655 253.943 130.187 253.943 131.543Z" fill="#1B45A1"/>
<path d="M255.3 131.543C255.3 132.9 256.205 135.347 257.297 135.347C258.415 135.347 259.293 134.23 259.666 132.926C260.198 131.091 259.054 130.346 257.989 130.027C256.738 129.655 255.3 130.187 255.3 131.543Z" fill="#1B45A1"/>
<path d="M254.742 134.682C255.647 134.682 255.913 137.661 255.514 137.794C255.114 137.927 254.236 138.033 253.916 137.794C253.597 137.528 254.103 134.682 254.742 134.682Z" fill="#1B45A1"/>
<path d="M201.128 193.944C205.627 193.944 209.274 191.479 209.274 188.438C209.274 185.398 205.627 182.932 201.128 182.932C196.629 182.932 192.982 185.398 192.982 188.438C192.982 191.479 196.629 193.944 201.128 193.944Z" fill="#3973CF"/>
<path d="M204.482 196.764H197.774C196.976 196.764 196.31 196.099 196.31 195.301V191.87C196.31 191.072 196.976 190.407 197.774 190.407H204.482C205.281 190.407 205.947 191.072 205.947 191.87V195.301C205.947 196.099 205.308 196.764 204.482 196.764Z" fill="#3973CF"/>
<path d="M200.33 187.587C200.33 188.944 199.425 191.391 198.333 191.391C197.215 191.391 196.337 190.274 195.964 188.97C195.432 187.135 196.576 186.39 197.641 186.071C198.892 185.699 200.33 186.231 200.33 187.587Z" fill="#1B45A1"/>
<path d="M201.687 187.587C201.687 188.944 202.592 191.391 203.684 191.391C204.802 191.391 205.68 190.274 206.053 188.97C206.585 187.135 205.44 186.39 204.376 186.071C203.124 185.699 201.687 186.231 201.687 187.587Z" fill="#1B45A1"/>
<path d="M201.128 190.726C202.033 190.726 202.3 193.705 201.9 193.838C201.501 193.971 200.623 194.077 200.303 193.838C199.984 193.599 200.489 190.726 201.128 190.726Z" fill="#1B45A1"/>
<path d="M225.779 108.083C236.306 108.083 244.839 102.307 244.839 95.1824C244.839 88.0576 236.306 82.2819 225.779 82.2819C215.252 82.2819 206.719 88.0576 206.719 95.1824C206.719 102.307 215.252 108.083 225.779 108.083Z" fill="#3973CF"/>
<path d="M233.605 114.679H217.952C216.062 114.679 214.518 113.137 214.518 111.248V103.242C214.518 101.353 216.062 99.8105 217.952 99.8105H233.605C235.495 99.8105 237.039 101.353 237.039 103.242V111.248C237.039 113.137 235.495 114.679 233.605 114.679Z" fill="#3973CF"/>
<path d="M223.862 93.1874C223.862 96.3527 221.759 102.071 219.177 102.071C216.595 102.071 214.518 99.4914 213.64 96.4325C212.389 92.15 215.077 90.3679 217.553 89.6497C220.535 88.8252 223.862 90.0487 223.862 93.1874Z" fill="#1B45A1"/>
<path d="M227.083 93.1874C227.083 96.3527 229.186 102.071 231.768 102.071C234.35 102.071 236.427 99.4914 237.305 96.4325C238.556 92.15 235.868 90.3679 233.392 89.6497C230.437 88.8252 227.083 90.0487 227.083 93.1874Z" fill="#1B45A1"/>
<path d="M225.779 100.555C227.882 100.555 228.547 107.524 227.589 107.817C226.631 108.11 224.634 108.402 223.862 107.817C223.09 107.232 224.235 100.555 225.779 100.555Z" fill="#1B45A1"/>
<path d="M243.88 232.433H220.268C219.869 232.433 219.549 232.114 219.549 231.715C219.549 231.316 219.869 230.997 220.268 230.997H243.88C244.28 230.997 244.599 231.316 244.599 231.715C244.599 232.114 244.28 232.433 243.88 232.433Z" fill="#3973CF"/>
<path d="M243.88 235.492H220.268C219.869 235.492 219.549 235.173 219.549 234.774C219.549 234.375 219.869 234.056 220.268 234.056H243.88C244.28 234.056 244.599 234.375 244.599 234.774C244.599 235.173 244.28 235.492 243.88 235.492Z" fill="#3973CF"/>
<path d="M225.886 111.221C213.853 111.221 204.03 101.433 204.03 89.3837C204.03 77.3343 213.827 67.5459 225.886 67.5459C237.918 67.5459 247.741 77.3343 247.741 89.3837C247.741 101.433 237.944 111.221 225.886 111.221ZM225.886 70.7644C215.61 70.7644 207.225 79.1165 207.225 89.4103C207.225 99.6775 215.583 108.056 225.886 108.056C236.161 108.056 244.546 99.7041 244.546 89.4103C244.546 79.1165 236.161 70.7644 225.886 70.7644Z" fill="#FFA800"/>
<path d="M225.886 98.4274C220.908 98.4274 216.861 94.3844 216.861 89.4104C216.861 84.4364 220.908 80.3933 225.886 80.3933C230.864 80.3933 234.91 84.4364 234.91 89.4104C234.91 94.3844 230.864 98.4274 225.886 98.4274ZM225.886 83.5586C222.665 83.5586 220.056 86.1653 220.056 89.3838C220.056 92.6023 222.665 95.209 225.886 95.209C229.107 95.209 231.715 92.6023 231.715 89.3838C231.715 86.1919 229.107 83.5586 225.886 83.5586Z" fill="#FFA800"/>
<path d="M251.814 91.0063H199.745C198.866 91.0063 198.147 90.2882 198.147 89.4104C198.147 88.5326 198.866 87.8145 199.745 87.8145H251.84C252.719 87.8145 253.438 88.5326 253.438 89.4104C253.411 90.2882 252.692 91.0063 251.814 91.0063Z" fill="#FFA800"/>
<path d="M225.886 115.504C225.007 115.504 224.289 114.786 224.289 113.908V64.4073C224.289 63.5296 225.007 62.8114 225.886 62.8114C226.764 62.8114 227.483 63.5296 227.483 64.4073V113.908C227.483 114.786 226.764 115.504 225.886 115.504Z" fill="#FFA800"/>
<path d="M190.32 168.675C179.672 168.675 171.021 160.031 171.021 149.391C171.021 138.751 179.672 130.107 190.32 130.107C200.968 130.107 209.62 138.751 209.62 149.391C209.62 160.031 200.968 168.675 190.32 168.675ZM190.32 133.325C181.456 133.325 174.215 140.534 174.215 149.418C174.215 158.302 181.429 165.51 190.32 165.51C199.185 165.51 206.425 158.302 206.425 149.418C206.425 140.534 199.211 133.325 190.32 133.325Z" fill="#FFA800"/>
<path d="M190.321 157.504C185.848 157.504 182.228 153.886 182.228 149.418C182.228 144.949 185.848 141.332 190.321 141.332C194.793 141.332 198.413 144.949 198.413 149.418C198.413 153.86 194.793 157.504 190.321 157.504ZM190.321 144.524C187.632 144.524 185.422 146.731 185.422 149.418C185.422 152.104 187.632 154.312 190.321 154.312C193.009 154.312 195.219 152.104 195.219 149.418C195.219 146.705 193.036 144.524 190.321 144.524Z" fill="#FFA800"/>
<path d="M212.974 151.014H167.454C166.575 151.014 165.856 150.296 165.856 149.418C165.856 148.54 166.575 147.822 167.454 147.822H212.974C213.853 147.822 214.572 148.54 214.572 149.418C214.572 150.296 213.853 151.014 212.974 151.014Z" fill="#FFA800"/>
<path d="M190.32 172.426C189.442 172.426 188.723 171.708 188.723 170.83V127.58C188.723 126.702 189.442 125.984 190.32 125.984C191.199 125.984 191.918 126.702 191.918 127.58V170.83C191.918 171.708 191.199 172.426 190.32 172.426Z" fill="#FFA800"/>
<path d="M492.195 288.477H394.712C393.647 288.477 392.795 287.626 392.795 286.562V244.642C392.795 243.578 393.647 242.727 394.712 242.727H492.195C493.26 242.727 494.112 243.578 494.112 244.642V286.562C494.112 287.626 493.26 288.477 492.195 288.477Z" fill="#3AA1E0"/>
<path d="M489.799 286.349H397.134C396.282 286.349 395.59 285.658 395.59 284.807V256.293C395.59 255.441 396.282 254.75 397.134 254.75H489.799C490.651 254.75 491.343 255.441 491.343 256.293V284.78C491.343 285.658 490.651 286.349 489.799 286.349Z" fill="white"/>
<path d="M400.089 249.669H397.826C397.347 249.669 396.974 249.297 396.974 248.818V246.956C396.974 246.477 397.347 246.105 397.826 246.105H400.089C400.568 246.105 400.941 246.477 400.941 246.956V248.818C400.941 249.297 400.568 249.669 400.089 249.669Z" fill="white"/>
<path d="M407.303 249.669H405.067C404.588 249.669 404.215 249.297 404.215 248.818V246.956C404.215 246.477 404.588 246.105 405.067 246.105H407.303C407.782 246.105 408.155 246.477 408.155 246.956V248.818C408.155 249.297 407.782 249.669 407.303 249.669Z" fill="white"/>
<path d="M414.517 249.669H412.281C411.801 249.669 411.429 249.297 411.429 248.818V246.956C411.429 246.477 411.801 246.105 412.281 246.105H414.517C414.996 246.105 415.369 246.477 415.369 246.956V248.818C415.369 249.297 414.996 249.669 414.517 249.669Z" fill="white"/>
<path d="M487.457 261.666H436.798C435.973 261.666 435.281 260.974 435.281 260.15C435.281 259.325 435.973 258.633 436.798 258.633H487.457C488.282 258.633 488.974 259.325 488.974 260.15C488.974 261.001 488.282 261.666 487.457 261.666Z" fill="#3AA1E0"/>
<path d="M449.336 285.046H398.678C397.853 285.046 397.161 284.355 397.161 283.53C397.161 282.705 397.853 282.014 398.678 282.014H449.336C450.162 282.014 450.854 282.705 450.854 283.53C450.854 284.355 450.188 285.046 449.336 285.046Z" fill="#3AA1E0"/>
<path d="M458.68 285.046H453.436C453.143 285.046 452.93 284.807 452.93 284.541V282.546C452.93 282.253 453.17 282.04 453.436 282.04H458.68C458.973 282.04 459.186 282.28 459.186 282.546V284.541C459.186 284.807 458.973 285.046 458.68 285.046Z" fill="#3AA1E0"/>
<path d="M466.586 285.046H461.342C461.049 285.046 460.836 284.807 460.836 284.541V282.546C460.836 282.253 461.075 282.04 461.342 282.04H466.586C466.879 282.04 467.092 282.28 467.092 282.546V284.541C467.092 284.807 466.879 285.046 466.586 285.046Z" fill="#3AA1E0"/>
<path d="M487.935 268.262H404.028C403.469 268.262 402.99 267.81 402.99 267.225C402.99 266.64 403.443 266.188 404.028 266.188H487.935C488.495 266.188 488.974 266.64 488.974 267.225C488.974 267.81 488.495 268.262 487.935 268.262Z" fill="#3AA1E0"/>
<path d="M487.935 272.704H404.028C403.469 272.704 402.99 272.252 402.99 271.667C402.99 271.082 403.443 270.629 404.028 270.629H487.935C488.495 270.629 488.974 271.082 488.974 271.667C488.974 272.252 488.495 272.704 487.935 272.704Z" fill="#3AA1E0"/>
<path d="M438.395 191.763H431.101C427.96 191.763 425.404 189.21 425.404 186.071V178.783C425.404 175.644 427.96 173.091 431.101 173.091H438.395C441.536 173.091 444.092 175.644 444.092 178.783V186.071C444.092 189.21 441.536 191.763 438.395 191.763ZM431.101 176.283C429.717 176.283 428.599 177.4 428.599 178.783V186.071C428.599 187.454 429.717 188.572 431.101 188.572H438.395C439.779 188.572 440.897 187.454 440.897 186.071V178.783C440.897 177.4 439.779 176.283 438.395 176.283H431.101Z" fill="#316CCC"/>
<g opacity="0.8">
<path opacity="0.8" d="M438.395 222.991H431.101C427.8 222.991 425.138 220.304 425.138 217.032V209.744C425.138 206.446 427.827 203.786 431.101 203.786H438.395C441.696 203.786 444.358 206.473 444.358 209.744V217.032C444.358 220.304 441.669 222.991 438.395 222.991ZM431.101 207.51C429.877 207.51 428.865 208.521 428.865 209.744V217.032C428.865 218.256 429.877 219.267 431.101 219.267H438.395C439.62 219.267 440.631 218.256 440.631 217.032V209.744C440.631 208.521 439.62 207.51 438.395 207.51H431.101Z" fill="#316CCC"/>
</g>
<path d="M435.201 187.667C435.174 187.667 435.147 187.667 435.121 187.667C434.642 187.641 434.216 187.428 433.923 187.055L428.679 180.219C428.146 179.528 428.279 178.517 428.971 177.985C429.664 177.453 430.675 177.586 431.208 178.278L435.307 183.597L446.78 171.335C447.393 170.697 448.404 170.644 449.043 171.256C449.682 171.867 449.735 172.878 449.123 173.516L436.372 187.162C436.052 187.481 435.627 187.667 435.201 187.667Z" fill="#FB8627"/>
<path d="M435.201 218.628C435.174 218.628 435.147 218.628 435.121 218.628C434.642 218.602 434.216 218.389 433.923 218.017L428.679 211.181C428.146 210.489 428.279 209.478 428.971 208.946C429.664 208.414 430.675 208.547 431.208 209.239L435.307 214.559L446.78 202.27C447.393 201.632 448.404 201.578 449.043 202.19C449.682 202.802 449.735 203.813 449.123 204.451L436.372 218.096C436.052 218.442 435.627 218.628 435.201 218.628Z" fill="#FB8627"/>
<path d="M456.284 180.725H511.334C512.293 180.725 513.091 179.953 513.091 178.969C513.091 177.985 512.319 177.214 511.334 177.214H456.284C455.325 177.214 454.527 177.985 454.527 178.969C454.527 179.953 455.325 180.725 456.284 180.725Z" fill="#316CCC"/>
<path d="M456.284 187.561H497.226C498.184 187.561 498.983 186.789 498.983 185.805C498.983 184.848 498.211 184.05 497.226 184.05H456.284C455.325 184.05 454.527 184.821 454.527 185.805C454.553 186.763 455.325 187.561 456.284 187.561Z" fill="#316CCC"/>
<path d="M456.284 211.713H511.334C512.293 211.713 513.091 210.941 513.091 209.957C513.091 209 512.319 208.202 511.334 208.202H456.284C455.325 208.202 454.527 208.973 454.527 209.957C454.553 210.941 455.325 211.713 456.284 211.713Z" fill="#316CCC"/>
<path d="M456.284 218.549H504.52C505.478 218.549 506.277 217.777 506.277 216.793C506.277 215.835 505.505 215.037 504.52 215.037H456.284C455.325 215.037 454.527 215.809 454.527 216.793C454.553 217.751 455.325 218.549 456.284 218.549Z" fill="#316CCC"/>
<path d="M341.364 283.344H281.362C280.803 283.344 280.351 282.892 280.351 282.333V248.898C280.351 248.34 280.803 247.887 281.362 247.887H341.364C341.923 247.887 342.376 248.34 342.376 248.898V282.306C342.376 282.892 341.923 283.344 341.364 283.344Z" fill="#3AA1E0"/>
<path d="M340.06 281.774H282.64C282.108 281.774 281.682 281.349 281.682 280.817V250.388C281.682 249.856 282.108 249.43 282.64 249.43H340.06C340.592 249.43 341.018 249.856 341.018 250.388V280.817C341.018 281.349 340.592 281.774 340.06 281.774Z" fill="white"/>
<path d="M338.303 279.779H284.397C283.811 279.779 283.332 279.301 283.332 278.716V252.489C283.332 251.904 283.811 251.425 284.397 251.425H338.303C338.889 251.425 339.368 251.904 339.368 252.489V278.716C339.368 279.301 338.889 279.779 338.303 279.779Z" fill="#3AA1E0"/>
<path d="M311.336 275.444C316.776 275.444 321.186 271.038 321.186 265.602C321.186 260.167 316.776 255.761 311.336 255.761C305.897 255.761 301.487 260.167 301.487 265.602C301.487 271.038 305.897 275.444 311.336 275.444Z" fill="white"/>
<path d="M311.337 274.087C316.027 274.087 319.828 270.289 319.828 265.602C319.828 260.916 316.027 257.117 311.337 257.117C306.647 257.117 302.845 260.916 302.845 265.602C302.845 270.289 306.647 274.087 311.337 274.087Z" fill="#3AA1E0"/>
<path d="M315.542 265.15L312.428 266.959L309.34 268.741V265.15V261.586L312.428 263.368L315.542 265.15Z" fill="white"/>
<path opacity="0.5" d="M326.67 259.724H280.324V282.333C280.324 282.892 280.777 283.344 281.336 283.344H327.682V260.735C327.708 260.176 327.229 259.724 326.67 259.724Z" fill="#99A8C2"/>
<path d="M321.266 297.042H261.264C260.705 297.042 260.252 296.59 260.252 296.032V262.623C260.252 262.065 260.705 261.612 261.264 261.612H321.266C321.825 261.612 322.278 262.065 322.278 262.623V296.032C322.278 296.59 321.825 297.042 321.266 297.042Z" fill="#3AA1E0"/>
<path d="M319.988 295.473H262.568C262.036 295.473 261.61 295.047 261.61 294.515V264.113C261.61 263.581 262.036 263.155 262.568 263.155H319.988C320.52 263.155 320.946 263.581 320.946 264.113V294.542C320.92 295.047 320.494 295.473 319.988 295.473Z" fill="white"/>
<path d="M318.232 293.505H264.326C263.74 293.505 263.261 293.026 263.261 292.441V266.214C263.261 265.629 263.74 265.15 264.326 265.15H318.232C318.817 265.15 319.296 265.629 319.296 266.214V292.441C319.296 293.026 318.817 293.505 318.232 293.505Z" fill="#3AA1E0"/>
<path d="M291.265 289.169C296.705 289.169 301.115 284.763 301.115 279.327C301.115 273.892 296.705 269.486 291.265 269.486C285.825 269.486 281.416 273.892 281.416 279.327C281.416 284.763 285.825 289.169 291.265 289.169Z" fill="white"/>
<path d="M299.757 279.327C299.757 284.009 295.95 287.812 291.265 287.812C286.58 287.812 282.773 284.009 282.773 279.327C282.773 274.646 286.58 270.842 291.265 270.842C295.95 270.842 299.757 274.646 299.757 279.327Z" fill="#3AA1E0"/>
<path d="M295.445 278.875L292.357 280.657L289.242 282.439V278.875V275.284L292.357 277.093L295.445 278.875Z" fill="white"/>
<path d="M468.637 69.7004C468.37 69.7004 468.077 69.6472 467.811 69.5408C465.975 68.7694 464.803 66.9873 464.803 65.019V51.1609C464.803 49.9905 465.762 49.033 466.933 49.033C468.104 49.033 469.062 49.9905 469.062 51.1609V65.019C469.062 65.3115 469.275 65.5509 469.462 65.6307C470.553 66.0829 471.059 67.3331 470.58 68.4236C470.234 69.2216 469.462 69.7004 468.637 69.7004Z" fill="#153F9C"/>
<path opacity="0.7" d="M558.959 38.4733C557.921 38.4467 556.883 38.4733 555.871 38.5797C555.924 38.0211 555.978 37.4359 555.978 36.8507C556.244 23.4715 542.907 12.3531 526.189 12.0073C512.48 11.7413 500.74 18.79 496.827 28.7115C493.952 27.5943 490.758 26.9559 487.377 26.8761C474.626 26.6101 464.138 34.7494 463.925 45.0432C463.712 55.3371 473.881 63.9019 486.632 64.1413C495.257 64.3009 551.026 63.9285 558.453 64.0881C569.288 64.3009 578.179 58.7417 578.339 51.6664C578.472 44.6177 569.793 38.6861 558.959 38.4733Z" fill="white"/>
<path d="M525.417 17.3271C525.63 17.3271 525.87 17.3271 526.083 17.3271C532.978 17.4601 539.34 19.6944 544.052 23.6311C548.417 27.2752 550.76 31.93 550.653 36.7444C550.653 37.1434 550.627 37.569 550.574 37.9946L549.881 44.4049L556.297 43.8729C556.962 43.8197 557.655 43.7931 558.347 43.7931C558.506 43.7931 558.666 43.7931 558.852 43.7931C563.005 43.8729 566.972 45.0167 569.74 46.9052C570.725 47.5702 573.041 49.3789 572.988 51.5866C572.935 53.7412 570.672 55.4169 569.714 56.0553C566.998 57.8108 563.112 58.8216 559.065 58.8216C558.906 58.8216 558.719 58.8216 558.56 58.8216C557.308 58.795 554.753 58.795 550.733 58.795C544.158 58.795 534.735 58.8216 524.752 58.8482C514.53 58.8748 503.962 58.928 496.401 58.928C491.423 58.928 488.282 58.9014 486.738 58.8748C481.787 58.7684 477.208 57.1724 473.854 54.3263C470.819 51.7728 469.195 48.5278 469.249 45.1763C469.382 38.0212 477.261 32.196 486.791 32.196C486.951 32.196 487.111 32.196 487.271 32.196C489.959 32.2492 492.515 32.7545 494.884 33.6589L499.809 35.574L501.752 30.6532C503.216 26.9826 506.224 23.6311 510.244 21.2638C514.636 18.6837 519.88 17.3271 525.417 17.3271ZM525.417 12.0073C512.027 12.0073 500.661 18.9763 496.827 28.7381C493.952 27.6209 490.758 26.9826 487.377 26.9028C487.191 26.9028 486.978 26.9028 486.791 26.9028C474.307 26.9028 464.138 34.9357 463.925 45.0965C463.712 55.3903 473.881 63.9552 486.632 64.1946C488.309 64.2212 491.823 64.2478 496.401 64.2478C511.176 64.2478 537.29 64.1148 550.733 64.1148C554.433 64.1148 557.175 64.1148 558.453 64.1414C558.666 64.1414 558.852 64.1414 559.065 64.1414C569.634 64.1414 578.179 58.662 578.338 51.693C578.472 44.6177 569.82 38.6861 558.986 38.4733C558.773 38.4733 558.586 38.4733 558.373 38.4733C557.521 38.4733 556.696 38.4999 555.898 38.5797C555.951 38.0212 556.004 37.436 556.004 36.8508C556.27 23.4715 542.934 12.3531 526.216 12.0073C525.923 12.0073 525.657 12.0073 525.417 12.0073Z" fill="white"/>
<path d="M485.407 83.6384H465.841C464.191 83.6384 462.86 82.3085 462.86 80.6594V67.2003C462.86 65.5511 464.191 64.2212 465.841 64.2212H485.407C487.058 64.2212 488.389 65.5511 488.389 67.2003V80.6594C488.389 82.3085 487.031 83.6384 485.407 83.6384Z" fill="#153F9C"/>
<path d="M476.09 52.092C478.398 52.092 480.269 50.008 480.269 47.4372C480.269 44.8664 478.398 42.7823 476.09 42.7823C473.782 42.7823 471.911 44.8664 471.911 47.4372C471.911 50.008 473.782 52.092 476.09 52.092Z" fill="white"/>
<path d="M481.92 69.9399H475.824C474.653 69.9399 473.694 68.9824 473.694 67.812C473.694 66.6417 474.653 65.6841 475.824 65.6841H481.92C482.266 65.6841 482.586 65.3915 482.586 65.0191V50.3365C482.586 49.9907 482.293 49.6715 481.92 49.6715H476.356C475.185 49.6715 474.227 48.7139 474.227 47.5436C474.227 46.3732 475.185 45.4156 476.356 45.4156H481.92C484.635 45.4156 486.845 47.6234 486.845 50.3365V65.0191C486.845 67.7322 484.635 69.9399 481.92 69.9399Z" fill="#153F9C"/>
<path d="M478.22 71.8019C478.22 70.3655 477.048 69.1952 475.611 69.1952C474.173 69.1952 473.002 70.3655 473.002 71.8019C473.002 72.7329 473.508 73.5574 474.253 74.0362V77.3345C474.253 78.0793 474.865 78.6645 475.584 78.6645C476.303 78.6645 476.915 78.0527 476.915 77.3345V74.0362C477.714 73.584 478.22 72.7595 478.22 71.8019Z" fill="#FFC34E"/>
<path opacity="0.5" d="M242.152 304.703V292.52C242.152 290.845 240.767 289.461 239.09 289.461H147.676V307.788H239.09C240.767 307.762 242.152 306.405 242.152 304.703Z" fill="#99A8C2"/>
<path opacity="0.5" d="M239.089 262.251H147.675V280.577H239.089C240.766 280.577 242.151 279.194 242.151 277.518V265.336C242.151 263.634 240.766 262.251 239.089 262.251Z" fill="#99A8C2"/>
<path d="M233.979 275.444H141.18C139.503 275.444 138.119 274.061 138.119 272.385V260.203C138.119 258.527 139.503 257.144 141.18 257.144H233.979C235.656 257.144 237.04 258.527 237.04 260.203V272.385C237.04 274.061 235.656 275.444 233.979 275.444Z" fill="#1B45A1"/>
<path d="M229.852 272.864H145.28C143.922 272.864 142.804 271.747 142.804 270.39V262.171C142.804 260.814 143.922 259.697 145.28 259.697H229.852C231.21 259.697 232.328 260.814 232.328 262.171V270.39C232.328 271.747 231.21 272.864 229.852 272.864Z" fill="white"/>
<path d="M233.979 302.655H141.18C139.503 302.655 138.119 301.271 138.119 299.596V287.413C138.119 285.738 139.503 284.354 141.18 284.354H233.979C235.656 284.354 237.04 285.738 237.04 287.413V299.596C237.04 301.271 235.656 302.655 233.979 302.655Z" fill="#1B45A1"/>
<path d="M229.852 300.074H145.28C143.922 300.074 142.804 298.957 142.804 297.601V289.382C142.804 288.025 143.922 286.908 145.28 286.908H229.852C231.21 286.908 232.328 288.025 232.328 289.382V297.601C232.328 298.957 231.21 300.074 229.852 300.074Z" fill="white"/>
<path d="M153.719 266.294C153.719 267.464 152.76 268.422 151.589 268.422C150.418 268.422 149.459 267.464 149.459 266.294C149.459 265.123 150.418 264.166 151.589 264.166C152.76 264.166 153.719 265.123 153.719 266.294ZM161.439 264.166C160.267 264.166 159.309 265.123 159.309 266.294C159.309 267.464 160.267 268.422 161.439 268.422C162.61 268.422 163.568 267.464 163.568 266.294C163.542 265.123 162.61 264.166 161.439 264.166ZM171.288 264.166C170.117 264.166 169.158 265.123 169.158 266.294C169.158 267.464 170.117 268.422 171.288 268.422C172.459 268.422 173.418 267.464 173.418 266.294C173.391 265.123 172.459 264.166 171.288 264.166ZM181.138 264.166C179.966 264.166 179.008 265.123 179.008 266.294C179.008 267.464 179.966 268.422 181.138 268.422C182.309 268.422 183.267 267.464 183.267 266.294C183.241 265.123 182.309 264.166 181.138 264.166ZM190.987 264.166C189.816 264.166 188.857 265.123 188.857 266.294C188.857 267.464 189.816 268.422 190.987 268.422C192.158 268.422 193.117 267.464 193.117 266.294C193.09 265.123 192.158 264.166 190.987 264.166ZM200.837 264.166C199.665 264.166 198.707 265.123 198.707 266.294C198.707 267.464 199.665 268.422 200.837 268.422C202.008 268.422 202.966 267.464 202.966 266.294C202.94 265.123 202.008 264.166 200.837 264.166Z" fill="#1B45A1"/>
<path d="M153.719 293.318C153.719 294.489 152.76 295.446 151.589 295.446C150.418 295.446 149.459 294.489 149.459 293.318C149.459 292.148 150.418 291.19 151.589 291.19C152.76 291.217 153.719 292.148 153.719 293.318ZM161.439 291.217C160.267 291.217 159.309 292.175 159.309 293.345C159.309 294.515 160.267 295.473 161.439 295.473C162.61 295.473 163.568 294.515 163.568 293.345C163.542 292.148 162.61 291.217 161.439 291.217ZM171.288 291.217C170.117 291.217 169.158 292.175 169.158 293.345C169.158 294.515 170.117 295.473 171.288 295.473C172.459 295.473 173.418 294.515 173.418 293.345C173.391 292.148 172.459 291.217 171.288 291.217ZM181.138 291.217C179.966 291.217 179.008 292.175 179.008 293.345C179.008 294.515 179.966 295.473 181.138 295.473C182.309 295.473 183.267 294.515 183.267 293.345C183.241 292.148 182.309 291.217 181.138 291.217ZM190.987 291.217C189.816 291.217 188.857 292.175 188.857 293.345C188.857 294.515 189.816 295.473 190.987 295.473C192.158 295.473 193.117 294.515 193.117 293.345C193.09 292.148 192.158 291.217 190.987 291.217ZM200.837 291.217C199.665 291.217 198.707 292.175 198.707 293.345C198.707 294.515 199.665 295.473 200.837 295.473C202.008 295.473 202.966 294.515 202.966 293.345C202.94 292.148 202.008 291.217 200.837 291.217Z" fill="#1B45A1"/>
<path d="M220.988 269.645C217.075 269.645 213.96 266.799 213.827 266.666C213.668 266.507 213.561 266.294 213.561 266.081C213.561 265.868 213.641 265.655 213.827 265.496C213.96 265.363 217.048 262.517 220.988 262.517C224.928 262.517 228.016 265.363 228.149 265.496C228.309 265.655 228.415 265.868 228.415 266.081C228.415 266.294 228.335 266.507 228.149 266.666C228.016 266.799 224.901 269.645 220.988 269.645ZM215.664 266.081C216.702 266.826 218.725 268.049 220.988 268.049C223.251 268.049 225.274 266.826 226.312 266.081C225.274 265.336 223.251 264.113 220.988 264.113C218.699 264.113 216.676 265.336 215.664 266.081Z" fill="#1B45A1"/>
<path d="M220.988 269.299C219.205 269.299 217.767 267.863 217.767 266.081C217.767 264.299 219.205 262.863 220.988 262.863C222.772 262.863 224.209 264.299 224.209 266.081C224.209 267.863 222.772 269.299 220.988 269.299ZM220.988 264.458C220.083 264.458 219.364 265.177 219.364 266.081C219.364 266.985 220.083 267.704 220.988 267.704C221.893 267.704 222.612 266.985 222.612 266.081C222.612 265.177 221.893 264.458 220.988 264.458Z" fill="#1B45A1"/>
<path d="M218.592 296.484H214.599C213.481 296.484 212.549 295.553 212.549 294.436V292.707C212.549 291.59 213.481 290.659 214.599 290.659H218.592C219.71 290.659 220.642 291.59 220.642 292.707V294.436C220.642 295.579 219.737 296.484 218.592 296.484Z" fill="#1B45A1"/>
<path d="M227.43 295.367H213.508C213.055 295.367 212.709 295.021 212.709 294.569C212.709 294.116 213.055 293.771 213.508 293.771H226.631V291.696C226.631 291.244 226.977 290.898 227.43 290.898C227.883 290.898 228.229 291.244 228.229 291.696V294.569C228.229 294.994 227.883 295.367 227.43 295.367Z" fill="#1B45A1"/>
<path d="M225.567 295.234C225.114 295.234 224.768 294.888 224.768 294.436V292.068C224.768 291.616 225.114 291.27 225.567 291.27C226.019 291.27 226.365 291.616 226.365 292.068V294.436C226.365 294.861 226.019 295.234 225.567 295.234Z" fill="#1B45A1"/>
<path d="M222.665 295.234C222.212 295.234 221.866 294.888 221.866 294.436V291.217C221.866 290.765 222.212 290.419 222.665 290.419C223.117 290.419 223.463 290.765 223.463 291.217V294.436C223.463 294.861 223.091 295.234 222.665 295.234Z" fill="#1B45A1"/>
<path d="M214.093 294.569C213.774 294.569 213.507 294.303 213.507 293.983V293.052C213.507 292.733 213.774 292.467 214.093 292.467C214.412 292.467 214.679 292.733 214.679 293.052V293.983C214.705 294.303 214.439 294.569 214.093 294.569Z" fill="white"/>
<path d="M140.355 396.655C140.355 396.655 88.0724 360.374 65.9509 381.281C48.3017 397.985 79.6338 417.615 119.75 412.349C147.968 408.625 151.189 414.025 156.114 413.918C192.903 411.099 242.47 400.113 218.352 382.824C185.476 359.284 163.248 384.234 151.801 390.458C140.355 396.655 140.355 396.655 140.355 396.655Z" fill="#0E3A82"/>
<path d="M207.97 381.946C194.234 379.1 141.871 398.517 141.871 398.517C141.871 398.517 96.271 384.792 85.3833 383.489C74.469 382.186 69.4644 386.335 69.4644 386.335C69.4644 386.335 74.6021 380.537 80.5916 380.005C86.5812 379.473 95.2061 378.036 95.2061 378.036C95.2061 378.036 182.467 373.887 194.021 376.52C205.547 379.1 207.97 381.946 207.97 381.946Z" fill="#0F2D5C"/>
<path d="M133.806 311.326C131.73 311.645 99.4928 325.689 99.0935 331.594C98.6942 337.473 107.931 385.218 125.767 391.442C143.603 397.666 163.568 391.442 163.568 391.442C163.568 391.442 184.518 339.787 178.289 329.972C172.06 320.157 143.922 311.326 143.922 311.326H133.806Z" fill="url(#paint6_linear)"/>
<path d="M110.114 322.444C79.3145 338.936 71.7544 368.7 79.9002 375.27C85.5969 379.872 107.133 390.032 125.767 389.394C144.428 388.729 161.944 390.485 161.944 390.485C161.944 390.485 193.941 383.968 200.33 374.392C206.719 364.817 189.017 333.696 173.124 324.705C157.259 315.688 110.114 322.444 110.114 322.444Z" fill="url(#paint7_linear)"/>
<path d="M139.476 329.945C135.217 329.945 131.729 326.461 131.729 322.205V296.164C131.729 291.909 135.217 288.424 139.476 288.424C143.735 288.424 147.223 291.909 147.223 296.164V322.205C147.223 326.461 143.735 329.945 139.476 329.945Z" fill="#F09959"/>
<path d="M139.476 288.424C135.217 288.424 131.729 291.909 131.729 296.164V317.47C136.308 321.274 140.727 319.279 147.223 314.252V296.164C147.223 291.909 143.735 288.424 139.476 288.424Z" fill="#E38540"/>
<path d="M156.486 297.228C155.209 299.835 153.159 301.272 151.881 300.447C150.603 299.622 150.603 296.856 151.881 294.249C153.159 291.643 155.209 290.206 156.486 291.031C157.738 291.855 157.764 294.622 156.486 297.228Z" fill="#F09959"/>
<path d="M126.512 294.436C127.976 296.803 128.269 299.649 127.151 300.819C126.033 301.99 123.93 301.005 122.466 298.638C121.002 296.271 120.709 293.425 121.827 292.254C122.945 291.111 125.048 292.095 126.512 294.436Z" fill="#F09959"/>
<path d="M153.159 297.042C153.159 306.511 147.196 314.172 139.849 314.172C132.502 314.172 126.539 306.511 126.539 297.042C126.539 287.573 132.502 279.912 139.849 279.912C147.196 279.912 153.159 287.6 153.159 297.042Z" fill="#F09959"/>
<path d="M168.865 339.468C177.596 344.122 185.183 361.731 185.183 361.731C185.183 361.731 165.537 364.79 161.491 367.822C157.418 370.881 162.077 366.652 164.393 358.22C166.735 349.815 168.865 339.468 168.865 339.468Z" fill="#FB8627"/>
<path d="M108.118 338.191C110.141 347.501 119.91 373.461 119.91 373.461C119.91 373.461 110.886 363.194 101.303 362.609C91.7195 362.024 88.1524 361.891 88.2057 364.205C88.2057 364.657 89.8029 353.884 97.2299 347.208C104.63 340.532 108.118 338.191 108.118 338.191Z" fill="#FB8627"/>
<path d="M166.602 396.735H113.921C111.791 396.735 109.981 395.193 109.635 393.118L103.273 355.241C102.82 352.581 104.87 350.187 107.559 350.187H172.965C175.653 350.187 177.703 352.608 177.25 355.241L170.888 393.118C170.542 395.219 168.732 396.735 166.602 396.735Z" fill="#2A66C6"/>
<path d="M166.602 396.735H113.921C111.791 396.735 109.981 395.246 109.635 393.251L103.273 356.73C102.82 354.177 104.87 351.863 107.559 351.863H172.965C175.653 351.863 177.703 354.177 177.25 356.73L170.888 393.251C170.542 395.272 168.732 396.735 166.602 396.735Z" fill="url(#paint8_linear)"/>
<path d="M147.223 411.657C146.903 411.604 113.202 403.172 105.668 409.396C98.135 415.621 130.851 415.727 136.761 414.344C142.644 412.987 147.223 411.657 147.223 411.657Z" fill="#0F2D5C"/>
<path d="M154.756 413.174C154.756 413.174 161.944 407.747 171.447 408.732C180.924 409.716 189.123 411.79 180.924 414.344C172.752 416.897 164.233 417.243 160.32 416.897C156.38 416.578 154.756 413.174 154.756 413.174Z" fill="#0F2D5C"/>
<path d="M132.475 290.951C132.475 290.951 126.752 295.899 128.056 299.09C129.36 302.282 127.524 304.144 129.307 307.575C131.091 311.007 126.06 305.394 125.367 301.298C124.675 297.202 124.276 290.073 123.264 286.855C122.253 283.636 123.318 278.077 127.79 276.933C132.262 275.79 133.3 273.715 135.004 273.635C136.708 273.529 144.827 274.327 148.846 276.534C152.866 278.742 155.076 282.04 154.756 287.068C154.463 292.068 153.159 304.916 151.961 307.017C150.763 309.118 150.124 308.613 150.497 307.416C150.87 306.219 152.174 298.984 151.162 296.404C150.151 293.824 154.57 294.005 151.961 293.5C149.352 292.995 147.874 295.473 142.937 291.164C138 286.855 132.475 290.951 132.475 290.951Z" fill="#0F2D5C"/>
</g>
<defs>
<filter id="filter0_d" x="0" y="0" width="751" height="492.352" filterUnits="userSpaceOnUse" color-interpolation-filters="sRGB">
<feFlood flood-opacity="0" result="BackgroundImageFix"/>
<feColorMatrix in="SourceAlpha" type="matrix" values="0 0 0 0 0 0 0 0 0 0 0 0 0 0 0 0 0 0 127 0"/>
<feOffset dx="26" dy="29"/>
<feGaussianBlur stdDeviation="20.5"/>
<feColorMatrix type="matrix" values="0 0 0 0 0 0 0 0 0 0 0 0 0 0 0 0 0 0 0.1 0"/>
<feBlend mode="normal" in2="BackgroundImageFix" result="effect1_dropShadow"/>
<feBlend mode="normal" in="SourceGraphic" in2="effect1_dropShadow" result="shape"/>
</filter>
<linearGradient id="paint0_linear" x1="144.289" y1="329.325" x2="138.329" y2="148.407" gradientUnits="userSpaceOnUse">
<stop stop-color="#2A66C6"/>
<stop offset="1" stop-color="#79C3F0"/>
</linearGradient>
<linearGradient id="paint1_linear" x1="198.094" y1="403.165" x2="11.0104" y2="287.439" gradientUnits="userSpaceOnUse">
<stop stop-color="#2A66C6"/>
<stop offset="1" stop-color="#79C3F0"/>
</linearGradient>
<linearGradient id="paint2_linear" x1="106.963" y1="138.843" x2="265.885" y2="43.2635" gradientUnits="userSpaceOnUse">
<stop stop-color="#6BBEFF"/>
<stop offset="1" stop-color="#0C3AA1"/>
</linearGradient>
<linearGradient id="paint3_linear" x1="611.369" y1="264.364" x2="471.91" y2="421.1" gradientUnits="userSpaceOnUse">
<stop stop-color="#6BBEFF"/>
<stop offset="1" stop-color="#0C3AA1"/>
</linearGradient>
<linearGradient id="paint4_linear" x1="553.218" y1="156.315" x2="566.748" y2="297.576" gradientUnits="userSpaceOnUse">
<stop stop-color="#6BBEFF"/>
<stop offset="1" stop-color="#0C3AA1"/>
</linearGradient>
<linearGradient id="paint5_linear" x1="553.112" y1="156.326" x2="566.642" y2="297.585" gradientUnits="userSpaceOnUse">
<stop stop-color="#6BBEFF"/>
<stop offset="1" stop-color="#0C3AA1"/>
</linearGradient>
<linearGradient id="paint6_linear" x1="162.42" y1="305.29" x2="112.54" y2="395.32" gradientUnits="userSpaceOnUse">
<stop stop-color="#FFC34E"/>
<stop offset="1" stop-color="#FB8627"/>
</linearGradient>
<linearGradient id="paint7_linear" x1="170.595" y1="308.866" x2="115.845" y2="407.685" gradientUnits="userSpaceOnUse">
<stop stop-color="#FFC34E"/>
<stop offset="1" stop-color="#FB8627"/>
</linearGradient>
<linearGradient id="paint8_linear" x1="168.295" y1="335.852" x2="118.113" y2="397.782" gradientUnits="userSpaceOnUse">
<stop stop-color="#8FD4FF"/>
<stop offset="1" stop-color="#1355BF"/>
</linearGradient>
</defs>
</svg>
