<svg width="253" height="221" viewBox="0 0 253 221" fill="none" xmlns="http://www.w3.org/2000/svg">
<path d="M218.194 167.265C255.059 130.4 255.059 70.63 218.194 33.765C181.329 -3.10001 121.559 -3.10001 84.6939 33.765C47.8279 70.63 47.8279 130.4 84.6939 167.265C121.559 204.13 181.329 204.13 218.194 167.265Z" fill="#C6E2F4"/>
<path d="M101.5 200.2C101.5 200.2 101 157 130.2 131.1C143.4 119.3 174 134.5 144.7 154.4C132.5 162.7 114 170.1 101.5 200.2Z" fill="#3F50B5"/>
<path d="M140.6 139.3C140.6 139.3 98.6 167 100.9 216.1" stroke="#3081F8" stroke-width="1.3664" stroke-miterlimit="10"/>
<path opacity="0.1" d="M149.8 219.7C167.805 219.7 182.4 217.685 182.4 215.2C182.4 212.715 167.805 210.7 149.8 210.7C131.796 210.7 117.2 212.715 117.2 215.2C117.2 217.685 131.796 219.7 149.8 219.7Z" fill="black"/>
<path d="M91.7 198.7C91.7 198.7 90.2 151.3 30.3 127.9C9.7 119.8 -20.4 149.3 22.3 161.4C40.1 166.4 64.9 167.8 91.7 198.7Z" fill="#3F50B5"/>
<path d="M21.2 141.8C21.2 141.8 82.1 158 98.8 217.3" stroke="#296ED3" stroke-width="1.7113" stroke-miterlimit="10"/>
<path d="M48.6999 100.1C52.5999 102.7 53.7999 107.7 53.7999 107.7C53.7999 107.7 48.6999 108.5 44.7999 105.9C40.8999 103.3 38.5999 99.9 39.6999 98.3C40.7999 96.7 44.7999 97.5 48.6999 100.1Z" fill="#3F50B5"/>
<path d="M57.6 111.2C60.9 112.5 62.4999 116.1 62.4999 116.1C62.4999 116.1 58.8 117.5 55.6 116.2C52.3 114.9 50.0999 112.7 50.6999 111.3C51.1999 109.9 54.3 109.9 57.6 111.2Z" fill="#3F50B5"/>
<path d="M61 107C62.4 110.3 61 113.9 61 113.9C61 113.9 57.4 112.3 56.1 109C54.7 105.7 54.7 102.6 56.1 102.1C57.5 101.6 59.7 103.8 61 107Z" fill="#3F50B5"/>
<path d="M63.1 118.5C67.2 119.5 69.9 123.4 69.9 123.4C69.9 123.4 65.8 125.7 61.7 124.8C57.6 123.8 54.5 121.7 54.9 119.9C55.2 118.1 58.9 117.5 63.1 118.5Z" fill="#3F50B5"/>
<path d="M70.4001 114.2C71.6001 118.3 69.5001 122.5 69.5001 122.5C69.5001 122.5 65.5001 120.1 64.3001 116C63.1001 111.9 63.5001 108.2 65.2001 107.7C66.9001 107.2 69.2001 110.1 70.4001 114.2Z" fill="#3F50B5"/>
<path d="M67 127.1C71.3 127.1 74.7 130.3 74.7 130.3C74.7 130.3 71.3 133.5 67 133.5C62.7 133.5 59.3 132.1 59.3 130.3C59.3 128.5 62.8 127.1 67 127.1Z" fill="#3F50B5"/>
<path d="M72.2001 136.5C76.7001 136.3 80.6001 139.5 80.6001 139.5C80.6001 139.5 77.1001 143.1 72.5001 143.3C68.0001 143.5 64.2001 142.1 64.1001 140.3C64.1001 138.4 67.7001 136.7 72.2001 136.5Z" fill="#3F50B5"/>
<path d="M77 146C81.5 145.3 85.6 148.2 85.6 148.2C85.6 148.2 82.5 152.1 78 152.8C73.5 153.5 69.6 152.5 69.4 150.6C69.1 148.7 72.5 146.7 77 146Z" fill="#3F50B5"/>
<path d="M82.4001 156.8C86.9001 156.9 90.6001 160.4 90.6001 160.4C90.6001 160.4 86.9001 163.8 82.3001 163.7C77.8001 163.6 74.1001 162 74.1001 160.1C74.1001 158.2 77.8001 156.7 82.4001 156.8Z" fill="#3F50B5"/>
<path d="M74.4001 121.5C72.7001 125.4 74.3001 129.9 74.3001 129.9C74.3001 129.9 78.6001 128 80.3001 124.1C82.0001 120.2 82.0001 116.4 80.4001 115.7C78.8001 115 76.1001 117.6 74.4001 121.5Z" fill="#3F50B5"/>
<path d="M82.2999 130.9C79.6999 134.6 80.4999 139.6 80.4999 139.6C80.4999 139.6 85.3999 138.5 87.9999 134.8C90.5999 131.1 91.3999 127.1 89.7999 126.1C88.1999 125 84.8999 127.2 82.2999 130.9Z" fill="#3F50B5"/>
<path d="M87.8001 140C84.9001 143.5 85.1001 148.5 85.1001 148.5C85.1001 148.5 90.1001 147.9 93.0001 144.4C95.9001 140.9 97.2001 137.1 95.7001 135.9C94.3001 134.7 90.8001 136.5 87.8001 140Z" fill="#3F50B5"/>
<path d="M91.5 151.7C89.2 155.6 90.2 160.5 90.2 160.5C90.2 160.5 95 159.1 97.4 155.2C99.7 151.3 100.3 147.3 98.7 146.4C97.1 145.4 93.9 147.8 91.5 151.7Z" fill="#3F50B5"/>
<path d="M87.0001 168.1C91.4001 169.1 94.3001 173.3 94.3001 173.3C94.3001 173.3 89.9001 175.8 85.5001 174.8C81.1001 173.8 77.8001 171.5 78.2001 169.6C78.6001 167.8 82.5001 167.1 87.0001 168.1Z" fill="#3F50B5"/>
<path d="M96.9989 165C93.8989 168.3 93.8989 173.4 93.8989 173.4C93.8989 173.4 98.8989 173 101.999 169.7C105.099 166.4 106.499 162.6 105.099 161.3C103.699 160 100.099 161.6 96.9989 165Z" fill="#3F50B5"/>
<path d="M89.8999 180.4C94.1999 181.8 96.6999 186.2 96.6999 186.2C96.6999 186.2 92.0999 188.3 87.7999 187C83.4999 185.6 80.3999 183 80.9999 181.2C81.5999 179.3 85.4999 179 89.8999 180.4Z" fill="#3F50B5"/>
<path d="M100.1 178.1C96.7001 181.2 96.3 186.2 96.3 186.2C96.3 186.2 101.3 186.3 104.7 183.2C108.1 180.1 109.7 176.5 108.5 175.1C107.2 173.7 103.5 175.1 100.1 178.1Z" fill="#3F50B5"/>
<path d="M49.1001 104.8C49.1001 104.8 71.4001 116.9 86.3001 150.6C101.2 184.3 98.3001 216.2 98.3001 216.2" stroke="#3087FF" stroke-width="1.2832" stroke-miterlimit="10"/>
<path d="M246.299 143.1C243.399 144.6 242.199 147.9 242.199 147.9C242.199 147.9 245.599 148.9 248.499 147.4C251.399 145.9 253.199 143.8 252.599 142.6C252.099 141.4 249.199 141.6 246.299 143.1Z" fill="#3F50B5"/>
<path d="M239.299 150C236.899 150.6 235.499 152.9 235.499 152.9C235.499 152.9 237.899 154.2 240.299 153.5C242.699 152.9 244.399 151.5 244.099 150.6C243.799 149.6 241.599 149.3 239.299 150Z" fill="#3F50B5"/>
<path d="M237.3 146.8C236.1 148.9 236.7 151.6 236.7 151.6C236.7 151.6 239.3 150.8 240.5 148.6C241.7 146.5 242 144.3 241.1 143.8C240.2 143.4 238.5 144.7 237.3 146.8Z" fill="#3F50B5"/>
<path d="M234.9 154.5C232 154.8 229.8 157.3 229.8 157.3C229.8 157.3 232.4 159.3 235.4 158.9C238.3 158.6 240.6 157.3 240.5 156.1C240.3 155 237.8 154.2 234.9 154.5Z" fill="#3F50B5"/>
<path d="M230.199 151C228.999 153.7 230.199 156.8 230.199 156.8C230.199 156.8 233.199 155.5 234.299 152.8C235.499 150.1 235.499 147.5 234.299 147C233.199 146.4 231.399 148.2 230.199 151Z" fill="#3F50B5"/>
<path d="M231.499 160.1C228.599 159.7 225.899 161.7 225.899 161.7C225.899 161.7 227.999 164.2 230.899 164.6C233.799 165 236.299 164.3 236.499 163C236.699 161.8 234.399 160.5 231.499 160.1Z" fill="#3F50B5"/>
<path d="M227.1 166.2C224 165.7 221.1 167.6 221.1 167.6C221.1 167.6 223.2 170.4 226.3 170.9C229.4 171.4 232.1 170.8 232.3 169.5C232.5 168.2 230.2 166.7 227.1 166.2Z" fill="#3F50B5"/>
<path d="M222.999 172.3C219.999 171.5 216.899 173.1 216.899 173.1C216.899 173.1 218.699 176.1 221.799 176.9C224.799 177.7 227.599 177.4 227.899 176.1C228.299 174.9 226.099 173.2 222.999 172.3Z" fill="#3F50B5"/>
<path d="M218.399 179.3C215.299 179 212.499 181.1 212.499 181.1C212.499 181.1 214.799 183.7 217.899 184C220.999 184.3 223.699 183.5 223.799 182.2C223.999 181 221.599 179.6 218.399 179.3Z" fill="#3F50B5"/>
<path d="M226.799 155.7C227.599 158.5 226.199 161.5 226.199 161.5C226.199 161.5 223.399 159.8 222.599 157C221.799 154.2 221.999 151.6 223.199 151.2C224.299 150.9 225.999 152.9 226.799 155.7Z" fill="#3F50B5"/>
<path d="M220.599 161.5C222.099 164.3 221.099 167.7 221.099 167.7C221.099 167.7 217.799 166.5 216.299 163.7C214.799 160.9 214.599 158.1 215.799 157.5C216.999 157 219.199 158.7 220.599 161.5Z" fill="#3F50B5"/>
<path d="M216.099 167.3C217.799 169.9 217.299 173.4 217.299 173.4C217.299 173.4 213.899 172.6 212.199 170C210.499 167.4 209.899 164.7 210.999 163.9C211.999 163.1 214.299 164.7 216.099 167.3Z" fill="#3F50B5"/>
<path d="M212.499 175.1C213.799 178 212.699 181.3 212.699 181.3C212.699 181.3 209.499 179.9 208.199 177.1C206.899 174.2 206.799 171.5 207.999 170.9C209.199 170.3 211.299 172.2 212.499 175.1Z" fill="#3F50B5"/>
<path d="M214.299 186.7C211.199 187 208.899 189.7 208.899 189.7C208.899 189.7 211.699 191.8 214.799 191.5C217.899 191.2 220.399 189.8 220.199 188.5C220.099 187.2 217.499 186.4 214.299 186.7Z" fill="#3F50B5"/>
<path d="M207.7 183.8C209.6 186.4 209.1 189.8 209.1 189.8C209.1 189.8 205.7 189.1 203.8 186.6C201.9 184 201.3 181.4 202.4 180.6C203.5 179.8 205.8 181.2 207.7 183.8Z" fill="#3F50B5"/>
<path d="M211.3 195C208.2 195.6 206.1 198.4 206.1 198.4C206.1 198.4 209.1 200.3 212.2 199.7C215.3 199.1 217.6 197.6 217.4 196.3C217.1 194.9 214.4 194.4 211.3 195Z" fill="#3F50B5"/>
<path d="M204.499 192.6C206.599 195 206.399 198.5 206.399 198.5C206.399 198.5 202.899 198.1 200.899 195.7C198.799 193.3 197.999 190.7 198.999 189.8C199.899 189 202.399 190.2 204.499 192.6Z" fill="#3F50B5"/>
<path d="M245.599 146.3C245.599 146.3 229.199 152.8 216.199 174.8C203.199 196.8 202.499 219 202.499 219" stroke="#78B0FF" stroke-width="0.8903" stroke-miterlimit="10"/>
<path d="M197.2 201.3C197.2 201.3 180.4 149.9 205.6 108C217 89 259.2 95.7 231.6 130.5C220.2 144.8 200.9 160.5 197.2 201.3Z" fill="#3F50B5"/>
<path d="M221.1 113.8C221.1 113.8 181.2 162.6 202.3 220.4" stroke="#78B0FF" stroke-width="1.7113" stroke-miterlimit="10"/>
<path d="M205.6 210.3C205.6 210.3 213.4 185.5 234.9 176C244.7 171.7 259.4 186.1 238.8 192.1C230.4 194.6 218.4 195.3 205.6 210.3Z" fill="#3F50B5"/>
<path d="M239.4 182.7C239.4 182.7 210.2 190.7 202.3 219.3" stroke="#78B0FF" stroke-width="0.8234" stroke-miterlimit="10"/>
<path d="M183.599 21.2L183.499 15.3C183.499 14.3 183.099 13.4 182.399 12.8C181.299 11.8 179.799 9.9 180.199 9.5C180.799 8.7 182.799 11.6 183.599 11C183.799 10.8 182.499 2.8 183.299 2.9C183.899 2.9 184.199 7.39999 184.499 7.39999C184.799 7.39999 184.699 0 185.299 0C185.899 0.1 186.099 6.8 186.499 6.5C187.099 6.1 186.499 0.600003 187.399 0.300003C187.999 0.100003 187.899 7.4 188.299 7.5C188.699 7.7 188.899 2.8 189.499 3C190.299 3.3 189.099 11.5 189.099 11.5L187.699 22L183.599 21.2Z" fill="#FFB49B"/>
<path d="M97.6991 47.6L93.6991 43.2C93.0991 42.5 92.6991 41.6 92.7991 40.6C92.8991 39.1 92.6991 36.7 92.1991 36.7C91.1991 36.5 91.7991 40 90.7991 40.2C90.4991 40.2 85.9991 33.5 85.4991 34.1C85.0991 34.6 87.9991 38 87.6991 38.2C87.4991 38.4 82.3991 32.9 82.0991 33.4C81.6991 33.8 86.1991 38.9 85.7991 38.9C84.9991 39 81.5991 34.5 80.7991 35C80.1991 35.3 85.2991 40.5 85.0991 40.8C84.8991 41.2 81.3991 37.8 81.0991 38.3C80.6991 39 87.1991 44.2 87.1991 44.2L95.3991 50.8L97.6991 47.6Z" fill="#FFB49B"/>
<path d="M152.6 32.4C150.7 24.6 143.7 18.8 135.3 18.8C134.6 18.8 133.9 18.8 133.2 18.9C129.9 19.3 126.6 19.4 123.3 19C121.8 18.8 120.2 18.6 118.5 18.4C110.5 17.4 104.1 25 106.6 32.6C106.6 32.7 106.7 32.8 106.7 32.9C108.1 37.1 108.8 41.4 108.8 45.8C108.8 46.2 108.8 46.5 108.8 46.9C109.4 55.2 115.9 62.1 124.2 63.2C125.3 63.3 126.3 63.4 127.3 63.3C132.1 63.1 136.8 63.7 141.2 65.6C143.1 66.4 145 67 146.6 67C156.4 67 164.4 59 164.4 49.2C164.6 41.4 159.6 34.8 152.6 32.4Z" fill="#41378C"/>
<path d="M193.999 30.3C193.999 30.3 191.199 57.8 186.999 65.8C183.699 72.1 166.999 86.3 166.999 86.3C164.699 88.7 160.799 88.6 158.599 86C156.999 84.2 156.799 81.5 157.999 79.5C157.999 79.5 173.199 63.1 175.499 56.2C177.599 49.6 175.199 28.6 175.199 28.6C175.099 22.5 180.799 17.9 186.699 19.2C191.799 20.3 194.999 25.2 193.999 30.3Z" fill="white"/>
<path d="M173.699 184.7C170.599 183.7 169.999 185.8 168.999 189.7C167.999 193.6 167.799 196.5 168.799 196.7C169.699 196.9 171.099 195.6 173.299 192.3C175.899 188.3 175.799 185.4 173.699 184.7Z" fill="#41378C"/>
<path d="M176.099 180.8L173.099 185C172.099 186.3 172.199 187.3 172.799 187.8C173.399 188.4 174.399 188.4 174.999 187.8L179.999 183.6L176.099 180.8Z" fill="#FFB49B"/>
<path d="M165.1 109.5C150 115.5 154.1 136 161.3 140.2C171.9 146.5 193.1 143.9 193.1 145.5C193.2 152.4 174.7 181.4 174.7 181.4C174.5 181.7 174.6 182 174.8 182.3C175.9 183.5 176.6 184.3 178.5 185.6C178.7 185.7 179 185.6 179.2 185.4C189.5 175.8 210.5 152 213 141.8C217.1 124.6 167.9 108.4 165.1 109.5Z" fill="#9B14AA"/>
<path d="M90.9989 173.8C89.6989 170.8 87.6989 171.9 84.0989 173.7C80.5989 175.5 78.2989 177.4 78.6989 178.3C79.0989 179.2 80.9989 179.2 84.9989 178.6C89.7989 177.9 91.7989 175.8 90.9989 173.8Z" fill="#41378C"/>
<path d="M95.399 173L90.299 173.6C88.699 173.8 87.999 174.4 87.999 175.3C87.999 176.1 88.599 176.9 89.399 176.9L95.899 177.8L95.399 173Z" fill="#FFB49B"/>
<path d="M166.1 111.9C163 108.7 148.3 111.2 148.3 111.2C133.1 116.9 133.8 130.2 135.5 138.3C138 150.4 134.1 160.4 132.9 161.6C127.8 166.3 94.0001 172.3 94.0001 172.3C93.7001 172.4 93.5001 172.6 93.4001 172.9C93.2001 174.5 93.1001 175.6 93.5001 177.9C93.5001 178.2 93.8001 178.3 94.1001 178.3C108.2 179.4 136.5 181.9 145.6 176.5C166.3 164.1 177.8 124.1 166.1 111.9Z" fill="#BE1EC8"/>
<path d="M166 117.7C170.7 117.1 174.7 113.8 176.1 109.2C178.2 102.3 181 91.1 179.7 84.7C178.5 78.7 173.9 67.6 162.2 67.6C154.4 67.6 138.8 69.9 139.8 81.8C140.4 89.2 141.7 103.2 147.5 112.5C148.6 114.3 150.3 115.6 152.2 116.2C155.3 117.2 160.4 118.4 166 117.7Z" fill="white"/>
<path d="M160.799 74C158.599 74 156.699 72.2 156.699 69.9V56.5H164.799V69.9C164.899 72.2 163.099 74 160.799 74Z" fill="#FFA587"/>
<path d="M164.1 67C164.4 67 164.6 67 164.9 66.9V56.5H156.8V58C156.8 62.1 160 67 164.1 67Z" fill="#F5876E"/>
<path d="M165.9 64.2C162.6 65.5 156.6 63.2 155.3 59.8C155.3 59.8 152.5 54.8 152.7 52.9C153.4 44.4 161.5 46.1 164.4 47.4C166.1 48.2 166.9 53.4 167.4 55.2C168.3 58.6 167.4 63.6 165.9 64.2Z" fill="#FFB49B"/>
<path d="M151.6 57.6C152.2 59.1 153.8 59.8 155.3 59.3L153.2 53.9C151.8 54.5 151.1 56.2 151.6 57.6Z" fill="#FFA587"/>
<path d="M164.399 47.4L154.199 51.3L155.099 53.5C154.099 54 153.599 55.1 153.999 56.2C154.099 56.5 154.299 56.7 154.499 56.9C154.699 56.7 154.899 56.5 155.099 56.3C155.399 55.8 155.899 55.5 156.499 55.2C157.699 54.7 158.699 53.9 159.299 52.8C160.199 51.3 161.599 50.2 163.299 49.8C163.699 49.7 163.999 49.6 164.399 49.5C164.699 49.4 164.999 49.2 165.199 49.1L164.399 47.4Z" fill="#FFA587"/>
<path d="M157.6 33.8C155.4 34.7 153.8 36.5 153.1 38.6C152.3 40.8 150.7 42.5 148.7 43.7C148.7 43.7 148.7 43.7 148.6 43.7C146.4 45.1 145.3 47.7 145.8 50.2C145.9 50.5 145.9 50.9 146.1 51.2C146.5 52.2 146.6 53.3 146.5 54.4C146.4 54.9 146.5 55.4 146.7 55.9C147.4 57.6 149.4 58.5 151.2 57.7C152 57.4 152.6 56.9 153 56.3C153.4 55.7 153.9 55.3 154.6 55.1C156 54.6 157.1 53.6 157.8 52.4C158.8 50.7 160.4 49.4 162.3 49C162.7 48.9 163.1 48.8 163.5 48.6C167.7 47 169.8 42.2 168 38.1C166.4 34.2 161.5 32.2 157.6 33.8Z" fill="#41378C"/>
<path d="M92.8989 57.7C92.8989 57.7 110.999 74.5 119.199 78C125.099 80.5 148.199 83 148.199 83C151.099 83.7 154.099 81.8 154.699 78.8C155.099 76.6 154.099 74.5 152.199 73.5C152.199 73.5 131.699 70.2 125.999 66.9C120.199 63.6 106.899 47.5 106.899 47.5C101.699 42.5 97.6989 41.9 93.4989 45.7C90.0989 49 88.6989 55.1 92.8989 57.7Z" fill="white"/>
</svg>
