<svg xmlns="http://www.w3.org/2000/svg" width="576.999" height="378" viewBox="0 0 576.999 378"><g transform="translate(-43.813 -133.111)"><path d="M428.112,133.111c-22.2,0-42.8,4.575-59.839,12.4a65.608,65.608,0,0,1-41.267,4.625C229.855,129.167,122.142,176.808,122.142,250.7a73.788,73.788,0,0,0,5.935,28.83c-31.6,12.976-53.341,40.089-53.341,71.441,0,43.958,42.739,79.593,95.459,79.593,50.768,0,92.273-33.045,95.279-74.744q6.788.394,13.727.4c61.98,0,115.567-24.124,141.113-59.159A62.228,62.228,0,0,1,458.4,272.853c43.888-8.759,75.9-36.064,75.9-68.4C534.3,165.054,486.759,133.111,428.112,133.111Z" fill="#dafffb"/><line x2="119.033" transform="translate(43.813 421.762)" fill="none" stroke="#c0a0fa" stroke-miterlimit="10" stroke-width="1.926"/><line x1="90.605" transform="translate(525.61 400.182)" fill="none" stroke="#faa0a8" stroke-miterlimit="10" stroke-width="2.183"/><path d="M552.465,206c0-13.1-5.654-26.64-14.665-31.41a36.149,36.149,0,0,1-15.638-15.213c-6.141-12.047-13.961-19.269-22.481-19.269-15.325,0-28.391,23.338-33.48,56.13a38.126,38.126,0,0,1-11.668,22.348c-8.943,8.189-14.746,21.351-14.746,36.2,0,21.885,13.028,41.22,30.771,44.5a34.682,34.682,0,0,1,16.713,8.618c3.865,3.472,8.044,5.372,12.41,5.372,15.84,0,29.266-24.935,33.965-59.471a38.711,38.711,0,0,1,9.739-20.916C548.888,226.861,552.465,217.064,552.465,206Z" fill="#ffe2e1"/><line y2="176.371" transform="translate(497.086 193.162)" fill="none" stroke="#ffb4bb" stroke-miterlimit="10" stroke-width="2.18"/><path d="M465.737,259.687l31.349,40.089,17.69-20.044" fill="none" stroke="#ffb4bb" stroke-miterlimit="10" stroke-width="2.181"/><path d="M525.61,209.8l-28.524,31.869L486.473,233.5" fill="none" stroke="#ffb4bb" stroke-miterlimit="10" stroke-width="2.181"/><path d="M612.932,273.736a11.752,11.752,0,0,0-5.494-1.287,12.3,12.3,0,0,1-12.521-11.413c-1.43-25.808-11.071-47.587-23.932-47.587-9.405,0-17.554,12.084-21.532,29.712a12.073,12.073,0,0,1-13.71,9.222c-4.041-.657-7.6-.1-10.385,1.849-14.9,10.416.62,51.793,26.624,75.924a12.1,12.1,0,0,1,3.816,10.837c-2.36,13.987-.129,25.038,6.973,28.74,11.811,6.158,32.615-10.341,46.465-36.849S624.743,279.892,612.932,273.736Z" fill="#ffb4bb"/><line y2="127.772" transform="translate(571.011 271.589)" fill="none" stroke="#faa0a8" stroke-miterlimit="10" stroke-width="2.18"/><line x1="28.447" y2="46.148" transform="translate(571.011 306.472)" fill="none" stroke="#faa0a8" stroke-miterlimit="10" stroke-width="2.181"/><line x2="31.113" y2="47.238" transform="translate(539.898 274.496)" fill="none" stroke="#faa0a8" stroke-miterlimit="10" stroke-width="2.181"/><path d="M127.068,262.8c0-12.436,5.367-25.288,13.921-29.816a34.3,34.3,0,0,0,14.843-14.442c5.829-11.434,13.253-18.291,21.342-18.291,14.546,0,26.949,22.154,31.779,53.282a36.186,36.186,0,0,0,11.075,21.213c8.491,7.774,14,20.268,14,34.366,0,20.773-12.366,39.126-29.209,42.24a32.909,32.909,0,0,0-15.863,8.18c-3.67,3.295-7.638,5.1-11.78,5.1-15.036,0-27.782-23.669-32.243-56.453a36.749,36.749,0,0,0-9.244-19.854C130.465,282.6,127.068,273.306,127.068,262.8Z" fill="#efe1ff"/><line y2="167.42" transform="translate(179.638 250.616)" fill="none" stroke="#ceb4ff" stroke-miterlimit="10" stroke-width="2.07"/><path d="M209.4,313.765l-29.758,38.054-16.792-19.027" fill="none" stroke="#ceb4ff" stroke-miterlimit="10" stroke-width="2.071"/><path d="M152.561,266.412l27.077,30.251,10.074-7.761" fill="none" stroke="#ceb4ff" stroke-miterlimit="10" stroke-width="2.071"/><path d="M130.823,311.04a10.359,10.359,0,0,0-4.847-1.134,10.852,10.852,0,0,1-11.045-10.068c-1.262-22.767-9.767-41.979-21.111-41.979-8.3,0-15.486,10.66-18.994,26.211a10.651,10.651,0,0,1-12.1,8.134c-3.564-.579-6.7-.087-9.16,1.631-13.14,9.189.548,45.69,23.487,66.976a10.672,10.672,0,0,1,3.366,9.561c-2.082,12.337-.114,22.087,6.152,25.353,10.419,5.431,28.771-9.123,40.989-32.507S141.242,316.472,130.823,311.04Z" fill="#ceb4ff"/><line y2="112.714" transform="translate(93.841 309.146)" fill="none" stroke="#c0a0fa" stroke-miterlimit="10" stroke-width="1.923"/><line x1="25.095" y2="40.709" transform="translate(93.841 339.919)" fill="none" stroke="#c0a0fa" stroke-miterlimit="10" stroke-width="1.924"/><line x2="27.446" y2="41.671" transform="translate(66.395 311.711)" fill="none" stroke="#c0a0fa" stroke-miterlimit="10" stroke-width="1.924"/><rect width="171.749" height="199.617" rx="5.669" transform="translate(368.015 282.152)" fill="#e3e1ff"/><rect width="138.203" height="156.738" transform="translate(384.564 307.555)" fill="#fff"/><path d="M1.474,0H8.361A1.475,1.475,0,0,1,9.836,1.475V5.8A1.475,1.475,0,0,1,8.361,7.27H1.474A1.474,1.474,0,0,1,0,5.8V1.474A1.474,1.474,0,0,1,1.474,0Z" transform="translate(384.866 291.112)" fill="#b4b7ff"/><rect width="9.836" height="7.27" rx="1.475" transform="translate(399.128 291.112)" fill="#b4b7ff"/><path d="M1.475,0H8.362A1.474,1.474,0,0,1,9.836,1.474V5.8A1.475,1.475,0,0,1,8.361,7.27H1.475A1.475,1.475,0,0,1,0,5.8V1.475A1.475,1.475,0,0,1,1.475,0Z" transform="translate(413.39 291.112)" fill="#b4b7ff"/><rect width="89.507" height="3.635" transform="translate(433.259 292.567)" fill="#b4b7ff"/><g transform="matrix(0, 1, -1, 0, 506.199, 391.258)" fill="none" stroke="#b4b7ff" stroke-miterlimit="10" stroke-width="1.165"><rect width="52.138" height="105.068" stroke="none"/><rect x="0.583" y="0.583" width="50.973" height="103.903" fill="none"/></g><rect width="77.199" height="8.423" transform="translate(427.575 318.475)" fill="#b4b7ff"/><rect width="77.199" height="8.423" transform="translate(427.575 333.587)" fill="#b4b7ff"/><rect width="77.199" height="8.423" transform="translate(427.575 348.699)" fill="#b4b7ff"/><rect width="77.199" height="8.423" transform="translate(427.575 363.81)" fill="#b4b7ff"/><path d="M411.753,326.9h-4.981a4.214,4.214,0,0,1-4.216-4.211h0a4.214,4.214,0,0,1,4.216-4.211h4.981a4.214,4.214,0,0,1,4.216,4.211h0A4.214,4.214,0,0,1,411.753,326.9Z" fill="#b4b7ff"/><path d="M411.753,342.01h-4.981a4.214,4.214,0,0,1-4.216-4.211h0a4.214,4.214,0,0,1,4.216-4.211h4.981a4.214,4.214,0,0,1,4.216,4.211h0A4.214,4.214,0,0,1,411.753,342.01Z" fill="#b4b7ff"/><path d="M411.753,357.121h-4.981a4.214,4.214,0,0,1-4.216-4.211h0a4.214,4.214,0,0,1,4.216-4.211h4.981a4.214,4.214,0,0,1,4.216,4.211h0A4.214,4.214,0,0,1,411.753,357.121Z" fill="#b4b7ff"/><path d="M411.753,372.233h-4.981a4.214,4.214,0,0,1-4.216-4.211h0a4.214,4.214,0,0,1,4.216-4.211h4.981a4.214,4.214,0,0,1,4.216,4.211h0A4.214,4.214,0,0,1,411.753,372.233Z" fill="#b4b7ff"/><path d="M282.811,452.72V347.455a5.669,5.669,0,0,0-5.672-5.666h-160.4a5.669,5.669,0,0,0-5.672,5.666V452.72a8.254,8.254,0,0,0,8.258,8.249H274.553A8.254,8.254,0,0,0,282.811,452.72Z" fill="#ffe2e1"/><rect width="138.203" height="81.784" transform="translate(127.611 367.193)" fill="#fff"/><path d="M1.475,0H8.361A1.475,1.475,0,0,1,9.836,1.475V5.8A1.474,1.474,0,0,1,8.362,7.27H1.475A1.475,1.475,0,0,1,0,5.8V1.475A1.475,1.475,0,0,1,1.475,0Z" transform="translate(127.913 350.75)" fill="#ffb4bb"/><path d="M1.475,0H8.362A1.475,1.475,0,0,1,9.836,1.475V5.8A1.474,1.474,0,0,1,8.362,7.27H1.475A1.475,1.475,0,0,1,0,5.8V1.475A1.475,1.475,0,0,1,1.475,0Z" transform="translate(142.175 350.75)" fill="#ffb4bb"/><path d="M1.475,0H8.362A1.474,1.474,0,0,1,9.836,1.474V5.8A1.474,1.474,0,0,1,8.362,7.27H1.474A1.474,1.474,0,0,1,0,5.8V1.475A1.475,1.475,0,0,1,1.475,0Z" transform="translate(156.437 350.75)" fill="#ffb4bb"/><rect width="89.508" height="3.635" transform="translate(176.306 352.204)" fill="#ffb4bb"/><rect width="77.199" height="8.423" transform="translate(170.622 378.113)" fill="#ffb4bb"/><rect width="77.199" height="8.423" transform="translate(170.622 393.224)" fill="#ffb4bb"/><rect width="77.199" height="8.423" transform="translate(170.622 408.336)" fill="#ffb4bb"/><rect width="77.199" height="8.423" transform="translate(170.622 423.448)" fill="#ffb4bb"/><path d="M154.8,386.535h-4.982a4.214,4.214,0,0,1-4.216-4.211h0a4.214,4.214,0,0,1,4.216-4.211H154.8a4.214,4.214,0,0,1,4.216,4.211h0A4.214,4.214,0,0,1,154.8,386.535Z" fill="#ffb4bb"/><path d="M154.8,401.647h-4.982a4.214,4.214,0,0,1-4.216-4.211h0a4.214,4.214,0,0,1,4.216-4.211H154.8a4.214,4.214,0,0,1,4.216,4.211h0A4.214,4.214,0,0,1,154.8,401.647Z" fill="#ffb4bb"/><path d="M154.8,416.758h-4.982a4.214,4.214,0,0,1-4.216-4.211h0a4.214,4.214,0,0,1,4.216-4.211H154.8a4.214,4.214,0,0,1,4.216,4.211h0A4.214,4.214,0,0,1,154.8,416.758Z" fill="#ffb4bb"/><path d="M154.8,431.871h-4.982a4.214,4.214,0,0,1-4.216-4.213h0a4.215,4.215,0,0,1,4.216-4.211H154.8a4.215,4.215,0,0,1,4.216,4.211h0A4.214,4.214,0,0,1,154.8,431.871Z" fill="#ffb4bb"/><rect width="180.613" height="288.515" rx="13.439" transform="translate(250.876 193.253)" fill="#7878bf"/><rect width="186.191" height="288.515" rx="13.701" transform="translate(235.62 193.253)" fill="#8787d5"/><rect width="158.566" height="259.855" rx="9.456" transform="translate(249.217 207.902)" fill="#a3a3ff"/><path d="M0,0H70.231a0,0,0,0,1,0,0V5.581a8.43,8.43,0,0,1-8.43,8.43H8.43A8.43,8.43,0,0,1,0,5.581V0A0,0,0,0,1,0,0Z" transform="translate(292.572 204.08)" fill="#8787d5"/><path d="M231.354,472.146V457.9h-6.175a27.515,27.515,0,0,0-2.817-6.779l4.371-4.366-10.084-10.074-4.372,4.367a27.546,27.546,0,0,0-6.785-2.814v-6.169H191.229v6.169a27.6,27.6,0,0,0-6.785,2.814l-4.372-4.367-10.084,10.074,4.371,4.366a27.515,27.515,0,0,0-2.817,6.779h-6.175v14.245h6.175a27.528,27.528,0,0,0,2.817,6.777l-4.371,4.366,10.084,10.074L184.444,489a27.589,27.589,0,0,0,6.785,2.812v6.169h14.262v-6.169A27.589,27.589,0,0,0,212.276,489l4.372,4.366,10.084-10.074-4.371-4.366a27.529,27.529,0,0,0,2.817-6.777Zm-32.994,9.045a16.168,16.168,0,1,1,16.187-16.168A16.177,16.177,0,0,1,198.36,481.191Z" fill="#8787d5"/><path d="M177.941,478.725V468.108h-4.6a20.475,20.475,0,0,0-2.1-5.051L174.5,459.8l-7.516-7.508-3.258,3.254a20.581,20.581,0,0,0-5.057-2.1v-4.6H148.036v4.6a20.581,20.581,0,0,0-5.057,2.1l-3.258-3.254L132.2,459.8l3.258,3.254a20.475,20.475,0,0,0-2.1,5.051h-4.6v10.617h4.6a20.475,20.475,0,0,0,2.1,5.051l-3.258,3.254,7.516,7.508,3.258-3.254a20.575,20.575,0,0,0,5.057,2.1v4.6h10.629v-4.6a20.526,20.526,0,0,0,5.057-2.1l3.258,3.254,7.516-7.508-3.258-3.254a20.475,20.475,0,0,0,2.1-5.051Zm-24.59,6.742a12.05,12.05,0,1,1,12.064-12.05A12.058,12.058,0,0,1,153.351,485.467Z" fill="#96dbbf"/><path d="M565.042,511.111H238.869a2.2,2.2,0,0,1-2.2-2.2h0a2.2,2.2,0,0,1,2.2-2.2H565.042a2.2,2.2,0,0,1,2.2,2.2h0A2.2,2.2,0,0,1,565.042,511.111Z" fill="#c8e6eb"/><g transform="translate(256.267 410.068)" fill="none" stroke="#fff" stroke-miterlimit="10" stroke-width="1.091"><rect width="144.898" height="40.991" rx="5.726" stroke="none"/><rect x="0.545" y="0.545" width="143.807" height="39.901" rx="5.181" fill="none"/></g><rect width="90.406" height="57.908" transform="translate(349.942 438.951)" fill="#c8e6eb"/><path d="M395.145,467.905l-45.2,28.954h90.406Z" fill="#b4d7dc"/><path d="M440.348,438.951H349.942l45.2,41Z" fill="#a5c8cd"/><path d="M381.84,404.023a1.869,1.869,0,0,1,2.557-2.71c19.862,15.164,37.424,19.91,50.309-1.907a45.708,45.708,0,0,0,3.552-7.388,6.54,6.54,0,1,1,12.366,4.188C442.889,415.119,416.219,441.415,381.84,404.023Z" fill="#fa968c"/><rect width="144.898" height="40.991" rx="5.726" transform="translate(190.968 273.558)" opacity="0.15"/><rect width="144.898" height="40.991" rx="5.726" transform="translate(190.968 271.377)" fill="#fff"/><g transform="translate(256.267 233.469)" fill="none" stroke="#fff" stroke-miterlimit="10" stroke-width="1.091"><rect width="144.898" height="40.991" rx="5.726" stroke="none"/><rect x="0.545" y="0.545" width="143.807" height="39.901" rx="5.181" fill="none"/></g><g transform="translate(256.267 292.335)" fill="none" stroke="#fff" stroke-miterlimit="10" stroke-width="1.091"><rect width="144.898" height="40.991" rx="5.726" stroke="none"/><rect x="0.545" y="0.545" width="143.807" height="39.901" rx="5.181" fill="none"/></g><g transform="translate(256.267 352.292)" fill="none" stroke="#fff" stroke-miterlimit="10" stroke-width="1.091"><rect width="144.898" height="40.991" rx="5.726" stroke="none"/><rect x="0.545" y="0.545" width="143.807" height="39.901" rx="5.181" fill="none"/></g><rect width="22.487" height="25.744" rx="2.322" transform="translate(200.517 279.001)" fill="#73c8f0"/><rect width="59.041" height="3.151" transform="translate(232.746 279.001)" fill="#73c8f0"/><rect width="90.824" height="3.151" transform="translate(232.746 289.837)" fill="#73c8f0"/><rect width="90.824" height="3.151" transform="translate(232.746 300.673)" fill="#73c8f0"/><rect width="144.898" height="40.991" rx="5.726" transform="translate(274.513 405.627)" opacity="0.15"/><rect width="144.898" height="40.991" rx="5.726" transform="translate(274.513 403.447)" fill="#fff"/><rect width="22.487" height="25.744" rx="2.322" transform="translate(284.062 407.8)" fill="#96dbbf"/><rect width="59.041" height="3.151" transform="translate(333.434 411.07)" fill="#96dbbf"/><rect width="90.824" height="3.151" transform="translate(317.542 421.906)" fill="#96dbbf"/><rect width="90.824" height="3.151" transform="translate(317.542 432.742)" fill="#96dbbf"/><path d="M240,445.928c.228,4.264,2.833,27.8,4.647,42.954.917,7.667,1.046,13.191,1.754,12.987,1.828-.525,7.535-50.245,7.192-56.665s-3.665-11.463-7.417-11.263S239.654,439.508,240,445.928Z" fill="#fa968c"/><path d="M249.348,489.768c-.656.033-4.459.493-5.16.636-2.277-15.226-4.977-40.724-4.738-45.2q.04-.724.127-1.423a54.382,54.382,0,0,0-.609-19.133c-3.308-14.261-5.87-29.734-6.148-33.96-.55-8.386,4.292-15.53,10.814-15.957s11.9,5.357,12.937,13.7C259.088,408.557,249.386,489.434,249.348,489.768Z" fill="#0073aa"/><path d="M255.673,425.19l.033.028c1.146-15.63,1.735-29.836.865-36.79-1.042-8.34-6.414-14.124-12.937-13.7S232.27,382.3,232.82,390.688c.067,1.018.268,2.694.578,4.842a30.5,30.5,0,0,1,18.526,23.192A10.927,10.927,0,0,0,255.673,425.19Z" fill="#195fa0"/><path d="M244.117,489.821s.389,10.948-.51,13.034-1.118,4.445,1.745,4.425c2.808-.02,9.547-.025,10.52-.055,1.8-.055,3.4-.264,3.365-1.457s-8.373-1.562-9.967-2.765-.418-12.6-.418-12.6Z" fill="#fa968c"/><path d="M255.071,504.427a14.788,14.788,0,0,1-5.033.9,15,15,0,0,1-6.747-1.63c-.583,1.829-.417,3.6,2.062,3.578,2.808-.02,9.547-.025,10.52-.055,1.8-.055,3.4-.264,3.366-1.457C259.22,505.191,257.265,504.806,255.071,504.427Z" fill="#a03c19"/><path d="M254.613,447.437c.228,4.263,2.833,27.8,4.647,42.952.916,7.667,1.045,13.192,1.754,12.989,1.828-.526,7.535-50.245,7.192-56.666s-3.665-11.462-7.417-11.263S254.27,441.017,254.613,447.437Z" fill="#fa968c"/><path d="M263.963,491.276c-.656.032-4.459.492-5.16.636-2.277-15.226-4.977-40.725-4.738-45.2q.04-.724.127-1.421a54.382,54.382,0,0,0-.609-19.133c-3.308-14.261-5.87-29.736-6.148-33.96-.55-8.386,4.292-15.53,10.814-15.957s11.9,5.357,12.937,13.7C273.7,410.064,264,490.943,263.963,491.276Z" fill="#0091c8"/><path d="M258.732,491.328s.391,10.948-.508,13.034-1.236,4.55,1.745,4.425c2.805-.117,8.246-.3,9.214-.4,2.421-.256,5.22-.169,5.183-1.363s-8.885-1.309-10.479-2.513-.418-12.6-.418-12.6Z" fill="#fa968c"/><path d="M268.92,505.661a14.8,14.8,0,0,1-5.012.9,14.972,14.972,0,0,1-6.027-1.278c-.581,1.826-.462,3.615,2.088,3.507,2.805-.117,8.246-.3,9.214-.4,2.421-.256,5.22-.169,5.184-1.363C274.346,506.36,271.62,506.029,268.92,505.661Z" fill="#cd5014"/><path d="M256.279,321.992c-1.944,0-4.049-.972-6.948-3.5a8.778,8.778,0,0,1-2.9-5.695v-9.46h14.583a26.909,26.909,0,0,1,.032,10.008C260.254,317.083,257.809,321.993,256.279,321.992Z" fill="#fab9af"/><path d="M205.124,319.595a1.756,1.756,0,0,1,3.451-.578l.005.024a132.824,132.824,0,0,0,5.142,16.4c4.262,10.828,7.99,12.376,9.428,13.333a6.488,6.488,0,0,0,1.088.26c4.138.951,11.363-8.064,12.622-15.047a21.628,21.628,0,0,1,.8-2.516,5.884,5.884,0,0,1,7.49-3.614C263.753,334.33,211.712,398.872,205.124,319.595Z" fill="#fab9af"/><path d="M236.227,386.724c5.33,6.11,36.1,8.66,36.1,8.66,2.271-2.633-8.311-32.682-8.311-32.682s5.1-21.688,4.87-29.519a5.974,5.974,0,0,0-5.98-5.8H243.38a5.769,5.769,0,0,0-5.762,5.29c-.512,6.2,7.6,29.347,7.6,29.347S231.62,381.443,236.227,386.724Z" fill="#fab9af"/><path d="M264.016,362.7s5.076-22.32,4.855-30.022a5.457,5.457,0,0,0-5.469-5.294h-2.895a7.783,7.783,0,0,1-14.141,0h-2.718c2.954,6.318,1.892,14.653-3.191,19.517,2.158,7.622,4.756,15.12,4.756,15.12s-14.352,21.653-12.259,24.863c4.425,6.792,39.372,8.5,39.372,8.5C274.6,392.072,264.016,362.7,264.016,362.7Z" fill="#ff8c46"/><path d="M250.27,328.729l8.858-.929-2.8-9.681-5.729.708Z" fill="#fab9af"/><path d="M250.6,318.826l5.729-.708.874,3.022c-1.282,1.445-2.931,4.565-5.015,4.565a3.315,3.315,0,0,1-1.806-.53Z" fill="#fa968c"/><path d="M248.905,298.785l4.912-.312a8.045,8.045,0,0,0,3.9-1.3,3.906,3.906,0,0,1,5.167.621c1.389,1.651,2.09,3.933-1.014,6.288-1.543,1.17-3.973.137-5.51.75-.1,0-.185-.008-.285,0l-4.359.278a2.784,2.784,0,0,0-2.494,2.961,5.523,5.523,0,0,1-.648,2.114l-2.037-2.512-1.909-1.545a1.9,1.9,0,0,1-.7-1.358l-.02-.31A5.35,5.35,0,0,1,248.905,298.785Z" fill="#be1ec8"/><path d="M303.567,311.834s-2.388,4.542-1.242,5.73,2.135,1.775,3.927.173a17.405,17.405,0,0,0,4.14-6.685,13.327,13.327,0,0,0-.011-6.288c-1.133-1.417-1.923,2.388-2.4,4.213s-1.189,3.837-2,3.362.354-3.9-.4-4.755S303.567,311.834,303.567,311.834Z" fill="#fab9af"/><path d="M206.674,311.93s2.263,4.606,1.085,5.762-2.182,1.715-3.93.066a17.4,17.4,0,0,1-3.955-6.8,13.343,13.343,0,0,1,.182-6.285c1.171-1.386,1.857,2.441,2.281,4.277s1.082,3.869,1.91,3.415-.248-3.909.528-4.741S206.674,311.93,206.674,311.93Z" fill="#fab9af"/><path d="M278.081,345.178c5.169,5.9,9.118,2.8,13.614-3.7,1.9-3.237,4.257-5.954,10.582-23.745l.008-.024a1.762,1.762,0,0,1,3.407.788c-6.215,54.163-35.65,45.641-44.433,21.376A18.765,18.765,0,0,1,260,333.539a6.12,6.12,0,0,1,12.238-.253C272.286,335.58,274.516,341.241,278.081,345.178Z" fill="#fab9af"/><path d="M270.013,335.14a6.709,6.709,0,0,1-2.486-5.8c.272-4.677-2.532-8.833-6.13-12.138a10.612,10.612,0,0,1-3.295-9.035l.5-4.346H243.89a11.319,11.319,0,0,1-4.594,9.169,22.479,22.479,0,0,0-7.66,10.075c-4.013,10.337-.11,21.539,8.7,25.614-2.322,9.776,2.01,19.633,10.595,22.958,9.491,3.677,20.556-2.024,24.714-12.733C279.16,349.863,276.61,340.154,270.013,335.14Z" fill="#be1ec8"/><path d="M451.433,489.939a4.064,4.064,0,0,1-3.307-5.687c4.63-10.515,8.377-22.153,9.2-26.553a16.243,16.243,0,0,0-12.688-19.152c-8.683-1.62-11.5,4.562-13.18,13.518-1.3,6.97-4.794,33.566-2.186,45.783-.009.137,2.008,9.936,11.857,9.936,6.652,0,64.027-2.071,64.112-7.225C505.306,496.5,469.743,491.8,451.433,489.939Z" fill="#415050"/><path d="M449.983,479.861c3.748-9.2,6.633-18.367,7.342-22.161a16.243,16.243,0,0,0-12.688-19.152c-8.683-1.62-11.5,4.562-13.18,13.518-.042.224-.087.472-.133.736C446.587,461.979,448.511,477.75,449.983,479.861Z" fill="#3c4646"/><path d="M553.281,503.921a33.428,33.428,0,0,0-11.111-4.631.712.712,0,0,0-.547.094,14.111,14.111,0,0,0-1.308.953.7.7,0,0,1-.33.152c-5.381.935-11.524.336-17.849-.742a.7.7,0,0,0-.7,1.072l3.633,5.442a.694.694,0,0,0,.572.311c2.005.024,11.745.149,17.5.421,4.611.218,8.619.177,11.949.021a.7.7,0,0,0,.466-1.2A15.542,15.542,0,0,0,553.281,503.921Z" fill="#fab9af"/><path d="M552.351,501.318l-5.593-3c-2.441-1.257-5.994,1.642-6.511,2.081.124,0,.247-.02.371-.02a15.5,15.5,0,0,1,12.277,6.217,1.687,1.687,0,0,0,1.259.676c5.094.231,8.781.3,10.768.323a1.144,1.144,0,0,0,.713-2.052C562.668,503.408,554.278,502.485,552.351,501.318Z" fill="#415050"/><path d="M478.173,489.668a5.665,5.665,0,0,1-5.109-6.167c1.143-12.345.935-25.891.16-30.48A16.259,16.259,0,0,0,454.7,439.413c-8.71,1.467-9.223,8.243-7.705,17.227,1.174,6.946,6.314,33.984,12.612,45.216.033.065.071.128.107.193,1.816,3.179,3.725,5.037,5.663,4.71l.013,0c1.58.626,62.7-.148,62.7-.148s.173-4.62.434-6.266C516.61,495.2,491.183,490.9,478.173,489.668Z" fill="#55696e"/><path d="M429.737,403.395c1.589-2.114,7.767-10.36,8.767-12.475l.05-.107c.081-.169.169-.335.265-.5a6.523,6.523,0,0,1,11.262,6.586,81.516,81.516,0,0,1-5.2,7.775c-1.254,1.643-2.581,3.23-3.944,4.793C440.027,408.4,429.726,403.411,429.737,403.395Z" fill="#50d1dd"/><path d="M458.473,421.419l4.067.8a7.708,7.708,0,0,0,9.19-7.555c0-8.009.092-15.295.17-20.162a6.36,6.36,0,0,0-6.083-6.454l-20.774-.936a6.143,6.143,0,0,0-6.385,5.351c-.56,4.358-.825,10.964-1.361,18.185a7.692,7.692,0,0,0,6.128,8.131C448.415,419.768,453.487,420.445,458.473,421.419Z" fill="#fab9af"/><path d="M444.847,387.1l3.374.153a8.29,8.29,0,0,0,15.045.678l3.081.138a5.811,5.811,0,0,1,5.563,5.9c-.135,8.2-.315,24.017-.02,38.335.268,12.96,4.649,24.008,2.074,27.421,0,0-34.632,2.05-43.2-7.129,1.671-8.555,2.672-19.572,4.136-30.935,1.459-11.308,2.94-22.846,3.778-29.386A5.936,5.936,0,0,1,444.847,387.1Z" fill="#25bbcc"/><path d="M5.5,0h.4a0,0,0,0,1,0,0V13.628a0,0,0,0,1,0,0H0a0,0,0,0,1,0,0V5.5A5.5,5.5,0,0,1,5.5,0Z" transform="matrix(-0.993, -0.12, 0.121, -0.993, 460.382, 382.027)" fill="#00558c"/><path d="M453.39,389.752l7.778-1.652-5.823-10.377-6.863,2.942,1.83,7.178A2.615,2.615,0,0,0,453.39,389.752Z" fill="#fab9af"/><path d="M448.482,380.665l6.863-2.942,2.339,4.168c-1.073,2.256-2.377,4.757-4.967,5.508a4.677,4.677,0,0,1-2.542-.059Z" fill="#fa968c"/><path d="M448.937,385.284h0a9.053,9.053,0,0,0,10.08-7.889l1.214-10-15.417-1.87a78.613,78.613,0,0,0-.466,13.214C444.71,382.794,446.406,384.978,448.937,385.284Z" fill="#fab9af"/><rect width="2.919" height="1.322" transform="matrix(-0.993, -0.12, 0.121, -0.993, 460.428, 372.642)" fill="#00558c"/><path d="M456.631,375.186c-.236,1.953.507,3.647,1.661,3.787s2.737-2.264,2.973-4.215a2.3,2.3,0,0,0-2.115-2.852C458,371.766,456.869,373.235,456.631,375.186Z" fill="#fab9af"/><path d="M443.244,369.507a8.719,8.719,0,0,1,.244-3.861s.482-4.474,2.338-5.111c1.691-.58,4.29.741,5.979,1.33a31.726,31.726,0,0,0,5.2.629,5.7,5.7,0,0,1,4.977,6.339l-.148,1.212-2.847,2.045-1.019,2.261-.2-.024a1.885,1.885,0,0,1-1.655-1.975,2.967,2.967,0,0,0-2.471-3.3l-4.619-.559c-2.81-.341-4.455.989-4.71,3.089l-.073,1.794Z" fill="#00558c"/><path d="M474.263,395.853c-3.963,25.02-29.888,53.066-74.59,50.53a1.87,1.87,0,0,1-.14-3.721C429.8,438.6,455.385,423.76,461.362,394c.865-4.3,4.424-6.2,7.751-5.536A6.516,6.516,0,0,1,474.263,395.853Z" fill="#fab9af"/><path d="M456.92,405.766a66.978,66.978,0,0,0,4-10.734s.281-.931.358-1.246a10.334,10.334,0,0,1,2.028-4.141s2.839-3.06,8.282-.491c4.347,2.054,3.213,7.243,3.213,7.243-.14.723.413,6.267-6.47,16.594C468.332,412.99,456.5,406.683,456.92,405.766Z" fill="#50d1dd"/><path d="M394.893,441.515s5.465-.24,6.092,1.4.745,2.859-1.613,3.859a18.6,18.6,0,0,1-8.327.953c-2.256-.3-5.828-2.387-6.062-2.861-.854-1.733,3.176-.769,5.151-.4s4.241.6,4.152-.4-3.925-1.427-4.406-2.538S394.893,441.515,394.893,441.515Z" fill="#fab9af"/><path d="M378.367,406.011s5.443-.547,5.827-2.261.326-2.936-2.152-3.588a18.572,18.572,0,0,0-8.377.252,15.634,15.634,0,0,0-4.994,3.033h5.567c2.282,0,3.115-.7,3.162.127.054,1-3.679,1.975-4,3.145S378.367,406.011,378.367,406.011Z" fill="#fa968c"/></g></svg>