<svg xmlns="http://www.w3.org/2000/svg" width="455" height="402" viewBox="0 0 455 402"><g transform="translate(-86.533 -112.089)"><path d="M524.713,325.76a99.9,99.9,0,0,1-6.161-79.352c5.844-17.106,6.758-43.53,1.935-61.065-15.5-56.334-87.163-89.9-156.266-64.821C300.863,143.516,285.352,238.379,236.7,228.066c-114.422-24.254-155.634,57.248-149.6,123.6,3.9,42.856,39.866,95.862,116.7,90.3a111.832,111.832,0,0,1,63.978,14.982c32.692,18.895,84.656,23.324,138.638,8.5,81.2-22.3,136.2-79.723,122.849-128.252A55.82,55.82,0,0,0,524.713,325.76Z" fill="#dafffb"/></g><g transform="translate(-86.533 -112.089)"><path d="M426.028,138.38c.1-1.732,3.1-5.26,2.644-5.7-.328-.317-1.5.773-2.126,1.411a.268.268,0,0,1-.457-.167c-.138-1.7-.563-6.464-1.039-6.508s-.723,2.967-.79,3.979a.065.065,0,0,1-.057.059.064.064,0,0,1-.069-.042c-.371-1.072-1.621-4.526-2.157-4.082-.51.422.281,3.73.609,5a.064.064,0,0,1-.118.048c-.646-1.141-2.348-4.032-2.808-3.663s.852,3.511,1.339,4.623a.064.064,0,0,1-.108.068c-.736-.831-2.665-2.951-2.655-2.328.014.769,3.4,7.174,4.513,8.245S426.028,138.38,426.028,138.38Z" fill="#fa968c"/><path d="M456.456,159.816c-2.3,5.086-5.6,10.864-9.6,14.829-7.777,7.693-17.76,5.682-21.243-12.307-.606-2.71-1.029-5.41-1.385-8.1-.724-5.382-1-10.748-1.252-16.1a1.469,1.469,0,0,1,2.907-.36l0,.03c1.055,5.193,2.115,10.376,3.473,15.418.7,2.511,1.423,5,2.267,7.4.731,2.274,3.671,9.339,5.956,10.03.076-.012.15.087.195.043s.063-.042.089-.019c.042-.057.072-.082.108-.074a5.424,5.424,0,0,0,.544-.338,9.023,9.023,0,0,0,1.828-1.774A30.576,30.576,0,0,0,444,162.7c1.885-3.656,2.979-6.286,2.979-6.286,2.321-6.36,11.949-3.314,9.624,3.055C456.556,159.581,456.506,159.7,456.456,159.816Z" fill="#fa968c"/><path d="M441.027,166.662l.026-.037c1.174-1.717,2.264-3.512,3.268-5.351a59.163,59.163,0,0,0,2.72-5.489l.035-.085c.057-.135.12-.269.191-.4a5.13,5.13,0,0,1,9.08,4.775,64.153,64.153,0,0,1-3.806,6.3c-.927,1.335-1.913,2.631-2.928,3.906C448.856,169.467,442.833,167.308,441.027,166.662Z" fill="#a5a0aa"/><path d="M446.051,202.271c4.464,5.119,30.232,7.255,30.232,7.255,1.9-2.205-.879-12.23-1.549-22.406-.724-11-1.142-23.148-1.333-29.708a5,5,0,0,0-5.008-4.856H452.041a4.832,4.832,0,0,0-4.826,4.431c-.429,5.2-1.175,14.226-1.911,23.078C444.556,189.049,442.193,197.848,446.051,202.271Z" fill="#fab9af"/><path d="M460.916,287.812l-.037,10.127.88,4.933a1.416,1.416,0,0,1-1.349,1.67c-4.148.128-14.771.408-15.056-.053-1.335-2.159,4.7-2.989,9.12-4.7s1.369-18.469,1.369-18.469Z" fill="#fa968c"/><path d="M454.474,299.79c.024-.009.043-.025.067-.035a10.131,10.131,0,0,0,3.573.623,10.378,10.378,0,0,0,3.119-.458l.527,2.952a1.416,1.416,0,0,1-1.349,1.67c-4.148.128-14.771.408-15.056-.053C444.019,302.329,450.056,301.5,454.474,299.79Z" fill="#f57a2f"/><path d="M446.058,205.963c-.16,7.039,2.611,51.7,8.084,51.821s11.573-44.333,11.733-51.372-4.147-12.846-9.618-12.97S446.218,198.924,446.058,205.963Z" fill="#0091c8"/><path d="M461.7,248.507c.543,3.875.631,28.7-.242,41.313h-4.982c-2.675-12.234-5.535-35.944-6.065-39.732-.006-.048-.01-.1-.016-.144-2.976-13.162-4.454-38.791-4.336-43.981.16-7.039,4.725-12.645,10.2-12.52s9.778,5.93,9.618,12.97C465.774,210.831,461.442,246.672,461.7,248.507Z" fill="#ff965a"/><path d="M460.883,268.2a26.148,26.148,0,0,0-.84-7.828c-1.955-7.45-2.011-15.215-1.224-22.876q.1-.963.143-1.94c.45-10.029-4.942-19.144-12.808-24.891-.084-2.115-.118-3.753-.1-4.7.16-7.039,4.725-12.645,10.2-12.52s9.778,5.93,9.618,12.97c-.1,4.419-4.433,40.26-4.175,42.095.543,3.875.631,28.7-.242,41.313h-4.982c-.314-1.436-.63-3.042-.945-4.742A33.985,33.985,0,0,0,460.883,268.2Z" fill="#f07d4b"/><path d="M472.872,287.812l-.037,10.127.88,4.933a1.415,1.415,0,0,1-1.347,1.67c-4.149.128-14.773.408-15.058-.053-1.335-2.159,4.7-2.989,9.12-4.7s1.368-18.469,1.368-18.469Z" fill="#fa968c"/><path d="M466.43,299.79c.024-.009.043-.025.067-.035a10.131,10.131,0,0,0,3.573.623,10.379,10.379,0,0,0,3.119-.458l.527,2.952a1.415,1.415,0,0,1-1.347,1.67c-4.149.128-14.773.408-15.058-.053C455.975,302.329,462.013,301.5,466.43,299.79Z" fill="#ff8c46"/><path d="M458.014,205.963c-.16,7.039,2.611,51.7,8.084,51.821s10.39-44.5,10.55-51.537-2.964-12.681-8.436-12.805S458.174,198.924,458.014,205.963Z" fill="#0091c8"/><path d="M473.656,248.507c.543,3.875.631,28.7-.242,41.313h-4.982c-2.675-12.234-5.535-35.944-6.065-39.732-.006-.048-.009-.1-.016-.144-2.976-13.162-5.638-38.956-5.52-44.145.16-7.04,5.909-12.482,11.382-12.357s8.6,5.766,8.436,12.805C476.548,210.666,473.4,246.672,473.656,248.507Z" fill="#ffbe82"/><path d="M451.886,152.557h2.656a6.518,6.518,0,0,0,11.842,0h2.425a4.57,4.57,0,0,1,4.579,4.435c.185,6.453.6,18.886,1.345,30.129.671,10.175,3.451,19.631,1.549,22.406,0,0-25.768-2.137-30.232-7.255-3.858-4.424-1.495-13.223-.747-22.2.744-8.939,1.5-18.059,1.924-23.228A4.667,4.667,0,0,1,451.886,152.557Z" fill="#828291"/><path d="M470.491,167.21a27.317,27.317,0,0,0-3.6-14.653h1.918a4.57,4.57,0,0,1,4.579,4.435c.185,6.453.6,18.886,1.345,30.129.671,10.175,3.451,19.631,1.549,22.406,0,0-25.768-2.137-30.232-7.255a8.7,8.7,0,0,1-1.888-4.332C459.131,195.579,469.807,182.479,470.491,167.21Z" fill="#757582"/><path d="M4.329,0h.314a0,0,0,0,1,0,0V10.721a0,0,0,0,1,0,0H0a0,0,0,0,1,0,0V4.329A4.329,4.329,0,0,1,4.329,0Z" transform="matrix(-0.976, -0.217, 0.217, -0.976, 465.7, 147.616)" fill="#41378c"/><path d="M457.117,152.556h8.549l-2.465-8.518-5.828.721Z" fill="#fab9af"/><path d="M457.373,144.759l5.827-.721,1.149,3.97c-1.305,1.469-3.24,3.751-5.36,3.751a3.373,3.373,0,0,1-1.837-.539Z" fill="#fa968c"/><path d="M456.491,149.287h0a7.122,7.122,0,0,0,8.5-5.4l1.722-7.737-11.921-2.65a61.909,61.909,0,0,0-1.382,10.31C453.376,147.012,454.535,148.852,456.491,149.287Z" fill="#fab9af"/><rect width="2.295" height="1.04" transform="matrix(-0.976, -0.217, 0.217, -0.976, 466.458, 140.272)" fill="#41378c"/><path d="M463.291,141.973c-.336,1.51.115,2.894,1.007,3.093s2.317-1.563,2.653-3.072a1.812,1.812,0,0,0-1.435-2.4C464.623,139.4,463.627,140.463,463.291,141.973Z" fill="#fab9af"/><path d="M453.253,136.5a6.864,6.864,0,0,1,.488-3.005h0a4.706,4.706,0,0,1,6.017-2.541,6.9,6.9,0,0,0,.782.221l4.024.893a4.48,4.48,0,0,1,3.405,5.347l-.208.938-2.385,1.381-.973,1.692-.157-.035a1.481,1.481,0,0,1-1.143-1.672,2.332,2.332,0,0,0-1.68-2.775l-3.57-.794c-2.174-.483-3.564.432-3.925,2.056l-.195,1.4Z" fill="#41378c"/><line x2="58.828" y2="327.113" transform="translate(464.655 182.41)" fill="none" stroke="#5046af" stroke-linecap="round" stroke-miterlimit="10" stroke-width="2.561"/><line x1="58.828" y1="327.113" transform="translate(415.741 182.41)" fill="none" stroke="#5046af" stroke-linecap="round" stroke-miterlimit="10" stroke-width="2.561"/><line x2="47.811" transform="translate(419.638 196.982)" fill="none" stroke="#5046af" stroke-linecap="round" stroke-miterlimit="10" stroke-width="2.562"/><line x2="48.478" transform="translate(422.817 218.869)" fill="none" stroke="#5046af" stroke-linecap="round" stroke-miterlimit="10" stroke-width="2.562"/><line x2="48.046" transform="translate(427.235 240.756)" fill="none" stroke="#5046af" stroke-linecap="round" stroke-miterlimit="10" stroke-width="2.562"/><line x2="47.759" transform="translate(431.508 262.644)" fill="none" stroke="#5046af" stroke-linecap="round" stroke-miterlimit="10" stroke-width="2.562"/><line x2="48.312" transform="translate(434.098 284.531)" fill="none" stroke="#5046af" stroke-linecap="round" stroke-miterlimit="10" stroke-width="2.562"/><line x2="48.983" transform="translate(437.447 306.028)" fill="none" stroke="#5046af" stroke-linecap="round" stroke-miterlimit="10" stroke-width="2.562"/><line x2="48.233" transform="translate(442.36 328.306)" fill="none" stroke="#5046af" stroke-linecap="round" stroke-miterlimit="10" stroke-width="2.562"/><line x2="48.364" transform="translate(446.297 350.193)" fill="none" stroke="#5046af" stroke-linecap="round" stroke-miterlimit="10" stroke-width="2.562"/><line x2="48.364" transform="translate(450.188 370.877)" fill="none" stroke="#5046af" stroke-linecap="round" stroke-miterlimit="10" stroke-width="2.562"/><line x2="48.364" transform="translate(453.495 391.561)" fill="none" stroke="#5046af" stroke-linecap="round" stroke-miterlimit="10" stroke-width="2.562"/><line x2="48.364" transform="translate(457.296 412.245)" fill="none" stroke="#5046af" stroke-linecap="round" stroke-miterlimit="10" stroke-width="2.562"/><line x2="48.364" transform="translate(460.986 432.929)" fill="none" stroke="#5046af" stroke-linecap="round" stroke-miterlimit="10" stroke-width="2.562"/><line x2="48.364" transform="translate(464.586 453.613)" fill="none" stroke="#5046af" stroke-linecap="round" stroke-miterlimit="10" stroke-width="2.562"/><line x2="48.364" transform="translate(468.769 474.297)" fill="none" stroke="#5046af" stroke-linecap="round" stroke-miterlimit="10" stroke-width="2.562"/><line x1="59.327" y2="327.857" transform="translate(356.414 182.41)" fill="none" stroke="#9f9fff" stroke-linecap="round" stroke-miterlimit="10" stroke-width="2.561"/><line y1="327.857" x2="59.327" transform="translate(405.328 182.41)" fill="none" stroke="#9f9fff" stroke-linecap="round" stroke-miterlimit="10" stroke-width="2.561"/><line x1="47.671" transform="translate(413.088 196.982)" fill="none" stroke="#9f9fff" stroke-linecap="round" stroke-miterlimit="10" stroke-width="2.562"/><line x1="48.478" transform="translate(409.102 218.869)" fill="none" stroke="#9f9fff" stroke-linecap="round" stroke-miterlimit="10" stroke-width="2.562"/><line x1="48.046" transform="translate(405.116 240.756)" fill="none" stroke="#9f9fff" stroke-linecap="round" stroke-miterlimit="10" stroke-width="2.562"/><line x1="47.758" transform="translate(401.13 262.644)" fill="none" stroke="#9f9fff" stroke-linecap="round" stroke-miterlimit="10" stroke-width="2.562"/><line x1="48.312" transform="translate(397.144 284.531)" fill="none" stroke="#9f9fff" stroke-linecap="round" stroke-miterlimit="10" stroke-width="2.562"/><line x1="48.983" transform="translate(393.229 306.028)" fill="none" stroke="#9f9fff" stroke-linecap="round" stroke-miterlimit="10" stroke-width="2.562"/><line x1="48.233" transform="translate(389.172 328.306)" fill="none" stroke="#9f9fff" stroke-linecap="round" stroke-miterlimit="10" stroke-width="2.562"/><line x1="48.364" transform="translate(385.736 350.193)" fill="none" stroke="#9f9fff" stroke-linecap="round" stroke-miterlimit="10" stroke-width="2.562"/><line x1="48.364" transform="translate(382.013 374.746)" fill="none" stroke="#9f9fff" stroke-linecap="round" stroke-miterlimit="10" stroke-width="2.562"/><line x1="48.364" transform="translate(376.386 399.298)" fill="none" stroke="#9f9fff" stroke-linecap="round" stroke-miterlimit="10" stroke-width="2.562"/><line x1="48.364" transform="translate(372.188 423.851)" fill="none" stroke="#9f9fff" stroke-linecap="round" stroke-miterlimit="10" stroke-width="2.562"/><line x1="48.364" transform="translate(368.227 448.404)" fill="none" stroke="#9f9fff" stroke-linecap="round" stroke-miterlimit="10" stroke-width="2.562"/><line x1="48.364" transform="translate(363.076 473.194)" fill="none" stroke="#9f9fff" stroke-linecap="round" stroke-miterlimit="10" stroke-width="2.562"/><path d="M465.292,133.677c.273,2.207-7.666,5-9.76,5.262a4.033,4.033,0,0,1-.988-7.994C456.638,130.688,465.019,131.469,465.292,133.677Z" fill="#41378c"/><path d="M355.6,137.026a4.671,4.671,0,0,0-3.787,5.411l4.318,24.4,1.62-.287a9.469,9.469,0,1,1,1.892,10.691l-1.62.286,4.776,26.994a4.672,4.672,0,0,0,5.413,3.784l24.419-4.315-.3-1.676a9.47,9.47,0,1,1,10.7-1.889l.3,1.675,27.013-4.772a4.669,4.669,0,0,0,3.787-5.41L423.14,129.834a4.673,4.673,0,0,0-5.413-3.784Z" fill="#8787d5"/><path d="M474.362,160.886a64.427,64.427,0,0,1-12.551,12.375c-16.53,12.047-34.218,13.265-48.645-.37a1.471,1.471,0,0,1,1.745-2.343l.067.04c9.407,5.426,17.831,7.653,28.436,3.2,13.9-5.987,23.768-20.391,22.73-19.018a5.122,5.122,0,0,1,8.219,6.115Z" fill="#fab9af"/><path d="M458.559,163.043a72.276,72.276,0,0,0,7.819-9.171s2.075-2.45,6.346-.664c3.41,1.427,2.72,5.454,2.72,5.454-.083.56-1.222,7.2-9.064,13.076C466.379,171.739,457.981,163.561,458.559,163.043Z" fill="#a5a0aa"/><path d="M415.958,171.208c-1.129-1.318-1.428-5.937-2.063-5.937-.457,0-.539,1.594-.549,2.491a.267.267,0,0,1-.444.2c-1.282-1.129-4.9-4.258-5.273-3.96s1.543,2.636,2.2,3.41a.065.065,0,0,1,0,.082.064.064,0,0,1-.081.017c-1.012-.512-4.313-2.127-4.389-1.436-.073.658,2.8,2.486,3.918,3.175a.064.064,0,0,1-.052.116c-1.257-.372-4.492-1.268-4.566-.684s3.053,1.934,4.177,2.395a.065.065,0,0,1,.038.074.066.066,0,0,1-.068.05c-1.108-.087-3.971-.271-3.529.17.545.544,7.435,2.8,8.98,2.8S415.958,171.208,415.958,171.208Z" fill="#fab9af"/><rect width="326.911" height="198.775" transform="translate(147.084 249.335)" fill="#8787d5"/><rect width="293.747" height="169.001" transform="translate(163.666 264.221)" fill="#fff"/><rect width="75.271" height="107.776" transform="translate(182.793 306.741)" fill="none" stroke="#827ddc" stroke-miterlimit="10" stroke-width="1.224"/><rect width="75.271" height="107.776" transform="translate(275.039 306.741)" fill="none" stroke="#827ddc" stroke-miterlimit="10" stroke-width="1.224"/><rect width="75.271" height="107.776" transform="translate(367.284 306.741)" fill="none" stroke="#827ddc" stroke-miterlimit="10" stroke-width="1.224"/><rect width="293.747" height="2.752" transform="translate(163.666 264.221)" fill="#a5c8cd"/><path d="M118.206,477.321s-6.71,7.718-7.942,8.946a8.416,8.416,0,0,1-3.844,1.773,5.508,5.508,0,0,0-1.506.96,1.56,1.56,0,0,0-.562,1.283c.159,8.688,7.725,14.777,8.129,14.268.726-.917.172-3.461-1.274-5.14a6.571,6.571,0,0,1-1.16-6.2h0a10.321,10.321,0,0,1,2.746-4.457l5.835-5.458Z" fill="#fa968c"/><path d="M103.118,512.717H212.766a1.614,1.614,0,0,0,1.614-1.613h0a1.614,1.614,0,0,0-1.614-1.613H103.118A1.614,1.614,0,0,0,101.5,511.1h0A1.614,1.614,0,0,0,103.118,512.717Z" fill="#b4d7dc"/><path d="M186.8,488.3l5.338,8.913a13.279,13.279,0,0,1,1.692,9.08h0a2.9,2.9,0,0,0,2.788,3.407c5.747.142,16.866.349,17.187-.173,1.634-2.665-5.4-3.858-10.922-5.728-3.725-1.261-8.31-11.338-11.215-19.268l-4.356,2.756A1.159,1.159,0,0,0,186.8,488.3Z" fill="#fa968c"/><path d="M202.769,506.866a36.685,36.685,0,0,0,6.994-.981,1.457,1.457,0,0,1,.767.054c2.575.913,4.137,2.172,3.27,3.585-.348.567-13.429.275-18.538.139a1.743,1.743,0,0,1-1.667-2.05l.335-1.916A35.877,35.877,0,0,0,202.769,506.866Z" fill="#823264"/><path d="M167.7,387.642c-5.9-1.181-12.95,3.649-14.471,11.239-.874,4.362-2.161,20.611-1.978,33.872a14.459,14.459,0,0,1-6.725,12.63A12.473,12.473,0,0,0,142.6,446.8c-2.912,2.657-16.453,19.621-24.942,31.129-.264,1.8,0,4.289,1.009,5.472,10.864-8.508,29.287-24.526,32.384-27.352a64.874,64.874,0,0,0,5.208-5.218c6.674-4.469,17.506-38.6,18.918-45.639C176.7,397.607,173.6,388.822,167.7,387.642Z" fill="#ffaa50"/><ellipse cx="9.179" cy="11.834" rx="9.179" ry="11.834" transform="translate(154.837 326.596)" fill="#9b14aa"/><path d="M161.814,339.651a12.745,12.745,0,0,0-24.694-4.129,4.512,4.512,0,0,1-4.3,2.91,11.136,11.136,0,0,0-2.423.229,11.325,11.325,0,0,0-4.123,20.476,6.022,6.022,0,0,1,2.445,4.234A14.836,14.836,0,1,0,154.5,351.455,12.728,12.728,0,0,0,161.814,339.651Z" fill="#9b14aa"/><path d="M242.716,341.306a5.433,5.433,0,0,0-5.642,2.186H235.7V330.818a4.209,4.209,0,0,0-4.21-4.208H217.3V325.2a5.43,5.43,0,1,0-6.227,0v1.407H198.387a4.21,4.21,0,0,0-4.211,4.208v12.674h.943a5.426,5.426,0,1,1,0,6.222h-.943V363.9a4.209,4.209,0,0,0,4.211,4.207H211.07v-.975a5.43,5.43,0,1,1,6.227,0v.975h14.192a4.208,4.208,0,0,0,4.21-4.207V349.715h1.376a5.43,5.43,0,1,0,5.642-8.409Z" fill="#05cdff"/><path d="M164.016,322.714s5.164,3.248,4.536,7.623c0,0,2.759-1.951,3.383-8.675C172.368,317,164.016,322.714,164.016,322.714Z" fill="#9b14aa"/><path d="M170.743,349.379c0,18.349,13.891,36.547,24.559-10.948" fill="none" stroke="#fab9af" stroke-linecap="round" stroke-miterlimit="10" stroke-width="11.263"/><path d="M169.8,372.054c2.066-6.224,6.224-19.4,5.868-23.709a5.313,5.313,0,0,0-5.306-4.872H152.383a5.5,5.5,0,0,0-5.505,5.338c-.152,5.2,2.247,17.045,3.6,23.243Z" fill="#fab9af"/><path d="M166.253,400.151c2.068,7.46,18.876,60.489,13.077,62.095s-37.365-50.169-37.767-57.9c-.383-7.332,3.87-15.275,9.669-16.881S164.186,392.691,166.253,400.151Z" fill="#fab9af"/><path d="M192.244,486.639a.927.927,0,0,0,.151-.917c-4.495-12.431-10.526-28.178-11.812-31.153q-.221-.511-.466-1c-2.194-15.721-12.291-47.75-13.864-53.423-2.066-7.46-9.222-14.29-15.022-12.686s-10.052,9.548-9.67,16.881c.253,4.839,12.712,26.931,23.421,42.389a27.392,27.392,0,0,1,4.358,10.889,34.794,34.794,0,0,0,2.089,7.351c1.266,2.927,8.693,14.1,15.329,23.578a.931.931,0,0,0,.848.4A6.842,6.842,0,0,0,192.244,486.639Z" fill="#fac855"/><path d="M148.417,379.943a17.058,17.058,0,0,0,.819-8.142c-.907-6.367-2.492-18.36-2.345-23.451a5.023,5.023,0,0,1,5.034-4.876h2.665a7.165,7.165,0,0,0,13.018,0h2.5c-2.72,5.82-1.742,13.5,2.938,17.977-.87,3.071-1.6,6.162-2.148,8.668a16.938,16.938,0,0,0,.924,10.137c2.3,5.51,4.118,14.346,3.576,17.848-18.91,5.355-31.987-4.124-31.987-4.124Z" fill="#39ae96"/><path d="M170.9,370.118c.185-.845.4-1.773.622-2.729a50.215,50.215,0,0,1-8.008-2.714c-5.5-2.408-12.52-6.32-16.468-11.716.109,1.55.264,3.254.447,5.024,1.941,4.524,4.023,8.892,7.842,12.292a42.09,42.09,0,0,0,15.968,8.53A16.915,16.915,0,0,1,170.9,370.118Z" fill="#1c9585"/><path d="M164.016,344.71l-8.155-.856,2.58-8.918,5.275.652Z" fill="#fab9af"/><path d="M163.716,335.589l-5.276-.653-.8,2.784c1.18,1.33,2.7,4.2,4.618,4.2a3.049,3.049,0,0,0,1.662-.488Z" fill="#fa968c"/><path d="M163.9,339.9c-1.791,0-3.728-.9-6.4-3.226a8.086,8.086,0,0,1-2.666-5.245v-8.715h13.426a24.832,24.832,0,0,1,.03,9.219C167.557,335.377,165.306,339.9,163.9,339.9Z" fill="#fab9af"/><path d="M157.111,329.78c0,1.7-.814,3.078-1.819,3.078s-2.112-2.227-2.112-3.928a1.992,1.992,0,0,1,2.112-2.229C156.3,326.7,157.111,328.081,157.111,329.78Z" fill="#fab9af"/><path d="M153.18,323.77a4.927,4.927,0,0,1,4.931-4.925h4.531a7.4,7.4,0,0,0,3.656-.964,3.6,3.6,0,0,1,4.711.875c1.179,1.6,1.69,3.739-1.3,5.721-1.486.985-3.659-.107-5.107.367-.089,0-.169-.019-.262-.019h-3.994a2.527,2.527,0,0,0-2.49,2.521,1.628,1.628,0,0,1-1.628,1.579h-.178l-.638-2.048-2.23,3Z" fill="#9b14aa"/><path d="M197.294,333.394s.937,4.632-.382,5.386-2.344,1.02-3.516-.858a16.025,16.025,0,0,1-1.933-6.978,12.3,12.3,0,0,1,1.634-5.558c1.366-.961,1.082,2.608,1.03,4.343s.06,3.7.9,3.488.7-3.54,1.581-4.1S197.294,333.394,197.294,333.394Z" fill="#fab9af"/><path d="M217.324,364.9s-4.667-.761-5.371.586-.931,2.38.992,3.477A16.052,16.052,0,0,0,220,370.625a12.306,12.306,0,0,0,5.5-1.842c.91-1.4-2.649-.982-4.382-.863s-3.7.081-3.523-.769,3.516-.827,4.041-1.733S217.324,364.9,217.324,364.9Z" fill="#fab9af"/><path d="M167.259,322.562c-.45,1.991.214,3.08-6.316,6.186s-8.6,1.78-10.636,5.125c0,0,.891-5.541,4.5-7.444s9.861-3.145,11.867-7.549A8.451,8.451,0,0,1,167.259,322.562Z" fill="#9b14aa"/><path d="M150.391,349.342s3.749,25.548,63.657,18.1" fill="none" stroke="#fab9af" stroke-linecap="round" stroke-miterlimit="10" stroke-width="11.263"/><path d="M166,322.932s.248,6.707,6.113,9.926c0,0-2.585-5.068-2.409-8.382S165.617,320.642,166,322.932Z" fill="#9b14aa"/><path d="M101.55,491.775a1.194,1.194,0,0,1,.5-1.475c.415-.247,1.528-.933,2.366-1.447a.573.573,0,0,1,.868.439c.543,4.8,2.72,9.147,6.8,11.221,1.066,1.422,1.217,3.851.642,4.577-.135.17-2.048-.461-3.652-2.3C101.949,494.636,101.55,491.775,101.55,491.775Z" fill="#823264"/><path d="M534.574,466.73l-.806-.167a8.39,8.39,0,0,0-2.282-.063,6.992,6.992,0,0,1-3.678-.686l-4.727-2.328a2.389,2.389,0,0,0-3.249,3.093h0a.762.762,0,0,0,.389.393l5.592,2.476a11.175,11.175,0,0,1,4.164,3.187l1.586,1.955C534.934,472.486,534.465,468.681,534.574,466.73Z" fill="#fab9af"/><path d="M532.525,483c.228-2.683-.988-7.127-1.563-8.613a9.864,9.864,0,0,0,.615-8.052,8.248,8.248,0,0,1,2.216.066c.9.19,2.965.509,3.816.674a1.235,1.235,0,0,1,1,1.262s-2.675,19.353-3.269,18.985C534.31,486.68,532.331,485.284,532.525,483Z" fill="#46738c"/><rect width="71.654" height="3.225" rx="1.613" transform="translate(352.062 510.864)" fill="#b4d7dc"/><path d="M465.371,514.089h74.381a1.779,1.779,0,0,0,1.78-1.778h0a1.78,1.78,0,0,0-1.78-1.779H465.371a1.78,1.78,0,0,0-1.78,1.779h0A1.779,1.779,0,0,0,465.371,514.089Z" fill="#b4d7dc"/><path d="M431.474,447.581c-1.5,5.936-12.065,52.637-9.978,52.68,1.811.037,21.038-43.573,22.539-49.509s-.094-11.457-3.563-12.333S432.975,441.645,431.474,447.581Z" fill="#41b4e6"/><path d="M454.612,400.16c-5.08,6.186-27.775,46.746-22.965,50.69S467.918,421.211,473,415.025s4.329-14.984-.481-18.927S459.69,393.973,454.612,400.16Z" fill="#41b4e6"/><path d="M424.148,506.748c.016-.287.031-.567.047-.821a8.439,8.439,0,0,0-.271-2.264,6.974,6.974,0,0,1,.14-3.737l1.61-5.013a2.39,2.39,0,0,0-3.539-2.758h0a.767.767,0,0,0-.331.442l-1.631,5.89a11.188,11.188,0,0,1-2.544,4.585l-1.7,1.853C418.5,507.947,422.2,506.927,424.148,506.748Z" fill="#fab9af"/><path d="M407.745,507.108c2.69-.167,6.91-2.022,8.3-2.807a9.886,9.886,0,0,0,8.061-.574,8.268,8.268,0,0,1,.26,2.2c-.057.913-.069,3.008-.108,3.872a1.236,1.236,0,0,1-1.1,1.172s-19.55.193-19.272-.448C404.361,509.413,405.452,507.251,407.745,507.108Z" fill="#46738c"/><path d="M444.035,450.752c-.927,3.669-12.407,32.115-18.581,45.366-1.858-.709-2.9-.65-4.795-1.246,2.418-12.446,6.744-40.233,8.168-46.228.622-8.355,21.075-42.749,25.784-48.484,5.079-6.186,13.1-8,17.905-4.062s5.56,12.741.481,18.927C469.711,419.027,444.662,448.272,444.035,450.752Z" fill="#695a6e"/><path d="M472.517,396.1c-4.81-3.943-12.826-2.124-17.905,4.062-.41.5-.952,1.239-1.579,2.139,4.588,9.122,6.142,19.215,5.9,29.464,6.3-7.552,12.536-14.876,14.065-16.738C478.076,408.838,477.326,400.041,472.517,396.1Z" fill="#614c69"/><path d="M468.659,450.994l-.006,0-.012-.027a6.1,6.1,0,0,1-.469-1.182c-3.389-10.032-2.42-46.459-1.321-53.851a18.945,18.945,0,0,1,1.666-5.423l10.8,5.874a41.072,41.072,0,0,0,9.565,7.984c.549.331-.186-1.1.376-.81-1.557,9.584-3.586,28.595-4.35,38.1a5,5,0,0,0,3.052,5.022c10.067,4.227,28.02,12.438,38.024,17.833l-.341,5.661c-14.6-3.059-43.777-11.726-48.208-13.018C473.257,455.935,470.008,453.536,468.659,450.994Z" fill="#828291"/><path d="M453.925,358.946s-.364,33.088-43.4,25.171" fill="none" stroke="#fa968c" stroke-linecap="round" stroke-miterlimit="10" stroke-width="11.644"/><path d="M441.979,367.418c1-2.143,4.868-10.5,5.349-12.538l.024-.1c.04-.162.086-.325.139-.486a5.831,5.831,0,0,1,11.069,3.673,72.791,72.791,0,0,1-3.1,7.765c-.791,1.669-1.656,3.3-2.557,4.922C451.9,369.888,441.972,367.433,441.979,367.418Z" fill="#aac85a"/><path d="M454.847,407.191c4.825,3.979,24.965,3.174,32.438,2.724a3.191,3.191,0,0,0,2.985-3.67c-.8-4.737-4.092-12.889-6.073-21.358-2.855-12.2-5.577-25.743-7.009-33.064a5.689,5.689,0,0,0-6.517-4.518l-18.335,3.03a5.494,5.494,0,0,0-4.589,5.867c.483,5.906,1.323,16.167,2.14,26.228C450.715,392.64,449.7,402.946,454.847,407.191Z" fill="#fab9af"/><path d="M452.163,350.364l2.979-.492a7.407,7.407,0,0,0,13.278-2.2l2.72-.45a5.2,5.2,0,0,1,5.958,4.129c1.406,7.2,4.184,21.064,7.1,33.531,2.012,8.6,5.322,16.512,6.065,21.318a3.241,3.241,0,0,1-3.027,3.713c-7.513.45-27.574,1.244-32.389-2.727-5.148-4.245-4.132-14.551-4.96-24.761-.826-10.162-1.673-20.529-2.153-26.406A5.3,5.3,0,0,1,452.163,350.364Z" fill="#82be50"/><path d="M4.92,0h.357a0,0,0,0,1,0,0V12.185a0,0,0,0,1,0,0H0a0,0,0,0,1,0,0V4.92A4.92,4.92,0,0,1,4.92,0Z" transform="matrix(-0.961, 0.276, -0.276, -0.961, 466.974, 338.91)" fill="#cd5014"/><path d="M457.789,350.373l8.842-.648.312-1.271-5.178-9.293-6.141,2.613Z" fill="#fab9af"/><path d="M455.624,341.774l6.14-2.613,2.08,3.732c-.964,2.014-2.136,4.248-4.453,4.912a4.175,4.175,0,0,1-2.272-.059Z" fill="#fa968c"/><path d="M458.687,345.575h0a8.086,8.086,0,0,0,5.547-10l-2.487-8.66-13.341,3.825a70.324,70.324,0,0,0,4.222,11.044C454.341,344.994,456.5,346.2,458.687,345.575Z" fill="#fab9af"/><rect width="2.608" height="1.182" transform="matrix(-0.961, 0.276, -0.276, -0.961, 463.74, 331.166)" fill="#cd5014"/><path d="M461.5,334.582c.485,1.69,1.687,2.828,2.686,2.542s1.463-2.817.978-4.507A2.062,2.062,0,0,0,462.431,331C461.433,331.29,461.017,332.892,461.5,334.582Z" fill="#fab9af"/><path d="M448.5,334.563a7.786,7.786,0,0,1-1.144-3.264s-1.164-3.851.143-5.022c1.19-1.067,3.79-.882,5.385-.985a28.352,28.352,0,0,0,4.5-1.293,5.1,5.1,0,0,1,6.3,3.491l.3,1.048-1.63,2.674-.051,2.217-.177.051a1.683,1.683,0,0,1-2.049-1.05,2.655,2.655,0,0,0-3.186-1.858l-4,1.146c-2.433.7-3.323,2.365-2.8,4.183l.567,1.5Z" fill="#cd5014"/><path d="M415.235,354.976l-.812-2.075a8.569,8.569,0,0,0,1.033-7.381,8.823,8.823,0,0,0-11.191-5.417,8.581,8.581,0,0,0,.981,16.38l.811,2.076L383.41,367.4a3.834,3.834,0,0,0-2.177,4.965L390,394.79l-1.2.47a8.586,8.586,0,0,0-7.387-1.032,8.815,8.815,0,0,0-5.42,11.185,8.589,8.589,0,0,0,16.391-.981l1.2-.469,8.767,22.424a3.836,3.836,0,0,0,4.968,2.175l54.059-21.1a3.832,3.832,0,0,0,2.177-4.965l-21.118-54.022a3.836,3.836,0,0,0-4.968-2.175Z" fill="#fa735f"/><path d="M479.506,352.579c.77,14.5-7.356,31.7-24.456,35.89-13.592,3.36-28.217-.394-41.118-5.9a1.672,1.672,0,0,1,1-3.172l.022,0c17.95,3.805,40.884,6.3,49.376-10.05a34.56,34.56,0,0,0,3.545-16.394C467.78,345.427,479.1,345.059,479.506,352.579Z" fill="#fab9af"/><path d="M466.125,364.1a69.695,69.695,0,0,0,1.552-11.212v.176l.981-3.911s1.872-3.133,6.991-1.92c4.09.969,4.062,5.612,4.062,5.612.011.644,1.49,5.286-2.519,15.366C477.192,368.211,465.935,364.961,466.125,364.1Z" fill="#aac85a"/><path d="M415.913,379.651c-1.13-1.317-1.428-5.937-2.064-5.937-.457,0-.538,1.6-.548,2.491a.268.268,0,0,1-.445.2c-1.282-1.129-4.9-4.258-5.273-3.959s1.543,2.636,2.2,3.41a.065.065,0,0,1,0,.082.066.066,0,0,1-.081.017c-1.01-.512-4.313-2.128-4.389-1.437-.073.658,2.8,2.487,3.918,3.175a.065.065,0,0,1,.025.082.064.064,0,0,1-.077.036c-1.257-.373-4.492-1.27-4.565-.685s3.053,1.934,4.178,2.395a.064.064,0,0,1,.038.074.065.065,0,0,1-.068.05c-1.108-.087-3.969-.271-3.529.17.545.545,7.436,2.8,8.98,2.8S415.913,379.651,415.913,379.651Z" fill="#fab9af"/><rect width="59.244" height="13.876" transform="translate(282.655 315.991)" fill="#c8e6eb"/><rect width="59.244" height="13.876" transform="translate(282.655 336.805)" fill="#c8e6eb"/><rect width="59.244" height="13.876" transform="translate(282.655 357.619)" fill="#c8e6eb"/><rect width="59.244" height="13.876" transform="translate(282.655 378.433)" fill="#c8e6eb"/><rect width="260.119" height="15.263" transform="translate(182.681 279.914)" fill="#c8e6eb"/><path d="M7.288,0H86.92a7.288,7.288,0,0,1,7.288,7.288V25.644a7.288,7.288,0,0,1-7.288,7.288H7.287A7.287,7.287,0,0,1,0,25.645V7.288A7.288,7.288,0,0,1,7.288,0Z" transform="translate(215.361 254.335)" fill="#39ae96"/><rect width="7.568" height="7.568" transform="matrix(0.707, 0.707, -0.707, 0.707, 290.203, 281.835)" fill="#39ae96"/><rect width="69.777" height="2.583" transform="translate(226.55 262.672)" fill="#fff"/><rect width="69.777" height="2.583" transform="translate(226.55 269.517)" fill="#fff"/><rect width="69.777" height="2.582" transform="translate(226.55 276.362)" fill="#fff"/><rect width="7.566" height="7.571" transform="matrix(0, 1, -1, 0, 293.481, 387.601)" fill="#41a0d7"/><ellipse cx="29.71" cy="29.69" rx="29.71" ry="29.69" transform="translate(239.887 382.57)" fill="#05cdff"/><path d="M260.643,412.349a2.415,2.415,0,1,1-2.416-2.414A2.415,2.415,0,0,1,260.643,412.349Z" fill="#fff"/><path d="M271.235,412.349a2.415,2.415,0,1,1-2.416-2.414A2.414,2.414,0,0,1,271.235,412.349Z" fill="#fff"/><path d="M281.826,412.349a2.415,2.415,0,1,1-2.415-2.414A2.414,2.414,0,0,1,281.826,412.349Z" fill="#fff"/></g></svg>