<svg id="Combined_Shape" data-name="Combined Shape" xmlns="http://www.w3.org/2000/svg" width="19.858" height="19.858" viewBox="0 0 19.858 19.858">
  <path id="Combined_Shape-2" data-name="Combined Shape" d="M9.929,19.858a9.929,9.929,0,1,1,9.929-9.929A9.94,9.94,0,0,1,9.929,19.858Zm-5.486-5.5h0a6.75,6.75,0,0,0,10.39-5.687c0-.111,0-.211-.006-.307a4.792,4.792,0,0,0,1.184-1.228,4.725,4.725,0,0,1-1.363.373A2.379,2.379,0,0,0,15.691,6.2a4.752,4.752,0,0,1-1.507.575,2.376,2.376,0,0,0-4.045,2.165,6.76,6.76,0,0,1-4.891-2.48,2.376,2.376,0,0,0,.734,3.169,2.373,2.373,0,0,1-1.075-.3v.03a2.379,2.379,0,0,0,1.9,2.327,2.393,2.393,0,0,1-1.072.041,2.375,2.375,0,0,0,2.218,1.649,4.795,4.795,0,0,1-3.514.982Z" fill="#fff"/>
</svg>
