<svg width="21" height="21" viewBox="0 0 21 21" fill="none" xmlns="http://www.w3.org/2000/svg">
<path d="M15.4999 9.99991C16.9586 9.99991 18.3575 10.5794 19.389 11.6108C20.4204 12.6423 20.9999 14.0412 20.9999 15.4999C20.9999 16.9586 20.4204 18.3575 19.389 19.389C18.3575 20.4204 16.9586 20.9999 15.4999 20.9999C14.0412 20.9999 12.6423 20.4204 11.6108 19.389C10.5794 18.3575 9.99991 16.9586 9.99991 15.4999C9.99991 14.0412 10.5794 12.6423 11.6108 11.6108C12.6423 10.5794 14.0412 9.99991 15.4999 9.99991ZM10.0219 11.9999C9.72257 12.4675 9.48461 12.9716 9.31391 13.4999H2.25391C2.05499 13.4999 1.86423 13.5789 1.72358 13.7196C1.58292 13.8602 1.50391 14.051 1.50391 14.2499V15.1569C1.50391 15.8129 1.78991 16.4359 2.28691 16.8629C3.54491 17.9449 5.43991 18.5009 7.99991 18.5009C8.59891 18.5009 9.16191 18.4709 9.68791 18.4099C9.93791 18.9099 10.2509 19.3739 10.6179 19.7899C9.81491 19.9309 8.94191 19.9999 7.99991 19.9999C5.10991 19.9999 2.87191 19.3439 1.30891 17.9999C0.899551 17.6479 0.57103 17.2116 0.345803 16.721C0.120576 16.2303 0.00395248 15.6968 0.00390625 15.1569V14.2499C0.00390625 13.6532 0.240959 13.0809 0.662916 12.6589C1.08487 12.237 1.65717 11.9999 2.25391 11.9999H10.0219ZM13.0929 12.9659L13.0229 13.0239L12.9659 13.0939C12.9083 13.1774 12.8774 13.2765 12.8774 13.3779C12.8774 13.4794 12.9083 13.5784 12.9659 13.6619L13.0239 13.7309L14.7939 15.5009L13.0259 17.2669L12.9689 17.3369C12.9113 17.4204 12.8804 17.5195 12.8804 17.6209C12.8804 17.7224 12.9113 17.8214 12.9689 17.9049L13.0269 17.9749L13.0959 18.0319C13.1794 18.0895 13.2785 18.1204 13.3799 18.1204C13.4814 18.1204 13.5804 18.0895 13.6639 18.0319L13.7339 17.9739L15.4999 16.2069L17.2699 17.9769L17.3389 18.0349C17.4224 18.0925 17.5215 18.1234 17.6229 18.1234C17.7244 18.1234 17.8234 18.0925 17.9069 18.0349L17.9769 17.9769L18.0349 17.9069C18.0925 17.8234 18.1234 17.7244 18.1234 17.6229C18.1234 17.5215 18.0925 17.4224 18.0349 17.3389L17.9769 17.2689L16.2069 15.5009L17.9789 13.7309L18.0369 13.6609C18.0945 13.5774 18.1254 13.4784 18.1254 13.3769C18.1254 13.2755 18.0945 13.1764 18.0369 13.0929L17.9789 13.0239L17.9099 12.9659C17.8263 12.9081 17.7271 12.8771 17.6254 12.8771C17.5237 12.8771 17.4245 12.9081 17.3409 12.9659L17.2719 13.0239L15.5009 14.7939L13.7309 13.0239L13.6609 12.9659C13.5896 12.9168 13.5068 12.887 13.4206 12.8794C13.3343 12.8719 13.2476 12.8869 13.1689 12.9229L13.0929 12.9659ZM7.99991 0.00390625C9.32599 0.00390625 10.5978 0.53069 11.5354 1.46837C12.4731 2.40605 12.9999 3.67782 12.9999 5.00391C12.9999 6.32999 12.4731 7.60176 11.5354 8.53944C10.5978 9.47712 9.32599 10.0039 7.99991 10.0039C6.67382 10.0039 5.40205 9.47712 4.46437 8.53944C3.52669 7.60176 2.99991 6.32999 2.99991 5.00391C2.99991 3.67782 3.52669 2.40605 4.46437 1.46837C5.40205 0.53069 6.67382 0.00390625 7.99991 0.00390625ZM7.99991 1.50391C7.54028 1.50391 7.08515 1.59444 6.66051 1.77033C6.23588 1.94622 5.85004 2.20403 5.52503 2.52903C5.20003 2.85404 4.94222 3.23987 4.76633 3.66451C4.59044 4.08915 4.49991 4.54428 4.49991 5.00391C4.49991 5.46353 4.59044 5.91866 4.76633 6.3433C4.94222 6.76794 5.20003 7.15378 5.52503 7.47878C5.85004 7.80379 6.23588 8.06159 6.66051 8.23748C7.08515 8.41338 7.54028 8.50391 7.99991 8.50391C8.92816 8.50391 9.8184 8.13516 10.4748 7.47878C11.1312 6.8224 11.4999 5.93216 11.4999 5.00391C11.4999 4.07565 11.1312 3.18541 10.4748 2.52903C9.8184 1.87266 8.92816 1.50391 7.99991 1.50391Z" fill="white"/>
</svg>
