<svg width="24" height="24" viewBox="0 0 24 24" fill="current" stroke="current" xmlns="http://www.w3.org/2000/svg">
<path d="M20.238 6.28894C17.142 5.25694 13.361 3.296 12.55 2.474C12.41 2.332 12.22 2.252 12.021 2.25C11.844 2.254 11.631 2.32694 11.489 2.46594C10.516 3.42494 7.56696 5.34294 3.79596 6.40894C3.47296 6.49994 3.25 6.79498 3.25 7.13098C3.25 15.362 4.52898 19.6459 11.795 21.7219C11.862 21.7409 11.932 21.751 12.001 21.751C12.07 21.751 12.14 21.7409 12.207 21.7219C19.517 19.6329 20.75 15.493 20.75 7.00098C20.751 6.67798 20.544 6.39094 20.238 6.28894ZM12.002 20.22C5.99695 18.443 4.80599 15.325 4.75299 7.69202C8.05899 6.67202 10.694 5.08297 12.031 3.99097C13.55 5.11597 16.777 6.65303 19.25 7.53503C19.2 15.282 18.013 18.44 12.002 20.22Z" fill="current"/>
</svg>
