<svg width="9" height="9" viewBox="0 0 9 9" fill="none" xmlns="http://www.w3.org/2000/svg">
<path d="M0.413465 5.17851C0.488817 5.11112 0.587925 5.07698 0.687019 5.07698C0.786112 5.07698 0.88522 5.11066 0.960573 5.17851L3.91271 7.81852L3.91271 0.346158C3.91271 0.155078 4.08613 -3.87782e-07 4.2998 -3.68119e-07C4.51347 -3.48456e-07 4.68688 0.155079 4.68688 0.346158L4.68688 7.81807L7.63902 5.17806C7.79024 5.04282 8.03541 5.04282 8.18663 5.17806C8.33785 5.31329 8.33785 5.53254 8.18663 5.66777L4.57386 8.89858C4.42263 9.03381 4.17746 9.03381 4.02624 8.89858L0.413465 5.66777C0.262244 5.53254 0.262244 5.31374 0.413465 5.17851Z" fill="#0F2978"/>
</svg>
