<svg width="9" height="9" viewBox="0 0 9 9" fill="none" xmlns="http://www.w3.org/2000/svg">
<path d="M8.53697 3.82149C8.46162 3.88888 8.36251 3.92302 8.26342 3.92302C8.16433 3.92302 8.06522 3.88934 7.98987 3.82149L5.03773 1.18148V8.65384C5.03773 8.84492 4.86431 9 4.65064 9C4.43697 9 4.26356 8.84492 4.26356 8.65384V1.18193L1.31142 3.82194C1.1602 3.95718 0.915027 3.95718 0.763806 3.82194C0.612585 3.68671 0.612585 3.46746 0.763806 3.33223L4.37658 0.101424C4.52781 -0.0338081 4.77298 -0.0338081 4.9242 0.101424L8.53697 3.33223C8.6882 3.46746 8.6882 3.68626 8.53697 3.82149Z" fill="#0F2978"/>
</svg>
