<svg width="38" height="40" viewBox="0 0 38 40" fill="none" xmlns="http://www.w3.org/2000/svg">
<path d="M14.537 19.8215C14.4616 19.8889 14.3625 19.923 14.2634 19.923C14.1643 19.923 14.0652 19.8893 13.9899 19.8215L11.0377 17.1815V24.6538C11.0377 24.8449 10.8643 25 10.6506 25C10.437 25 10.2636 24.8449 10.2636 24.6538V17.1819L7.31142 19.8219C7.1602 19.9572 6.91503 19.9572 6.76381 19.8219C6.61259 19.6867 6.61259 19.4675 6.76381 19.3322L10.3766 16.1014C10.5278 15.9662 10.773 15.9662 10.9242 16.1014L14.537 19.3322C14.6882 19.4675 14.6882 19.6863 14.537 19.8215Z" fill="#0F2978" stroke="#0F2978" stroke-width="0.5"/>
</svg>
