<svg width="21" height="17" viewBox="0 0 21 17" fill="current" xmlns="http://www.w3.org/2000/svg">
<path d="M6.73077 0C5.07985 0 3.70139 1.10242 3.33416 2.57576H0.807692C0.361846 2.57576 0 2.92194 0 3.34848C0 3.77503 0.361846 4.12121 0.807692 4.12121H3.33416C3.70139 5.59454 5.07985 6.69697 6.73077 6.69697C8.66062 6.69697 10.2308 5.19479 10.2308 3.34848C10.2308 1.50218 8.66062 0 6.73077 0ZM6.73077 5.15152C5.69154 5.15152 4.84615 4.34273 4.84615 3.34848C4.84615 2.35424 5.69154 1.54545 6.73077 1.54545C7.77 1.54545 8.61539 2.35424 8.61539 3.34848C8.61539 4.34273 7.77 5.15152 6.73077 5.15152ZM12.9231 3.34848C12.9231 2.92194 13.2849 2.57576 13.7308 2.57576H20.1923C20.6382 2.57576 21 2.92194 21 3.34848C21 3.77503 20.6382 4.12121 20.1923 4.12121H13.7308C13.2849 4.12121 12.9231 3.77503 12.9231 3.34848ZM20.1923 12.8788H17.6658C17.2986 11.4055 15.9202 10.303 14.2692 10.303C12.3394 10.303 10.7692 11.8052 10.7692 13.6515C10.7692 15.4978 12.3394 17 14.2692 17C15.9202 17 17.2986 15.8976 17.6658 14.4242H20.1923C20.6382 14.4242 21 14.0781 21 13.6515C21 13.225 20.6382 12.8788 20.1923 12.8788ZM14.2692 15.4545C13.23 15.4545 12.3846 14.6458 12.3846 13.6515C12.3846 12.6573 13.23 11.8485 14.2692 11.8485C15.3085 11.8485 16.1538 12.6573 16.1538 13.6515C16.1538 14.6458 15.3085 15.4545 14.2692 15.4545ZM8.07692 13.6515C8.07692 14.0781 7.71508 14.4242 7.26923 14.4242H0.807692C0.361846 14.4242 0 14.0781 0 13.6515C0 13.225 0.361846 12.8788 0.807692 12.8788H7.26923C7.71508 12.8788 8.07692 13.225 8.07692 13.6515Z" fill="current"/>
</svg>
