<svg width="24" height="24" viewBox="0 0 24 24" fill="current" stroke="current" xmlns="http://www.w3.org/2000/svg">
<path d="M19.978 7.31495L14.978 3.29354C13.252 1.90606 10.748 1.90606 9.022 3.29354L4.022 7.31495C2.896 8.22026 2.25 9.56771 2.25 11.0122V17.0063C2.25 19.6232 4.381 21.7529 7 21.7529H9.75V17.0063C9.75 15.7679 10.759 14.7595 12 14.7595C13.241 14.7595 14.25 15.7679 14.25 17.0063V21.7529H17C19.619 21.7529 21.75 19.6242 21.75 17.0063V11.0122C21.75 9.56771 21.104 8.22026 19.978 7.31495ZM20.25 17.0063C20.25 18.7959 18.792 20.2524 17 20.2524H15.75V17.0063C15.75 14.9406 14.068 13.259 12 13.259C9.932 13.259 8.25 14.9406 8.25 17.0063V20.2524H7C5.208 20.2524 3.75 18.7959 3.75 17.0063V11.0122C3.75 10.0249 4.191 9.10358 4.961 8.48436L9.961 4.46295C11.143 3.51362 12.857 3.51362 14.038 4.46295L19.038 8.48436C19.808 9.10358 20.249 10.0249 20.249 11.0122V17.0063H20.25Z" fill="current" />
</svg>
