<svg width="18" height="18" viewBox="0 0 18 18" fill="current" xmlns="http://www.w3.org/2000/svg">
<path d="M16.1477 15.3517L12.6272 11.8313C13.5227 10.758 14.0627 9.37875 14.0627 7.875C14.0627 4.46325 11.2869 1.6875 7.87518 1.6875C4.46343 1.6875 1.68768 4.46325 1.68768 7.875C1.68768 11.2867 4.46343 14.0625 7.87518 14.0625C9.37893 14.0625 10.7582 13.5225 11.8314 12.627L15.3519 16.1475C15.4614 16.257 15.6054 16.3125 15.7494 16.3125C15.8934 16.3125 16.0374 16.2578 16.1469 16.1475C16.3674 15.9278 16.3674 15.5715 16.1477 15.3517ZM2.81268 7.875C2.81268 5.0835 5.08368 2.8125 7.87518 2.8125C10.6667 2.8125 12.9377 5.0835 12.9377 7.875C12.9377 10.6665 10.6667 12.9375 7.87518 12.9375C5.08368 12.9375 2.81268 10.6665 2.81268 7.875Z" fill="current"/>
</svg>
