<svg width="24" height="24" viewBox="0 0 24 24" fill="none" xmlns="http://www.w3.org/2000/svg">
<path d="M21.5302 20.469L16.8362 15.775C18.0302 14.344 18.7502 12.505 18.7502 10.5C18.7502 5.951 15.0492 2.25 10.5002 2.25C5.95124 2.25 2.25024 5.951 2.25024 10.5C2.25024 15.049 5.95124 18.75 10.5002 18.75C12.5052 18.75 14.3442 18.0301 15.7752 16.8361L20.4692 21.53C20.6152 21.676 20.8072 21.75 20.9992 21.75C21.1912 21.75 21.3832 21.677 21.5292 21.53C21.8232 21.237 21.8232 20.762 21.5302 20.469ZM3.75024 10.5C3.75024 6.778 6.77824 3.75 10.5002 3.75C14.2222 3.75 17.2502 6.778 17.2502 10.5C17.2502 14.222 14.2222 17.25 10.5002 17.25C6.77824 17.25 3.75024 14.222 3.75024 10.5Z" fill="#BBC0D0"/>
<path d="M21.5302 20.469L21.707 20.2922L21.707 20.2922L21.5302 20.469ZM16.8362 15.775L16.6443 15.6149L16.4979 15.7903L16.6595 15.9518L16.8362 15.775ZM15.7752 16.8361L15.952 16.6593L15.7905 16.4977L15.6151 16.6441L15.7752 16.8361ZM20.4692 21.53L20.646 21.3533L20.646 21.3533L20.4692 21.53ZM21.5292 21.53L21.3528 21.3529L21.3519 21.3539L21.5292 21.53ZM21.707 20.2922L17.013 15.5982L16.6595 15.9518L21.3535 20.6458L21.707 20.2922ZM17.0282 15.9352C18.2581 14.4611 19.0002 12.566 19.0002 10.5H18.5002C18.5002 12.444 17.8024 14.2269 16.6443 15.6149L17.0282 15.9352ZM19.0002 10.5C19.0002 5.81293 15.1873 2 10.5002 2V2.5C14.9112 2.5 18.5002 6.08907 18.5002 10.5H19.0002ZM10.5002 2C5.81317 2 2.00024 5.81293 2.00024 10.5H2.50024C2.50024 6.08907 6.08932 2.5 10.5002 2.5V2ZM2.00024 10.5C2.00024 15.1871 5.81317 19 10.5002 19V18.5C6.08932 18.5 2.50024 14.9109 2.50024 10.5H2.00024ZM10.5002 19C12.5662 19 14.4614 18.2579 15.9354 17.028L15.6151 16.6441C14.2271 17.8022 12.4443 18.5 10.5002 18.5V19ZM15.5985 17.0128L20.2925 21.7068L20.646 21.3533L15.952 16.6593L15.5985 17.0128ZM20.2925 21.7068C20.4869 21.9012 20.7431 22 20.9992 22V21.5C20.8713 21.5 20.7436 21.4508 20.646 21.3533L20.2925 21.7068ZM20.9992 22C21.2546 22 21.5114 21.9027 21.7066 21.7062L21.3519 21.3539C21.255 21.4513 21.1279 21.5 20.9992 21.5V22ZM21.7057 21.7071C22.0977 21.3165 22.0977 20.6829 21.707 20.2922L21.3535 20.6458C21.5488 20.8411 21.5488 21.1576 21.3528 21.353L21.7057 21.7071ZM4.00024 10.5C4.00024 6.91607 6.91632 4 10.5002 4V3.5C6.64017 3.5 3.50024 6.63993 3.50024 10.5H4.00024ZM10.5002 4C14.0842 4 17.0002 6.91607 17.0002 10.5H17.5002C17.5002 6.63993 14.3603 3.5 10.5002 3.5V4ZM17.0002 10.5C17.0002 14.0839 14.0842 17 10.5002 17V17.5C14.3603 17.5 17.5002 14.3601 17.5002 10.5H17.0002ZM10.5002 17C6.91632 17 4.00024 14.0839 4.00024 10.5H3.50024C3.50024 14.3601 6.64017 17.5 10.5002 17.5V17Z" fill="#BBC0D0"/>
</svg>
